<svg xmlns="http://www.w3.org/2000/svg" xmlns:xlink="http://www.w3.org/1999/xlink" viewBox="0 0 328.7 322"><defs><style>.cls-1{fill:none;}.cls-2{isolation:isolate;}.cls-3{fill:#0c0f38;}.cls-10,.cls-3{opacity:0.1;}.cls-4{fill:url(#Áåçûìÿííûé_ãðàäèåíò_2);}.cls-5{fill:url(#Áåçûìÿííûé_ãðàäèåíò_377);}.cls-6{fill:url(#Áåçûìÿííûé_ãðàäèåíò_388);}.cls-7{fill:#d4088c;}.cls-8{fill:#6ee8fc;}.cls-9{fill:url(#Áåçûìÿííûé_ãðàäèåíò_300);}.cls-10{fill:#370175;}.cls-11{fill:#6de0f6;}.cls-12{fill:#267fe5;}.cls-13{fill:#480689;}.cls-14{fill:url(#Áåçûìÿííûé_ãðàäèåíò_2-2);}.cls-15{fill:url(#Áåçûìÿííûé_ãðàäèåíò_377-2);}.cls-16{fill:url(#Áåçûìÿííûé_ãðàäèåíò_388-2);}.cls-17{fill:url(#Áåçûìÿííûé_ãðàäèåíò_300-2);}.cls-18{fill:url(#Áåçûìÿííûé_ãðàäèåíò_2-3);}.cls-19{fill:url(#Áåçûìÿííûé_ãðàäèåíò_377-3);}.cls-20{fill:url(#Áåçûìÿííûé_ãðàäèåíò_388-3);}.cls-21{fill:url(#Áåçûìÿííûé_ãðàäèåíò_300-3);}.cls-22{fill:url(#Áåçûìÿííûé_ãðàäèåíò_102);}.cls-23{fill:url(#Áåçûìÿííûé_ãðàäèåíò_377-4);}.cls-24{fill:url(#Áåçûìÿííûé_ãðàäèåíò_388-4);}.cls-25{fill:url(#Áåçûìÿííûé_ãðàäèåíò_300-4);}.cls-26{fill:url(#Áåçûìÿííûé_ãðàäèåíò_102-2);}.cls-27{fill:url(#Áåçûìÿííûé_ãðàäèåíò_377-5);}.cls-28{fill:url(#Áåçûìÿííûé_ãðàäèåíò_388-5);}.cls-29{fill:url(#Áåçûìÿííûé_ãðàäèåíò_300-5);}.cls-30{fill:url(#Áåçûìÿííûé_ãðàäèåíò_388-6);}.cls-31{fill:url(#Áåçûìÿííûé_ãðàäèåíò_377-6);}.cls-32{fill:url(#Áåçûìÿííûé_ãðàäèåíò_388-7);}.cls-33{fill:url(#Áåçûìÿííûé_ãðàäèåíò_300-6);}.cls-34{fill:url(#Áåçûìÿííûé_ãðàäèåíò_302);}.cls-35{clip-path:url(#clip-path);}.cls-36{fill:#25bfec;}.cls-37{fill:#18d0f7;}.cls-38,.cls-46{opacity:0.2;}.cls-38,.cls-39,.cls-46,.cls-47{mix-blend-mode:lighten;}.cls-38{fill:url(#linear-gradient);}.cls-39,.cls-47{opacity:0.25;}.cls-39{fill:url(#linear-gradient-2);}.cls-40{fill:url(#Áåçûìÿííûé_ãðàäèåíò_388-8);}.cls-41{fill:url(#Áåçûìÿííûé_ãðàäèåíò_377-7);}.cls-42{fill:url(#Áåçûìÿííûé_ãðàäèåíò_388-9);}.cls-43{fill:url(#Áåçûìÿííûé_ãðàäèåíò_300-7);}.cls-44{fill:url(#Áåçûìÿííûé_ãðàäèåíò_302-2);}.cls-45{clip-path:url(#clip-path-2);}.cls-46{fill:url(#linear-gradient-3);}.cls-47{fill:url(#linear-gradient-4);}</style><linearGradient id="Áåçûìÿííûé_ãðàäèåíò_2" x1="3839.74" y1="266.31" x2="3923.14" y2="266.31" gradientTransform="matrix(-1, 0, 0, 1, 4343.98, 0)" gradientUnits="userSpaceOnUse"><stop offset="0" stop-color="#6ee8fc"/><stop offset="0.22" stop-color="#6ee8fc"/><stop offset="0.49" stop-color="#6ee1f8"/><stop offset="0.77" stop-color="#d4088c"/><stop offset="1" stop-color="#d4088c"/></linearGradient><linearGradient id="Áåçûìÿííûé_ãðàäèåíò_377" x1="2040.26" y1="167.85" x2="2125.78" y2="167.85" gradientTransform="translate(-1619.5)" gradientUnits="userSpaceOnUse"><stop offset="0" stop-color="#a31fa9"/><stop offset="0.07" stop-color="#8b17a0"/><stop offset="0.15" stop-color="#740f98"/><stop offset="0.24" stop-color="#640a92"/><stop offset="0.34" stop-color="#5b078f"/><stop offset="0.48" stop-color="#58068e"/><stop offset="0.63" stop-color="#4d22a3"/><stop offset="0.94" stop-color="#3168da"/><stop offset="1" stop-color="#2c75e4"/></linearGradient><linearGradient id="Áåçûìÿííûé_ãðàäèåíò_388" x1="2040.26" y1="242.22" x2="2125.78" y2="242.22" gradientTransform="translate(-1619.5)" gradientUnits="userSpaceOnUse"><stop offset="0" stop-color="#d4088c"/><stop offset="0.23" stop-color="#d4088c"/><stop offset="0.51" stop-color="#6ee1f8"/><stop offset="0.78" stop-color="#6ee8fc"/><stop offset="1" stop-color="#6ee8fc"/></linearGradient><linearGradient id="Áåçûìÿííûé_ãðàäèåíò_300" x1="1490.21" y1="-230.81" x2="1530.54" y2="-265.74" gradientTransform="matrix(0.87, 0.5, -1, 0.58, -1094.46, -518.49)" gradientUnits="userSpaceOnUse"><stop offset="0" stop-color="#8d139b"/><stop offset="0.17" stop-color="#851ba1"/><stop offset="0.43" stop-color="#6e33b2"/><stop offset="0.76" stop-color="#4958cd"/><stop offset="1" stop-color="#2979e4"/></linearGradient><linearGradient id="Áåçûìÿííûé_ãðàäèåíò_2-2" x1="4022.6" y1="266.31" x2="4106" y2="266.31" xlink:href="#Áåçûìÿííûé_ãðàäèåíò_2"/><linearGradient id="Áåçûìÿííûé_ãðàäèåíò_377-2" x1="1857.4" y1="167.85" x2="1942.92" y2="167.85" xlink:href="#Áåçûìÿííûé_ãðàäèåíò_377"/><linearGradient id="Áåçûìÿííûé_ãðàäèåíò_388-2" x1="1857.4" y1="242.22" x2="1942.92" y2="242.22" xlink:href="#Áåçûìÿííûé_ãðàäèåíò_388"/><linearGradient id="Áåçûìÿííûé_ãðàäèåíò_300-2" x1="1384.63" y1="-139.38" x2="1424.96" y2="-174.31" xlink:href="#Áåçûìÿííûé_ãðàäèåíò_300"/><linearGradient id="Áåçûìÿííûé_ãðàäèåíò_2-3" x1="3931.39" y1="329.49" x2="4014.78" y2="329.49" xlink:href="#Áåçûìÿííûé_ãðàäèåíò_2"/><linearGradient id="Áåçûìÿííûé_ãðàäèåíò_377-3" x1="1948.62" y1="231.03" x2="2034.14" y2="231.03" xlink:href="#Áåçûìÿííûé_ãðàäèåíò_377"/><linearGradient id="Áåçûìÿííûé_ãðàäèåíò_388-3" x1="1948.62" y1="305.4" x2="2034.14" y2="305.4" xlink:href="#Áåçûìÿííûé_ãðàäèåíò_388"/><linearGradient id="Áåçûìÿííûé_ãðàäèåíò_300-3" x1="1500.47" y1="-130.27" x2="1540.81" y2="-165.21" xlink:href="#Áåçûìÿííûé_ãðàäèåíò_300"/><linearGradient id="Áåçûìÿííûé_ãðàäèåíò_102" x1="482.48" y1="327.84" x2="535.36" y2="327.84" gradientTransform="matrix(1, 0, 0, 1, 0, 0)" xlink:href="#Áåçûìÿííûé_ãðàäèåíò_388"/><linearGradient id="Áåçûìÿííûé_ãðàäèåíò_377-4" x1="483.53" y1="318.91" x2="535.56" y2="318.91" gradientTransform="matrix(1, 0, 0, 1, 0, 0)" xlink:href="#Áåçûìÿííûé_ãðàäèåíò_377"/><linearGradient id="Áåçûìÿííûé_ãðàäèåíò_388-4" x1="483.53" y1="324.68" x2="535.56" y2="324.68" gradientTransform="matrix(1, 0, 0, 1, 0, 0)" xlink:href="#Áåçûìÿííûé_ãðàäèåíò_388"/><linearGradient id="Áåçûìÿííûé_ãðàäèåíò_300-4" x1="806.37" y1="736.07" x2="830.87" y2="714.84" gradientTransform="matrix(0.87, 0.5, -1, 0.58, 525, -518.49)" xlink:href="#Áåçûìÿííûé_ãðàäèåíò_300"/><linearGradient id="Áåçûìÿííûé_ãðàäèåíò_102-2" x1="206.64" y1="327.84" x2="259.52" y2="327.84" gradientTransform="matrix(1, 0, 0, 1, 0, 0)" xlink:href="#Áåçûìÿííûé_ãðàäèåíò_388"/><linearGradient id="Áåçûìÿííûé_ãðàäèåíò_377-5" x1="207.69" y1="318.91" x2="259.72" y2="318.91" gradientTransform="matrix(1, 0, 0, 1, 0, 0)" xlink:href="#Áåçûìÿííûé_ãðàäèåíò_377"/><linearGradient id="Áåçûìÿííûé_ãðàäèåíò_388-5" x1="207.69" y1="324.68" x2="259.72" y2="324.68" gradientTransform="matrix(1, 0, 0, 1, 0, 0)" xlink:href="#Áåçûìÿííûé_ãðàäèåíò_388"/><linearGradient id="Áåçûìÿííûé_ãðàäèåíò_300-5" x1="647.1" y1="873.98" x2="671.61" y2="852.76" gradientTransform="matrix(0.87, 0.5, -1, 0.58, 525, -518.49)" xlink:href="#Áåçûìÿííûé_ãðàäèåíò_300"/><linearGradient id="Áåçûìÿííûé_ãðàäèåíò_388-6" x1="393.56" y1="368.08" x2="486.63" y2="368.08" gradientTransform="matrix(1, 0, 0, 1, 0, 0)" xlink:href="#Áåçûìÿííûé_ãðàäèåíò_388"/><linearGradient id="Áåçûìÿííûé_ãðàäèåíò_377-6" x1="393.51" y1="311.93" x2="488.96" y2="311.93" gradientTransform="matrix(1, 0, 0, 1, 0, 0)" xlink:href="#Áåçûìÿííûé_ãðàäèåíò_377"/><linearGradient id="Áåçûìÿííûé_ãðàäèåíò_388-7" x1="393.51" y1="341.19" x2="488.96" y2="341.19" gradientTransform="matrix(1, 0, 0, 1, 0, 0)" xlink:href="#Áåçûìÿííûé_ãðàäèåíò_388"/><linearGradient id="Áåçûìÿííûé_ãðàäèåíò_300-6" x1="728.96" y1="756" x2="773.98" y2="717.01" gradientTransform="matrix(0.87, 0.5, -1, 0.58, 525, -518.49)" xlink:href="#Áåçûìÿííûé_ãðàäèåíò_300"/><linearGradient id="Áåçûìÿííûé_ãðàäèåíò_302" x1="734.84" y1="750.92" x2="768.35" y2="721.89" gradientTransform="matrix(0.87, 0.5, -1, 0.58, 525, -518.49)" gradientUnits="userSpaceOnUse"><stop offset="0" stop-color="#630692"/><stop offset="0.23" stop-color="#5b0e94"/><stop offset="0.59" stop-color="#432399"/><stop offset="1" stop-color="#2142a1"/></linearGradient><clipPath id="clip-path" transform="translate(-206.6 -73.1)"><path class="cls-1" d="M437.8,294.2l-18-10.4c-1.3-.7-1.1-2,.4-2.8l17.2-10a5.9,5.9,0,0,1,5-.2l18,10.4c1.2.7,1.1,2-.4,2.8l-17.2,10A5.9,5.9,0,0,1,437.8,294.2Z"/></clipPath><linearGradient id="linear-gradient" x1="440.11" y1="294.7" x2="440.11" y2="192.58" gradientUnits="userSpaceOnUse"><stop offset="0.01" stop-color="#25bfec"/><stop offset="0.04" stop-color="#24b6e3" stop-opacity="0.95"/><stop offset="0.19" stop-color="#208bb7" stop-opacity="0.7"/><stop offset="0.34" stop-color="#1c6692" stop-opacity="0.49"/><stop offset="0.48" stop-color="#194773" stop-opacity="0.31"/><stop offset="0.62" stop-color="#16305c" stop-opacity="0.18"/><stop offset="0.76" stop-color="#141f4b" stop-opacity="0.08"/><stop offset="0.89" stop-color="#131440" stop-opacity="0.02"/><stop offset="1" stop-color="#13113d" stop-opacity="0"/></linearGradient><linearGradient id="linear-gradient-2" x1="440.11" y1="293.59" x2="440.11" y2="201.17" gradientUnits="userSpaceOnUse"><stop offset="0.01" stop-color="#70e8fc"/><stop offset="0.07" stop-color="#66d0e7" stop-opacity="0.89"/><stop offset="0.22" stop-color="#509eba" stop-opacity="0.66"/><stop offset="0.36" stop-color="#3d7394" stop-opacity="0.46"/><stop offset="0.5" stop-color="#2e5075" stop-opacity="0.29"/><stop offset="0.64" stop-color="#22345c" stop-opacity="0.16"/><stop offset="0.77" stop-color="#1a214b" stop-opacity="0.07"/><stop offset="0.89" stop-color="#151541" stop-opacity="0.02"/><stop offset="1" stop-color="#13113d" stop-opacity="0"/></linearGradient><linearGradient id="Áåçûìÿííûé_ãðàäèåíò_388-8" x1="255.39" y1="368.08" x2="348.47" y2="368.08" gradientTransform="matrix(1, 0, 0, 1, 0, 0)" xlink:href="#Áåçûìÿííûé_ãðàäèåíò_388"/><linearGradient id="Áåçûìÿííûé_ãðàäèåíò_377-7" x1="255.35" y1="311.93" x2="350.8" y2="311.93" gradientTransform="matrix(1, 0, 0, 1, 0, 0)" xlink:href="#Áåçûìÿííûé_ãðàäèåíò_377"/><linearGradient id="Áåçûìÿííûé_ãðàäèåíò_388-9" x1="255.35" y1="341.19" x2="350.8" y2="341.19" gradientTransform="matrix(1, 0, 0, 1, 0, 0)" xlink:href="#Áåçûìÿííûé_ãðàäèåíò_388"/><linearGradient id="Áåçûìÿííûé_ãðàäèåíò_300-7" x1="649.19" y1="825.08" x2="694.21" y2="786.09" gradientTransform="matrix(0.87, 0.5, -1, 0.58, 525, -518.49)" xlink:href="#Áåçûìÿííûé_ãðàäèåíò_300"/><linearGradient id="Áåçûìÿííûé_ãðàäèåíò_302-2" x1="655.06" y1="819.99" x2="688.58" y2="790.97" xlink:href="#Áåçûìÿííûé_ãðàäèåíò_302"/><clipPath id="clip-path-2" transform="translate(-206.6 -73.1)"><path class="cls-1" d="M299.6,294.2l-17.9-10.4c-1.3-.7-1.2-2,.3-2.8l17.3-10a5.6,5.6,0,0,1,4.9-.2l18,10.4c1.3.7,1.1,2-.4,2.8l-17.2,10A5.9,5.9,0,0,1,299.6,294.2Z"/></clipPath><linearGradient id="linear-gradient-3" x1="301.95" y1="294.7" x2="301.95" y2="192.58" xlink:href="#linear-gradient"/><linearGradient id="linear-gradient-4" x1="301.95" y1="293.59" x2="301.95" y2="201.17" xlink:href="#linear-gradient-2"/></defs><title>database-3</title><g class="cls-2"><g id="Ñëîé_1" data-name="Ñëîé 1"><path class="cls-3" d="M466.4,285.7l29.8-17.2c2.1-1.2,1.9-3.3-.6-4.8L467,247.2c-2.5-1.4-6.2-1.6-8.3-.3l-29.8,17.2c-2.1,1.2-1.9,3.4.6,4.8l28.6,16.5C460.6,286.8,464.3,287,466.4,285.7Z" transform="translate(-206.6 -73.1)"/><path class="cls-4" d="M462.8,290.5a12.3,12.3,0,0,1-5.7-1.4l-33.7-19.5c-1.6-.9-2.6-2.2-2.6-3.5a3.3,3.3,0,0,1,1.9-2.7l35.1-20.3c2.6-1.5,7.2-1.3,10.1.4L501.7,263a4.3,4.3,0,0,1,2.5,3.5,3.1,3.1,0,0,1-1.8,2.7l-35.2,20.3A8.4,8.4,0,0,1,462.8,290.5Zm-.6-47.7a8.4,8.4,0,0,0-4,.9L423.1,264c-1,.6-1.6,1.3-1.6,2.1s.9,2.1,2.3,2.9l33.7,19.5c2.8,1.6,7,1.8,9.4.4L502,268.6a2.4,2.4,0,0,0,1.5-2.1,3.7,3.7,0,0,0-2.2-2.9l-33.7-19.5A10.8,10.8,0,0,0,462.2,242.8Z" transform="translate(-206.6 -73.1)"/><path class="cls-5" d="M497.6,93.3H482.8l-16.4-9.5c-2.1-1.2-5.8-1-8.3.4l-15.9,9.1H427.4V232.4h.1a2.2,2.2,0,0,0,1.4,2.2l29.8,17.3c2.1,1.2,5.8,1,8.3-.4L495.6,235a3.3,3.3,0,0,0,2-2.6h0Z" transform="translate(-206.6 -73.1)"/><path class="cls-6" d="M495.6,234.3,467,250.8c-2.5,1.4-6.2,1.6-8.3.4L428.9,234a2.4,2.4,0,0,1-1.4-2.3h-.1v.7h.1a2.2,2.2,0,0,0,1.4,2.2l29.8,17.3c2.1,1.2,5.8,1,8.3-.4L495.6,235a3.3,3.3,0,0,0,2-2.6h0v-.7h0A3.3,3.3,0,0,1,495.6,234.3Z" transform="translate(-206.6 -73.1)"/><path class="cls-7" d="M428.4,233.1h0V94h14.8L459,84.9c2.5-1.5,6.2-1.6,8.3-.4L483.8,94h13.8v-.7H482.8l-16.4-9.5c-2.1-1.2-5.8-1-8.3.4l-15.9,9.1H427.4V232.4h.1a2.2,2.2,0,0,0,1.4,2.2h.1A1.9,1.9,0,0,1,428.4,233.1Z" transform="translate(-206.6 -73.1)"/><path class="cls-8" d="M496.8,94.1V233.2h0a3.4,3.4,0,0,1-.7,1.5,3.2,3.2,0,0,0,1.5-2.3h0V93.4Z" transform="translate(-206.6 -73.1)"/><path class="cls-9" d="M458.7,112.8,428.9,95.6c-2.1-1.3-1.9-3.4.6-4.8l28.6-16.6c2.5-1.4,6.2-1.5,8.3-.3l29.8,17.2c2.1,1.2,1.9,3.4-.6,4.8L467,112.4C464.5,113.8,460.8,114,458.7,112.8Z" transform="translate(-206.6 -73.1)"/><path class="cls-8" d="M496.2,91.1,466.4,73.9a7.9,7.9,0,0,0-4.2-.8,7,7,0,0,1,3,.8L495,91.1c2.2,1.2,1.9,3.4-.6,4.8l-28.6,16.5a9.3,9.3,0,0,1-4.1,1.2,9.6,9.6,0,0,0,5.3-1.2l28.6-16.5C498.1,94.5,498.3,92.3,496.2,91.1Z" transform="translate(-206.6 -73.1)"/><path class="cls-7" d="M460,112.8,430.2,95.6c-2.1-1.3-1.8-3.4.6-4.8l28.6-16.6a10.8,10.8,0,0,1,4.1-1.1,10.9,10.9,0,0,0-5.4,1.1L429.5,90.8c-2.5,1.4-2.7,3.5-.6,4.8l29.8,17.2a8.1,8.1,0,0,0,4.2.8A8.2,8.2,0,0,1,460,112.8Z" transform="translate(-206.6 -73.1)"/><path class="cls-10" d="M435.2,222.9l20.2,11.6a.7.7,0,0,0,1.1-.6V127.6a1.6,1.6,0,0,0-.8-1.4l-20.2-11.7a.7.7,0,0,0-1.1.7V221.5A1.6,1.6,0,0,0,435.2,222.9Z" transform="translate(-206.6 -73.1)"/><path class="cls-11" d="M435,114.5a.5.5,0,0,0-.3.5V221.3a1.6,1.6,0,0,0,.8,1.4l20.2,11.7h.6a.8.8,0,0,1-.9,0l-20.2-11.6a1.6,1.6,0,0,1-.8-1.4V115.2A.7.7,0,0,1,435,114.5Z" transform="translate(-206.6 -73.1)"/><path class="cls-11" d="M453,145.5l-15.1-8.7a1.5,1.5,0,0,1-.4-.9v-1.3c0-.4.2-.5.4-.4l15.1,8.7a1.6,1.6,0,0,1,.5.9v1.3C453.5,145.4,453.2,145.6,453,145.5Z" transform="translate(-206.6 -73.1)"/><path class="cls-12" d="M438.5,136.4a1.1,1.1,0,0,1-.4-.9v-1.2h-.2c-.2-.1-.4,0-.4.4v1.3a1.5,1.5,0,0,0,.4.9l15.1,8.7c.2.1.5-.1.5-.4h0Z" transform="translate(-206.6 -73.1)"/><path class="cls-11" d="M453,149.3l-15.1-8.7a1.5,1.5,0,0,1-.4-.9v-1.3c0-.4.2-.5.4-.4l15.1,8.7a1.6,1.6,0,0,1,.5.9v1.3C453.5,149.3,453.2,149.4,453,149.3Z" transform="translate(-206.6 -73.1)"/><path class="cls-12" d="M438.5,140.2a1.1,1.1,0,0,1-.4-.9v-1.2h-.2c-.2-.1-.4,0-.4.4v1.3a1.5,1.5,0,0,0,.4.9l15.1,8.7c.2.1.5,0,.5-.4h0Z" transform="translate(-206.6 -73.1)"/><path class="cls-11" d="M453,153.1l-15.1-8.7a1.5,1.5,0,0,1-.4-.9v-1.3c0-.4.2-.5.4-.4l15.1,8.7a1.6,1.6,0,0,1,.5.9v1.3C453.5,153.1,453.2,153.2,453,153.1Z" transform="translate(-206.6 -73.1)"/><path class="cls-12" d="M438.5,144a1.1,1.1,0,0,1-.4-.9v-1.2h-.2c-.2-.1-.4,0-.4.4v1.3a1.5,1.5,0,0,0,.4.9l15.1,8.7c.2.1.5,0,.5-.4h0Z" transform="translate(-206.6 -73.1)"/><path class="cls-11" d="M453,156.9l-15.1-8.7a1.5,1.5,0,0,1-.4-.9V146c0-.4.2-.5.4-.4l15.1,8.7a1.6,1.6,0,0,1,.5.9v1.3C453.5,156.9,453.2,157,453,156.9Z" transform="translate(-206.6 -73.1)"/><path class="cls-12" d="M438.5,147.8a1,1,0,0,1-.4-.8v-1.3h-.2c-.2-.1-.4,0-.4.4v1.3a1.5,1.5,0,0,0,.4.9l15.1,8.7c.2.1.5,0,.5-.4h0Z" transform="translate(-206.6 -73.1)"/><path class="cls-11" d="M453,164.8l-15.1-8.7a1.5,1.5,0,0,1-.4-.9v-1.3c0-.3.2-.5.4-.4l15.1,8.7a1.6,1.6,0,0,1,.5.9v1.3C453.5,164.8,453.2,164.9,453,164.8Z" transform="translate(-206.6 -73.1)"/><path class="cls-12" d="M438.5,155.7a1,1,0,0,1-.4-.8v-1.3h-.2c-.2-.1-.4.1-.4.4v1.3a1.5,1.5,0,0,0,.4.9l15.1,8.7c.2.1.5,0,.5-.4h0Z" transform="translate(-206.6 -73.1)"/><path class="cls-11" d="M453,168.6l-15.1-8.7a1.3,1.3,0,0,1-.4-.9v-1.3c0-.3.2-.5.4-.3l15.1,8.7a1.1,1.1,0,0,1,.5.8v1.3C453.5,168.6,453.2,168.7,453,168.6Z" transform="translate(-206.6 -73.1)"/><path class="cls-12" d="M438.5,159.5a1,1,0,0,1-.4-.8v-1.3h-.2c-.2-.2-.4,0-.4.3V159a1.3,1.3,0,0,0,.4.9l15.1,8.7c.2.1.5,0,.5-.4h0Z" transform="translate(-206.6 -73.1)"/><path class="cls-11" d="M453,172.4l-15.1-8.7a1.1,1.1,0,0,1-.4-.9v-1.3c0-.3.2-.5.4-.3l15.1,8.7a1.1,1.1,0,0,1,.5.8v1.4C453.5,172.4,453.2,172.6,453,172.4Z" transform="translate(-206.6 -73.1)"/><path class="cls-12" d="M438.5,163.4a1.5,1.5,0,0,1-.4-.9v-1.3h-.2c-.2-.2-.4,0-.4.3v1.3a1.1,1.1,0,0,0,.4.9l15.1,8.7c.2.2.5,0,.5-.3h0Z" transform="translate(-206.6 -73.1)"/><path class="cls-11" d="M453,176.2l-15.1-8.7a1.1,1.1,0,0,1-.4-.9v-1.3c0-.3.2-.5.4-.3l15.1,8.7a1.1,1.1,0,0,1,.5.9v1.3C453.5,176.2,453.2,176.4,453,176.2Z" transform="translate(-206.6 -73.1)"/><path class="cls-12" d="M438.5,167.2a1.5,1.5,0,0,1-.4-.9v-1.2h-.2c-.2-.2-.4,0-.4.3v1.3a1.1,1.1,0,0,0,.4.9l15.1,8.7c.2.2.5,0,.5-.3h0Z" transform="translate(-206.6 -73.1)"/><path class="cls-11" d="M453,184.1l-15.1-8.7a1.1,1.1,0,0,1-.4-.9v-1.3c0-.3.2-.5.4-.3l15.1,8.7a1.1,1.1,0,0,1,.5.9v1.3C453.5,184.1,453.2,184.3,453,184.1Z" transform="translate(-206.6 -73.1)"/><path class="cls-12" d="M438.5,175.1a1.5,1.5,0,0,1-.4-.9V173h-.2c-.2-.2-.4,0-.4.3v1.3a1.1,1.1,0,0,0,.4.9l15.1,8.7c.2.2.5,0,.5-.3h0Z" transform="translate(-206.6 -73.1)"/><path class="cls-11" d="M453,187.9l-15.1-8.7a1.1,1.1,0,0,1-.4-.9V177c0-.3.2-.5.4-.3l15.1,8.7a1.1,1.1,0,0,1,.5.9v1.3C453.5,187.9,453.2,188.1,453,187.9Z" transform="translate(-206.6 -73.1)"/><path class="cls-12" d="M438.5,178.9a1.5,1.5,0,0,1-.4-.9v-1.2h-.2c-.2-.2-.4,0-.4.3v1.3a1.1,1.1,0,0,0,.4.9l15.1,8.7c.2.2.5,0,.5-.3h0Z" transform="translate(-206.6 -73.1)"/><path class="cls-11" d="M453,191.7,437.9,183a1,1,0,0,1-.4-.8v-1.4c0-.3.2-.5.4-.3l15.1,8.7a1.1,1.1,0,0,1,.5.9v1.3C453.5,191.7,453.2,191.9,453,191.7Z" transform="translate(-206.6 -73.1)"/><path class="cls-12" d="M438.5,182.7a1.5,1.5,0,0,1-.4-.9v-1.2h-.2c-.2-.2-.4,0-.4.3v1.4a1,1,0,0,0,.4.8l15.1,8.7c.2.2.5,0,.5-.3h0Z" transform="translate(-206.6 -73.1)"/><path class="cls-11" d="M453,195.5l-15.1-8.7a1,1,0,0,1-.4-.8v-1.4c0-.3.2-.4.4-.3L453,193a1.1,1.1,0,0,1,.5.9v1.3C453.5,195.5,453.2,195.7,453,195.5Z" transform="translate(-206.6 -73.1)"/><path class="cls-12" d="M438.5,186.5a1.3,1.3,0,0,1-.4-.9v-1.2h-.2c-.2-.1-.4,0-.4.3V186a1,1,0,0,0,.4.8l15.1,8.7c.2.2.5,0,.5-.3h0Z" transform="translate(-206.6 -73.1)"/><path class="cls-11" d="M453,203.4l-15.1-8.7a1,1,0,0,1-.4-.8v-1.4c0-.3.2-.4.4-.3l15.1,8.7a1.1,1.1,0,0,1,.5.9v1.3C453.5,203.4,453.2,203.6,453,203.4Z" transform="translate(-206.6 -73.1)"/><path class="cls-12" d="M438.5,194.4a1.3,1.3,0,0,1-.4-.9v-1.2h-.2c-.2-.1-.4,0-.4.3v1.4a1,1,0,0,0,.4.8l15.1,8.7c.2.2.5,0,.5-.3h0Z" transform="translate(-206.6 -73.1)"/><path class="cls-11" d="M453,207.3l-15.1-8.8a1,1,0,0,1-.4-.8v-1.3c0-.4.2-.5.4-.4l15.1,8.7a1.6,1.6,0,0,1,.5.9v1.3C453.5,207.2,453.2,207.4,453,207.3Z" transform="translate(-206.6 -73.1)"/><path class="cls-12" d="M438.5,198.2a1.1,1.1,0,0,1-.4-.9v-1.2h-.2c-.2-.1-.4,0-.4.4v1.3a1,1,0,0,0,.4.8l15.1,8.8c.2.1.5-.1.5-.4h0Z" transform="translate(-206.6 -73.1)"/><path class="cls-11" d="M453,211.1l-15.1-8.7a1.5,1.5,0,0,1-.4-.9v-1.3c0-.4.2-.5.4-.4l15.1,8.7a1.6,1.6,0,0,1,.5.9v1.3C453.5,211.1,453.2,211.2,453,211.1Z" transform="translate(-206.6 -73.1)"/><path class="cls-12" d="M438.5,202a1.1,1.1,0,0,1-.4-.9v-1.2h-.2c-.2-.1-.4,0-.4.4v1.3a1.5,1.5,0,0,0,.4.9l15.1,8.7c.2.1.5,0,.5-.4h0Z" transform="translate(-206.6 -73.1)"/><path class="cls-11" d="M453,214.9l-15.1-8.7a1.5,1.5,0,0,1-.4-.9V204c0-.4.2-.5.4-.4l15.1,8.7a1.6,1.6,0,0,1,.5.9v1.3C453.5,214.9,453.2,215,453,214.9Z" transform="translate(-206.6 -73.1)"/><path class="cls-12" d="M438.5,205.8a1.1,1.1,0,0,1-.4-.9v-1.2h-.2c-.2-.1-.4,0-.4.4v1.3a1.5,1.5,0,0,0,.4.9l15.1,8.7c.2.1.5,0,.5-.4h0Z" transform="translate(-206.6 -73.1)"/><path class="cls-10" d="M471.7,86.1,459.5,79c-.2-.1-.2-.4.1-.6h0a1.7,1.7,0,0,1,1,0l12.2,7c.3.2.2.4-.1.6h0A1.2,1.2,0,0,1,471.7,86.1Z" transform="translate(-206.6 -73.1)"/><path class="cls-13" d="M459.5,79c0-.1.1-.1.1-.2s.8-.2,1,0l12.2,7h.1c.1-.2.1-.3-.1-.5l-12.2-7a1.7,1.7,0,0,0-1,0C459.4,78.6,459.3,78.8,459.5,79Z" transform="translate(-206.6 -73.1)"/><path class="cls-10" d="M469.5,87.3l-12.1-7q-.4-.3,0-.6h0a.9.9,0,0,1,1,0l12.2,7c.3.1.2.4,0,.6h0A1.1,1.1,0,0,1,469.5,87.3Z" transform="translate(-206.6 -73.1)"/><path class="cls-10" d="M467.4,88.6l-12.2-7.1c-.3-.1-.2-.4.1-.5h0a1.2,1.2,0,0,1,1-.1L468.4,88c.3.1.3.4,0,.5h0A1.2,1.2,0,0,1,467.4,88.6Z" transform="translate(-206.6 -73.1)"/><path class="cls-10" d="M465.2,89.8l-12.2-7c-.3-.1-.2-.4.1-.6h0a1.2,1.2,0,0,1,1,0l12.2,7c.2.2.2.4-.1.6h0A.9.9,0,0,1,465.2,89.8Z" transform="translate(-206.6 -73.1)"/><path class="cls-10" d="M463,91.1l-12.2-7c-.2-.2-.2-.4.1-.6h0a1.2,1.2,0,0,1,1-.1l12.2,7.1c.2.1.2.4-.1.6h0A1.7,1.7,0,0,1,463,91.1Z" transform="translate(-206.6 -73.1)"/><path class="cls-13" d="M457.3,80.2h.1a1.2,1.2,0,0,1,1-.1l12.2,7.1c.1,0,.1,0,.1.1s.1-.4-.1-.5l-12.2-7a.9.9,0,0,0-1,0C457.2,79.9,457.1,80.1,457.3,80.2Z" transform="translate(-206.6 -73.1)"/><path class="cls-13" d="M455.1,81.5l.2-.2h1l12.1,7h.1c.2-.1.2-.3-.1-.4l-12.1-7.1a1.2,1.2,0,0,0-1,.1C455,81.1,455,81.3,455.1,81.5Z" transform="translate(-206.6 -73.1)"/><path class="cls-13" d="M452.9,82.7h.2a.9.9,0,0,1,1,0l12.2,7h.1c.1-.2.1-.4-.1-.5l-12.2-7a.9.9,0,0,0-1,0C452.8,82.4,452.8,82.6,452.9,82.7Z" transform="translate(-206.6 -73.1)"/><path class="cls-13" d="M450.8,84h.1a1.2,1.2,0,0,1,1-.1l12.2,7a.1.1,0,0,0,.1.1.2.2,0,0,0-.1-.4l-12.2-7.1a1.2,1.2,0,0,0-1,.1C450.7,83.6,450.6,83.8,450.8,84Z" transform="translate(-206.6 -73.1)"/><path class="cls-10" d="M487.3,95l-12.2-7q-.5-.3,0-.6h0a.9.9,0,0,1,1,0l12.2,7q.4.3,0,.6h0A.9.9,0,0,1,487.3,95Z" transform="translate(-206.6 -73.1)"/><path class="cls-13" d="M475,87.9h.1a1.2,1.2,0,0,1,1-.1l12.2,7.1c.1,0,.1,0,.1.1s.1-.4-.1-.5l-12.2-7a.9.9,0,0,0-1,0C474.9,87.6,474.8,87.8,475,87.9Z" transform="translate(-206.6 -73.1)"/><path class="cls-10" d="M485.1,96.3l-12.2-7.1c-.3-.1-.2-.4.1-.5h0a1.2,1.2,0,0,1,1-.1l12.1,7.1c.3.1.3.4,0,.5h0A1.2,1.2,0,0,1,485.1,96.3Z" transform="translate(-206.6 -73.1)"/><path class="cls-10" d="M482.9,97.5l-12.2-7c-.2-.1-.2-.4.1-.6h0a1.2,1.2,0,0,1,1,0l12.2,7c.2.2.2.4-.1.6h0A.9.9,0,0,1,482.9,97.5Z" transform="translate(-206.6 -73.1)"/><path class="cls-10" d="M480.7,98.8l-12.2-7c-.2-.2-.2-.4.1-.6h0a1.2,1.2,0,0,1,1-.1l12.2,7.1c.2.1.2.4-.1.6h0A1.7,1.7,0,0,1,480.7,98.8Z" transform="translate(-206.6 -73.1)"/><path class="cls-10" d="M478.5,100.1,466.3,93c-.2-.1-.2-.4.1-.6h0a1.7,1.7,0,0,1,1,0l12.2,7c.3.2.2.4-.1.6h0A1.2,1.2,0,0,1,478.5,100.1Z" transform="translate(-206.6 -73.1)"/><path class="cls-13" d="M472.8,89.2c0-.1.1-.1.2-.2h1l12.1,7h.1c.2-.1.1-.3-.1-.4L474,88.6a1.2,1.2,0,0,0-1,.1C472.7,88.8,472.7,89,472.8,89.2Z" transform="translate(-206.6 -73.1)"/><path class="cls-13" d="M470.6,90.4h.2a.9.9,0,0,1,1,0l12.2,7h.1c.1-.2.1-.4-.1-.5l-12.2-7a1.2,1.2,0,0,0-1,0C470.5,90.1,470.5,90.3,470.6,90.4Z" transform="translate(-206.6 -73.1)"/><path class="cls-13" d="M468.5,91.7c0-.1,0-.1.1-.1a1.2,1.2,0,0,1,1-.1l12.2,7.1h.1a.2.2,0,0,0-.1-.4l-12.2-7.1a1.2,1.2,0,0,0-1,.1C468.4,91.3,468.3,91.5,468.5,91.7Z" transform="translate(-206.6 -73.1)"/><path class="cls-13" d="M466.3,92.9a.1.1,0,0,0,.1-.1.9.9,0,0,1,1,0l12.2,7a.1.1,0,0,1,.1.1c.1-.2.1-.4-.1-.5l-12.2-7c-.2-.2-.7-.1-1,0S466.1,92.8,466.3,92.9Z" transform="translate(-206.6 -73.1)"/><path class="cls-10" d="M459,93.5l-12.2-7.1c-.3-.1-.2-.4.1-.5h0a1.2,1.2,0,0,1,1-.1l12.2,7.1c.2.1.2.4-.1.5h0A1.2,1.2,0,0,1,459,93.5Z" transform="translate(-206.6 -73.1)"/><path class="cls-13" d="M446.7,86.4l.2-.2a1.7,1.7,0,0,1,1,0l12.2,7h0a.2.2,0,0,0,0-.4l-12.2-7.1a1.2,1.2,0,0,0-1,.1C446.6,86,446.6,86.2,446.7,86.4Z" transform="translate(-206.6 -73.1)"/><path class="cls-10" d="M456.8,94.7l-12.2-7c-.2-.1-.2-.4.1-.6h0a1.2,1.2,0,0,1,1,0l12.2,7c.2.2.2.4-.1.6h0A.9.9,0,0,1,456.8,94.7Z" transform="translate(-206.6 -73.1)"/><path class="cls-10" d="M454.6,96l-12.2-7c-.2-.2-.2-.4.1-.6h0a1.2,1.2,0,0,1,1-.1l12.2,7.1c.3.1.2.4-.1.6h-1Z" transform="translate(-206.6 -73.1)"/><path class="cls-10" d="M452.4,97.3l-12.1-7.1c-.3-.1-.3-.4,0-.6h0c.3-.1.8-.2,1,0l12.2,7c.3.2.2.4-.1.6h0A1.1,1.1,0,0,1,452.4,97.3Z" transform="translate(-206.6 -73.1)"/><path class="cls-10" d="M450.3,98.5l-12.2-7c-.3-.2-.2-.4.1-.6h0a.9.9,0,0,1,1,0l12.1,7c.3.1.3.4,0,.6h0C451,98.6,450.5,98.7,450.3,98.5Z" transform="translate(-206.6 -73.1)"/><path class="cls-13" d="M444.5,87.6h.2a.9.9,0,0,1,1,0l12.2,7h.1c.1-.2.1-.4-.1-.5l-12.2-7a.9.9,0,0,0-1,0C444.4,87.3,444.4,87.5,444.5,87.6Z" transform="translate(-206.6 -73.1)"/><path class="cls-13" d="M442.4,88.9a.1.1,0,0,1,.1-.1,1.2,1.2,0,0,1,1-.1l12.2,7h.1a.2.2,0,0,0-.1-.4l-12.2-7.1a1.2,1.2,0,0,0-1,.1C442.3,88.5,442.2,88.7,442.4,88.9Z" transform="translate(-206.6 -73.1)"/><path class="cls-13" d="M440.2,90.1h.1a.9.9,0,0,1,1,0l12.2,7h.1c.2-.2.1-.4-.1-.5l-12.2-7c-.2-.2-.7-.1-1,0S440,90,440.2,90.1Z" transform="translate(-206.6 -73.1)"/><path class="cls-13" d="M438,91.4h.2a1.2,1.2,0,0,1,1-.1l12.2,7.1h0a.2.2,0,0,0,0-.4l-12.2-7a.9.9,0,0,0-1,0C437.9,91,437.9,91.2,438,91.4Z" transform="translate(-206.6 -73.1)"/><path class="cls-10" d="M474.5,102.4l-12.2-7c-.2-.1-.2-.4.1-.6h0a1.2,1.2,0,0,1,1,0l12.2,7c.2.2.2.4-.1.6h0A.9.9,0,0,1,474.5,102.4Z" transform="translate(-206.6 -73.1)"/><path class="cls-13" d="M462.2,95.3h.2a.9.9,0,0,1,1,0l12.2,7h.1c.1-.2.1-.4-.1-.5l-12.2-7a1.2,1.2,0,0,0-1,0C462.1,95,462.1,95.2,462.2,95.3Z" transform="translate(-206.6 -73.1)"/><path class="cls-10" d="M472.3,103.7l-12.2-7c-.2-.2-.2-.4.1-.6h0a1.2,1.2,0,0,1,1-.1l12.2,7.1c.3.1.2.4-.1.6h-1Z" transform="translate(-206.6 -73.1)"/><path class="cls-10" d="M470.1,105,458,97.9c-.3-.1-.3-.4,0-.6h1l12.2,7c.3.2.2.4,0,.6h0A1.4,1.4,0,0,1,470.1,105Z" transform="translate(-206.6 -73.1)"/><path class="cls-10" d="M468,106.2l-12.2-7c-.3-.2-.2-.4.1-.6h0a.9.9,0,0,1,1,0l12.1,7c.3.1.3.4,0,.6h0C468.7,106.3,468.2,106.4,468,106.2Z" transform="translate(-206.6 -73.1)"/><path class="cls-10" d="M465.8,107.5l-12.2-7.1c-.3-.1-.2-.4.1-.5h0a1.2,1.2,0,0,1,1-.1l12.2,7.1c.2.1.2.4-.1.5h0A1.2,1.2,0,0,1,465.8,107.5Z" transform="translate(-206.6 -73.1)"/><path class="cls-13" d="M460.1,96.6h.1a1.2,1.2,0,0,1,1-.1l12.2,7.1h.1a.2.2,0,0,0-.1-.4L461.2,96a1.2,1.2,0,0,0-1,.1C460,96.2,459.9,96.4,460.1,96.6Z" transform="translate(-206.6 -73.1)"/><path class="cls-13" d="M457.9,97.8h.1a.9.9,0,0,1,1,0l12.2,7h.1c.2-.2.1-.4-.1-.5l-12.2-7c-.2-.2-.7-.1-1,0S457.7,97.7,457.9,97.8Z" transform="translate(-206.6 -73.1)"/><path class="cls-13" d="M455.7,99.1h.2a1.2,1.2,0,0,1,1-.1l12.2,7.1h0a.2.2,0,0,0,0-.4l-12.2-7a.9.9,0,0,0-1,0A.3.3,0,0,0,455.7,99.1Z" transform="translate(-206.6 -73.1)"/><path class="cls-13" d="M453.5,100.4l.2-.2a1.2,1.2,0,0,1,1,0l12.2,7h.1c.1-.2.1-.3-.1-.5l-12.2-7a1.2,1.2,0,0,0-1,.1C453.4,100,453.4,100.2,453.5,100.4Z" transform="translate(-206.6 -73.1)"/><path class="cls-10" d="M470.6,234.9h-.5a1.1,1.1,0,0,1-.5-.9V127.6a1.9,1.9,0,0,1,.9-1.6l20.3-11.7a.9.9,0,0,1,1,0,1.1,1.1,0,0,1,.5.9V221.5a1.8,1.8,0,0,1-.9,1.6l-20.3,11.7Zm20.7-120.2h-.2l-20.3,11.7a1.1,1.1,0,0,0-.6,1.1V233.9c0,.2,0,.3.2.4h.5l20.2-11.7.2.3-.2-.3a1.4,1.4,0,0,0,.7-1.1V115.2c0-.2-.1-.3-.3-.4Z" transform="translate(-206.6 -73.1)"/><path class="cls-10" d="M488.5,176.3l.5-.3a1.1,1.1,0,0,0,.3-.6v-5.7c0-.2-.2-.3-.3-.2l-.5.3a.7.7,0,0,0-.3.6V176C488.2,176.3,488.3,176.3,488.5,176.3Z" transform="translate(-206.6 -73.1)"/><path class="cls-3" d="M283.5,285.7l29.8-17.2c2.2-1.2,1.9-3.3-.6-4.8l-28.6-16.5c-2.4-1.4-6.1-1.6-8.3-.3L246,264.1c-2.1,1.2-1.8,3.4.6,4.8l28.6,16.5C277.7,286.8,281.4,287,283.5,285.7Z" transform="translate(-206.6 -73.1)"/><path class="cls-14" d="M280,290.5a12,12,0,0,1-5.7-1.4l-33.8-19.5a4.3,4.3,0,0,1-2.5-3.5,3.2,3.2,0,0,1,1.8-2.7L275,243.1c2.6-1.5,7.1-1.3,10.1.4L318.8,263c1.6.9,2.6,2.2,2.6,3.5a3.2,3.2,0,0,1-1.9,2.7l-35.1,20.3A8.9,8.9,0,0,1,280,290.5Zm-.6-47.7a8.8,8.8,0,0,0-4.1.9L240.2,264a2.5,2.5,0,0,0-1.5,2.1c0,1.1.8,2.1,2.2,2.9l33.7,19.5c2.8,1.6,7,1.8,9.4.4l35.2-20.3a2.6,2.6,0,0,0,1.5-2.1,3.7,3.7,0,0,0-2.2-2.9l-33.8-19.5A10.7,10.7,0,0,0,279.4,242.8Z" transform="translate(-206.6 -73.1)"/><path class="cls-15" d="M314.8,93.3H300l-16.5-9.5c-2.1-1.2-5.8-1-8.3.4l-15.8,9.1H244.6V232.4h0a2.2,2.2,0,0,0,1.4,2.2l29.8,17.3a9.4,9.4,0,0,0,8.3-.4L312.7,235a3.7,3.7,0,0,0,2.1-2.6h0Z" transform="translate(-206.6 -73.1)"/><path class="cls-16" d="M312.7,234.3l-28.6,16.5a9.4,9.4,0,0,1-8.3.4L246,234a2.4,2.4,0,0,1-1.4-2.3h0v.7h0a2.2,2.2,0,0,0,1.4,2.2l29.8,17.3a9.4,9.4,0,0,0,8.3-.4L312.7,235a3.7,3.7,0,0,0,2.1-2.6h0v-.7h0A3.7,3.7,0,0,1,312.7,234.3Z" transform="translate(-206.6 -73.1)"/><path class="cls-7" d="M245.5,233.1h0V94h14.8l15.9-9.1a8.9,8.9,0,0,1,8.2-.4L300.9,94h13.9v-.7H300l-16.5-9.5c-2.1-1.2-5.8-1-8.3.4l-15.8,9.1H244.6V232.4h0a2.2,2.2,0,0,0,1.4,2.2h.2A2,2,0,0,1,245.5,233.1Z" transform="translate(-206.6 -73.1)"/><path class="cls-8" d="M313.9,94.1V233.2h0a2.6,2.6,0,0,1-.7,1.5,3.4,3.4,0,0,0,1.6-2.3h0V93.4Z" transform="translate(-206.6 -73.1)"/><path class="cls-17" d="M275.8,112.8,246,95.6c-2.1-1.3-1.8-3.4.6-4.8l28.6-16.6c2.5-1.4,6.2-1.5,8.3-.3l29.8,17.2c2.2,1.2,1.9,3.4-.6,4.8l-28.6,16.5A9.4,9.4,0,0,1,275.8,112.8Z" transform="translate(-206.6 -73.1)"/><path class="cls-8" d="M313.3,91.1,283.5,73.9a7.9,7.9,0,0,0-4.2-.8,6.6,6.6,0,0,1,3,.8l29.9,17.2c2.1,1.2,1.8,3.4-.6,4.8l-28.7,16.5a9,9,0,0,1-4.1,1.2,9.6,9.6,0,0,0,5.3-1.2l28.6-16.5C315.2,94.5,315.5,92.3,313.3,91.1Z" transform="translate(-206.6 -73.1)"/><path class="cls-7" d="M277.2,112.8,247.3,95.6c-2.1-1.3-1.8-3.4.6-4.8l28.7-16.6a10.3,10.3,0,0,1,4-1.1,11.2,11.2,0,0,0-5.4,1.1L246.6,90.8c-2.4,1.4-2.7,3.5-.6,4.8l29.8,17.2a8.5,8.5,0,0,0,4.3.8A8.2,8.2,0,0,1,277.2,112.8Z" transform="translate(-206.6 -73.1)"/><path class="cls-10" d="M252.3,222.9l20.2,11.6c.6.3,1.2,0,1.2-.6V127.6a1.6,1.6,0,0,0-.8-1.4l-20.3-11.7a.7.7,0,0,0-1.1.7V221.5A1.6,1.6,0,0,0,252.3,222.9Z" transform="translate(-206.6 -73.1)"/><path class="cls-11" d="M252.1,114.5a.9.9,0,0,0-.3.5V221.3a1.8,1.8,0,0,0,.8,1.4l20.3,11.7h.5a.7.7,0,0,1-.9,0l-20.2-11.6a1.6,1.6,0,0,1-.8-1.4V115.2A.7.7,0,0,1,252.1,114.5Z" transform="translate(-206.6 -73.1)"/><path class="cls-11" d="M270.1,145.5l-15-8.7a1.2,1.2,0,0,1-.5-.9v-1.3c0-.4.2-.5.5-.4l15,8.7a1.2,1.2,0,0,1,.5.9v1.3C270.6,145.4,270.4,145.6,270.1,145.5Z" transform="translate(-206.6 -73.1)"/><path class="cls-12" d="M255.7,136.4a.9.9,0,0,1-.5-.9v-1.2h-.1c-.3-.1-.5,0-.5.4v1.3a1.2,1.2,0,0,0,.5.9l15,8.7c.3.1.5-.1.5-.4h0Z" transform="translate(-206.6 -73.1)"/><path class="cls-11" d="M270.1,149.3l-15-8.7a1.2,1.2,0,0,1-.5-.9v-1.3c0-.4.2-.5.5-.4l15,8.7a1.2,1.2,0,0,1,.5.9v1.3C270.6,149.3,270.4,149.4,270.1,149.3Z" transform="translate(-206.6 -73.1)"/><path class="cls-12" d="M255.7,140.2a.9.9,0,0,1-.5-.9v-1.2h-.1c-.3-.1-.5,0-.5.4v1.3a1.2,1.2,0,0,0,.5.9l15,8.7c.3.1.5,0,.5-.4h0Z" transform="translate(-206.6 -73.1)"/><path class="cls-11" d="M270.1,153.1l-15-8.7a1.2,1.2,0,0,1-.5-.9v-1.3c0-.4.2-.5.5-.4l15,8.7a1.2,1.2,0,0,1,.5.9v1.3C270.6,153.1,270.4,153.2,270.1,153.1Z" transform="translate(-206.6 -73.1)"/><path class="cls-12" d="M255.7,144a.9.9,0,0,1-.5-.9v-1.2h-.1c-.3-.1-.5,0-.5.4v1.3a1.2,1.2,0,0,0,.5.9l15,8.7c.3.1.5,0,.5-.4h0Z" transform="translate(-206.6 -73.1)"/><path class="cls-11" d="M270.1,156.9l-15-8.7a1.2,1.2,0,0,1-.5-.9V146c0-.4.2-.5.5-.4l15,8.7a1.2,1.2,0,0,1,.5.9v1.3C270.6,156.9,270.4,157,270.1,156.9Z" transform="translate(-206.6 -73.1)"/><path class="cls-12" d="M255.7,147.8a.9.9,0,0,1-.5-.8v-1.3h-.1c-.3-.1-.5,0-.5.4v1.3a1.2,1.2,0,0,0,.5.9l15,8.7c.3.1.5,0,.5-.4h0Z" transform="translate(-206.6 -73.1)"/><path class="cls-11" d="M270.1,164.8l-15-8.7a1.2,1.2,0,0,1-.5-.9v-1.3c0-.3.2-.5.5-.4l15,8.7a1.2,1.2,0,0,1,.5.9v1.3C270.6,164.8,270.4,164.9,270.1,164.8Z" transform="translate(-206.6 -73.1)"/><path class="cls-12" d="M255.7,155.7a.9.9,0,0,1-.5-.8v-1.3h-.1c-.3-.1-.5.1-.5.4v1.3a1.2,1.2,0,0,0,.5.9l15,8.7c.3.1.5,0,.5-.4h0Z" transform="translate(-206.6 -73.1)"/><path class="cls-11" d="M270.1,168.6l-15-8.7a1.1,1.1,0,0,1-.5-.9v-1.3c0-.3.2-.5.5-.3l15,8.7a.9.9,0,0,1,.5.8v1.3C270.6,168.6,270.4,168.7,270.1,168.6Z" transform="translate(-206.6 -73.1)"/><path class="cls-12" d="M255.7,159.5a.9.9,0,0,1-.5-.8v-1.3h-.1c-.3-.2-.5,0-.5.3V159a1.1,1.1,0,0,0,.5.9l15,8.7c.3.1.5,0,.5-.4h0Z" transform="translate(-206.6 -73.1)"/><path class="cls-11" d="M270.1,172.4l-15-8.7a.9.9,0,0,1-.5-.9v-1.3c0-.3.2-.5.5-.3l15,8.7a.9.9,0,0,1,.5.8v1.4C270.6,172.4,270.4,172.6,270.1,172.4Z" transform="translate(-206.6 -73.1)"/><path class="cls-12" d="M255.7,163.4a1.2,1.2,0,0,1-.5-.9v-1.3h-.1c-.3-.2-.5,0-.5.3v1.3a.9.9,0,0,0,.5.9l15,8.7c.3.2.5,0,.5-.3h0Z" transform="translate(-206.6 -73.1)"/><path class="cls-11" d="M270.1,176.2l-15-8.7a.9.9,0,0,1-.5-.9v-1.3c0-.3.2-.5.5-.3l15,8.7a.9.9,0,0,1,.5.9v1.3C270.6,176.2,270.4,176.4,270.1,176.2Z" transform="translate(-206.6 -73.1)"/><path class="cls-12" d="M255.7,167.2a1.2,1.2,0,0,1-.5-.9v-1.2h-.1c-.3-.2-.5,0-.5.3v1.3a.9.9,0,0,0,.5.9l15,8.7c.3.2.5,0,.5-.3h0Z" transform="translate(-206.6 -73.1)"/><path class="cls-11" d="M270.1,184.1l-15-8.7a.9.9,0,0,1-.5-.9v-1.3c0-.3.2-.5.5-.3l15,8.7a.9.9,0,0,1,.5.9v1.3C270.6,184.1,270.4,184.3,270.1,184.1Z" transform="translate(-206.6 -73.1)"/><path class="cls-12" d="M255.7,175.1a1.2,1.2,0,0,1-.5-.9V173h-.1c-.3-.2-.5,0-.5.3v1.3a.9.9,0,0,0,.5.9l15,8.7c.3.2.5,0,.5-.3h0Z" transform="translate(-206.6 -73.1)"/><path class="cls-11" d="M270.1,187.9l-15-8.7a.9.9,0,0,1-.5-.9V177c0-.3.2-.5.5-.3l15,8.7a.9.9,0,0,1,.5.9v1.3C270.6,187.9,270.4,188.1,270.1,187.9Z" transform="translate(-206.6 -73.1)"/><path class="cls-12" d="M255.7,178.9a1.2,1.2,0,0,1-.5-.9v-1.2h-.1c-.3-.2-.5,0-.5.3v1.3a.9.9,0,0,0,.5.9l15,8.7c.3.2.5,0,.5-.3h0Z" transform="translate(-206.6 -73.1)"/><path class="cls-11" d="M270.1,191.7l-15-8.7a.9.9,0,0,1-.5-.8v-1.4c0-.3.2-.5.5-.3l15,8.7a.9.9,0,0,1,.5.9v1.3C270.6,191.7,270.4,191.9,270.1,191.7Z" transform="translate(-206.6 -73.1)"/><path class="cls-12" d="M255.7,182.7a1.2,1.2,0,0,1-.5-.9v-1.2h-.1c-.3-.2-.5,0-.5.3v1.4a.9.9,0,0,0,.5.8l15,8.7c.3.2.5,0,.5-.3h0Z" transform="translate(-206.6 -73.1)"/><path class="cls-11" d="M270.1,195.5l-15-8.7a.9.9,0,0,1-.5-.8v-1.4c0-.3.2-.4.5-.3l15,8.7a.9.9,0,0,1,.5.9v1.3C270.6,195.5,270.4,195.7,270.1,195.5Z" transform="translate(-206.6 -73.1)"/><path class="cls-12" d="M255.7,186.5a1.1,1.1,0,0,1-.5-.9v-1.2h-.1c-.3-.1-.5,0-.5.3V186a.9.9,0,0,0,.5.8l15,8.7c.3.2.5,0,.5-.3h0Z" transform="translate(-206.6 -73.1)"/><path class="cls-11" d="M270.1,203.4l-15-8.7a.9.9,0,0,1-.5-.8v-1.4c0-.3.2-.4.5-.3l15,8.7a.9.9,0,0,1,.5.9v1.3C270.6,203.4,270.4,203.6,270.1,203.4Z" transform="translate(-206.6 -73.1)"/><path class="cls-12" d="M255.7,194.4a1.1,1.1,0,0,1-.5-.9v-1.2h-.1c-.3-.1-.5,0-.5.3v1.4a.9.9,0,0,0,.5.8l15,8.7c.3.2.5,0,.5-.3h0Z" transform="translate(-206.6 -73.1)"/><path class="cls-11" d="M270.1,207.3l-15-8.8a.9.9,0,0,1-.5-.8v-1.3c0-.4.2-.5.5-.4l15,8.7a1.2,1.2,0,0,1,.5.9v1.3C270.6,207.2,270.4,207.4,270.1,207.3Z" transform="translate(-206.6 -73.1)"/><path class="cls-12" d="M255.7,198.2a.9.9,0,0,1-.5-.9v-1.2h-.1c-.3-.1-.5,0-.5.4v1.3a.9.9,0,0,0,.5.8l15,8.8c.3.1.5-.1.5-.4h0Z" transform="translate(-206.6 -73.1)"/><path class="cls-11" d="M270.1,211.1l-15-8.7a1.2,1.2,0,0,1-.5-.9v-1.3c0-.4.2-.5.5-.4l15,8.7a1.2,1.2,0,0,1,.5.9v1.3C270.6,211.1,270.4,211.2,270.1,211.1Z" transform="translate(-206.6 -73.1)"/><path class="cls-12" d="M255.7,202a.9.9,0,0,1-.5-.9v-1.2h-.1c-.3-.1-.5,0-.5.4v1.3a1.2,1.2,0,0,0,.5.9l15,8.7c.3.1.5,0,.5-.4h0Z" transform="translate(-206.6 -73.1)"/><path class="cls-11" d="M270.1,214.9l-15-8.7a1.2,1.2,0,0,1-.5-.9V204c0-.4.2-.5.5-.4l15,8.7a1.2,1.2,0,0,1,.5.9v1.3C270.6,214.9,270.4,215,270.1,214.9Z" transform="translate(-206.6 -73.1)"/><path class="cls-12" d="M255.7,205.8a.9.9,0,0,1-.5-.9v-1.2h-.1c-.3-.1-.5,0-.5.4v1.3a1.2,1.2,0,0,0,.5.9l15,8.7c.3.1.5,0,.5-.4h0Z" transform="translate(-206.6 -73.1)"/><path class="cls-10" d="M288.9,86.1,276.7,79c-.3-.1-.2-.4.1-.6h0a1.7,1.7,0,0,1,1,0l12.1,7q.5.3,0,.6h0A1.2,1.2,0,0,1,288.9,86.1Z" transform="translate(-206.6 -73.1)"/><path class="cls-13" d="M276.6,79l.2-.2a1.2,1.2,0,0,1,1,0l12.1,7a.1.1,0,0,1,.1.1c.2-.2.1-.3-.1-.5l-12.1-7a1.7,1.7,0,0,0-1,0C276.5,78.6,276.5,78.8,276.6,79Z" transform="translate(-206.6 -73.1)"/><path class="cls-10" d="M286.7,87.3l-12.2-7c-.3-.2-.2-.4.1-.6h0a.9.9,0,0,1,1,0l12.2,7c.2.1.2.4-.1.6h0A.9.9,0,0,1,286.7,87.3Z" transform="translate(-206.6 -73.1)"/><path class="cls-10" d="M284.5,88.6l-12.2-7.1c-.2-.1-.2-.4.1-.5h0a1.2,1.2,0,0,1,1-.1L285.6,88c.2.1.2.4-.1.5h0A1.2,1.2,0,0,1,284.5,88.6Z" transform="translate(-206.6 -73.1)"/><path class="cls-10" d="M282.3,89.8l-12.2-7c-.2-.1-.2-.4.1-.6h0c.3-.1.8-.2,1,0l12.2,7c.3.2.2.4-.1.6h0A.9.9,0,0,1,282.3,89.8Z" transform="translate(-206.6 -73.1)"/><path class="cls-10" d="M280.1,91.1l-12.1-7q-.5-.3,0-.6h0a1.2,1.2,0,0,1,1-.1l12.2,7.1c.3.1.2.4,0,.6h0A2.1,2.1,0,0,1,280.1,91.1Z" transform="translate(-206.6 -73.1)"/><path class="cls-13" d="M274.4,80.2h.2a1.2,1.2,0,0,1,1-.1l12.2,7.1h0c.2-.2.2-.4,0-.5l-12.2-7a.9.9,0,0,0-1,0C274.3,79.9,274.3,80.1,274.4,80.2Z" transform="translate(-206.6 -73.1)"/><path class="cls-13" d="M272.2,81.5l.2-.2h1l12.2,7c0,.1,0,.1.1.1a.2.2,0,0,0-.1-.4l-12.2-7.1a1.2,1.2,0,0,0-1,.1C272.1,81.1,272.1,81.3,272.2,81.5Z" transform="translate(-206.6 -73.1)"/><path class="cls-13" d="M270.1,82.7h.1a.9.9,0,0,1,1,0l12.2,7a.1.1,0,0,1,.1.1c.1-.2.1-.4-.1-.5l-12.2-7a.9.9,0,0,0-1,0C270,82.4,269.9,82.6,270.1,82.7Z" transform="translate(-206.6 -73.1)"/><path class="cls-13" d="M267.9,84h.1a1.4,1.4,0,0,1,1.1-.1l12.1,7h.1c.2-.1.1-.3-.1-.4l-12.1-7.1a1.4,1.4,0,0,0-1.1.1C267.8,83.6,267.7,83.8,267.9,84Z" transform="translate(-206.6 -73.1)"/><path class="cls-10" d="M304.4,95l-12.2-7c-.3-.2-.2-.4.1-.6h0a.9.9,0,0,1,1,0l12.2,7c.2.2.2.4-.1.6h0A.9.9,0,0,1,304.4,95Z" transform="translate(-206.6 -73.1)"/><path class="cls-13" d="M292.1,87.9h.2a1.2,1.2,0,0,1,1-.1l12.2,7.1h0c.2-.2.2-.4,0-.5l-12.2-7a.9.9,0,0,0-1,0C292,87.6,292,87.8,292.1,87.9Z" transform="translate(-206.6 -73.1)"/><path class="cls-10" d="M302.2,96.3,290,89.2c-.2-.1-.2-.4.1-.5h0a1.2,1.2,0,0,1,1-.1l12.2,7.1c.2.1.2.4-.1.5h0A1.2,1.2,0,0,1,302.2,96.3Z" transform="translate(-206.6 -73.1)"/><path class="cls-10" d="M300,97.5l-12.2-7c-.2-.1-.2-.4.1-.6h0c.3-.1.8-.2,1,0l12.2,7c.3.2.2.4-.1.6h0A.9.9,0,0,1,300,97.5Z" transform="translate(-206.6 -73.1)"/><path class="cls-10" d="M297.9,98.8l-12.2-7q-.4-.3,0-.6h0a1.2,1.2,0,0,1,1-.1l12.2,7.1c.3.1.3.4,0,.6h0A1.7,1.7,0,0,1,297.9,98.8Z" transform="translate(-206.6 -73.1)"/><path class="cls-10" d="M295.7,100.1,283.5,93c-.3-.1-.2-.4.1-.6h0a1.7,1.7,0,0,1,1,0l12.1,7q.4.3,0,.6h0A1.2,1.2,0,0,1,295.7,100.1Z" transform="translate(-206.6 -73.1)"/><path class="cls-13" d="M289.9,89.2l.2-.2h1l12.2,7h.1a.2.2,0,0,0-.1-.4l-12.2-7.1a1.2,1.2,0,0,0-1,.1C289.8,88.8,289.8,89,289.9,89.2Z" transform="translate(-206.6 -73.1)"/><path class="cls-13" d="M287.8,90.4h.1a.9.9,0,0,1,1,0l12.2,7a.1.1,0,0,1,.1.1c.1-.2.1-.4-.1-.5l-12.2-7c-.2-.2-.7-.1-1,0S287.6,90.3,287.8,90.4Z" transform="translate(-206.6 -73.1)"/><path class="cls-13" d="M285.6,91.7a.1.1,0,0,1,.1-.1,1.4,1.4,0,0,1,1.1-.1l12.1,7.1h.1c.2-.1.1-.3-.1-.4l-12.1-7.1a1.4,1.4,0,0,0-1.1.1C285.5,91.3,285.4,91.5,285.6,91.7Z" transform="translate(-206.6 -73.1)"/><path class="cls-13" d="M283.4,92.9h.2a.9.9,0,0,1,1,0l12.2,7h0c.2-.2.2-.4,0-.5l-12.2-7a1.2,1.2,0,0,0-1,0C283.3,92.6,283.3,92.8,283.4,92.9Z" transform="translate(-206.6 -73.1)"/><path class="cls-10" d="M276.1,93.5l-12.2-7.1c-.2-.1-.2-.4.1-.5h0a1.2,1.2,0,0,1,1-.1l12.2,7.1c.3.1.2.4-.1.5h0A1.2,1.2,0,0,1,276.1,93.5Z" transform="translate(-206.6 -73.1)"/><path class="cls-13" d="M263.9,86.4c0-.1,0-.1.1-.2a1.7,1.7,0,0,1,1,0l12.2,7h.1a.2.2,0,0,0-.1-.4L265,85.8a1.2,1.2,0,0,0-1,.1C263.8,86,263.7,86.2,263.9,86.4Z" transform="translate(-206.6 -73.1)"/><path class="cls-10" d="M273.9,94.7l-12.1-7c-.3-.1-.3-.4,0-.6h0c.3-.1.8-.2,1,0l12.2,7c.3.2.2.4-.1.6h0A.9.9,0,0,1,273.9,94.7Z" transform="translate(-206.6 -73.1)"/><path class="cls-10" d="M271.8,96l-12.2-7c-.3-.2-.2-.4.1-.6h0a1.2,1.2,0,0,1,1-.1l12.1,7.1c.3.1.3.4,0,.6h-1Z" transform="translate(-206.6 -73.1)"/><path class="cls-10" d="M269.6,97.3l-12.2-7.1c-.3-.1-.2-.4.1-.6h0a1.2,1.2,0,0,1,1,0l12.2,7c.2.2.2.4-.1.6h0A1.2,1.2,0,0,1,269.6,97.3Z" transform="translate(-206.6 -73.1)"/><path class="cls-10" d="M267.4,98.5l-12.2-7c-.2-.2-.2-.4.1-.6h0a.9.9,0,0,1,1,0l12.2,7c.2.1.2.4-.1.6h0A1.2,1.2,0,0,1,267.4,98.5Z" transform="translate(-206.6 -73.1)"/><path class="cls-13" d="M261.7,87.6h.1a.9.9,0,0,1,1,0l12.2,7h.1c.1-.2.1-.4-.1-.5l-12.2-7a.9.9,0,0,0-1,0C261.6,87.3,261.5,87.5,261.7,87.6Z" transform="translate(-206.6 -73.1)"/><path class="cls-13" d="M259.5,88.9c0-.1.1-.1.2-.1a1.2,1.2,0,0,1,1-.1l12.1,7h.1c.2-.1.1-.3-.1-.4l-12.1-7.1a1.2,1.2,0,0,0-1,.1C259.4,88.5,259.4,88.7,259.5,88.9Z" transform="translate(-206.6 -73.1)"/><path class="cls-13" d="M257.3,90.1h.2a.9.9,0,0,1,1,0l12.2,7h.1c.1-.2.1-.4-.1-.5l-12.2-7a1.2,1.2,0,0,0-1,0C257.2,89.8,257.2,90,257.3,90.1Z" transform="translate(-206.6 -73.1)"/><path class="cls-13" d="M255.2,91.4a.1.1,0,0,1,.1-.1,1.2,1.2,0,0,1,1-.1l12.2,7.1h.1a.2.2,0,0,0-.1-.4l-12.2-7a.9.9,0,0,0-1,0C255.1,91,255,91.2,255.2,91.4Z" transform="translate(-206.6 -73.1)"/><path class="cls-10" d="M291.6,102.4l-12.1-7c-.3-.1-.3-.4,0-.6h0c.3-.1.8-.2,1,0l12.2,7c.3.2.2.4,0,.6h0A1.1,1.1,0,0,1,291.6,102.4Z" transform="translate(-206.6 -73.1)"/><path class="cls-13" d="M279.4,95.3h.1a.9.9,0,0,1,1,0l12.2,7h.1c.1-.2.1-.4-.1-.5l-12.2-7c-.2-.2-.7-.1-1,0S279.2,95.2,279.4,95.3Z" transform="translate(-206.6 -73.1)"/><path class="cls-10" d="M289.5,103.7l-12.2-7c-.3-.2-.2-.4.1-.6h0a1.2,1.2,0,0,1,1-.1l12.1,7.1c.3.1.3.4,0,.6h-1Z" transform="translate(-206.6 -73.1)"/><path class="cls-10" d="M287.3,105l-12.2-7.1c-.3-.1-.2-.4.1-.6h1l12.2,7c.2.2.2.4-.1.6h0A1.2,1.2,0,0,1,287.3,105Z" transform="translate(-206.6 -73.1)"/><path class="cls-10" d="M285.1,106.2l-12.2-7c-.2-.2-.2-.4.1-.6h0a.9.9,0,0,1,1,0l12.2,7c.2.1.2.4-.1.6h0A1.2,1.2,0,0,1,285.1,106.2Z" transform="translate(-206.6 -73.1)"/><path class="cls-10" d="M282.9,107.5l-12.2-7.1c-.2-.1-.2-.4.1-.5h0a1.2,1.2,0,0,1,1-.1l12.2,7.1c.3.1.2.4-.1.5h0A1.2,1.2,0,0,1,282.9,107.5Z" transform="translate(-206.6 -73.1)"/><path class="cls-13" d="M277.2,96.6h.2a1.2,1.2,0,0,1,1-.1l12.1,7.1h.1c.2-.1.1-.3-.1-.4L278.4,96a1.2,1.2,0,0,0-1,.1C277.1,96.2,277.1,96.4,277.2,96.6Z" transform="translate(-206.6 -73.1)"/><path class="cls-13" d="M275,97.8h.2a.9.9,0,0,1,1,0l12.2,7h.1c.1-.2.1-.4-.1-.5l-12.2-7a1.2,1.2,0,0,0-1,0C274.9,97.5,274.9,97.7,275,97.8Z" transform="translate(-206.6 -73.1)"/><path class="cls-13" d="M272.9,99.1h.1a1.2,1.2,0,0,1,1-.1l12.2,7.1h.1a.2.2,0,0,0-.1-.4l-12.2-7a.9.9,0,0,0-1,0C272.8,98.7,272.7,99,272.9,99.1Z" transform="translate(-206.6 -73.1)"/><path class="cls-13" d="M270.7,100.4c0-.1.1-.1.1-.2s.8-.2,1,0l12.2,7h.1c.1-.2.1-.3-.1-.5l-12.2-7a1.2,1.2,0,0,0-1,.1C270.6,100,270.5,100.2,270.7,100.4Z" transform="translate(-206.6 -73.1)"/><path class="cls-10" d="M287.8,234.9h-.5a1,1,0,0,1-.6-.9V127.6a1.8,1.8,0,0,1,1-1.6l20.2-11.7a.9.9,0,0,1,1,0,1,1,0,0,1,.6.9V221.5a1.9,1.9,0,0,1-1,1.6l-20.2,11.7Zm20.6-120.2h-.2l-20.3,11.7a1.1,1.1,0,0,0-.6,1.1V233.9a.5.5,0,0,0,.2.4h.5l20.3-11.7v0a1.3,1.3,0,0,0,.6-1.1V115.2a.5.5,0,0,0-.2-.4Z" transform="translate(-206.6 -73.1)"/><path class="cls-10" d="M305.6,176.3l.5-.3a.7.7,0,0,0,.3-.6v-5.7c0-.2-.1-.3-.3-.2l-.5.3a1.1,1.1,0,0,0-.2.6V176C305.4,176.3,305.5,176.3,305.6,176.3Z" transform="translate(-206.6 -73.1)"/><path class="cls-3" d="M374.7,348.9l29.9-17.2c2.1-1.2,1.8-3.4-.6-4.8l-28.7-16.5c-2.4-1.4-6.1-1.6-8.2-.3l-29.9,17.2c-2.1,1.2-1.8,3.3.6,4.7l28.7,16.6A9.1,9.1,0,0,0,374.7,348.9Z" transform="translate(-206.6 -73.1)"/><path class="cls-18" d="M371.2,353.7a12,12,0,0,1-5.7-1.4l-33.7-19.5c-1.7-.9-2.6-2.2-2.6-3.5a3.2,3.2,0,0,1,1.9-2.7l35.1-20.3c2.6-1.5,7.1-1.3,10.1.4L410,326.2c1.7.9,2.6,2.2,2.6,3.5a3.3,3.3,0,0,1-1.9,2.7l-35.1,20.3A8.9,8.9,0,0,1,371.2,353.7Zm-.6-47.7a8.8,8.8,0,0,0-4.1.9l-35.1,20.3a2.4,2.4,0,0,0-1.5,2.1,3.7,3.7,0,0,0,2.2,2.9l33.7,19.5c2.8,1.6,7,1.8,9.4.4l35.2-20.3a2.7,2.7,0,0,0,1.5-2.1c0-1.1-.8-2.1-2.2-2.9l-33.8-19.5A10.4,10.4,0,0,0,370.6,306Z" transform="translate(-206.6 -73.1)"/><path class="cls-19" d="M406,156.5H391.2L374.7,147a8.9,8.9,0,0,0-8.2.4l-15.9,9.1H335.8V295.6h0a2.4,2.4,0,0,0,1.4,2.2L367.1,315c2.1,1.3,5.8,1.1,8.2-.3L404,298.2a4,4,0,0,0,2-2.6h0Z" transform="translate(-206.6 -73.1)"/><path class="cls-20" d="M404,297.5,375.3,314c-2.4,1.4-6.1,1.6-8.2.4l-29.9-17.3a2.2,2.2,0,0,1-1.4-2.2h0v.7h0a2.4,2.4,0,0,0,1.4,2.2L367.1,315c2.1,1.3,5.8,1.1,8.2-.3L404,298.2a4,4,0,0,0,2-2.6h0v-.7h0A4,4,0,0,1,404,297.5Z" transform="translate(-206.6 -73.1)"/><path class="cls-7" d="M336.7,296.3h0V157.2h14.8l15.9-9.2a9.4,9.4,0,0,1,8.3-.3l16.4,9.5H406v-.7H391.2L374.7,147a8.9,8.9,0,0,0-8.2.4l-15.9,9.1H335.8V295.6h0a2.4,2.4,0,0,0,1.4,2.2h.2A2.1,2.1,0,0,1,336.7,296.3Z" transform="translate(-206.6 -73.1)"/><path class="cls-8" d="M405.1,157.3V296.4h0a2.1,2.1,0,0,1-.7,1.5,3.4,3.4,0,0,0,1.6-2.3h0v-139Z" transform="translate(-206.6 -73.1)"/><path class="cls-21" d="M367.1,176l-29.9-17.3c-2.1-1.2-1.8-3.3.6-4.7l28.7-16.6a9.1,9.1,0,0,1,8.2-.3l29.9,17.2c2.1,1.2,1.8,3.4-.6,4.8l-28.7,16.5C372.9,177,369.2,177.2,367.1,176Z" transform="translate(-206.6 -73.1)"/><path class="cls-8" d="M404.6,154.3l-29.9-17.2a6.9,6.9,0,0,0-4.1-.8,6.1,6.1,0,0,1,3,.8l29.8,17.2c2.1,1.2,1.8,3.4-.6,4.8l-28.6,16.5a9.7,9.7,0,0,1-4.1,1.2,9.3,9.3,0,0,0,5.2-1.2L404,159.1C406.4,157.7,406.7,155.5,404.6,154.3Z" transform="translate(-206.6 -73.1)"/><path class="cls-7" d="M368.4,176l-29.8-17.3c-2.2-1.2-1.9-3.3.6-4.7l28.6-16.6a10.8,10.8,0,0,1,4-1.1,9.6,9.6,0,0,0-5.3,1.1L337.8,154c-2.4,1.4-2.7,3.5-.6,4.7L367.1,176a7.9,7.9,0,0,0,4.2.8A8.2,8.2,0,0,1,368.4,176Z" transform="translate(-206.6 -73.1)"/><path class="cls-10" d="M343.5,286l20.3,11.7a.7.7,0,0,0,1.1-.6V190.8a1.6,1.6,0,0,0-.8-1.4l-20.2-11.7a.8.8,0,0,0-1.2.7V284.7A1.4,1.4,0,0,0,343.5,286Z" transform="translate(-206.6 -73.1)"/><path class="cls-11" d="M343.4,177.6a.9.9,0,0,0-.3.6V284.5a1.6,1.6,0,0,0,.8,1.4l20.2,11.7h.5a.8.8,0,0,1-.8,0L343.5,286a1.4,1.4,0,0,1-.8-1.3V178.4A.8.8,0,0,1,343.4,177.6Z" transform="translate(-206.6 -73.1)"/><path class="cls-11" d="M361.3,208.6l-15-8.7a.9.9,0,0,1-.5-.8v-1.4c0-.3.2-.5.5-.3l15,8.7a.9.9,0,0,1,.5.9v1.3C361.8,208.6,361.6,208.8,361.3,208.6Z" transform="translate(-206.6 -73.1)"/><path class="cls-12" d="M346.9,199.6a1.2,1.2,0,0,1-.5-.9v-1.2h-.1c-.3-.2-.5,0-.5.3v1.4a.9.9,0,0,0,.5.8l15,8.7c.3.2.5,0,.5-.3h0Z" transform="translate(-206.6 -73.1)"/><path class="cls-11" d="M361.3,212.4l-15-8.7a.9.9,0,0,1-.5-.8v-1.3c0-.4.2-.5.5-.4l15,8.7a1.1,1.1,0,0,1,.5.9v1.3C361.8,212.4,361.6,212.6,361.3,212.4Z" transform="translate(-206.6 -73.1)"/><path class="cls-12" d="M346.9,203.4a1.1,1.1,0,0,1-.5-.9v-1.2h-.1c-.3-.1-.5,0-.5.4v1.3a.9.9,0,0,0,.5.8l15,8.7c.3.2.5,0,.5-.3h0Z" transform="translate(-206.6 -73.1)"/><path class="cls-11" d="M361.3,216.3l-15-8.7a1.2,1.2,0,0,1-.5-.9v-1.3c0-.4.2-.5.5-.4l15,8.7a1.2,1.2,0,0,1,.5.9v1.3C361.8,216.2,361.6,216.4,361.3,216.3Z" transform="translate(-206.6 -73.1)"/><path class="cls-12" d="M346.9,207.2a.9.9,0,0,1-.5-.9v-1.2h-.1c-.3-.1-.5,0-.5.4v1.3a1.2,1.2,0,0,0,.5.9l15,8.7c.3.1.5-.1.5-.4h0Z" transform="translate(-206.6 -73.1)"/><path class="cls-11" d="M361.3,220.1l-15-8.7a1.2,1.2,0,0,1-.5-.9v-1.3c0-.4.2-.5.5-.4l15,8.7a1.2,1.2,0,0,1,.5.9v1.3C361.8,220.1,361.6,220.2,361.3,220.1Z" transform="translate(-206.6 -73.1)"/><path class="cls-12" d="M346.9,211a.9.9,0,0,1-.5-.9v-1.2h-.1c-.3-.1-.5,0-.5.4v1.3a1.2,1.2,0,0,0,.5.9l15,8.7c.3.1.5,0,.5-.4h0Z" transform="translate(-206.6 -73.1)"/><path class="cls-11" d="M361.3,228l-15-8.7a1.2,1.2,0,0,1-.5-.9v-1.3c0-.4.2-.5.5-.4l15,8.7a1.2,1.2,0,0,1,.5.9v1.3C361.8,228,361.6,228.1,361.3,228Z" transform="translate(-206.6 -73.1)"/><path class="cls-12" d="M346.9,218.9a.9.9,0,0,1-.5-.9v-1.2h-.1c-.3-.1-.5,0-.5.4v1.3a1.2,1.2,0,0,0,.5.9l15,8.7c.3.1.5,0,.5-.4h0Z" transform="translate(-206.6 -73.1)"/><path class="cls-11" d="M361.3,231.8l-15-8.7a1.2,1.2,0,0,1-.5-.9v-1.3c0-.4.2-.5.5-.4l15,8.7a1.2,1.2,0,0,1,.5.9v1.3C361.8,231.8,361.6,231.9,361.3,231.8Z" transform="translate(-206.6 -73.1)"/><path class="cls-12" d="M346.9,222.7a.9.9,0,0,1-.5-.9v-1.2h-.1c-.3-.1-.5,0-.5.4v1.3a1.2,1.2,0,0,0,.5.9l15,8.7c.3.1.5,0,.5-.4h0Z" transform="translate(-206.6 -73.1)"/><path class="cls-11" d="M361.3,235.6l-15-8.7a1.2,1.2,0,0,1-.5-.9v-1.3c0-.4.2-.5.5-.4l15,8.7a1.2,1.2,0,0,1,.5.9v1.3C361.8,235.6,361.6,235.7,361.3,235.6Z" transform="translate(-206.6 -73.1)"/><path class="cls-12" d="M346.9,226.5a.9.9,0,0,1-.5-.8v-1.3h-.1c-.3-.1-.5,0-.5.4V226a1.2,1.2,0,0,0,.5.9l15,8.7c.3.1.5,0,.5-.4h0Z" transform="translate(-206.6 -73.1)"/><path class="cls-11" d="M361.3,239.4l-15-8.7a1.1,1.1,0,0,1-.5-.9v-1.3c0-.3.2-.5.5-.3l15,8.7a.9.9,0,0,1,.5.8V239C361.8,239.4,361.6,239.5,361.3,239.4Z" transform="translate(-206.6 -73.1)"/><path class="cls-12" d="M346.9,230.3a.9.9,0,0,1-.5-.8v-1.3h-.1c-.3-.2-.5,0-.5.3v1.3a1.1,1.1,0,0,0,.5.9l15,8.7c.3.1.5,0,.5-.4h0Z" transform="translate(-206.6 -73.1)"/><path class="cls-11" d="M361.3,247.3l-15-8.7a1.1,1.1,0,0,1-.5-.9v-1.3c0-.3.2-.5.5-.3l15,8.7a.9.9,0,0,1,.5.8v1.3C361.8,247.3,361.6,247.4,361.3,247.3Z" transform="translate(-206.6 -73.1)"/><path class="cls-12" d="M346.9,238.2a.9.9,0,0,1-.5-.8v-1.3h-.1c-.3-.2-.5,0-.5.3v1.3a1.1,1.1,0,0,0,.5.9l15,8.7c.3.1.5,0,.5-.4h0Z" transform="translate(-206.6 -73.1)"/><path class="cls-11" d="M361.3,251.1l-15-8.7a.9.9,0,0,1-.5-.9v-1.3c0-.3.2-.5.5-.3l15,8.7a.9.9,0,0,1,.5.8v1.4C361.8,251.1,361.6,251.3,361.3,251.1Z" transform="translate(-206.6 -73.1)"/><path class="cls-12" d="M346.9,242.1a1.2,1.2,0,0,1-.5-.9v-1.3h-.1c-.3-.2-.5,0-.5.3v1.3a.9.9,0,0,0,.5.9l15,8.7c.3.2.5,0,.5-.3h0Z" transform="translate(-206.6 -73.1)"/><path class="cls-11" d="M361.3,254.9l-15-8.7a.9.9,0,0,1-.5-.9V244c0-.3.2-.5.5-.3l15,8.7a.9.9,0,0,1,.5.9v1.3C361.8,254.9,361.6,255.1,361.3,254.9Z" transform="translate(-206.6 -73.1)"/><path class="cls-12" d="M346.9,245.9a1.2,1.2,0,0,1-.5-.9v-1.2h-.1c-.3-.2-.5,0-.5.3v1.3a.9.9,0,0,0,.5.9l15,8.7c.3.2.5,0,.5-.3h0Z" transform="translate(-206.6 -73.1)"/><path class="cls-11" d="M361.3,258.7l-15-8.7a.9.9,0,0,1-.5-.9v-1.3c0-.3.2-.5.5-.3l15,8.7a.9.9,0,0,1,.5.9v1.3C361.8,258.7,361.6,258.9,361.3,258.7Z" transform="translate(-206.6 -73.1)"/><path class="cls-12" d="M346.9,249.7a1.2,1.2,0,0,1-.5-.9v-1.2h-.1c-.3-.2-.5,0-.5.3v1.3a.9.9,0,0,0,.5.9l15,8.7c.3.2.5,0,.5-.3h0Z" transform="translate(-206.6 -73.1)"/><path class="cls-11" d="M361.3,266.6l-15-8.7a.9.9,0,0,1-.5-.9v-1.3c0-.3.2-.5.5-.3l15,8.7a.9.9,0,0,1,.5.9v1.3C361.8,266.6,361.6,266.8,361.3,266.6Z" transform="translate(-206.6 -73.1)"/><path class="cls-12" d="M346.9,257.6a1.2,1.2,0,0,1-.5-.9v-1.2h-.1c-.3-.2-.5,0-.5.3V257a.9.9,0,0,0,.5.9l15,8.7c.3.2.5,0,.5-.3h0Z" transform="translate(-206.6 -73.1)"/><path class="cls-11" d="M361.3,270.4l-15-8.7a.9.9,0,0,1-.5-.8v-1.4c0-.3.2-.5.5-.3l15,8.7a.9.9,0,0,1,.5.9v1.3C361.8,270.4,361.6,270.6,361.3,270.4Z" transform="translate(-206.6 -73.1)"/><path class="cls-12" d="M346.9,261.4a1.2,1.2,0,0,1-.5-.9v-1.2h-.1c-.3-.2-.5,0-.5.3v1.4a.9.9,0,0,0,.5.8l15,8.7c.3.2.5,0,.5-.3h0Z" transform="translate(-206.6 -73.1)"/><path class="cls-11" d="M361.3,274.2l-15-8.7a.9.9,0,0,1-.5-.8v-1.4c0-.3.2-.4.5-.3l15,8.7a.9.9,0,0,1,.5.9v1.3C361.8,274.2,361.6,274.4,361.3,274.2Z" transform="translate(-206.6 -73.1)"/><path class="cls-12" d="M346.9,265.2a1.1,1.1,0,0,1-.5-.9v-1.2h-.1c-.3-.1-.5,0-.5.3v1.4a.9.9,0,0,0,.5.8l15,8.7c.3.2.5,0,.5-.3h0Z" transform="translate(-206.6 -73.1)"/><path class="cls-11" d="M361.3,278.1l-15-8.8a.9.9,0,0,1-.5-.8v-1.3c0-.4.2-.5.5-.4l15,8.7a1.2,1.2,0,0,1,.5.9v1.3C361.8,278,361.6,278.2,361.3,278.1Z" transform="translate(-206.6 -73.1)"/><path class="cls-12" d="M346.9,269a.9.9,0,0,1-.5-.9v-1.2h-.1c-.3-.1-.5,0-.5.4v1.3a.9.9,0,0,0,.5.8l15,8.8c.3.1.5-.1.5-.4h0Z" transform="translate(-206.6 -73.1)"/><path class="cls-10" d="M380.1,149.2l-12.2-7c-.3-.1-.2-.4.1-.6h0a1.2,1.2,0,0,1,1,0l12.2,7c.2.2.2.4-.1.6h0A.9.9,0,0,1,380.1,149.2Z" transform="translate(-206.6 -73.1)"/><path class="cls-13" d="M367.8,142.1h.2a.9.9,0,0,1,1,0l12.2,7h0c.2-.2.2-.4,0-.5l-12.2-7a1.2,1.2,0,0,0-1,0C367.7,141.8,367.7,142,367.8,142.1Z" transform="translate(-206.6 -73.1)"/><path class="cls-10" d="M377.9,150.5l-12.2-7c-.2-.2-.2-.4.1-.6h0a1.2,1.2,0,0,1,1-.1l12.2,7.1c.2.1.2.4-.1.6h0A1.2,1.2,0,0,1,377.9,150.5Z" transform="translate(-206.6 -73.1)"/><path class="cls-10" d="M375.7,151.8l-12.2-7.1c-.2-.1-.2-.4.1-.6h1l12.2,7c.3.2.2.4-.1.6h0A1.2,1.2,0,0,1,375.7,151.8Z" transform="translate(-206.6 -73.1)"/><path class="cls-10" d="M373.5,153l-12.1-7q-.4-.3,0-.6h0a.9.9,0,0,1,1,0l12.2,7c.3.1.2.4-.1.6h0A1.2,1.2,0,0,1,373.5,153Z" transform="translate(-206.6 -73.1)"/><path class="cls-10" d="M371.4,154.3l-12.2-7.1c-.3-.1-.2-.4.1-.5h0a1.1,1.1,0,0,1,1-.1l12.1,7.1c.3.1.3.4,0,.5h0A1.2,1.2,0,0,1,371.4,154.3Z" transform="translate(-206.6 -73.1)"/><path class="cls-13" d="M365.6,143.4h.2a1.2,1.2,0,0,1,1-.1l12.2,7.1h.1a.2.2,0,0,0-.1-.4l-12.2-7.1a1.2,1.2,0,0,0-1,.1C365.5,143,365.5,143.2,365.6,143.4Z" transform="translate(-206.6 -73.1)"/><path class="cls-13" d="M363.5,144.6h.1c.3-.1.8-.2,1,0l12.2,7h.1c.1-.2.1-.3-.1-.5l-12.2-7h-1C363.4,144.3,363.3,144.5,363.5,144.6Z" transform="translate(-206.6 -73.1)"/><path class="cls-13" d="M361.3,145.9h.1a1.2,1.2,0,0,1,1-.1l12.2,7.1h.1a.2.2,0,0,0-.1-.4l-12.2-7a.9.9,0,0,0-1,0C361.2,145.5,361.1,145.8,361.3,145.9Z" transform="translate(-206.6 -73.1)"/><path class="cls-13" d="M359.1,147.2l.2-.2a1.2,1.2,0,0,1,1,0l12.2,7h0c.2-.2.2-.3,0-.4l-12.2-7.1a1.2,1.2,0,0,0-1,.1C359,146.8,359,147,359.1,147.2Z" transform="translate(-206.6 -73.1)"/><path class="cls-10" d="M395.6,158.2l-12.2-7c-.2-.2-.2-.4.1-.6h0a.9.9,0,0,1,1,0l12.2,7c.2.1.2.4-.1.6h0A1.2,1.2,0,0,1,395.6,158.2Z" transform="translate(-206.6 -73.1)"/><path class="cls-13" d="M383.3,151.1h.2a1.2,1.2,0,0,1,1-.1l12.2,7.1h.1a.2.2,0,0,0-.1-.4l-12.2-7a.9.9,0,0,0-1,0C383.2,150.7,383.2,150.9,383.3,151.1Z" transform="translate(-206.6 -73.1)"/><path class="cls-10" d="M393.4,159.5l-12.2-7.1c-.2-.1-.2-.4.1-.5h0a1.2,1.2,0,0,1,1-.1l12.2,7c.3.2.2.5-.1.6h0A1.2,1.2,0,0,1,393.4,159.5Z" transform="translate(-206.6 -73.1)"/><path class="cls-10" d="M391.2,160.7l-12.1-7q-.5-.3,0-.6h0a.9.9,0,0,1,1,0l12.2,7c.3.2.2.4-.1.6h0A.9.9,0,0,1,391.2,160.7Z" transform="translate(-206.6 -73.1)"/><path class="cls-10" d="M389.1,162l-12.2-7.1c-.3-.1-.2-.4.1-.5h0a1.2,1.2,0,0,1,1-.1l12.1,7.1c.3.1.3.4,0,.5h0A1.2,1.2,0,0,1,389.1,162Z" transform="translate(-206.6 -73.1)"/><path class="cls-10" d="M386.9,163.2l-12.2-7c-.3-.1-.2-.4.1-.6h0a1.2,1.2,0,0,1,1,0l12.2,7c.2.2.2.4-.1.6h0A.9.9,0,0,1,386.9,163.2Z" transform="translate(-206.6 -73.1)"/><path class="cls-13" d="M381.2,152.4c0-.1.1-.1.1-.2s.8-.2,1,0l12.2,7h.1c.1-.2.1-.3-.1-.5l-12.2-7a1.7,1.7,0,0,0-1,0C381.1,152,381,152.2,381.2,152.4Z" transform="translate(-206.6 -73.1)"/><path class="cls-13" d="M379,153.6h.1a1.2,1.2,0,0,1,1-.1l12.2,7.1h.1c.1-.2.1-.4-.1-.5l-12.2-7a.9.9,0,0,0-1,0C378.9,153.3,378.8,153.5,379,153.6Z" transform="translate(-206.6 -73.1)"/><path class="cls-13" d="M376.8,154.9l.2-.2h1l12.2,7h0a.2.2,0,0,0,0-.4L378,154.3a1.2,1.2,0,0,0-1,.1C376.7,154.5,376.7,154.7,376.8,154.9Z" transform="translate(-206.6 -73.1)"/><path class="cls-13" d="M374.6,156.1h.2a.9.9,0,0,1,1,0l12.2,7h.1c.1-.2.1-.4-.1-.5l-12.2-7a.9.9,0,0,0-1,0C374.5,155.8,374.5,156,374.6,156.1Z" transform="translate(-206.6 -73.1)"/><path class="cls-10" d="M367.3,156.7l-12.1-7.1c-.3-.1-.3-.4,0-.6h1l12.2,7c.3.2.2.4-.1.6h0A1.2,1.2,0,0,1,367.3,156.7Z" transform="translate(-206.6 -73.1)"/><path class="cls-13" d="M355.1,149.5h.1c.3-.1.8-.2,1,0l12.2,7h.1c.1-.2.1-.3-.1-.5l-12.2-7h-1C355,149.2,354.9,149.4,355.1,149.5Z" transform="translate(-206.6 -73.1)"/><path class="cls-10" d="M365.2,157.9l-12.2-7c-.3-.2-.2-.4.1-.6h0a.9.9,0,0,1,1,0l12.1,7c.3.1.3.4,0,.6h0C365.9,158,365.4,158.1,365.2,157.9Z" transform="translate(-206.6 -73.1)"/><path class="cls-10" d="M363,159.2l-12.2-7.1c-.3-.1-.2-.4.1-.5h0a1.2,1.2,0,0,1,1-.1l12.2,7.1c.2.1.2.4-.1.5h0A1.2,1.2,0,0,1,363,159.2Z" transform="translate(-206.6 -73.1)"/><path class="cls-10" d="M360.8,160.4l-12.2-7c-.2-.1-.2-.4.1-.6h0a.9.9,0,0,1,1,0l12.2,7c.2.2.2.4-.1.6h0A.9.9,0,0,1,360.8,160.4Z" transform="translate(-206.6 -73.1)"/><path class="cls-10" d="M358.6,161.7l-12.2-7c-.2-.2-.2-.5.1-.6h0a1.2,1.2,0,0,1,1-.1l12.2,7.1c.3.1.2.4-.1.6h0A1.7,1.7,0,0,1,358.6,161.7Z" transform="translate(-206.6 -73.1)"/><path class="cls-13" d="M352.9,150.8h.2a1.2,1.2,0,0,1,1-.1l12.1,7.1h.1c.2-.1.1-.3-.1-.4l-12.1-7a.9.9,0,0,0-1,0A.3.3,0,0,0,352.9,150.8Z" transform="translate(-206.6 -73.1)"/><path class="cls-13" d="M350.7,152.1l.2-.2a1.2,1.2,0,0,1,1,0l12.2,7h0c.2-.2.2-.3,0-.4l-12.2-7.1a1.2,1.2,0,0,0-1,.1C350.6,151.7,350.6,151.9,350.7,152.1Z" transform="translate(-206.6 -73.1)"/><path class="cls-13" d="M348.5,153.3h.2a.9.9,0,0,1,1,0l12.2,7h.1c.1-.2.1-.4-.1-.5l-12.2-7a.9.9,0,0,0-1,0C348.4,153,348.4,153.2,348.5,153.3Z" transform="translate(-206.6 -73.1)"/><path class="cls-13" d="M346.4,154.6h.1a1.2,1.2,0,0,1,1-.1l12.2,7h.1a.2.2,0,0,0-.1-.4L347.5,154a1.2,1.2,0,0,0-1,.1C346.3,154.2,346.2,154.4,346.4,154.6Z" transform="translate(-206.6 -73.1)"/><path class="cls-10" d="M382.9,165.6l-12.2-7c-.3-.2-.2-.4.1-.6h0a.9.9,0,0,1,1,0l12.1,7c.3.1.3.4,0,.6h0C383.6,165.7,383.1,165.8,382.9,165.6Z" transform="translate(-206.6 -73.1)"/><path class="cls-13" d="M370.6,158.5h.2a1.1,1.1,0,0,1,1-.1l12.1,7.1h.1c.2-.2.1-.4-.1-.5l-12.1-7a.9.9,0,0,0-1,0C370.5,158.2,370.5,158.4,370.6,158.5Z" transform="translate(-206.6 -73.1)"/><path class="cls-10" d="M380.7,166.9l-12.2-7.1c-.3-.1-.2-.4.1-.5h0a1.2,1.2,0,0,1,1-.1l12.2,7.1c.2.1.2.4-.1.5h0A1.2,1.2,0,0,1,380.7,166.9Z" transform="translate(-206.6 -73.1)"/><path class="cls-10" d="M378.5,168.1l-12.2-7c-.2-.1-.2-.4.1-.6h0a1.2,1.2,0,0,1,1,0l12.2,7c.2.2.2.4-.1.6h0A.9.9,0,0,1,378.5,168.1Z" transform="translate(-206.6 -73.1)"/><path class="cls-10" d="M376.3,169.4l-12.2-7c-.2-.2-.2-.4.1-.6h0a1.2,1.2,0,0,1,1-.1l12.2,7.1c.3.1.2.4-.1.6h-1Z" transform="translate(-206.6 -73.1)"/><path class="cls-10" d="M374.1,170.7,362,163.6c-.3-.1-.3-.4,0-.6h1l12.2,7c.3.2.2.4-.1.6h0A1.1,1.1,0,0,1,374.1,170.7Z" transform="translate(-206.6 -73.1)"/><path class="cls-13" d="M368.4,159.8l.2-.2h1l12.2,7h0a.2.2,0,0,0,0-.4l-12.2-7.1a1.2,1.2,0,0,0-1,.1C368.3,159.4,368.3,159.6,368.4,159.8Z" transform="translate(-206.6 -73.1)"/><path class="cls-13" d="M366.2,161h.2a.9.9,0,0,1,1,0l12.2,7h.1c.1-.2.1-.4-.1-.5l-12.2-7a.9.9,0,0,0-1,0C366.1,160.7,366.1,160.9,366.2,161Z" transform="translate(-206.6 -73.1)"/><path class="cls-13" d="M364.1,162.3a.1.1,0,0,1,.1-.1,1.2,1.2,0,0,1,1-.1l12.2,7h.1a.2.2,0,0,0-.1-.4l-12.2-7.1a1.2,1.2,0,0,0-1,.1C364,161.9,363.9,162.1,364.1,162.3Z" transform="translate(-206.6 -73.1)"/><path class="cls-13" d="M361.9,163.5h.1a.9.9,0,0,1,1,0l12.2,7h.1c.2-.2.1-.4-.1-.5L363,163c-.2-.2-.7-.1-1,0S361.7,163.4,361.9,163.5Z" transform="translate(-206.6 -73.1)"/><path class="cls-10" d="M379,298.1h-.5a1.1,1.1,0,0,1-.6-.9V190.8a1.8,1.8,0,0,1,1-1.6l20.2-11.7a1.1,1.1,0,0,1,1.1,0,1.1,1.1,0,0,1,.5.9V284.7a2,2,0,0,1-1,1.6L379.5,298Zm20.6-120.2h-.2l-20.2,11.6a1.5,1.5,0,0,0-.7,1.2V297.1l.2.4a.4.4,0,0,0,.5,0l20.3-11.7a1.3,1.3,0,0,0,.6-1.1V178.4c0-.2-.1-.4-.2-.4Z" transform="translate(-206.6 -73.1)"/><path class="cls-10" d="M396.8,239.4l.5-.3c.2,0,.3-.3.3-.5v-5.7c0-.2-.1-.3-.3-.2l-.5.3a.8.8,0,0,0-.2.5v5.7C396.6,239.4,396.7,239.5,396.8,239.4Z" transform="translate(-206.6 -73.1)"/><path class="cls-3" d="M505.1,339.4l-16.2-9.3c-2-1.2-1.7-3.2.5-4.5l15.7-9c2.2-1.3,5.7-1.5,7.6-.3l16.2,9.3c2,1.2,1.8,3.1-.5,4.5l-15.6,9A8.7,8.7,0,0,1,505.1,339.4Z" transform="translate(-206.6 -73.1)"/><path class="cls-22" d="M508.3,343.3a9,9,0,0,1-4.2-1l-19.8-11.4a3.1,3.1,0,0,1-1.8-2.7,4.3,4.3,0,0,1,2.5-3.4l19-11c2.9-1.7,7.3-1.9,9.8-.4l19.7,11.4a3.2,3.2,0,0,1,1.9,2.7,4.3,4.3,0,0,1-2.5,3.4l-19.1,11A11.2,11.2,0,0,1,508.3,343.3Zm1.2-30.1a9.9,9.9,0,0,0-5.1,1.3l-19,11q-2.1,1.2-2.1,2.7a2.3,2.3,0,0,0,1.4,2l19.8,11.4c2.2,1.3,6.3,1.2,8.9-.4l19.1-11c1.3-.8,2.1-1.8,2.1-2.7a2.3,2.3,0,0,0-1.4-2l-19.8-11.4A8,8,0,0,0,509.5,313.2Z" transform="translate(-206.6 -73.1)"/><path class="cls-23" d="M530.3,309.5H516.5l-3.8-2.2a8.2,8.2,0,0,0-7.6.4l-3.8,2.2H487.6v9.2h0a2,2,0,0,0,1.3,2l16.2,9.4a8.7,8.7,0,0,0,7.7-.3l15.6-9.1a3.3,3.3,0,0,0,1.9-2.4h0Z" transform="translate(-206.6 -73.1)"/><path class="cls-24" d="M528.4,320.5l-15.6,9c-2.3,1.3-5.7,1.5-7.7.3l-16.2-9.3a2.1,2.1,0,0,1-1.3-2.1h0v.7h0a2,2,0,0,0,1.3,2l16.2,9.4a8.7,8.7,0,0,0,7.7-.3l15.6-9.1a3.3,3.3,0,0,0,1.9-2.4h0v-.6h0A3.5,3.5,0,0,1,528.4,320.5Z" transform="translate(-206.6 -73.1)"/><path class="cls-7" d="M488.4,319.7h0v-9.2h13.8l3.7-2.2c2.3-1.3,5.7-1.5,7.7-.3l3.8,2.2h12.9v-.7H516.5l-3.8-2.2a8.2,8.2,0,0,0-7.6.4l-3.8,2.2H487.6v9.2h0a2,2,0,0,0,1.3,2h.1A2.2,2.2,0,0,1,488.4,319.7Z" transform="translate(-206.6 -73.1)"/><path class="cls-25" d="M505.1,321.3l-16.2-9.4c-2-1.1-1.7-3.1.5-4.4l15.7-9.1a8.5,8.5,0,0,1,7.6-.3l16.2,9.4c2,1.1,1.8,3.1-.5,4.4l-15.6,9A8.4,8.4,0,0,1,505.1,321.3Z" transform="translate(-206.6 -73.1)"/><path class="cls-8" d="M528.9,307.5l-16.2-9.4a6.7,6.7,0,0,0-3.8-.7,6.4,6.4,0,0,1,2.8.7l16.2,9.4c1.9,1.1,1.7,3.1-.6,4.4l-15.6,9a8.4,8.4,0,0,1-3.8,1.1,9.1,9.1,0,0,0,4.9-1.1l15.6-9C530.7,310.6,530.9,308.6,528.9,307.5Z" transform="translate(-206.6 -73.1)"/><path class="cls-7" d="M506.3,321.3l-16.2-9.4c-1.9-1.1-1.7-3.1.6-4.4l15.6-9.1a9.3,9.3,0,0,1,3.7-1,9.2,9.2,0,0,0-4.9,1l-15.7,9.1c-2.2,1.3-2.5,3.3-.5,4.4l16.2,9.4a7,7,0,0,0,3.9.7A7.7,7.7,0,0,1,506.3,321.3Z" transform="translate(-206.6 -73.1)"/><path class="cls-3" d="M229.3,339.4l-16.2-9.3c-2-1.2-1.8-3.2.5-4.5l15.6-9c2.3-1.3,5.7-1.5,7.7-.3l16.2,9.3c2,1.2,1.7,3.1-.5,4.5l-15.7,9A8.5,8.5,0,0,1,229.3,339.4Z" transform="translate(-206.6 -73.1)"/><path class="cls-26" d="M232.5,343.3a9.7,9.7,0,0,1-4.3-1l-19.7-11.4a3.2,3.2,0,0,1-1.9-2.7,4.3,4.3,0,0,1,2.5-3.4l19.1-11c2.9-1.7,7.2-1.9,9.7-.4l19.8,11.4a3.1,3.1,0,0,1,1.8,2.7,4.3,4.3,0,0,1-2.5,3.4l-19,11A11.5,11.5,0,0,1,232.5,343.3Zm1.2-30.1a9.7,9.7,0,0,0-5.1,1.3l-19.1,11c-1.3.8-2.1,1.7-2.1,2.7a2.3,2.3,0,0,0,1.4,2l19.8,11.4c2.3,1.3,6.3,1.2,9-.4l19-11c1.4-.8,2.1-1.8,2.1-2.7a2.3,2.3,0,0,0-1.4-2l-19.8-11.4A7.6,7.6,0,0,0,233.7,313.2Z" transform="translate(-206.6 -73.1)"/><path class="cls-27" d="M254.4,309.5H240.7l-3.8-2.2a8.4,8.4,0,0,0-7.7.4l-3.8,2.2H211.7v9.2h0a2.3,2.3,0,0,0,1.4,2l16.2,9.4a8.5,8.5,0,0,0,7.6-.3l15.7-9.1c1.1-.7,1.8-1.5,1.8-2.4h0Z" transform="translate(-206.6 -73.1)"/><path class="cls-28" d="M252.6,320.5l-15.7,9c-2.2,1.3-5.7,1.5-7.6.3l-16.2-9.3a2.4,2.4,0,0,1-1.4-2.1h0v.7h0a2.3,2.3,0,0,0,1.4,2l16.2,9.4a8.5,8.5,0,0,0,7.6-.3l15.7-9.1c1.1-.7,1.8-1.5,1.8-2.4h0v-.6h0A3.3,3.3,0,0,1,252.6,320.5Z" transform="translate(-206.6 -73.1)"/><path class="cls-7" d="M212.6,319.7h0v-9.2h13.7l3.8-2.2c2.3-1.3,5.7-1.5,7.7-.3l3.8,2.2h12.8v-.7H240.7l-3.8-2.2a8.4,8.4,0,0,0-7.7.4l-3.8,2.2H211.7v9.2h0a2.3,2.3,0,0,0,1.4,2h.1A2.2,2.2,0,0,1,212.6,319.7Z" transform="translate(-206.6 -73.1)"/><path class="cls-29" d="M229.3,321.3l-16.2-9.4c-2-1.1-1.8-3.1.5-4.4l15.6-9.1a8.7,8.7,0,0,1,7.7-.3l16.2,9.4c2,1.1,1.7,3.1-.5,4.4l-15.7,9A8.2,8.2,0,0,1,229.3,321.3Z" transform="translate(-206.6 -73.1)"/><path class="cls-8" d="M253.1,307.5l-16.2-9.4a6.8,6.8,0,0,0-3.9-.7,5.8,5.8,0,0,1,2.8.7l16.2,9.4c2,1.1,1.7,3.1-.5,4.4l-15.6,9a8.4,8.4,0,0,1-3.8,1.1,8.9,8.9,0,0,0,4.8-1.1l15.7-9C254.8,310.6,255.1,308.6,253.1,307.5Z" transform="translate(-206.6 -73.1)"/><path class="cls-7" d="M230.5,321.3l-16.2-9.4c-2-1.1-1.7-3.1.5-4.4l15.7-9.1a8.8,8.8,0,0,1,3.7-1,9.4,9.4,0,0,0-5,1l-15.6,9.1c-2.3,1.3-2.5,3.3-.5,4.4l16.2,9.4a6.8,6.8,0,0,0,3.9.7A7.1,7.1,0,0,1,230.5,321.3Z" transform="translate(-206.6 -73.1)"/><path class="cls-3" d="M435.8,389.8l-33.3-19.2c-2.3-1.4-2.1-3.8.7-5.4l31.9-18.4c2.8-1.6,6.9-1.8,9.3-.4l33.3,19.2c2.3,1.4,2,3.8-.7,5.3l-32,18.5A10.3,10.3,0,0,1,435.8,389.8Z" transform="translate(-206.6 -73.1)"/><path class="cls-30" d="M439.8,395.1a11.2,11.2,0,0,1-5-1.1l-39.2-22.7a3.4,3.4,0,0,1-2-3c0-1.5,1-2.9,2.8-3.9l37.7-21.8c3.3-1.9,8.3-2.1,11.2-.4l39.2,22.6a3.6,3.6,0,0,1,2.1,3.1c0,1.4-1,2.8-2.8,3.9l-37.7,21.7A12.3,12.3,0,0,1,439.8,395.1Zm-4.6-1.8c2.7,1.5,7.4,1.3,10.5-.5l37.7-21.7c1.5-.9,2.4-2.1,2.4-3.2a2.9,2.9,0,0,0-1.6-2.4l-39.3-22.6c-2.6-1.6-7.3-1.4-10.4.4l-37.7,21.8c-1.6.9-2.5,2-2.5,3.2a3,3,0,0,0,1.7,2.4Z" transform="translate(-206.6 -73.1)"/><path class="cls-31" d="M479.3,282.5H462.8l-18.4-10.6c-2.4-1.4-6.5-1.2-9.3.4l-17.7,10.2H400.9v47.8h0a2.7,2.7,0,0,0,1.6,2.4L435.8,352a10.3,10.3,0,0,0,9.2-.4l32-18.5c1.4-.8,2.2-1.8,2.2-2.8h.1Z" transform="translate(-206.6 -73.1)"/><path class="cls-32" d="M477,332.4l-32,18.4c-2.7,1.6-6.8,1.8-9.2.4L402.5,332a3,3,0,0,1-1.6-2.5h0v.8h0a2.7,2.7,0,0,0,1.6,2.4L435.8,352a10.3,10.3,0,0,0,9.2-.4l32-18.5c1.4-.8,2.2-1.8,2.2-2.8h.1v-.8h-.1C479.2,330.5,478.4,331.5,477,332.4Z" transform="translate(-206.6 -73.1)"/><path class="cls-7" d="M402,331h0V283.3h16.5L436.2,273c2.7-1.5,6.9-1.7,9.2-.3l18.4,10.6h15.5v-.8H462.8l-18.4-10.6c-2.4-1.4-6.5-1.2-9.3.4l-17.7,10.2H400.9v47.8h0a2.7,2.7,0,0,0,1.6,2.4l.2.2A2.4,2.4,0,0,1,402,331Z" transform="translate(-206.6 -73.1)"/><path class="cls-8" d="M478.3,283.4v47.7h0a2.7,2.7,0,0,1-.8,1.7,3.4,3.4,0,0,0,1.7-2.5h.1V282.6A3.9,3.9,0,0,0,478.3,283.4Z" transform="translate(-206.6 -73.1)"/><path class="cls-33" d="M435.8,304.2,402.5,285c-2.3-1.4-2.1-3.8.7-5.4l31.9-18.4c2.8-1.6,6.9-1.8,9.3-.4L477.7,280c2.3,1.4,2,3.8-.7,5.4l-32,18.4C442.3,305.4,438.2,305.6,435.8,304.2Z" transform="translate(-206.6 -73.1)"/><path class="cls-8" d="M477.7,280l-33.3-19.2a8.6,8.6,0,0,0-4.7-.9,8.5,8.5,0,0,1,3.4.9L476.4,280c2.3,1.4,2,3.8-.7,5.4l-32,18.4a9.8,9.8,0,0,1-4.5,1.3,10.4,10.4,0,0,0,5.8-1.3l32-18.4C479.7,283.8,480,281.4,477.7,280Z" transform="translate(-206.6 -73.1)"/><path class="cls-34" d="M436.9,298.7l-24.8-14.4c-1.7-1-1.5-2.8.5-3.9l23.8-13.8c2-1.1,5.1-1.3,6.9-.2l24.8,14.3c1.7,1,1.5,2.8-.5,3.9l-23.8,13.8C441.7,299.5,438.7,299.7,436.9,298.7Z" transform="translate(-206.6 -73.1)"/><path class="cls-11" d="M437.8,294.2l-18-10.4c-1.3-.7-1.1-2,.4-2.8l17.2-10a5.9,5.9,0,0,1,5-.2l18,10.4c1.2.7,1.1,2-.4,2.8l-17.2,10A5.9,5.9,0,0,1,437.8,294.2Z" transform="translate(-206.6 -73.1)"/><path class="cls-7" d="M437.3,304.2,404,285c-2.4-1.4-2.1-3.8.7-5.4l31.9-18.4a9.8,9.8,0,0,1,4.5-1.3,11.5,11.5,0,0,0-6,1.3l-31.9,18.4c-2.8,1.6-3,4-.7,5.4l33.3,19.2a8.8,8.8,0,0,0,4.7.9A8,8,0,0,1,437.3,304.2Z" transform="translate(-206.6 -73.1)"/><g class="cls-35"><path class="cls-12" d="M420.2,282.4l17.2-10a5.9,5.9,0,0,1,5-.2l18,10.4.6.5a1.3,1.3,0,0,0-.6-1.9l-18-10.4a5.9,5.9,0,0,0-5,.2l-17.2,10c-1.2.6-1.5,1.5-1,2.3A1.8,1.8,0,0,1,420.2,282.4Z" transform="translate(-206.6 -73.1)"/><path class="cls-36" d="M420.2,284.1l17.2-10a5.5,5.5,0,0,1,5-.2l18,10.4a1,1,0,0,1,.5.4,1.3,1.3,0,0,0-.5-2.1l-18-10.4a5.9,5.9,0,0,0-5,.2l-17.2,10c-1.2.7-1.5,1.7-.9,2.4A2.2,2.2,0,0,1,420.2,284.1Z" transform="translate(-206.6 -73.1)"/><path class="cls-37" d="M419.5,286.7l.7-.6,17.2-9.9a5.2,5.2,0,0,1,5-.2l18,10.3.3.3a1.3,1.3,0,0,0-.3-2.3l-18-10.4a5.5,5.5,0,0,0-5,.2l-17.2,10C418.9,284.8,418.6,285.9,419.5,286.7Z" transform="translate(-206.6 -73.1)"/></g><path class="cls-11" d="M451.6,339.4l-1.9,1.1c-.5.2-.8-.1-.8-.7V314a1.9,1.9,0,0,1,.8-1.6l1.9-1.1c.4-.3.8,0,.8.7v25.7A2.3,2.3,0,0,1,451.6,339.4Z" transform="translate(-206.6 -73.1)"/><path class="cls-12" d="M451.6,311.3l-.5.3v25.3a2.1,2.1,0,0,1-.8,1.6l-1.4.8v.5c0,.6.3.9.8.7l1.9-1.1a2.3,2.3,0,0,0,.8-1.7V312C452.4,311.3,452,311,451.6,311.3Z" transform="translate(-206.6 -73.1)"/><path class="cls-11" d="M458.4,335.5l-1.9,1c-.4.3-.8,0-.8-.6V310.1a2.1,2.1,0,0,1,.8-1.6l1.9-1.1c.4-.3.8,0,.8.6v25.8A2.5,2.5,0,0,1,458.4,335.5Z" transform="translate(-206.6 -73.1)"/><path class="cls-11" d="M465.2,331.5l-1.9,1.1c-.4.3-.8,0-.8-.7V306.2a2.3,2.3,0,0,1,.8-1.7l1.9-1c.4-.3.8,0,.8.6v25.8A2.1,2.1,0,0,1,465.2,331.5Z" transform="translate(-206.6 -73.1)"/><path class="cls-11" d="M472,327.6l-1.9,1.1c-.4.2-.8,0-.8-.7V302.2a2.3,2.3,0,0,1,.8-1.6l1.9-1.1c.4-.2.8,0,.8.7V326A2.3,2.3,0,0,1,472,327.6Z" transform="translate(-206.6 -73.1)"/><path class="cls-12" d="M458.4,307.4l-.5.2V333a2.3,2.3,0,0,1-.8,1.6l-1.4.8v.5c0,.6.4.9.8.6l1.9-1a2.5,2.5,0,0,0,.8-1.7V308C459.2,307.4,458.8,307.1,458.4,307.4Z" transform="translate(-206.6 -73.1)"/><path class="cls-12" d="M465.2,303.5l-.5.2V329a2.3,2.3,0,0,1-.8,1.7l-1.4.8v.4c0,.7.4,1,.8.7l1.9-1.1a2.1,2.1,0,0,0,.8-1.6V304.1C466,303.5,465.6,303.2,465.2,303.5Z" transform="translate(-206.6 -73.1)"/><path class="cls-12" d="M472,299.5l-.5.3v25.3a2.1,2.1,0,0,1-.8,1.6l-1.4.9v.4c0,.7.4.9.8.7l1.9-1.1a2.3,2.3,0,0,0,.8-1.6V300.2C472.8,299.5,472.4,299.3,472,299.5Z" transform="translate(-206.6 -73.1)"/><path class="cls-13" d="M433.1,342.6l-.7-.2-24.1-13.9a3.5,3.5,0,0,1-1.4-2.8V298.4a1.7,1.7,0,0,1,.6-1.4,1.1,1.1,0,0,1,1.1.1L432.7,311a3.6,3.6,0,0,1,1.5,2.8v27.3a1.4,1.4,0,0,1-.7,1.3Zm-.4-.7a.6.6,0,0,0,.6,0c.2-.1.3-.4.3-.8V313.8a3.1,3.1,0,0,0-1.2-2.3l-24.1-13.9a.6.6,0,0,0-.6-.1c-.2.1-.3.5-.3.9v27.3a3.3,3.3,0,0,0,1.2,2.3Z" transform="translate(-206.6 -73.1)"/><path class="cls-11" d="M411.6,303.7c0,.8-.6,1.1-1.2.7a2.5,2.5,0,0,1-1.2-2c0-.8.5-1.1,1.2-.7A2.8,2.8,0,0,1,411.6,303.7Z" transform="translate(-206.6 -73.1)"/><path class="cls-11" d="M411.6,307.5c0,.8-.6,1.1-1.2.7a2.5,2.5,0,0,1-1.2-2c0-.8.5-1.1,1.2-.7A2.8,2.8,0,0,1,411.6,307.5Z" transform="translate(-206.6 -73.1)"/><path class="cls-11" d="M411.6,311.3c0,.8-.6,1.1-1.2.7a2.5,2.5,0,0,1-1.2-2c0-.8.5-1.1,1.2-.7A2.8,2.8,0,0,1,411.6,311.3Z" transform="translate(-206.6 -73.1)"/><path class="cls-12" d="M411,311.5a2.4,2.4,0,0,1-1.2-2,.6.6,0,0,1,.1-.4c-.4,0-.7.3-.7.9a2.5,2.5,0,0,0,1.2,2,.7.7,0,0,0,1.1-.3Z" transform="translate(-206.6 -73.1)"/><path class="cls-12" d="M411,307.7a2.4,2.4,0,0,1-1.2-2,.6.6,0,0,1,.1-.4c-.4,0-.7.3-.7.9a2.5,2.5,0,0,0,1.2,2,.7.7,0,0,0,1.1-.3Z" transform="translate(-206.6 -73.1)"/><path class="cls-12" d="M411,303.9a2.4,2.4,0,0,1-1.2-2,.6.6,0,0,1,.1-.4c-.4,0-.7.3-.7.9a2.5,2.5,0,0,0,1.2,2,.7.7,0,0,0,1.1-.3Z" transform="translate(-206.6 -73.1)"/><path class="cls-13" d="M430.9,328.9l-.8-.4a1.2,1.2,0,0,1-.4-.8v-3.8c0-.3.2-.4.4-.3l.8.5a1,1,0,0,1,.4.8v3.7C431.3,328.9,431.1,329.1,430.9,328.9Z" transform="translate(-206.6 -73.1)"/><path class="cls-38" d="M461.2,192.6H419v90h0a1.4,1.4,0,0,0,.9,1.2l17.9,10.4a5.9,5.9,0,0,0,5-.2l17.2-9.9c.8-.5,1.2-1,1.2-1.6h0Z" transform="translate(-206.6 -73.1)"/><path class="cls-39" d="M459.2,201.2H421v81.4h0a1.4,1.4,0,0,0,.8,1.2l16.2,9.3a4.8,4.8,0,0,0,4.5-.2l15.6-9c.7-.4,1.1-.9,1.1-1.3h0Z" transform="translate(-206.6 -73.1)"/><path class="cls-11" d="M431.7,275.1a1.6,1.6,0,0,1-3.2,0,1.6,1.6,0,1,1,3.2,0Z" transform="translate(-206.6 -73.1)"/><path class="cls-11" d="M444.6,264.5a2.7,2.7,0,1,1-2.7-2.7A2.7,2.7,0,0,1,444.6,264.5Z" transform="translate(-206.6 -73.1)"/><path class="cls-11" d="M439.3,262.8a.7.7,0,0,1-.7.7.7.7,0,1,1,0-1.4A.7.7,0,0,1,439.3,262.8Z" transform="translate(-206.6 -73.1)"/><path class="cls-11" d="M451.7,249.3a1.3,1.3,0,0,1-1.3,1.4,1.4,1.4,0,0,1-1.4-1.4,1.3,1.3,0,0,1,1.4-1.3A1.3,1.3,0,0,1,451.7,249.3Z" transform="translate(-206.6 -73.1)"/><path class="cls-11" d="M444.2,237.9a1,1,0,0,1-.9,1,1.1,1.1,0,0,1-1-1,1,1,0,0,1,1-.9A.9.9,0,0,1,444.2,237.9Z" transform="translate(-206.6 -73.1)"/><path class="cls-11" d="M433.4,230.7a1.8,1.8,0,0,1-1.7,1.7,1.8,1.8,0,0,1-1.8-1.7,1.8,1.8,0,0,1,1.8-1.8A1.8,1.8,0,0,1,433.4,230.7Z" transform="translate(-206.6 -73.1)"/><path class="cls-11" d="M444.6,218.5a3.5,3.5,0,1,1-3.4-3.5A3.5,3.5,0,0,1,444.6,218.5Z" transform="translate(-206.6 -73.1)"/><path class="cls-11" d="M437.7,216.3a1,1,0,0,1-2,0,1,1,0,0,1,2,0Z" transform="translate(-206.6 -73.1)"/><circle class="cls-11" cx="237.3" cy="149.6" r="1.1"/><path class="cls-11" d="M445.9,220.3a.5.5,0,0,1-.5.5.6.6,0,0,1-.6-.5.6.6,0,0,1,.6-.6A.6.6,0,0,1,445.9,220.3Z" transform="translate(-206.6 -73.1)"/><path class="cls-11" d="M453,208.6a1.6,1.6,0,0,1-1.6,1.5,1.5,1.5,0,0,1-1.5-1.5,1.6,1.6,0,0,1,1.5-1.6A1.6,1.6,0,0,1,453,208.6Z" transform="translate(-206.6 -73.1)"/><path class="cls-3" d="M297.6,389.8l-33.2-19.2c-2.4-1.4-2.1-3.8.6-5.4l32-18.4c2.7-1.6,6.8-1.8,9.2-.4l33.3,19.2c2.4,1.4,2.1,3.8-.7,5.3l-31.9,18.5C304.1,391,300,391.1,297.6,389.8Z" transform="translate(-206.6 -73.1)"/><path class="cls-40" d="M301.6,395.1a10.7,10.7,0,0,1-4.9-1.1l-39.2-22.7a3.4,3.4,0,0,1-2.1-3c0-1.5,1-2.9,2.9-3.9l37.6-21.8c3.3-1.9,8.4-2.1,11.3-.4l39.2,22.6a3.8,3.8,0,0,1,2.1,3.1c0,1.4-1.1,2.8-2.9,3.9L308,393.5A12.9,12.9,0,0,1,301.6,395.1Zm-4.5-1.8c2.7,1.5,7.4,1.3,10.5-.5l37.6-21.7c1.6-.9,2.5-2.1,2.5-3.2a2.9,2.9,0,0,0-1.7-2.4l-39.2-22.6c-2.7-1.6-7.4-1.4-10.5.4l-37.7,21.8c-1.5.9-2.4,2-2.4,3.2a3,3,0,0,0,1.7,2.4Z" transform="translate(-206.6 -73.1)"/><path class="cls-41" d="M341.1,282.5H324.6l-18.4-10.6c-2.4-1.4-6.5-1.2-9.2.4l-17.7,10.2H262.8v47.8h0a2.4,2.4,0,0,0,1.6,2.4L297.6,352c2.4,1.3,6.5,1.2,9.3-.4l31.9-18.5a3.8,3.8,0,0,0,2.3-2.8h0Z" transform="translate(-206.6 -73.1)"/><path class="cls-42" d="M338.8,332.4l-31.9,18.4c-2.8,1.6-6.9,1.8-9.3.4L264.4,332a2.6,2.6,0,0,1-1.6-2.5h0v.8h0a2.4,2.4,0,0,0,1.6,2.4L297.6,352c2.4,1.3,6.5,1.2,9.3-.4l31.9-18.5a3.8,3.8,0,0,0,2.3-2.8h0v-.8h0C341,330.5,340.3,331.5,338.8,332.4Z" transform="translate(-206.6 -73.1)"/><path class="cls-7" d="M263.8,331h0V283.3h16.5L298,273c2.8-1.5,6.9-1.7,9.3-.3l18.3,10.6h15.5v-.8H324.6l-18.4-10.6c-2.4-1.4-6.5-1.2-9.2.4l-17.7,10.2H262.8v47.8h0a2.4,2.4,0,0,0,1.6,2.4v.2A2.8,2.8,0,0,1,263.8,331Z" transform="translate(-206.6 -73.1)"/><path class="cls-8" d="M340.2,283.4v47.7h0a4.4,4.4,0,0,1-.8,1.7,4.2,4.2,0,0,0,1.7-2.5h0V282.6A3.4,3.4,0,0,0,340.2,283.4Z" transform="translate(-206.6 -73.1)"/><path class="cls-43" d="M297.6,304.2,264.4,285c-2.4-1.4-2.1-3.8.6-5.4l32-18.4c2.7-1.6,6.8-1.8,9.2-.4L339.5,280c2.4,1.4,2.1,3.8-.7,5.4l-31.9,18.4C304.1,305.4,300,305.6,297.6,304.2Z" transform="translate(-206.6 -73.1)"/><path class="cls-8" d="M339.5,280l-33.3-19.2a8.5,8.5,0,0,0-4.6-.9,8.5,8.5,0,0,1,3.3.9L338.2,280c2.4,1.4,2.1,3.8-.7,5.4l-31.9,18.4a10.2,10.2,0,0,1-4.6,1.3,10.9,10.9,0,0,0,5.9-1.3l31.9-18.4C341.6,283.8,341.9,281.4,339.5,280Z" transform="translate(-206.6 -73.1)"/><path class="cls-44" d="M298.7,298.7,274,284.3c-1.8-1-1.6-2.8.5-3.9l23.7-13.8c2.1-1.1,5.2-1.3,6.9-.2l24.8,14.3c1.8,1,1.5,2.8-.5,3.9l-23.8,13.8A8,8,0,0,1,298.7,298.7Z" transform="translate(-206.6 -73.1)"/><path class="cls-11" d="M299.6,294.2l-17.9-10.4c-1.3-.7-1.2-2,.3-2.8l17.3-10a5.6,5.6,0,0,1,4.9-.2l18,10.4c1.3.7,1.1,2-.4,2.8l-17.2,10A5.9,5.9,0,0,1,299.6,294.2Z" transform="translate(-206.6 -73.1)"/><path class="cls-7" d="M299.1,304.2,265.9,285c-2.4-1.4-2.1-3.8.6-5.4l32-18.4a9.8,9.8,0,0,1,4.5-1.3,11,11,0,0,0-6,1.3l-32,18.4c-2.7,1.6-3,4-.6,5.4l33.2,19.2a9.2,9.2,0,0,0,4.8.9A8.5,8.5,0,0,1,299.1,304.2Z" transform="translate(-206.6 -73.1)"/><g class="cls-45"><path class="cls-12" d="M282,282.4l17.3-10a5.6,5.6,0,0,1,4.9-.2l18,10.4a1,1,0,0,1,.6.5c.5-.7.3-1.4-.6-1.9l-18-10.4a5.6,5.6,0,0,0-4.9.2L282,281c-1.1.6-1.5,1.5-1,2.3A1.8,1.8,0,0,1,282,282.4Z" transform="translate(-206.6 -73.1)"/><path class="cls-36" d="M282,284.1l17.3-10a5.3,5.3,0,0,1,4.9-.2l18,10.4a1,1,0,0,1,.5.4,1.3,1.3,0,0,0-.5-2.1l-18-10.4a5.6,5.6,0,0,0-4.9.2l-17.3,10c-1.2.7-1.5,1.7-.9,2.4A2.2,2.2,0,0,1,282,284.1Z" transform="translate(-206.6 -73.1)"/><path class="cls-37" d="M281.3,286.7l.7-.6,17.3-9.9a5.1,5.1,0,0,1,4.9-.2l18,10.3.4.3a1.4,1.4,0,0,0-.4-2.3l-18-10.4a5.3,5.3,0,0,0-4.9.2l-17.3,10C280.7,284.8,280.4,285.9,281.3,286.7Z" transform="translate(-206.6 -73.1)"/></g><path class="cls-11" d="M313.4,339.4l-1.8,1.1c-.5.2-.9-.1-.9-.7V314a2,2,0,0,1,.9-1.6l1.8-1.1c.5-.3.9,0,.9.7v25.7A2.1,2.1,0,0,1,313.4,339.4Z" transform="translate(-206.6 -73.1)"/><path class="cls-12" d="M313.4,311.3l-.4.3v25.3a1.9,1.9,0,0,1-.9,1.6l-1.4.8v.5c0,.6.4.9.9.7l1.8-1.1a2.1,2.1,0,0,0,.9-1.7V312C314.3,311.3,313.9,311,313.4,311.3Z" transform="translate(-206.6 -73.1)"/><path class="cls-11" d="M320.2,335.5l-1.8,1c-.5.3-.9,0-.9-.6V310.1a1.9,1.9,0,0,1,.9-1.6l1.8-1.1c.5-.3.9,0,.9.6v25.8A2.2,2.2,0,0,1,320.2,335.5Z" transform="translate(-206.6 -73.1)"/><path class="cls-11" d="M327,331.5l-1.8,1.1c-.5.3-.9,0-.9-.7V306.2a2.1,2.1,0,0,1,.9-1.7l1.8-1c.5-.3.9,0,.9.6v25.8A1.9,1.9,0,0,1,327,331.5Z" transform="translate(-206.6 -73.1)"/><path class="cls-11" d="M333.8,327.6l-1.8,1.1c-.5.2-.9,0-.9-.7V302.2a2,2,0,0,1,.9-1.6l1.8-1.1c.5-.2.9,0,.9.7V326A2,2,0,0,1,333.8,327.6Z" transform="translate(-206.6 -73.1)"/><path class="cls-12" d="M320.2,307.4l-.4.2V333a2,2,0,0,1-.9,1.6l-1.4.8v.5c0,.6.4.9.9.6l1.8-1a2.2,2.2,0,0,0,.9-1.7V308C321.1,307.4,320.7,307.1,320.2,307.4Z" transform="translate(-206.6 -73.1)"/><path class="cls-12" d="M327,303.5l-.4.2V329a2.1,2.1,0,0,1-.9,1.7l-1.4.8v.4c0,.7.4,1,.9.7l1.8-1.1a1.9,1.9,0,0,0,.9-1.6V304.1C327.9,303.5,327.5,303.2,327,303.5Z" transform="translate(-206.6 -73.1)"/><path class="cls-12" d="M333.8,299.5l-.4.3v25.3a1.9,1.9,0,0,1-.9,1.6l-1.4.9v.4c0,.7.4.9.9.7l1.8-1.1a2,2,0,0,0,.9-1.6V300.2C334.7,299.5,334.3,299.3,333.8,299.5Z" transform="translate(-206.6 -73.1)"/><path class="cls-13" d="M294.9,342.6l-.7-.2-24-13.9a3.3,3.3,0,0,1-1.5-2.8V298.4a1.7,1.7,0,0,1,.6-1.4,1.3,1.3,0,0,1,1.2.1l24,13.9a3.6,3.6,0,0,1,1.5,2.8v27.3a1.4,1.4,0,0,1-.6,1.3Zm-.4-.7a.6.6,0,0,0,.6,0c.2-.1.3-.4.3-.8V313.8a2.8,2.8,0,0,0-1.2-2.3l-24-13.9a.7.7,0,0,0-.6-.1c-.2.1-.3.5-.3.9v27.3a2.9,2.9,0,0,0,1.2,2.3Z" transform="translate(-206.6 -73.1)"/><path class="cls-11" d="M273.4,303.7c0,.8-.5,1.1-1.2.7a2.7,2.7,0,0,1-1.1-2c0-.8.5-1.1,1.1-.7A2.5,2.5,0,0,1,273.4,303.7Z" transform="translate(-206.6 -73.1)"/><path class="cls-11" d="M273.4,307.5c0,.8-.5,1.1-1.2.7a2.7,2.7,0,0,1-1.1-2c0-.8.5-1.1,1.1-.7A2.5,2.5,0,0,1,273.4,307.5Z" transform="translate(-206.6 -73.1)"/><path class="cls-11" d="M273.4,311.3c0,.8-.5,1.1-1.2.7a2.7,2.7,0,0,1-1.1-2c0-.8.5-1.1,1.1-.7A2.5,2.5,0,0,1,273.4,311.3Z" transform="translate(-206.6 -73.1)"/><path class="cls-12" d="M272.8,311.5a2.7,2.7,0,0,1-1.2-2c0-.1.1-.3.1-.4s-.6.3-.6.9a2.7,2.7,0,0,0,1.1,2c.6.3,1,.1,1.1-.3Z" transform="translate(-206.6 -73.1)"/><path class="cls-12" d="M272.8,307.7a2.7,2.7,0,0,1-1.2-2v-.4q-.6,0-.6.9a2.7,2.7,0,0,0,1.1,2c.6.3,1,.1,1.1-.3Z" transform="translate(-206.6 -73.1)"/><path class="cls-12" d="M272.8,303.9a2.7,2.7,0,0,1-1.2-2c0-.1.1-.3.1-.4s-.6.3-.6.9a2.7,2.7,0,0,0,1.1,2c.6.3,1,.1,1.1-.3Z" transform="translate(-206.6 -73.1)"/><path class="cls-13" d="M292.7,328.9l-.7-.4a1,1,0,0,1-.5-.8v-3.8c0-.3.2-.4.5-.3l.7.5a.9.9,0,0,1,.5.8v3.7C293.2,328.9,293,329.1,292.7,328.9Z" transform="translate(-206.6 -73.1)"/><path class="cls-46" d="M323.1,192.6H280.8v90h0a1.4,1.4,0,0,0,.9,1.2l17.9,10.4a5.9,5.9,0,0,0,5-.2l17.2-9.9a2.4,2.4,0,0,0,1.3-1.6h0Z" transform="translate(-206.6 -73.1)"/><path class="cls-47" d="M321.1,201.2H282.8v81.4h0a1.4,1.4,0,0,0,.8,1.2l16.3,9.3a4.8,4.8,0,0,0,4.5-.2l15.6-9a1.9,1.9,0,0,0,1-1.3h.1Z" transform="translate(-206.6 -73.1)"/><path class="cls-11" d="M293.5,275.1a1.6,1.6,0,0,1-1.6,1.5,1.5,1.5,0,0,1-1.5-1.5,1.6,1.6,0,0,1,1.5-1.6A1.6,1.6,0,0,1,293.5,275.1Z" transform="translate(-206.6 -73.1)"/><path class="cls-11" d="M306.5,264.5a2.7,2.7,0,1,1-2.7-2.7A2.7,2.7,0,0,1,306.5,264.5Z" transform="translate(-206.6 -73.1)"/><path class="cls-11" d="M301.2,262.8a.7.7,0,1,1-.7-.7A.7.7,0,0,1,301.2,262.8Z" transform="translate(-206.6 -73.1)"/><path class="cls-11" d="M313.5,249.3a1.3,1.3,0,1,1-2.6,0,1.3,1.3,0,0,1,2.6,0Z" transform="translate(-206.6 -73.1)"/><path class="cls-11" d="M306.1,237.9a1.1,1.1,0,0,1-1,1,1,1,0,0,1-.9-1,.9.9,0,0,1,.9-.9A1,1,0,0,1,306.1,237.9Z" transform="translate(-206.6 -73.1)"/><path class="cls-11" d="M295.2,230.7a1.7,1.7,0,0,1-1.7,1.7,1.8,1.8,0,0,1-1.7-1.7,1.8,1.8,0,0,1,1.7-1.8A1.7,1.7,0,0,1,295.2,230.7Z" transform="translate(-206.6 -73.1)"/><path class="cls-11" d="M306.5,218.5A3.5,3.5,0,1,1,303,215,3.5,3.5,0,0,1,306.5,218.5Z" transform="translate(-206.6 -73.1)"/><path class="cls-11" d="M299.5,216.3a.9.9,0,0,1-1,.9.9.9,0,0,1-.9-.9.9.9,0,0,1,.9-1A.9.9,0,0,1,299.5,216.3Z" transform="translate(-206.6 -73.1)"/><circle class="cls-11" cx="99.2" cy="149.6" r="1.1"/><path class="cls-11" d="M307.8,220.3a.6.6,0,0,1-.6.5.5.5,0,0,1-.5-.5.6.6,0,0,1,.5-.6A.6.6,0,0,1,307.8,220.3Z" transform="translate(-206.6 -73.1)"/><path class="cls-11" d="M314.9,208.6a1.6,1.6,0,0,1-1.6,1.5,1.6,1.6,0,0,1-1.6-1.5,1.6,1.6,0,0,1,1.6-1.6A1.6,1.6,0,0,1,314.9,208.6Z" transform="translate(-206.6 -73.1)"/></g></g></svg>