<svg id="Ñëîé_1" data-name="Ñëîé 1" xmlns="http://www.w3.org/2000/svg" xmlns:xlink="http://www.w3.org/1999/xlink" viewBox="0 0 191.7 223.2"><defs><style>.cls-1{fill:none;}.cls-2{fill:url(#linear-gradient);}.cls-3{fill:#d4088c;}.cls-4{fill:url(#linear-gradient-2);}.cls-21,.cls-5{fill:#6ee8fc;}.cls-6{fill:#480689;}.cls-7{fill:url(#linear-gradient-3);}.cls-8{fill:url(#linear-gradient-4);}.cls-9{fill:url(#linear-gradient-5);}.cls-10{fill:url(#linear-gradient-6);}.cls-11{fill:url(#linear-gradient-7);}.cls-12{fill:url(#linear-gradient-8);}.cls-13{fill:url(#linear-gradient-9);}.cls-14,.cls-22{fill:#25bfec;}.cls-15{fill:#6de0f6;}.cls-16{fill:#267fe5;}.cls-17{fill:url(#linear-gradient-11);}.cls-18{fill:url(#linear-gradient-12);}.cls-19{fill:#38025b;}.cls-20{clip-path:url(#clip-path);}.cls-21,.cls-22{opacity:0.5;}.cls-21,.cls-22,.cls-26,.cls-38,.cls-39{isolation:isolate;}.cls-23{fill:url(#linear-gradient-13);}.cls-24{fill:url(#linear-gradient-14);}.cls-25{fill:#50deff;}.cls-26{fill:#0c0f38;}.cls-26,.cls-36,.cls-39{opacity:0.4;}.cls-27{clip-path:url(#clip-path-2);}.cls-28{fill:url(#linear-gradient-15);}.cls-29{fill:url(#linear-gradient-16);}.cls-30{clip-path:url(#clip-path-3);}.cls-31{fill:url(#linear-gradient-17);}.cls-32{fill:url(#linear-gradient-18);}.cls-33{clip-path:url(#clip-path-4);}.cls-34{fill:url(#linear-gradient-19);}.cls-35{fill:url(#linear-gradient-20);}.cls-37,.cls-38,.cls-39{fill:#2c75e4;}.cls-38{opacity:0.1;}</style><linearGradient id="linear-gradient" x1="287.72" y1="530.8" x2="496.32" y2="530.8" gradientTransform="translate(-295 -357)" gradientUnits="userSpaceOnUse"><stop offset="0" stop-color="#a31fa9"/><stop offset="0.07" stop-color="#8b17a0"/><stop offset="0.15" stop-color="#740f98"/><stop offset="0.24" stop-color="#640a92"/><stop offset="0.34" stop-color="#5b078f"/><stop offset="0.48" stop-color="#58068e"/><stop offset="0.63" stop-color="#4d22a3"/><stop offset="0.94" stop-color="#3168da"/><stop offset="1" stop-color="#2c75e4"/></linearGradient><linearGradient id="linear-gradient-2" x1="822.06" y1="896.89" x2="920.45" y2="811.67" gradientTransform="matrix(0.87, 0.5, -1, 0.58, 192.26, -781.53)" gradientUnits="userSpaceOnUse"><stop offset="0" stop-color="#8d139b"/><stop offset="0.17" stop-color="#851ba1"/><stop offset="0.43" stop-color="#6e33b2"/><stop offset="0.76" stop-color="#4958cd"/><stop offset="1" stop-color="#2979e4"/></linearGradient><linearGradient id="linear-gradient-3" x1="287.72" y1="497.4" x2="496.32" y2="497.4" xlink:href="#linear-gradient"/><linearGradient id="linear-gradient-4" x1="788.74" y1="868.06" x2="887.14" y2="782.84" xlink:href="#linear-gradient-2"/><linearGradient id="linear-gradient-5" x1="287.72" y1="464.07" x2="496.32" y2="464.07" xlink:href="#linear-gradient"/><linearGradient id="linear-gradient-6" x1="755.43" y1="839.22" x2="853.82" y2="754.01" xlink:href="#linear-gradient-2"/><linearGradient id="linear-gradient-7" x1="287.72" y1="430.7" x2="496.32" y2="430.7" xlink:href="#linear-gradient"/><linearGradient id="linear-gradient-8" x1="722.15" y1="810.43" x2="820.55" y2="725.21" gradientTransform="matrix(0.87, 0.5, -1, 0.58, 192.26, -781.53)" gradientUnits="userSpaceOnUse"><stop offset="0" stop-color="#267fe5"/><stop offset="0.17" stop-color="#2c87e7"/><stop offset="0.44" stop-color="#3d9feb"/><stop offset="0.78" stop-color="#59c4f2"/><stop offset="1" stop-color="#6ee1f8"/></linearGradient><linearGradient id="linear-gradient-9" x1="325.4" y1="406.45" x2="453.6" y2="406.45" gradientTransform="translate(-295 -357)" gradientUnits="userSpaceOnUse"><stop offset="0" stop-color="#6de0f6"/><stop offset="0.16" stop-color="#68d8f5"/><stop offset="0.41" stop-color="#5ac0f1"/><stop offset="0.73" stop-color="#439bea"/><stop offset="1" stop-color="#2c75e4"/></linearGradient><linearGradient id="linear-gradient-11" x1="321.45" y1="413.24" x2="457.57" y2="399.64" gradientTransform="translate(-295 -357)" gradientUnits="userSpaceOnUse"><stop offset="0" stop-color="#a31fa9"/><stop offset="0.05" stop-color="#8b17a0"/><stop offset="0.11" stop-color="#740f98"/><stop offset="0.18" stop-color="#640a92"/><stop offset="0.26" stop-color="#5b078f"/><stop offset="0.36" stop-color="#58068e"/><stop offset="0.54" stop-color="#4d22a3"/><stop offset="0.93" stop-color="#3168da"/><stop offset="1" stop-color="#2c75e4"/></linearGradient><linearGradient id="linear-gradient-12" x1="338.63" y1="393.29" x2="440.43" y2="393.29" xlink:href="#linear-gradient"/><clipPath id="clip-path" transform="translate(0 0)"><path class="cls-1" d="M-14.9,159.1l39-19.8c0-1.3,1-1.7,2.2-1l48.6,28a4.9,4.9,0,0,1,2.3,3.6v2.4c0,1.2-1,1.6-2.3.9L44,195.3C42.7,194.6-14.9,160.3-14.9,159.1Z"/></clipPath><linearGradient id="linear-gradient-13" x1="333.48" y1="1773.96" x2="388.97" y2="1798.66" gradientTransform="translate(1753 755.7) rotate(119.9)" gradientUnits="userSpaceOnUse"><stop offset="0" stop-color="#2c75e4"/><stop offset="0.06" stop-color="#3168da"/><stop offset="0.37" stop-color="#4d22a3"/><stop offset="0.52" stop-color="#58068e"/><stop offset="0.66" stop-color="#5b078f"/><stop offset="0.76" stop-color="#640a92"/><stop offset="0.85" stop-color="#740f98"/><stop offset="0.93" stop-color="#8b17a0"/><stop offset="1" stop-color="#a31fa9"/></linearGradient><linearGradient id="linear-gradient-14" x1="355.12" y1="1782.24" x2="281.52" y2="1782.24" gradientTransform="translate(1753 755.7) rotate(119.9)" xlink:href="#linear-gradient"/><clipPath id="clip-path-2" transform="translate(0 0)"><path class="cls-1" d="M-14.9,126.2l39-19.8c0-1.3,1-1.7,2.2-1l48.6,28a4.9,4.9,0,0,1,2.3,3.6v2.4c0,1.2-1,1.7-2.3.9L44,162.4C42.7,161.7-14.9,127.4-14.9,126.2Z"/></clipPath><linearGradient id="linear-gradient-15" x1="305.04" y1="1790.29" x2="360.53" y2="1815" xlink:href="#linear-gradient-13"/><linearGradient id="linear-gradient-16" x1="326.63" y1="1798.57" x2="253.03" y2="1798.57" gradientTransform="translate(1753 755.7) rotate(119.9)" xlink:href="#linear-gradient"/><clipPath id="clip-path-3" transform="translate(0 0)"><path class="cls-1" d="M206.5,159.1l-38.9-19.8c0-1.3-1-1.7-2.2-1l-48.6,28a4.5,4.5,0,0,0-2.3,3.6v2.4c0,1.2,1,1.6,2.3.9l30.9,22.1C149,194.6,206.5,160.3,206.5,159.1Z"/></clipPath><linearGradient id="linear-gradient-17" x1="-175.65" y1="894.72" x2="-120.16" y2="919.42" gradientTransform="matrix(0.5, 0.87, 0.87, -0.5, -542.41, 754.79)" gradientUnits="userSpaceOnUse"><stop offset="0" stop-color="#58068e"/><stop offset="0.28" stop-color="#4d22a3"/><stop offset="0.89" stop-color="#3168da"/><stop offset="1" stop-color="#2c75e4"/></linearGradient><linearGradient id="linear-gradient-18" x1="-153.43" y1="904.62" x2="-227.03" y2="904.62" gradientTransform="matrix(0.5, 0.87, 0.87, -0.5, -542.41, 754.79)" xlink:href="#linear-gradient-13"/><clipPath id="clip-path-4" transform="translate(0 0)"><path class="cls-1" d="M206.5,126.2l-38.9-19.8c0-1.3-1-1.7-2.2-1l-48.6,28a4.5,4.5,0,0,0-2.3,3.6v2.4c0,1.2,1,1.7,2.3.9l30.9,22.1C149,161.7,206.5,127.4,206.5,126.2Z"/></clipPath><linearGradient id="linear-gradient-19" x1="-204.13" y1="911.14" x2="-148.64" y2="935.84" xlink:href="#linear-gradient-17"/><linearGradient id="linear-gradient-20" x1="-181.92" y1="921.02" x2="-255.52" y2="921.02" gradientTransform="matrix(0.5, 0.87, 0.87, -0.5, -542.41, 754.79)" xlink:href="#linear-gradient-13"/></defs><title>device-4</title><path class="cls-2" d="M180.1,149.6H144l-40.1-23.2c-5.2-3-14.2-2.6-20.2.8L45,149.6H8.9v24.2h0c-.1,2,1,4,3.5,5.4l72.7,42c5.2,3,14.3,2.6,20.2-.8L175.2,180c3.1-1.8,4.7-4,4.9-6.2h0Z" transform="translate(0 0)"/><path class="cls-3" d="M11.2,175.5h0V151.2H47.3L86,128.9c5.9-3.5,15-3.8,20.2-.9l40.1,23.2h33.8v-1.6H144l-40.1-23.2c-5.2-3-14.2-2.6-20.2.8L45,149.6H8.9v24.2h0c-.1,2,1,4,3.5,5.4l.4.2A4.8,4.8,0,0,1,11.2,175.5Z" transform="translate(0 0)"/><path class="cls-4" d="M85.1,197,12.4,155c-5.2-3-4.5-8.2,1.4-11.7L83.7,103c6-3.5,15-3.8,20.2-.8l72.7,42c5.2,2.9,4.6,8.2-1.4,11.6l-69.9,40.3C99.4,199.6,90.3,200,85.1,197Z" transform="translate(0 0)"/><path class="cls-5" d="M176.6,144.2l-72.7-42c-2.7-1.6-6.4-2.2-10.2-2a16.6,16.6,0,0,1,7.3,2l72.8,42c5.2,2.9,4.5,8.2-1.5,11.6l-69.8,40.3a22.1,22.1,0,0,1-10,2.8,21.9,21.9,0,0,0,12.8-2.8l69.9-40.3C181.2,152.4,181.8,147.1,176.6,144.2Z" transform="translate(0 0)"/><path class="cls-6" d="M94.1,187a13.8,13.8,0,0,1-6.9-1.6L33.1,154.1c-1.9-1.1-2.9-2.6-2.9-4.3s1.4-4,3.9-5.4l52.1-30c4.6-2.7,11.6-3,15.6-.7L156,145c1.8,1.1,2.9,2.6,2.9,4.3s-1.5,4-4,5.5l-52,30A19.1,19.1,0,0,1,94.1,187Zm-6.2-2.7c3.6,2.1,10.1,1.9,14.4-.6l52-30c2.1-1.3,3.3-2.9,3.3-4.4a3.9,3.9,0,0,0-2.3-3.2l-54.1-31.3c-3.7-2.1-10.2-1.8-14.4.6l-52,30.1c-2.2,1.2-3.4,2.8-3.4,4.3s.8,2.4,2.3,3.3Z" transform="translate(0 0)"/><path class="cls-3" d="M88.4,197,15.7,155c-5.2-3-4.6-8.2,1.4-11.7L87,103a22.6,22.6,0,0,1,9.8-2.8A23.1,23.1,0,0,0,83.7,103L13.8,143.3c-5.9,3.5-6.6,8.7-1.4,11.7l72.7,42a18.7,18.7,0,0,0,10.4,1.9A17.5,17.5,0,0,1,88.4,197Z" transform="translate(0 0)"/><path class="cls-7" d="M180.1,116.2H144L103.9,93c-5.2-3-14.2-2.6-20.2.8L45,116.2H8.9v24.2h0c-.1,2,1,4,3.5,5.4l72.7,42c5.2,3,14.3,2.6,20.2-.8l69.9-40.3c3.1-1.8,4.7-4.1,4.9-6.3h0Z" transform="translate(0 0)"/><path class="cls-3" d="M11.2,142.1h0V117.9H47.3L86,95.5c5.9-3.4,15-3.8,20.2-.8l40.1,23.2h33.8v-1.7H144L103.9,93c-5.2-3-14.2-2.6-20.2.8L45,116.2H8.9v24.2h0c-.1,2,1,4,3.5,5.4l.4.3A5,5,0,0,1,11.2,142.1Z" transform="translate(0 0)"/><path class="cls-8" d="M85.1,163.6l-72.7-42c-5.2-3-4.5-8.2,1.4-11.6L83.7,69.6c6-3.4,15-3.8,20.2-.8l72.7,42c5.2,3,4.6,8.2-1.4,11.6l-69.9,40.4C99.4,166.2,90.3,166.6,85.1,163.6Z" transform="translate(0 0)"/><path class="cls-5" d="M176.6,110.8l-72.7-42c-2.7-1.6-6.4-2.2-10.2-2a16.6,16.6,0,0,1,7.3,2l72.8,42c5.2,3,4.5,8.2-1.5,11.6l-69.8,40.4a25,25,0,0,1-10,2.8,23.8,23.8,0,0,0,12.8-2.8l69.9-40.4C181.2,119,181.8,113.8,176.6,110.8Z" transform="translate(0 0)"/><path class="cls-6" d="M94.1,153.6a13.8,13.8,0,0,1-6.9-1.6L33.1,120.8c-1.9-1.1-2.9-2.6-2.9-4.3s1.4-4,3.9-5.5L86.2,81c4.6-2.7,11.6-3,15.6-.6L156,111.6c1.8,1.1,2.9,2.6,2.9,4.3s-1.5,4-4,5.5l-52,30A18,18,0,0,1,94.1,153.6ZM95,80a16.7,16.7,0,0,0-8.2,2.1l-52,30c-2.2,1.2-3.4,2.8-3.4,4.4s.8,2.3,2.3,3.2L87.9,151c3.6,2.1,10.1,1.8,14.4-.7l52-30c2.1-1.2,3.3-2.8,3.3-4.4s-.8-2.3-2.3-3.2L101.2,81.4A13.4,13.4,0,0,0,95,80Z" transform="translate(0 0)"/><path class="cls-3" d="M88.4,163.6l-72.7-42c-5.2-3-4.6-8.2,1.4-11.6L87,69.6a24.1,24.1,0,0,1,9.8-2.8,24.9,24.9,0,0,0-13.1,2.8L13.8,110c-5.9,3.4-6.6,8.6-1.4,11.6l72.7,42a19.6,19.6,0,0,0,10.4,2A16.1,16.1,0,0,1,88.4,163.6Z" transform="translate(0 0)"/><path class="cls-9" d="M180.1,82.8H144L103.9,59.6c-5.2-2.9-14.2-2.6-20.2.9L45,82.8H8.9v24.3h0c-.1,2,1,3.9,3.5,5.4l72.7,42c5.2,3,14.3,2.6,20.2-.9l69.9-40.3c3.1-1.8,4.7-4.1,4.9-6.2h0Z" transform="translate(0 0)"/><path class="cls-3" d="M11.2,108.7h0V84.5H47.3L86,62.2c5.9-3.5,15-3.9,20.2-.9l40.1,23.2h33.8V82.8H144L103.9,59.6c-5.2-2.9-14.2-2.6-20.2.9L45,82.8H8.9v24.3h0c-.1,2,1,3.9,3.5,5.4l.4.2A5,5,0,0,1,11.2,108.7Z" transform="translate(0 0)"/><path class="cls-10" d="M85.1,130.2l-72.7-42C7.2,85.3,7.9,80,13.8,76.6L83.7,36.3c6-3.5,15-3.9,20.2-.9l72.7,42c5.2,3,4.6,8.2-1.4,11.7l-69.9,40.3C99.4,132.9,90.3,133.2,85.1,130.2Z" transform="translate(0 0)"/><path class="cls-5" d="M176.6,77.4l-72.7-42a18,18,0,0,0-10.2-1.9,17.2,17.2,0,0,1,7.3,1.9l72.8,42c5.2,3,4.5,8.2-1.5,11.7l-69.8,40.3a22.1,22.1,0,0,1-10,2.8,23.8,23.8,0,0,0,12.8-2.8l69.9-40.3C181.2,85.6,181.8,80.4,176.6,77.4Z" transform="translate(0 0)"/><path class="cls-6" d="M94.1,120.2a14.8,14.8,0,0,1-6.9-1.5L33.1,87.4c-1.9-1.1-2.9-2.6-2.9-4.3s1.4-4,3.9-5.5l52.1-30c4.6-2.6,11.6-2.9,15.6-.6L156,78.3c1.8,1.1,2.9,2.6,2.9,4.3s-1.5,4-4,5.4l-52,30A18,18,0,0,1,94.1,120.2ZM95,46.7a15.6,15.6,0,0,0-8.2,2l-52,30c-2.2,1.3-3.4,2.9-3.4,4.4a3.9,3.9,0,0,0,2.3,3.2l54.2,31.3c3.6,2.1,10.1,1.8,14.4-.6l52-30.1c2.1-1.2,3.3-2.8,3.3-4.3s-.8-2.4-2.3-3.3L101.2,48.1A12,12,0,0,0,95,46.7Z" transform="translate(0 0)"/><path class="cls-3" d="M88.4,130.2l-72.7-42c-5.2-2.9-4.6-8.2,1.4-11.6L87,36.3a21.3,21.3,0,0,1,9.8-2.8,23.1,23.1,0,0,0-13.1,2.8L13.8,76.6C7.9,80,7.2,85.3,12.4,88.2l72.7,42a19.6,19.6,0,0,0,10.4,2A16.1,16.1,0,0,1,88.4,130.2Z" transform="translate(0 0)"/><path class="cls-11" d="M180.1,49.5H144L103.9,26.3c-5.2-3-14.2-2.6-20.2.8L45,49.5H8.9V73.7h0c-.1,2,1,4,3.5,5.4l72.7,42c5.2,3,14.3,2.6,20.2-.8l69.9-40.4c3.1-1.8,4.7-4,4.9-6.2h0Z" transform="translate(0 0)"/><path class="cls-3" d="M11.2,75.4h0V51.1H47.3L86,28.8c5.9-3.5,15-3.8,20.2-.9l40.1,23.2h33.8V49.5H144L103.9,26.3c-5.2-3-14.2-2.6-20.2.8L45,49.5H8.9V73.7h0c-.1,2,1,4,3.5,5.4l.4.2A4.8,4.8,0,0,1,11.2,75.4Z" transform="translate(0 0)"/><path class="cls-12" d="M85.1,96.9l-72.7-42c-5.2-3-4.5-8.2,1.4-11.7L83.7,2.9c6-3.5,15-3.8,20.2-.8l72.7,42c5.2,2.9,4.6,8.2-1.4,11.6L105.3,96C99.4,99.5,90.3,99.9,85.1,96.9Z" transform="translate(0 0)"/><path class="cls-5" d="M176.6,44.1l-72.7-42C101.2.5,97.5-.1,93.7.1a16.6,16.6,0,0,1,7.3,2l72.8,42c5.2,2.9,4.5,8.2-1.5,11.6L102.5,96a22.1,22.1,0,0,1-10,2.8A21.9,21.9,0,0,0,105.3,96l69.9-40.3C181.2,52.3,181.8,47,176.6,44.1Z" transform="translate(0 0)"/><path class="cls-13" d="M94.1,86.6a13.2,13.2,0,0,1-6.7-1.5L33.2,53.8a4.8,4.8,0,0,1-2.8-4.1c0-1.9,1.4-3.8,3.9-5.2l52-30c4.5-2.7,11.4-2.9,15.4-.7l54.1,31.3c1.8,1.1,2.8,2.5,2.8,4.1s-1.4,3.8-3.8,5.2l-52,30.1A18.9,18.9,0,0,1,94.1,86.6ZM95,13a17.7,17.7,0,0,0-8.4,2.1l-52,30c-2.2,1.3-3.4,3-3.4,4.6a4.1,4.1,0,0,0,2.4,3.5L87.7,84.4c3.8,2.2,10.3,1.9,14.7-.6l52-30c2.2-1.3,3.5-3,3.5-4.6a3.9,3.9,0,0,0-2.4-3.4L101.3,14.5A13.6,13.6,0,0,0,95,13Z" transform="translate(0 0)"/><path class="cls-14" d="M88.4,96.9l-72.7-42c-5.2-3-4.6-8.2,1.4-11.7L87,2.9A22.6,22.6,0,0,1,96.8.1,23.1,23.1,0,0,0,83.7,2.9L13.8,43.2c-5.9,3.5-6.6,8.7-1.4,11.7l72.7,42a18.7,18.7,0,0,0,10.4,1.9A17.5,17.5,0,0,1,88.4,96.9Z" transform="translate(0 0)"/><path class="cls-15" d="M107.4,110.4l61.5-35.6a2.3,2.3,0,0,0,1.1-2V69.9c0-.7-.5-1.1-1.1-.8l-61.5,35.6a2.6,2.6,0,0,0-1,2v2.9C106.4,110.3,106.8,110.7,107.4,110.4Z" transform="translate(0 0)"/><path class="cls-16" d="M167.6,74a2.3,2.3,0,0,0,1-1.9V69.3l.3-.2c.6-.3,1.1.1,1.1.8v2.9a2.3,2.3,0,0,1-1.1,2l-61.5,35.6c-.6.3-1-.1-1-.8v-.2Z" transform="translate(0 0)"/><path class="cls-15" d="M82.1,110.4,20.5,74.8a2.6,2.6,0,0,1-1-2V69.9c0-.7.5-1.1,1-.8l61.6,35.6a2.6,2.6,0,0,1,1,2v2.9C83.1,110.3,82.6,110.7,82.1,110.4Z" transform="translate(0 0)"/><path class="cls-16" d="M21.9,74a2.3,2.3,0,0,1-1-1.9V69.3l-.4-.2c-.5-.3-1,.1-1,.8v2.9a2.6,2.6,0,0,0,1,2l61.6,35.6c.5.3,1-.1,1-.8v-.2Z" transform="translate(0 0)"/><path class="cls-12" d="M85.1,96.9l-72.7-42c-5.2-3-4.5-8.2,1.4-11.7L83.7,2.9c6-3.5,15-3.8,20.2-.8l72.7,42c5.2,2.9,4.6,8.2-1.4,11.6L105.3,96C99.4,99.5,90.3,99.9,85.1,96.9Z" transform="translate(0 0)"/><path class="cls-15" d="M88.9,77.7l-43.2-25c-3.1-1.8-2.7-4.9.8-6.9l41.6-24c3.5-2.1,8.9-2.3,12-.5l43.3,25c3,1.7,2.6,4.8-.9,6.9l-41.6,24C97.4,79.2,92,79.4,88.9,77.7Z" transform="translate(0 0)"/><path class="cls-17" d="M94,89.3a14.9,14.9,0,0,1-7.2-1.6l-58-33.5a5.5,5.5,0,0,1-3-4.5c0-2,1.5-4.1,4.2-5.6L85.6,11.9c4.9-2.8,12.4-3.1,16.6-.6l58,33.4c1.9,1.2,3,2.7,3,4.5s-1.5,4.1-4.2,5.7L103.4,87A20.4,20.4,0,0,1,94,89.3Zm1-78.7a18.3,18.3,0,0,0-8.9,2.2L30.5,44.9c-2.3,1.4-3.7,3.1-3.7,4.8a4.3,4.3,0,0,0,2.5,3.6l58,33.5c4,2.3,11,2,15.6-.7L158.5,54c2.4-1.3,3.7-3.1,3.7-4.8a4.3,4.3,0,0,0-2.5-3.6l-58-33.5A14.3,14.3,0,0,0,95,10.6Z" transform="translate(0 0)"/><path class="cls-18" d="M45.4,52.5l1.1-.9L88.1,27.7c3.5-2.1,8.9-2.3,12-.5l43.3,24.9.3.3c2.4-2,2.3-4.6-.3-6.1l-43.3-25c-3.1-1.8-8.5-1.6-12,.5l-41.6,24C43.1,47.7,42.7,50.7,45.4,52.5Z" transform="translate(0 0)"/><path class="cls-19" d="M24.1,141.7v-2.4c0-1.3,1-1.7,2.2-1l48.6,28a4.9,4.9,0,0,1,2.3,3.6v2.4c0,1.2-1,1.6-2.3.9l-48.6-28A5.1,5.1,0,0,1,24.1,141.7Z" transform="translate(0 0)"/><g class="cls-20"><polygon class="cls-21" points="2.5 158.4 37.7 138 85.5 165.6 50.3 186 2.5 158.4"/><polygon class="cls-22" points="2.5 154.9 37.8 134.5 85.6 162.1 50.3 182.4 2.5 154.9"/><polygon class="cls-21" points="85.5 165.6 85.6 162.1 50.3 182.4 50.3 186 85.5 165.6"/><polygon class="cls-21" points="37.7 138 37.8 134.5 2.5 154.9 2.5 158.4 37.7 138"/><path class="cls-23" d="M52.5,188.2l2-1.1h0A1.6,1.6,0,0,0,55,186v-2.4a4.5,4.5,0,0,0-2.2-3.6L4.2,152a2,2,0,0,0-1.7-.2h0L.6,152.9l1.4.3v2.1a4.5,4.5,0,0,0,2.2,3.6l48.6,28h0Z" transform="translate(0 0)"/><path class="cls-15" d="M55,183.6V186a1.3,1.3,0,0,1-.4,1,1.3,1.3,0,0,0,.1-.6v-2.5a4.5,4.5,0,0,0-2.2-3.6L2.9,151.7H2.8a1.7,1.7,0,0,1,1.4.3l48.6,28A4.5,4.5,0,0,1,55,183.6Z" transform="translate(0 0)"/><path class="cls-24" d="M0,156.4V154c0-1.2,1-1.6,2.3-.9l48.5,28a4.5,4.5,0,0,1,2.3,3.6v2.4c0,1.2-1,1.6-2.3.9L2.3,160A4.5,4.5,0,0,1,0,156.4Z" transform="translate(0 0)"/><polygon class="cls-25" points="49.5 149 49.5 153.3 54.3 156 54.2 151.7 49.5 149"/><polygon class="cls-25" points="47.1 147.6 42.1 144.7 42.1 149 47.1 151.9 47.1 147.6"/><polygon class="cls-25" points="56 170.9 52.1 168.7 50.8 169.4 54.7 171.7 56 170.9"/><polygon class="cls-25" points="55.1 166.9 53.8 167.7 57.7 169.9 59 169.2 55.1 166.9"/><polygon class="cls-25" points="33 162.1 22 155.7 37.6 146.7 37.6 142.2 14.3 155.6 33 166.4 33 162.1"/><polygon class="cls-25" points="58.3 158.4 64.1 161.7 56.8 166 60.7 168.2 71.7 161.8 58.3 154 58.3 158.4"/><polygon class="cls-25" points="37.6 169.1 37.6 164.7 35.4 163.5 35.4 167.8 37.6 169.1"/><polygon class="cls-25" points="49.1 170.4 48.3 170.9 42.1 167.3 42.1 171.7 48.4 175.3 53 172.6 49.1 170.4"/><polygon class="cls-25" points="54.9 161.6 57.5 160.1 60.1 161.6 57.5 163.1 54.9 161.6"/><polygon class="cls-25" points="50.4 164.2 53 162.7 55.6 164.2 53 165.7 50.4 164.2"/><polygon class="cls-25" points="46.3 161.9 48.9 160.4 51.5 161.9 48.9 163.4 46.3 161.9"/><polygon class="cls-25" points="26.6 155.7 29.2 154.2 31.8 155.7 29.2 157.2 26.6 155.7"/><polygon class="cls-25" points="50.9 159.3 53.5 157.8 56.1 159.3 53.5 160.8 50.9 159.3"/><polygon class="cls-25" points="45.8 166.8 48.4 165.3 51 166.8 48.4 168.4 45.8 166.8"/><path class="cls-26" d="M74.6,172v-3.6L26.8,140.8l2-1.1,17.3,7.4L78.8,166s-1.2,4-1.3,4-.3.5-.3.5Z" transform="translate(0 0)"/></g><path class="cls-19" d="M24.1,108.8v-2.4c0-1.3,1-1.7,2.2-1l48.6,28a4.9,4.9,0,0,1,2.3,3.6v2.4c0,1.2-1,1.7-2.3.9l-48.6-28A5.1,5.1,0,0,1,24.1,108.8Z" transform="translate(0 0)"/><g class="cls-27"><polygon class="cls-21" points="2.5 125.5 37.7 105.1 85.5 132.7 50.3 153.1 2.5 125.5"/><polygon class="cls-22" points="2.5 122 37.8 101.6 85.6 129.2 50.3 149.5 2.5 122"/><polygon class="cls-21" points="85.5 132.7 85.6 129.2 50.3 149.5 50.3 153.1 85.5 132.7"/><polygon class="cls-21" points="37.7 105.1 37.8 101.6 2.5 122 2.5 125.5 37.7 105.1"/><path class="cls-28" d="M52.5,155.3l2-1.1h0a1.6,1.6,0,0,0,.5-1.1v-2.4a4.5,4.5,0,0,0-2.2-3.6l-48.6-28a2,2,0,0,0-1.7-.2h0L.6,120l1.4.3v2.1A4.5,4.5,0,0,0,4.2,126l48.6,28h0Z" transform="translate(0 0)"/><path class="cls-15" d="M55,150.7v2.4a1.3,1.3,0,0,1-.4,1,1.3,1.3,0,0,0,.1-.6V151a5.1,5.1,0,0,0-2.2-3.6L2.9,118.8H2.8a1.7,1.7,0,0,1,1.4.3l48.6,28A4.5,4.5,0,0,1,55,150.7Z" transform="translate(0 0)"/><path class="cls-29" d="M0,123.5v-2.4c0-1.2,1-1.6,2.3-.9l48.5,28a4.5,4.5,0,0,1,2.3,3.6v2.4c0,1.2-1,1.6-2.3.9l-48.5-28A4.5,4.5,0,0,1,0,123.5Z" transform="translate(0 0)"/><polygon class="cls-25" points="49.5 116.1 49.5 120.4 54.3 123.2 54.2 118.8 49.5 116.1"/><polygon class="cls-25" points="47.1 114.7 42.1 111.8 42.1 116.1 47.1 119 47.1 114.7"/><polygon class="cls-25" points="56 138 52.1 135.8 50.8 136.5 54.7 138.8 56 138"/><polygon class="cls-25" points="55.1 134.1 53.8 134.8 57.7 137.1 59 136.3 55.1 134.1"/><polygon class="cls-25" points="33 129.2 22 122.8 37.6 113.8 37.6 109.3 14.3 122.7 33 133.5 33 129.2"/><polygon class="cls-25" points="58.3 125.5 64.1 128.8 56.8 133.1 60.7 135.3 71.7 128.9 58.3 121.2 58.3 125.5"/><polygon class="cls-25" points="37.6 136.2 37.6 131.8 35.4 130.6 35.4 134.9 37.6 136.2"/><polygon class="cls-25" points="49.1 137.5 48.3 138 42.1 134.4 42.1 138.8 48.4 142.4 53 139.7 49.1 137.5"/><polygon class="cls-25" points="54.9 128.7 57.5 127.2 60.1 128.7 57.5 130.2 54.9 128.7"/><polygon class="cls-25" points="50.4 131.3 53 129.8 55.6 131.3 53 132.8 50.4 131.3"/><polygon class="cls-25" points="46.3 129 48.9 127.5 51.5 129 48.9 130.5 46.3 129"/><polygon class="cls-25" points="26.6 122.8 29.2 121.3 31.8 122.8 29.2 124.3 26.6 122.8"/><polygon class="cls-25" points="50.9 126.4 53.5 124.9 56.1 126.4 53.5 127.9 50.9 126.4"/><polygon class="cls-25" points="45.8 134 48.4 132.4 51 134 48.4 135.5 45.8 134"/><path class="cls-26" d="M74.6,139.1v-3.6L26.8,107.9l2-1.1,17.3,7.5,32.7,18.8s-1.2,4-1.3,4l-.3.5Z" transform="translate(0 0)"/></g><path class="cls-19" d="M167.6,141.7v-2.4c0-1.3-1-1.7-2.2-1l-48.6,28a4.5,4.5,0,0,0-2.3,3.6v2.4c0,1.2,1,1.6,2.3.9l48.6-28A5.1,5.1,0,0,0,167.6,141.7Z" transform="translate(0 0)"/><g class="cls-30"><polygon class="cls-21" points="189.3 158.4 154 138 106.2 165.6 141.5 186 189.3 158.4"/><polygon class="cls-22" points="189.2 154.9 154 134.5 106.2 162.1 141.4 182.4 189.2 154.9"/><polygon class="cls-21" points="106.2 165.6 106.2 162.1 141.4 182.4 141.5 186 106.2 165.6"/><polygon class="cls-21" points="154 138 154 134.5 189.2 154.9 189.3 158.4 154 138"/><path class="cls-31" d="M139.2,188.2l-2-1.1h0a1.6,1.6,0,0,1-.5-1.1v-2.4a4.5,4.5,0,0,1,2.2-3.6l48.6-28a2,2,0,0,1,1.7-.2h0l1.9,1.1-1.4.3v2.1a4.5,4.5,0,0,1-2.2,3.6l-48.6,28h0Z" transform="translate(0 0)"/><path class="cls-15" d="M136.7,183.6V186a1.3,1.3,0,0,0,.4,1,1.3,1.3,0,0,1-.1-.6v-2.5a4.5,4.5,0,0,1,2.2-3.6l49.6-28.6h.1a1.7,1.7,0,0,0-1.4.3l-48.6,28A4.5,4.5,0,0,0,136.7,183.6Z" transform="translate(0 0)"/><path class="cls-32" d="M191.7,156.4V154c0-1.2-1-1.6-2.3-.9l-48.5,28a4.5,4.5,0,0,0-2.3,3.6v2.4c0,1.2,1,1.6,2.3.9l48.5-28A4.5,4.5,0,0,0,191.7,156.4Z" transform="translate(0 0)"/><polygon class="cls-25" points="142.3 149 142.3 153.3 137.5 156 137.5 151.7 142.3 149"/><polygon class="cls-25" points="144.7 147.6 149.7 144.7 149.7 149 144.7 151.9 144.7 147.6"/><polygon class="cls-25" points="135.8 170.9 139.7 168.7 141 169.4 137.1 171.7 135.8 170.9"/><polygon class="cls-25" points="136.7 166.9 138 167.7 134.1 169.9 132.8 169.2 136.7 166.9"/><polygon class="cls-25" points="158.8 162.1 169.8 155.7 154.2 146.7 154.2 142.2 177.4 155.6 158.8 166.4 158.8 162.1"/><polygon class="cls-25" points="133.5 158.4 127.7 161.7 135 166 131.1 168.2 120 161.8 133.5 154 133.5 158.4"/><polygon class="cls-25" points="154.2 169.1 154.2 164.7 156.4 163.5 156.4 167.8 154.2 169.1"/><polygon class="cls-25" points="142.7 170.4 143.5 170.9 149.7 167.3 149.7 171.7 143.4 175.3 138.8 172.6 142.7 170.4"/><polygon class="cls-25" points="136.9 161.6 134.3 160.1 131.7 161.6 134.3 163.1 136.9 161.6"/><polygon class="cls-25" points="141.4 164.2 138.8 162.7 136.2 164.2 138.8 165.7 141.4 164.2"/><polygon class="cls-25" points="145.5 161.9 142.9 160.4 140.3 161.9 142.9 163.4 145.5 161.9"/><polygon class="cls-25" points="165.2 155.7 162.6 154.2 160 155.7 162.6 157.2 165.2 155.7"/><polygon class="cls-25" points="140.9 159.3 138.3 157.8 135.7 159.3 138.3 160.8 140.9 159.3"/><polygon class="cls-25" points="146 166.8 143.3 165.3 140.7 166.8 143.3 168.4 146 166.8"/><path class="cls-26" d="M117.1,172v-3.6l47.8-27.6-2-1.1-17.3,7.4L112.9,166s1.2,4,1.3,4,.3.5.3.5Z" transform="translate(0 0)"/></g><path class="cls-19" d="M167.6,108.8v-2.4c0-1.3-1-1.7-2.2-1l-48.6,28a4.5,4.5,0,0,0-2.3,3.6v2.4c0,1.2,1,1.7,2.3.9l48.6-28A5.1,5.1,0,0,0,167.6,108.8Z" transform="translate(0 0)"/><g class="cls-33"><polygon class="cls-21" points="189.3 125.5 154 105.1 106.2 132.7 141.5 153.1 189.3 125.5"/><polygon class="cls-22" points="189.2 122 154 101.6 106.2 129.2 141.4 149.5 189.2 122"/><polygon class="cls-21" points="106.2 132.7 106.2 129.2 141.4 149.5 141.5 153.1 106.2 132.7"/><polygon class="cls-21" points="154 105.1 154 101.6 189.2 122 189.3 125.5 154 105.1"/><path class="cls-34" d="M139.2,155.3l-2-1.1h0a1.6,1.6,0,0,1-.5-1.1v-2.4a4.5,4.5,0,0,1,2.2-3.6l48.6-28a2,2,0,0,1,1.7-.2h0l1.9,1.1-1.4.3v2.1a4.5,4.5,0,0,1-2.2,3.6l-48.6,28h0Z" transform="translate(0 0)"/><path class="cls-15" d="M136.7,150.7v2.4a1.3,1.3,0,0,0,.4,1,1.3,1.3,0,0,1-.1-.6V151a5.1,5.1,0,0,1,2.2-3.6l49.6-28.6h.1a1.7,1.7,0,0,0-1.4.3l-48.6,28A4.5,4.5,0,0,0,136.7,150.7Z" transform="translate(0 0)"/><path class="cls-35" d="M191.7,123.5v-2.4c0-1.2-1-1.6-2.3-.9l-48.5,28a4.5,4.5,0,0,0-2.3,3.6v2.4c0,1.2,1,1.6,2.3.9l48.5-28A4.5,4.5,0,0,0,191.7,123.5Z" transform="translate(0 0)"/><polygon class="cls-25" points="142.3 116.1 142.3 120.4 137.5 123.2 137.5 118.8 142.3 116.1"/><polygon class="cls-25" points="144.7 114.7 149.7 111.8 149.7 116.1 144.7 119 144.7 114.7"/><polygon class="cls-25" points="135.8 138 139.7 135.8 141 136.5 137.1 138.8 135.8 138"/><polygon class="cls-25" points="136.7 134.1 138 134.8 134.1 137.1 132.8 136.3 136.7 134.1"/><polygon class="cls-25" points="158.8 129.2 169.8 122.8 154.2 113.8 154.2 109.3 177.4 122.7 158.8 133.5 158.8 129.2"/><polygon class="cls-25" points="133.5 125.5 127.7 128.8 135 133.1 131.1 135.3 120 128.9 133.5 121.2 133.5 125.5"/><polygon class="cls-25" points="154.2 136.2 154.2 131.8 156.4 130.6 156.4 134.9 154.2 136.2"/><polygon class="cls-25" points="142.7 137.5 143.5 138 149.7 134.4 149.7 138.8 143.4 142.4 138.8 139.7 142.7 137.5"/><polygon class="cls-25" points="136.9 128.7 134.3 127.2 131.7 128.7 134.3 130.2 136.9 128.7"/><polygon class="cls-25" points="141.4 131.3 138.8 129.8 136.2 131.3 138.8 132.8 141.4 131.3"/><polygon class="cls-25" points="145.5 129 142.9 127.5 140.3 129 142.9 130.5 145.5 129"/><polygon class="cls-25" points="165.2 122.8 162.6 121.3 160 122.8 162.6 124.3 165.2 122.8"/><polygon class="cls-25" points="140.9 126.4 138.3 124.9 135.7 126.4 138.3 127.9 140.9 126.4"/><polygon class="cls-25" points="146 134 143.3 132.4 140.7 134 143.3 135.5 146 134"/><path class="cls-26" d="M117.1,139.1v-3.6l47.8-27.6-2-1.1-17.3,7.5-32.7,18.8s1.2,4,1.3,4l.3.5Z" transform="translate(0 0)"/></g><g class="cls-36"><polygon class="cls-37" points="94.6 31.4 92.2 29.9 94.6 28.5 97.1 29.9 94.6 31.4"/><polygon class="cls-38" points="99.6 34.2 97.1 32.8 99.6 31.4 102.1 32.8 99.6 34.2"/><polygon class="cls-39" points="104.5 37.1 102.1 35.7 104.5 34.2 107 35.7 104.5 37.1"/><polygon class="cls-37" points="109.5 39.9 107 38.5 109.5 37.1 112 38.5 109.5 39.9"/><polygon class="cls-39" points="114.5 42.8 112 41.4 114.5 39.9 116.9 41.4 114.5 42.8"/><polygon class="cls-37" points="119.4 45.7 116.9 44.2 119.4 42.8 121.9 44.2 119.4 45.7"/><polygon class="cls-37" points="124.4 48.5 121.9 47.1 124.4 45.7 126.8 47.1 124.4 48.5"/><polygon class="cls-37" points="129.3 51.4 126.8 50 129.3 48.5 131.8 50 129.3 51.4"/><polygon class="cls-38" points="134.3 54.2 131.8 52.8 134.3 51.4 136.8 52.8 134.3 54.2"/><polygon class="cls-37" points="89.7 34.2 87.2 32.8 89.7 31.4 92.1 32.8 89.7 34.2"/><polygon class="cls-37" points="94.6 37.1 92.1 35.7 94.6 34.2 97.1 35.7 94.6 37.1"/><polygon class="cls-37" points="99.6 40 97.1 38.5 99.6 37.1 102 38.5 99.6 40"/><polygon class="cls-37" points="104.5 42.8 102 41.4 104.5 40 107 41.4 104.5 42.8"/><polygon class="cls-37" points="109.5 45.7 107 44.2 109.5 42.8 112 44.2 109.5 45.7"/><polygon class="cls-37" points="114.4 48.5 112 47.1 114.4 45.7 116.9 47.1 114.4 48.5"/><polygon class="cls-37" points="119.4 51.4 116.9 50 119.4 48.5 121.9 50 119.4 51.4"/><polygon class="cls-37" points="124.3 54.3 121.9 52.8 124.3 51.4 126.8 52.8 124.3 54.3"/><polygon class="cls-37" points="129.3 57.1 126.8 55.7 129.3 54.3 131.8 55.7 129.3 57.1"/><polygon class="cls-37" points="84.7 37.1 82.2 35.7 84.7 34.2 87.2 35.7 84.7 37.1"/><polygon class="cls-37" points="89.6 40 87.2 38.5 89.6 37.1 92.1 38.5 89.6 40"/><polygon class="cls-37" points="94.6 42.8 92.1 41.4 94.6 40 97.1 41.4 94.6 42.8"/><polygon class="cls-38" points="99.6 45.7 97.1 44.3 99.6 42.8 102 44.3 99.6 45.7"/><polygon class="cls-39" points="104.5 48.6 102 47.1 104.5 45.7 107 47.1 104.5 48.6"/><polygon class="cls-39" points="109.5 51.4 107 50 109.5 48.6 111.9 50 109.5 51.4"/><polygon class="cls-37" points="114.4 54.3 111.9 52.8 114.4 51.4 116.9 52.8 114.4 54.3"/><polygon class="cls-37" points="119.4 57.1 116.9 55.7 119.4 54.3 121.8 55.7 119.4 57.1"/><polygon class="cls-37" points="124.3 60 121.8 58.6 124.3 57.1 126.8 58.6 124.3 60"/><polygon class="cls-39" points="79.7 40 77.2 38.5 79.7 37.1 82.2 38.5 79.7 40"/><polygon class="cls-39" points="84.7 42.8 82.2 41.4 84.7 40 87.1 41.4 84.7 42.8"/><polygon class="cls-38" points="89.6 45.7 87.1 44.3 89.6 42.8 92.1 44.3 89.6 45.7"/><polygon class="cls-37" points="94.6 48.6 92.1 47.1 94.6 45.7 97.1 47.1 94.6 48.6"/><polygon class="cls-37" points="99.5 51.4 97.1 50 99.5 48.6 102 50 99.5 51.4"/><polygon class="cls-37" points="104.5 54.3 102 52.9 104.5 51.4 107 52.9 104.5 54.3"/><polygon class="cls-39" points="109.4 57.1 107 55.7 109.4 54.3 111.9 55.7 109.4 57.1"/><polygon class="cls-37" points="114.4 60 111.9 58.6 114.4 57.1 116.9 58.6 114.4 60"/><polygon class="cls-37" points="119.4 62.9 116.9 61.4 119.4 60 121.8 61.4 119.4 62.9"/><polygon class="cls-37" points="74.7 42.9 72.3 41.4 74.7 40 77.2 41.4 74.7 42.9"/><polygon class="cls-37" points="79.7 45.7 77.2 44.3 79.7 42.9 82.2 44.3 79.7 45.7"/><polygon class="cls-37" points="84.6 48.6 82.2 47.1 84.6 45.7 87.1 47.1 84.6 48.6"/><polygon class="cls-37" points="89.6 51.4 87.1 50 89.6 48.6 92.1 50 89.6 51.4"/><polygon class="cls-37" points="94.6 54.3 92.1 52.9 94.6 51.4 97 52.9 94.6 54.3"/><polygon class="cls-37" points="99.5 57.2 97 55.7 99.5 54.3 102 55.7 99.5 57.2"/><polygon class="cls-37" points="104.5 60 102 58.6 104.5 57.2 106.9 58.6 104.5 60"/><polygon class="cls-37" points="109.4 62.9 106.9 61.4 109.4 60 111.9 61.4 109.4 62.9"/><polygon class="cls-37" points="114.4 65.7 111.9 64.3 114.4 62.9 116.9 64.3 114.4 65.7"/><polygon class="cls-37" points="69.8 45.7 67.3 44.3 69.8 42.9 72.2 44.3 69.8 45.7"/><polygon class="cls-37" points="74.7 48.6 72.2 47.2 74.7 45.7 77.2 47.2 74.7 48.6"/><polygon class="cls-39" points="79.7 51.4 77.2 50 79.7 48.6 82.1 50 79.7 51.4"/><polygon class="cls-37" points="84.6 54.3 82.1 52.9 84.6 51.4 87.1 52.9 84.6 54.3"/><polygon class="cls-38" points="89.6 57.2 87.1 55.7 89.6 54.3 92.1 55.7 89.6 57.2"/><polygon class="cls-37" points="94.5 60 92.1 58.6 94.5 57.2 97 58.6 94.5 60"/><polygon class="cls-37" points="99.5 62.9 97 61.5 99.5 60 102 61.5 99.5 62.9"/><polygon class="cls-37" points="104.4 65.8 102 64.3 104.4 62.9 106.9 64.3 104.4 65.8"/><polygon class="cls-37" points="109.4 68.6 106.9 67.2 109.4 65.8 111.9 67.2 109.4 68.6"/><polygon class="cls-37" points="64.8 48.6 62.3 47.2 64.8 45.7 67.3 47.2 64.8 48.6"/><polygon class="cls-37" points="69.7 51.5 67.3 50 69.7 48.6 72.2 50 69.7 51.5"/><polygon class="cls-39" points="74.7 54.3 72.2 52.9 74.7 51.5 77.2 52.9 74.7 54.3"/><polygon class="cls-37" points="79.7 57.2 77.2 55.7 79.7 54.3 82.1 55.7 79.7 57.2"/><polygon class="cls-37" points="84.6 60 82.1 58.6 84.6 57.2 87.1 58.6 84.6 60"/><polygon class="cls-38" points="89.6 62.9 87.1 61.5 89.6 60 92 61.5 89.6 62.9"/><polygon class="cls-39" points="94.5 65.8 92 64.3 94.5 62.9 97 64.3 94.5 65.8"/><polygon class="cls-37" points="99.5 68.6 97 67.2 99.5 65.8 101.9 67.2 99.5 68.6"/><polygon class="cls-38" points="104.4 71.5 101.9 70.1 104.4 68.6 106.9 70.1 104.4 71.5"/><polygon class="cls-37" points="59.8 51.5 57.3 50 59.8 48.6 62.3 50 59.8 51.5"/><polygon class="cls-39" points="64.8 54.3 62.3 52.9 64.8 51.5 67.2 52.9 64.8 54.3"/><polygon class="cls-37" points="69.7 57.2 67.2 55.8 69.7 54.3 72.2 55.8 69.7 57.2"/><polygon class="cls-37" points="74.7 60.1 72.2 58.6 74.7 57.2 77.2 58.6 74.7 60.1"/><polygon class="cls-37" points="79.6 62.9 77.2 61.5 79.6 60.1 82.1 61.5 79.6 62.9"/><polygon class="cls-37" points="84.6 65.8 82.1 64.3 84.6 62.9 87.1 64.3 84.6 65.8"/><polygon class="cls-37" points="89.5 68.6 87.1 67.2 89.5 65.8 92 67.2 89.5 68.6"/><polygon class="cls-39" points="94.5 71.5 92 70.1 94.5 68.6 97 70.1 94.5 71.5"/><polygon class="cls-37" points="99.5 74.4 97 72.9 99.5 71.5 101.9 72.9 99.5 74.4"/><polygon class="cls-37" points="54.8 54.3 52.4 52.9 54.8 51.5 57.3 52.9 54.8 54.3"/><polygon class="cls-38" points="59.8 57.2 57.3 55.8 59.8 54.3 62.3 55.8 59.8 57.2"/><polygon class="cls-37" points="64.7 60.1 62.3 58.6 64.7 57.2 67.2 58.6 64.7 60.1"/><polygon class="cls-37" points="69.7 62.9 67.2 61.5 69.7 60.1 72.2 61.5 69.7 62.9"/><polygon class="cls-37" points="74.7 65.8 72.2 64.4 74.7 62.9 77.1 64.4 74.7 65.8"/><polygon class="cls-37" points="79.6 68.6 77.1 67.2 79.6 65.8 82.1 67.2 79.6 68.6"/><polygon class="cls-39" points="84.6 71.5 82.1 70.1 84.6 68.6 87 70.1 84.6 71.5"/><polygon class="cls-37" points="89.5 74.4 87 72.9 89.5 71.5 92 72.9 89.5 74.4"/><polygon class="cls-37" points="94.5 77.2 92 75.8 94.5 74.4 97 75.8 94.5 77.2"/></g></svg>