<svg id="Layer_1" data-name="Layer 1" xmlns="http://www.w3.org/2000/svg" xmlns:xlink="http://www.w3.org/1999/xlink" viewBox="0 0 113.9 99.1"><defs><style>.cls-1{fill:none;}.cls-2{fill:url(#linear-gradient);}.cls-3{fill:url(#linear-gradient-2);}.cls-4{fill:#f88b93;}.cls-11,.cls-5{fill:#6ee8fc;}.cls-6{fill:url(#linear-gradient-3);}.cls-7{fill:url(#linear-gradient-4);}.cls-8{fill:#267fe5;}.cls-9{fill:#38025b;}.cls-10{clip-path:url(#clip-path);}.cls-11,.cls-12{opacity:0.5;}.cls-11,.cls-12,.cls-17{isolation:isolate;}.cls-12{fill:#25bfec;}.cls-13{fill:url(#linear-gradient-5);}.cls-14{fill:#6de0f6;}.cls-15{fill:url(#linear-gradient-6);}.cls-16{fill:#50deff;}.cls-17{fill:#0c0f38;opacity:0.4;}</style><linearGradient id="linear-gradient" x1="1902.83" y1="157.4" x2="2024.5" y2="157.4" gradientTransform="matrix(1, 0, 0, -1, -1699.5, 420.2)" gradientUnits="userSpaceOnUse"><stop offset="0" stop-color="#a31fa9"/><stop offset="0.07" stop-color="#8b17a0"/><stop offset="0.15" stop-color="#740f98"/><stop offset="0.24" stop-color="#640a92"/><stop offset="0.34" stop-color="#5b078f"/><stop offset="0.48" stop-color="#58068e"/><stop offset="0.63" stop-color="#4d22a3"/><stop offset="0.94" stop-color="#3168da"/><stop offset="1" stop-color="#2c75e4"/></linearGradient><linearGradient id="linear-gradient-2" x1="1687.91" y1="471.24" x2="1748.94" y2="524.09" gradientTransform="matrix(0.87, 0.5, 1, -0.58, -1725.33, -330.34)" gradientUnits="userSpaceOnUse"><stop offset="0" stop-color="#8d139b"/><stop offset="0.17" stop-color="#851ba1"/><stop offset="0.43" stop-color="#6e33b2"/><stop offset="0.76" stop-color="#4958cd"/><stop offset="1" stop-color="#2979e4"/></linearGradient><linearGradient id="linear-gradient-3" x1="1902.83" y1="181.25" x2="2024.5" y2="181.25" xlink:href="#linear-gradient"/><linearGradient id="linear-gradient-4" x1="1675.53" y1="481.96" x2="1736.56" y2="534.81" xlink:href="#linear-gradient-2"/><clipPath id="clip-path" transform="translate(-198.8 -199)"><path id="SVGID" class="cls-1" d="M185.1,267.9l35.8-18.2c0-1.1.9-1.5,2-.9l44.6,25.8a4.1,4.1,0,0,1,2.1,3.2V280c0,1.2-.9,1.6-2.1.9l-28.4,20.3C238,300.5,185.1,269,185.1,267.9Z"/></clipPath><linearGradient id="linear-gradient-5" x1="528.97" y1="-1490.65" x2="579.95" y2="-1513.34" gradientTransform="matrix(-0.5, 0.87, 0.87, 0.5, 1798.22, 551.43)" gradientUnits="userSpaceOnUse"><stop offset="0" stop-color="#2c75e4"/><stop offset="0.06" stop-color="#3168da"/><stop offset="0.37" stop-color="#4d22a3"/><stop offset="0.52" stop-color="#58068e"/><stop offset="0.66" stop-color="#5b078f"/><stop offset="0.76" stop-color="#640a92"/><stop offset="0.85" stop-color="#740f98"/><stop offset="0.93" stop-color="#8b17a0"/><stop offset="1" stop-color="#a31fa9"/></linearGradient><linearGradient id="linear-gradient-6" x1="549.68" y1="-1500.6" x2="482.08" y2="-1500.6" gradientTransform="matrix(-0.5, 0.87, 0.87, 0.5, 1798.22, 551.43)" xlink:href="#linear-gradient"/></defs><title>device-1</title><path class="cls-2" d="M312.7,253H282.4l-33.8-19.5c-4.3-2.5-11.9-2.2-16.9.7l11.5-6.7H212.8v29.2h.1c-.2,1.7.8,3.3,2.9,4.5l61.1,35.3c4.4,2.5,12,2.2,17-.7l14.7-8.4c2.6-1.5,4-3.4,4.1-5.3h0Z" transform="translate(-198.8 -199)"/><path class="cls-3" d="M276.9,267.4l-61.1-35.3c-4.4-2.5-3.8-6.9,1.2-9.8l14.7-8.4c5-2.9,12.6-3.3,16.9-.7l61.2,35.3c4.3,2.5,3.8,6.9-1.2,9.8l-14.7,8.4C288.9,269.6,281.3,269.9,276.9,267.4Z" transform="translate(-198.8 -199)"/><path class="cls-4" d="M278.1,267.4,217,232.1c-4.4-2.5-3.8-6.9,1.2-9.8l14.7-8.4a17.5,17.5,0,0,1,8.9-2.4,18.9,18.9,0,0,0-10.1,2.4L217,222.3c-5,2.9-5.6,7.3-1.2,9.8l61.1,35.3a16.7,16.7,0,0,0,8,1.7A17.5,17.5,0,0,1,278.1,267.4Z" transform="translate(-198.8 -199)"/><path class="cls-5" d="M309.8,248.5l-61.2-35.3a13.4,13.4,0,0,0-8-1.7,14.9,14.9,0,0,1,6.8,1.7l61.1,35.3c4.4,2.5,3.8,6.9-1.2,9.8l-14.7,8.4a20.1,20.1,0,0,1-8.9,2.4,20.2,20.2,0,0,0,10.2-2.4l14.7-8.4C313.6,255.4,314.1,251,309.8,248.5Z" transform="translate(-198.8 -199)"/><path class="cls-6" d="M312.7,240.6H282.4l-33.8-19.5c-4.3-2.5-11.9-2.2-16.9.7l11.5-6.7H212.8v6.3h.1c-.2,1.7.8,3.3,2.9,4.5l61.1,35.3c4.4,2.5,12,2.2,17-.7l14.7-8.4c2.6-1.5,4-3.4,4.1-5.2h0Z" transform="translate(-198.8 -199)"/><path class="cls-7" d="M276.9,255l-61.1-35.3c-4.4-2.5-3.8-6.9,1.2-9.8l14.7-8.4c5-2.9,12.6-3.3,16.9-.8l61.2,35.4c4.3,2.5,3.8,6.8-1.2,9.7l-14.7,8.5C288.9,257.2,281.3,257.5,276.9,255Z" transform="translate(-198.8 -199)"/><path class="cls-5" d="M279.6,248.9l-53.7-31c-2.6-1.5-2.3-4.1.7-5.9l8.8-5c3-1.7,7.5-1.9,10.1-.4l53.7,31c2.6,1.5,2.3,4.1-.7,5.9l-8.8,5C286.7,250.2,282.2,250.4,279.6,248.9Z" transform="translate(-198.8 -199)"/><path class="cls-8" d="M226.6,213l8.8-5.1c3-1.7,7.5-1.9,10.1-.4l53.7,31a3,3,0,0,1,1.7,2.1,2.7,2.7,0,0,0-1.7-3l-53.7-31c-2.6-1.5-7.1-1.3-10.1.4l-8.8,5c-1.9,1.1-2.7,2.6-2.4,3.8A4,4,0,0,1,226.6,213Z" transform="translate(-198.8 -199)"/><path class="cls-4" d="M278.1,255,217,219.7c-4.4-2.5-3.8-6.9,1.2-9.8l14.7-8.4a17.5,17.5,0,0,1,8.9-2.4,18.9,18.9,0,0,0-10.1,2.4L217,209.9c-5,2.9-5.6,7.3-1.2,9.8L276.9,255a17,17,0,0,0,8,1.7A17.5,17.5,0,0,1,278.1,255Z" transform="translate(-198.8 -199)"/><path class="cls-5" d="M309.8,236.1l-61.2-35.4a15,15,0,0,0-8-1.6,13.6,13.6,0,0,1,6.8,1.6l61.1,35.4c4.4,2.5,3.8,6.8-1.2,9.7l-14.7,8.5a23.1,23.1,0,0,1-8.9,2.4,22.8,22.8,0,0,0,10.2-2.4l14.7-8.5C313.6,242.9,314.1,238.6,309.8,236.1Z" transform="translate(-198.8 -199)"/><path class="cls-9" d="M220.9,251.9v-2.2c0-1.1.9-1.5,2-.9l44.6,25.8a4.1,4.1,0,0,1,2.1,3.2V280c0,1.2-.9,1.6-2.1.9l-44.6-25.7A4.4,4.4,0,0,1,220.9,251.9Z" transform="translate(-198.8 -199)"/><g class="cls-10"><polygon class="cls-11" points="2.3 68.3 34.6 49.5 78.5 74.8 46.2 93.5 2.3 68.3"/><polygon class="cls-12" points="2.3 65 34.6 46.3 78.5 71.7 46.2 90.3 2.3 65"/><polygon class="cls-11" points="78.5 74.8 78.5 71.7 46.2 90.3 46.2 93.5 78.5 74.8"/><polygon class="cls-11" points="34.6 49.5 34.6 46.3 2.3 65 2.3 68.3 34.6 49.5"/><path class="cls-13" d="M247,294.7l1.8-1.1h0a1.4,1.4,0,0,0,.5-1v-2.2a4.7,4.7,0,0,0-2.1-3.3l-44.6-25.7a1.2,1.2,0,0,0-1.5-.2H201l-1.7,1,1.2.3v2a4.1,4.1,0,0,0,2.1,3.2l44.6,25.8h0Z" transform="translate(-198.8 -199)"/><path class="cls-14" d="M249.3,290.4v2.2a1.8,1.8,0,0,1-.4.9,1.1,1.1,0,0,0,.1-.5v-2.3a4,4,0,0,0-2.1-3.3l-45.5-26.3h-.1a1.6,1.6,0,0,1,1.3.3l44.6,25.7A4.7,4.7,0,0,1,249.3,290.4Z" transform="translate(-198.8 -199)"/><path class="cls-15" d="M198.8,265.5v-2.2c0-1.2.9-1.6,2-.9l44.6,25.7a4,4,0,0,1,2.1,3.3v2.2c0,1.1-.9,1.5-2.1.9l-44.6-25.8A4,4,0,0,1,198.8,265.5Z" transform="translate(-198.8 -199)"/><polygon class="cls-16" points="45.4 59.5 45.4 63.5 49.8 66 49.8 62 45.4 59.5"/><polygon class="cls-16" points="43.2 58.4 38.6 55.6 38.6 59.6 43.2 62.3 43.2 58.4"/><polygon class="cls-16" points="51.4 79.8 47.8 77.7 46.6 78.3 50.2 80.5 51.4 79.8"/><polygon class="cls-16" points="50.5 76 49.3 76.8 52.9 78.8 54.1 78.2 50.5 76"/><polygon class="cls-16" points="30.3 71.7 20.1 65.8 34.5 57.5 34.5 53.4 13.1 65.7 30.3 75.5 30.3 71.7"/><polygon class="cls-16" points="53.5 68.2 58.8 71.3 52.1 75.2 55.7 77.3 65.8 71.3 53.5 64.3 53.5 68.2"/><polygon class="cls-16" points="34.5 78 34.5 74 32.4 72.8 32.4 76.8 34.5 78"/><polygon class="cls-16" points="45.1 79.3 44.3 79.7 38.6 76.5 38.6 80.3 44.4 83.8 48.6 81.3 45.1 79.3"/><polygon class="cls-16" points="50.4 71.2 52.8 69.8 55.2 71.2 52.8 72.5 50.4 71.2"/><polygon class="cls-16" points="46.2 73.5 48.6 72.2 51 73.5 48.6 75 46.2 73.5"/><polygon class="cls-16" points="42.5 71.5 44.9 70 47.3 71.5 44.9 72.8 42.5 71.5"/><polygon class="cls-16" points="24.3 65.8 26.7 64.3 29.1 65.8 26.7 67.2 24.3 65.8"/><polygon class="cls-16" points="46.6 69 49 67.7 51.4 69 49 70.3 46.6 69"/><polygon class="cls-16" points="42 76 44.4 74.5 46.8 76 44.4 77.3 42 76"/><path class="cls-17" d="M267.2,279.7v-3.2l-43.9-25.4,1.8-1,15.9,6.8,30,17.4-1.1,3.6c-.1-.1-.4.5-.4.5Z" transform="translate(-198.8 -199)"/></g></svg>