<svg id="Layer_1" data-name="Layer 1" xmlns="http://www.w3.org/2000/svg" xmlns:xlink="http://www.w3.org/1999/xlink" viewBox="0 0 128.9 160.4"><defs><style>.cls-1{fill:none;}.cls-2{fill:url(#linear-gradient);}.cls-3{fill:url(#linear-gradient-2);}.cls-4{fill:#f88b93;}.cls-23,.cls-5{fill:#6ee8fc;}.cls-6{fill:url(#linear-gradient-3);}.cls-7{fill:#6de0f6;}.cls-8{clip-path:url(#clip-path);}.cls-9{fill:#267fe5;}.cls-10,.cls-24{fill:#25bfec;}.cls-11{fill:#18d0f7;}.cls-12{fill:url(#linear-gradient-4);}.cls-13{fill:url(#linear-gradient-5);}.cls-14{fill:url(#linear-gradient-6);}.cls-15{clip-path:url(#clip-path-2);}.cls-16{fill:url(#linear-gradient-7);}.cls-17{fill:url(#linear-gradient-8);}.cls-18{fill:url(#linear-gradient-9);}.cls-19{clip-path:url(#clip-path-3);}.cls-20{fill:url(#linear-gradient-10);}.cls-21{fill:#22215b;}.cls-22{clip-path:url(#clip-path-4);}.cls-23,.cls-24{opacity:0.5;}.cls-23,.cls-24,.cls-28{isolation:isolate;}.cls-25{fill:url(#linear-gradient-11);}.cls-26{fill:url(#linear-gradient-12);}.cls-27{fill:#50deff;}.cls-28{fill:#0c0f38;opacity:0.4;}.cls-29{clip-path:url(#clip-path-5);}.cls-30{fill:url(#linear-gradient-13);}.cls-31{fill:url(#linear-gradient-14);}.cls-32{clip-path:url(#clip-path-6);}.cls-33{fill:url(#linear-gradient-15);}.cls-34{fill:url(#linear-gradient-16);}</style><linearGradient id="linear-gradient" x1="1869.65" y1="156.15" x2="2011.13" y2="156.15" gradientTransform="matrix(1, 0, 0, -1, -1699.5, 420.2)" gradientUnits="userSpaceOnUse"><stop offset="0" stop-color="#a31fa9"/><stop offset="0.07" stop-color="#8b17a0"/><stop offset="0.15" stop-color="#740f98"/><stop offset="0.24" stop-color="#640a92"/><stop offset="0.34" stop-color="#5b078f"/><stop offset="0.48" stop-color="#58068e"/><stop offset="0.63" stop-color="#4d22a3"/><stop offset="0.94" stop-color="#3168da"/><stop offset="1" stop-color="#2c75e4"/></linearGradient><linearGradient id="linear-gradient-2" x1="1651.99" y1="474.45" x2="1718.73" y2="532.25" gradientTransform="matrix(0.87, 0.5, 1, -0.58, -1725.33, -330.34)" gradientUnits="userSpaceOnUse"><stop offset="0" stop-color="#8d139b"/><stop offset="0.17" stop-color="#851ba1"/><stop offset="0.43" stop-color="#6e33b2"/><stop offset="0.76" stop-color="#4958cd"/><stop offset="1" stop-color="#2979e4"/></linearGradient><linearGradient id="linear-gradient-3" x1="1660.69" y1="481.98" x2="1710.38" y2="525.01" gradientTransform="matrix(0.87, 0.5, 1, -0.58, -1725.33, -330.34)" gradientUnits="userSpaceOnUse"><stop offset="0" stop-color="#630692"/><stop offset="0.23" stop-color="#5b0e94"/><stop offset="0.59" stop-color="#432399"/><stop offset="1" stop-color="#2142a1"/></linearGradient><clipPath id="clip-path" transform="translate(-181.2 -165.1)"><path id="SVGID" class="cls-1" d="M235.8,237.8l-26.6-15.4c-1.9-1.1-1.7-3,.5-4.2l25.6-14.8c2.1-1.2,5.5-1.4,7.3-.3l26.7,15.4c1.9,1.1,1.6,3-.6,4.2l-25.5,14.8A8.4,8.4,0,0,1,235.8,237.8Z"/></clipPath><linearGradient id="linear-gradient-4" x1="1869.65" y1="200.8" x2="2011.13" y2="200.8" xlink:href="#linear-gradient"/><linearGradient id="linear-gradient-5" x1="1640.26" y1="484.59" x2="1707" y2="542.39" xlink:href="#linear-gradient-2"/><linearGradient id="linear-gradient-6" x1="1648.98" y1="492.11" x2="1698.66" y2="535.14" xlink:href="#linear-gradient-3"/><clipPath id="clip-path-2" transform="translate(-181.2 -165.1)"><path id="SVGID-2" data-name="SVGID" class="cls-1" d="M235.8,226l-26.6-15.3c-1.9-1.1-1.7-3,.5-4.3l25.6-14.7c2.1-1.3,5.5-1.4,7.3-.3l26.7,15.3c1.9,1.1,1.6,3-.6,4.3l-25.5,14.7A8.4,8.4,0,0,1,235.8,226Z"/></clipPath><linearGradient id="linear-gradient-7" x1="1869.65" y1="210.82" x2="2011.13" y2="210.82" xlink:href="#linear-gradient"/><linearGradient id="linear-gradient-8" x1="1630.27" y1="493.24" x2="1697.01" y2="551.03" xlink:href="#linear-gradient-2"/><linearGradient id="linear-gradient-9" x1="1638.97" y1="500.79" x2="1688.65" y2="543.82" xlink:href="#linear-gradient-3"/><clipPath id="clip-path-3" transform="translate(-181.2 -165.1)"><path id="SVGID-3" data-name="SVGID" class="cls-1" d="M235.8,216l-26.6-15.3c-1.9-1.1-1.7-3,.5-4.3l25.6-14.7a7.9,7.9,0,0,1,7.3-.4l26.7,15.4c1.9,1.1,1.6,3-.6,4.3l-25.5,14.7A8.4,8.4,0,0,1,235.8,216Z"/></clipPath><linearGradient id="linear-gradient-10" x1="232.37" y1="166.94" x2="365.98" y2="118.43" gradientTransform="matrix(1, 0, 0, -1, -80, 420.2)" xlink:href="#linear-gradient-3"/><clipPath id="clip-path-4" transform="translate(-181.2 -165.1)"><path id="SVGID-4" data-name="SVGID" class="cls-1" d="M317.2,317.4l-33.7-22c-1,.6-1.8,0-1.8-1.3V242.5a4.4,4.4,0,0,1,1.8-3.5l1.9-1.1c1-.5,1.8.1,1.8,1.4l31.9,14.5C319.1,255.1,318.2,316.8,317.2,317.4Z"/></clipPath><linearGradient id="linear-gradient-11" x1="1467.68" y1="150.88" x2="1518.75" y2="128.15" gradientTransform="matrix(1, 0, 0, -1, -1181.9, 420.2)" gradientUnits="userSpaceOnUse"><stop offset="0" stop-color="#2c75e4"/><stop offset="0.06" stop-color="#3168da"/><stop offset="0.37" stop-color="#4d22a3"/><stop offset="0.52" stop-color="#58068e"/><stop offset="0.66" stop-color="#5b078f"/><stop offset="0.76" stop-color="#640a92"/><stop offset="0.85" stop-color="#740f98"/><stop offset="0.93" stop-color="#8b17a0"/><stop offset="1" stop-color="#a31fa9"/></linearGradient><linearGradient id="linear-gradient-12" x1="1488.61" y1="141.17" x2="1420.91" y2="141.17" xlink:href="#linear-gradient-11"/><clipPath id="clip-path-5" transform="translate(-181.2 -165.1)"><path id="SVGID-5" data-name="SVGID" class="cls-1" d="M302.1,326.1l-33.7-21.9c-1,.5-1.8-.1-1.8-1.4V251.2a4.3,4.3,0,0,1,1.8-3.4l1.9-1.1c1-.6,1.8,0,1.8,1.3l31.8,14.6C303.9,263.9,303.1,325.5,302.1,326.1Z"/></clipPath><linearGradient id="linear-gradient-13" x1="1452.59" y1="142.18" x2="1503.66" y2="119.45" xlink:href="#linear-gradient-11"/><linearGradient id="linear-gradient-14" x1="1473.5" y1="132.42" x2="1405.79" y2="132.42" xlink:href="#linear-gradient-11"/><clipPath id="clip-path-6" transform="translate(-181.2 -165.1)"><path id="SVGID-6" data-name="SVGID" class="cls-1" d="M287,334.9l-33.7-22c-1,.6-1.8,0-1.8-1.3V260a4.4,4.4,0,0,1,1.8-3.5l1.9-1.1c1-.5,1.8.1,1.8,1.4l31.8,14.5C288.8,272.6,288,334.3,287,334.9Z"/></clipPath><linearGradient id="linear-gradient-15" x1="1437.47" y1="133.42" x2="1488.54" y2="110.69" xlink:href="#linear-gradient-11"/><linearGradient id="linear-gradient-16" x1="1458.38" y1="123.67" x2="1390.67" y2="123.67" xlink:href="#linear-gradient-11"/></defs><title>device-3</title><path class="cls-2" d="M297.3,220.5H272.8l-27.2-15.8c-3.5-2-9.7-1.7-13.7.6l-26.3,15.2H181.2v70.8h0a4.1,4.1,0,0,0,2.3,3.6l49.4,28.5c3.5,2.1,9.6,1.8,13.7-.5l47.3-27.4c2.1-1.2,3.3-2.7,3.4-4.2h0Z" transform="translate(-181.2 -165.1)"/><path class="cls-3" d="M232.9,252.6l-49.4-28.5c-3.5-2-3-5.5,1-7.9l47.4-27.3c4-2.4,10.2-2.6,13.7-.6l49.3,28.5c3.5,2,3.1,5.6-1,7.9L246.6,252C242.5,254.4,236.4,254.6,232.9,252.6Z" transform="translate(-181.2 -165.1)"/><path class="cls-4" d="M233.8,252.6l-49.3-28.5c-3.5-2-3.1-5.5,1-7.9l47.4-27.3a14.2,14.2,0,0,1,7.2-2,15.8,15.8,0,0,0-8.2,2l-47.4,27.3c-4,2.4-4.5,5.9-1,7.9l49.4,28.5a14.2,14.2,0,0,0,6.4,1.4A13.2,13.2,0,0,1,233.8,252.6Z" transform="translate(-181.2 -165.1)"/><path class="cls-5" d="M294.9,216.8l-49.3-28.5a12.2,12.2,0,0,0-6.5-1.4,11.8,11.8,0,0,1,5.5,1.4l49.3,28.5c3.5,2,3.1,5.6-1,7.9L245.5,252a16.2,16.2,0,0,1-7.2,2,15.9,15.9,0,0,0,8.3-2l47.3-27.3C298,222.4,298.4,218.8,294.9,216.8Z" transform="translate(-181.2 -165.1)"/><path class="cls-6" d="M234.5,244.4l-36.7-21.2c-2.7-1.5-2.3-4.2.7-5.9l35.3-20.4c3-1.7,7.5-1.9,10.1-.4l36.8,21.2c2.6,1.5,2.3,4.2-.7,5.9L244.7,244C241.7,245.7,237.1,245.9,234.5,244.4Z" transform="translate(-181.2 -165.1)"/><path class="cls-7" d="M235.8,237.8l-26.6-15.4c-1.9-1.1-1.7-3,.5-4.2l25.6-14.8c2.1-1.2,5.5-1.4,7.3-.3l26.7,15.4c1.9,1.1,1.6,3-.6,4.2l-25.5,14.8A8.4,8.4,0,0,1,235.8,237.8Z" transform="translate(-181.2 -165.1)"/><g class="cls-8"><path class="cls-9" d="M209.7,220.3l25.6-14.8c2.1-1.3,5.5-1.4,7.3-.3l26.7,15.4a1.4,1.4,0,0,1,.9.8,2.1,2.1,0,0,0-.6-2.8h-.3l-26.7-15.4c-1.8-1.1-5.2-.9-7.3.3l-25.6,14.8c-1.7,1-2.2,2.3-1.5,3.4A3.7,3.7,0,0,1,209.7,220.3Z" transform="translate(-181.2 -165.1)"/><path class="cls-10" d="M209.7,222.8,235.3,208c2.1-1.3,5.5-1.4,7.3-.3l26.7,15.4.7.6c.9-1.1.7-2.3-.7-3.1l-26.7-15.4c-1.8-1.1-5.2-1-7.3.3l-25.6,14.8c-1.8,1-2.3,2.5-1.3,3.6A3.3,3.3,0,0,1,209.7,222.8Z" transform="translate(-181.2 -165.1)"/><path class="cls-11" d="M208.6,226.6l1.1-.8,25.6-14.7c2.1-1.3,5.5-1.4,7.3-.3l26.7,15.3.5.4c1.1-1.2,1-2.6-.5-3.4l-26.7-15.4c-1.8-1.1-5.2-1-7.3.3l-25.6,14.8C207.7,223.9,207.4,225.5,208.6,226.6Z" transform="translate(-181.2 -165.1)"/></g><path class="cls-12" d="M297.3,208.7H272.8L245.6,193c-3.5-2-9.7-1.8-13.7.5l-26.3,15.2H181.2v5.1h0a4.1,4.1,0,0,0,2.3,3.6l49.4,28.5c3.5,2,9.6,1.8,13.7-.6L293.9,218c2.1-1.2,3.3-2.8,3.4-4.2h0Z" transform="translate(-181.2 -165.1)"/><path class="cls-13" d="M232.9,240.9l-49.4-28.5c-3.5-2.1-3-5.6,1-7.9l47.4-27.4c4-2.3,10.2-2.6,13.7-.6L294.9,205c3.5,2.1,3.1,5.6-1,7.9l-47.3,27.4C242.5,242.6,236.4,242.9,232.9,240.9Z" transform="translate(-181.2 -165.1)"/><path class="cls-4" d="M233.8,240.9l-49.3-28.5c-3.5-2.1-3.1-5.6,1-7.9l47.4-27.4a15.2,15.2,0,0,1,7.2-1.9,15.7,15.7,0,0,0-8.2,1.9l-47.4,27.4c-4,2.3-4.5,5.8-1,7.9l49.4,28.5a14.1,14.1,0,0,0,6.4,1.3A13.1,13.1,0,0,1,233.8,240.9Z" transform="translate(-181.2 -165.1)"/><path class="cls-5" d="M294.9,205l-49.3-28.5a12.1,12.1,0,0,0-6.5-1.3,11.7,11.7,0,0,1,5.5,1.3L293.9,205c3.5,2.1,3.1,5.6-1,7.9l-47.4,27.4a16.4,16.4,0,0,1-7.2,1.9,16.9,16.9,0,0,0,8.3-1.9l47.3-27.4C298,210.6,298.4,207.1,294.9,205Z" transform="translate(-181.2 -165.1)"/><path class="cls-14" d="M234.5,232.6l-36.7-21.2c-2.7-1.5-2.3-4.1.7-5.8l35.3-20.4c3-1.8,7.5-1.9,10.1-.4L280.7,206c2.6,1.5,2.3,4.1-.7,5.9l-35.3,20.3C241.7,234,237.1,234.2,234.5,232.6Z" transform="translate(-181.2 -165.1)"/><path class="cls-7" d="M235.8,226l-26.6-15.3c-1.9-1.1-1.7-3,.5-4.3l25.6-14.7c2.1-1.3,5.5-1.4,7.3-.3l26.7,15.3c1.9,1.1,1.6,3-.6,4.3l-25.5,14.7A8.4,8.4,0,0,1,235.8,226Z" transform="translate(-181.2 -165.1)"/><g class="cls-15"><path class="cls-9" d="M209.7,208.5l25.6-14.8c2.1-1.2,5.5-1.4,7.3-.3l26.7,15.4a1.4,1.4,0,0,1,.9.8,2.1,2.1,0,0,0-.6-2.8h-.3l-26.7-15.3c-1.8-1.1-5.2-1-7.3.3l-25.6,14.7c-1.7,1-2.2,2.4-1.5,3.4A3.7,3.7,0,0,1,209.7,208.5Z" transform="translate(-181.2 -165.1)"/><path class="cls-10" d="M209.7,211l25.6-14.8c2.1-1.2,5.5-1.4,7.3-.3l26.7,15.4a1.6,1.6,0,0,1,.7.7,2.1,2.1,0,0,0-.1-2.9l-.6-.3-26.7-15.4c-1.8-1.1-5.2-.9-7.3.3l-25.6,14.8c-1.8,1-2.3,2.5-1.3,3.6A3.3,3.3,0,0,1,209.7,211Z" transform="translate(-181.2 -165.1)"/><path class="cls-11" d="M208.6,214.9l1.1-.8,25.6-14.8c2.1-1.3,5.5-1.4,7.3-.3l26.7,15.4.5.4a2.1,2.1,0,0,0,.2-3,1.8,1.8,0,0,0-.7-.5l-26.7-15.4c-1.8-1.1-5.2-.9-7.3.3L209.7,211C207.7,212.1,207.4,213.8,208.6,214.9Z" transform="translate(-181.2 -165.1)"/></g><path class="cls-16" d="M297.3,198.7H272.8L245.6,183c-3.5-2.1-9.7-1.8-13.7.5l-26.3,15.2H181.2v5h0a4.2,4.2,0,0,0,2.3,3.7l49.4,28.5c3.5,2,9.6,1.8,13.7-.6L293.9,208c2.1-1.2,3.3-2.8,3.4-4.3h0Z" transform="translate(-181.2 -165.1)"/><path class="cls-17" d="M232.9,230.8l-49.4-28.4c-3.5-2.1-3-5.6,1-7.9l47.4-27.4c4-2.3,10.2-2.6,13.7-.6L294.9,195c3.5,2,3.1,5.6-1,7.9l-47.3,27.4C242.5,232.6,236.4,232.9,232.9,230.8Z" transform="translate(-181.2 -165.1)"/><path class="cls-4" d="M233.8,230.8l-49.3-28.4c-3.5-2.1-3.1-5.6,1-7.9l47.4-27.4a15.2,15.2,0,0,1,7.2-1.9,14.8,14.8,0,0,0-8.2,1.9l-47.4,27.4c-4,2.3-4.5,5.8-1,7.9l49.4,28.4a13,13,0,0,0,6.4,1.4A13.2,13.2,0,0,1,233.8,230.8Z" transform="translate(-181.2 -165.1)"/><path class="cls-5" d="M294.9,195l-49.3-28.5a11.2,11.2,0,0,0-6.5-1.3,10.6,10.6,0,0,1,5.5,1.3L293.9,195c3.5,2,3.1,5.6-1,7.9l-47.4,27.4a16.4,16.4,0,0,1-7.2,1.9,16.9,16.9,0,0,0,8.3-1.9l47.3-27.4C298,200.6,298.4,197,294.9,195Z" transform="translate(-181.2 -165.1)"/><path class="cls-18" d="M234.5,222.6l-36.7-21.2c-2.7-1.5-2.3-4.1.7-5.9l35.3-20.3c3-1.8,7.5-2,10.1-.4L280.7,196c2.6,1.5,2.3,4.1-.7,5.8l-35.3,20.4C241.7,224,237.1,224.1,234.5,222.6Z" transform="translate(-181.2 -165.1)"/><path class="cls-7" d="M235.8,216l-26.6-15.3c-1.9-1.1-1.7-3,.5-4.3l25.6-14.7a7.9,7.9,0,0,1,7.3-.4l26.7,15.4c1.9,1.1,1.6,3-.6,4.3l-25.5,14.7A8.4,8.4,0,0,1,235.8,216Z" transform="translate(-181.2 -165.1)"/><g class="cls-19"><path class="cls-9" d="M209.7,198.5l25.6-14.8c2.1-1.2,5.5-1.4,7.3-.3l26.7,15.4a1.4,1.4,0,0,1,.9.8,2.1,2.1,0,0,0-.6-2.8h-.3l-26.7-15.4c-1.8-1.1-5.2-.9-7.3.3l-25.6,14.8c-1.7,1-2.2,2.4-1.5,3.4A3.7,3.7,0,0,1,209.7,198.5Z" transform="translate(-181.2 -165.1)"/><path class="cls-10" d="M209.7,201l25.6-14.8c2.1-1.2,5.5-1.4,7.3-.3l26.7,15.4a1.6,1.6,0,0,1,.7.7,2.1,2.1,0,0,0-.1-2.9l-.6-.3-26.7-15.4c-1.8-1.1-5.2-.9-7.3.3l-25.6,14.8c-1.8,1-2.3,2.5-1.3,3.6A3.3,3.3,0,0,1,209.7,201Z" transform="translate(-181.2 -165.1)"/><path class="cls-11" d="M208.6,204.9l1.1-.8,25.6-14.8c2.1-1.3,5.5-1.4,7.3-.3l26.7,15.4.5.3a2.1,2.1,0,0,0,.3-2.9l-.8-.5-26.7-15.4c-1.8-1.1-5.2-.9-7.3.3L209.7,201C207.7,202.1,207.4,203.8,208.6,204.9Z" transform="translate(-181.2 -165.1)"/></g><path class="cls-20" d="M229.3,312.7l-40.1-23.1a5.1,5.1,0,0,1-2-3.7V236.7c0-1.5.9-2.1,2-1.5l40.1,23.1a4.7,4.7,0,0,1,1.9,3.8v49.2C231.2,312.7,230.3,313.4,229.3,312.7Z" transform="translate(-181.2 -165.1)"/><path class="cls-7" d="M230,312.4l-40.1-23.1a5.1,5.1,0,0,1-2-3.7V236.4a2.5,2.5,0,0,1,.5-1.5c-.7,0-1.2.7-1.2,1.8v49.2a5.1,5.1,0,0,0,2,3.7l40.1,23.1a1.2,1.2,0,0,0,1.4,0Z" transform="translate(-181.2 -165.1)"/><path class="cls-7" d="M223.4,301.4,195.1,285a3.1,3.1,0,0,1-1.4-2.6V247.6c0-1,.6-1.5,1.4-1l28.3,16.3a3.4,3.4,0,0,1,1.3,2.7v34.7C224.7,301.3,224.1,301.8,223.4,301.4Z" transform="translate(-181.2 -165.1)"/><path class="cls-9" d="M197,283.7a3.1,3.1,0,0,1-1.4-2.6V246.9l-.5-.3c-.8-.5-1.4,0-1.4,1v34.8a3.1,3.1,0,0,0,1.4,2.6l28.3,16.4c.7.4,1.3-.1,1.3-1.1v-.6Z" transform="translate(-181.2 -165.1)"/><polygon class="cls-9" points="23.4 96.3 17.6 92.9 17.6 92 23.4 95.3 23.4 96.3"/><polygon class="cls-11" points="28 98.9 25.1 97.3 25.1 96.3 28 97.9 28 98.9"/><polygon class="cls-9" points="32.4 101.5 29.5 99.8 29.5 98.8 32.4 100.5 32.4 101.5"/><polygon class="cls-9" points="36.8 104 33.9 102.3 33.9 101.3 36.8 103 36.8 104"/><polygon class="cls-9" points="23.4 98.6 17.6 95.3 17.6 94.3 23.4 97.6 23.4 98.6"/><polygon class="cls-11" points="28 101.3 25.1 99.6 25.1 98.6 28 100.3 28 101.3"/><polygon class="cls-9" points="32.4 103.8 29.5 102.1 29.5 101.2 32.4 102.8 32.4 103.8"/><polygon class="cls-9" points="36.8 106.3 33.9 104.7 33.9 103.7 36.8 105.4 36.8 106.3"/><polygon class="cls-9" points="23.4 101 17.6 97.6 17.6 96.7 23.4 100 23.4 101"/><polygon class="cls-9" points="30.2 103.9 29.5 103.5 25.1 101 25.1 102 29.5 104.5 30.2 104.9 32.4 106.2 32.4 105.2 30.2 103.9"/><polygon class="cls-9" points="36.8 108.7 33.9 107 33.9 106.1 36.8 107.7 36.8 108.7"/><polygon class="cls-9" points="38.3 103.9 38.3 106.2 38.3 107.2 38.3 108.6 38.3 108.9 38.3 109.6 41.1 111.2 41.1 110.5 41.1 110.3 41.1 108.9 41.1 107.9 41.1 105.6 38.3 103.9"/><polygon class="cls-11" points="23.4 103.3 17.6 100 17.6 99 23.4 102.4 23.4 103.3"/><polygon class="cls-9" points="28 106 25.1 104.3 25.1 103.3 28 105 28 106"/><polygon class="cls-9" points="32.4 107.5 31.6 107.1 29.5 105.9 29.5 106.8 31.6 108.1 32.4 108.5 36.8 111.1 36.8 110.1 32.4 107.5"/><polygon class="cls-9" points="41.1 113.6 38.3 111.9 38.3 110.9 41.1 112.6 41.1 113.6"/><polygon class="cls-9" points="23.4 110.4 17.6 107.1 17.6 106.1 23.4 109.4 23.4 110.4"/><polygon class="cls-9" points="28 113 25.1 111.4 25.1 110.4 28 112.1 28 113"/><polygon class="cls-9" points="32.4 114.6 31.6 114.1 29.5 112.9 29.5 113.9 31.6 115.1 32.4 115.6 36.8 118.1 36.8 117.1 32.4 114.6"/><polygon class="cls-9" points="41.1 120.6 38.3 119 38.3 118 41.1 119.7 41.1 120.6"/><polygon class="cls-9" points="23.4 112.7 17.6 109.4 17.6 108.4 23.4 111.8 23.4 112.7"/><polygon class="cls-9" points="28 115.4 25.1 113.7 25.1 112.7 28 114.4 28 115.4"/><polygon class="cls-9" points="41.1 123 38.3 121.3 38.3 120.3 41.1 122 41.1 123"/><polygon class="cls-9" points="23.4 115.1 17.6 111.8 17.6 110.8 23.4 114.1 23.4 115.1"/><polygon class="cls-9" points="28 117.7 25.1 116.1 25.1 115.1 28 116.8 28 117.7"/><polygon class="cls-11" points="32.4 116.9 31.6 116.5 29.5 115.3 29.5 116 29.5 116.3 29.5 118.6 31.6 119.8 32.4 120.3 36.8 122.8 36.8 120.5 36.8 120.2 36.8 119.5 32.4 116.9"/><polygon class="cls-9" points="41.1 125.3 38.3 123.7 38.3 122.7 41.1 124.4 41.1 125.3"/><polygon class="cls-9" points="23.4 105.7 17.6 102.4 17.6 101.4 23.4 104.7 23.4 105.7"/><polygon class="cls-11" points="28 108.3 25.1 106.7 25.1 105.7 28 107.4 28 108.3"/><polygon class="cls-9" points="36.8 113.4 33.9 111.7 33.9 110.8 36.8 112.4 36.8 113.4"/><polygon class="cls-9" points="41.1 115.9 38.3 114.3 38.3 113.3 41.1 115 41.1 115.9"/><polygon class="cls-9" points="23.4 108 17.6 104.7 17.6 103.7 23.4 107.1 23.4 108"/><polygon class="cls-9" points="28 110.7 25.1 109 25.1 108 28 109.7 28 110.7"/><polygon class="cls-11" points="29.5 108.2 29.5 108.7 29.5 109.2 29.5 111.6 32.4 113.2 32.4 110.9 32.4 110.4 32.4 109.9 29.5 108.2"/><polygon class="cls-9" points="36.8 115.8 33.9 114.1 33.9 113.1 36.8 114.8 36.8 115.8"/><polygon class="cls-9" points="41.1 118.3 38.3 116.6 38.3 115.6 41.1 117.3 41.1 118.3"/><path class="cls-21" d="M285.4,294.3l-1.9,1.1c-1,.6-1.8,0-1.8-1.3V242.5a4.4,4.4,0,0,1,1.8-3.5l1.9-1.1c1-.5,1.8.1,1.8,1.4v51.6A4.3,4.3,0,0,1,285.4,294.3Z" transform="translate(-181.2 -165.1)"/><g class="cls-22"><polygon class="cls-23" points="127.6 138.6 95.2 119.9 95.2 69.1 127.6 87.8 127.6 138.6"/><polygon class="cls-24" points="124.8 140.2 92.3 121.5 92.3 70.7 124.8 89.4 124.8 140.2"/><polygon class="cls-23" points="95.2 69.1 92.3 70.7 124.8 89.4 127.6 87.8 95.2 69.1"/><polygon class="cls-23" points="95.2 119.9 92.3 121.5 124.8 140.2 127.6 138.6 95.2 119.9"/><path class="cls-25" d="M309.5,250.2l-1.8-1h0a.9.9,0,0,0-1.2.1l-1.9,1.1a4.3,4.3,0,0,0-1.8,3.4v51.6a2.2,2.2,0,0,0,.6,1.5h0l1.7,1-.3-1.2,1.7-1a4.3,4.3,0,0,0,1.8-3.4V250.6h0Z" transform="translate(-181.2 -165.1)"/><path class="cls-7" d="M304.6,250.4l1.9-1.1a1.2,1.2,0,0,1,1-.2l-.5.2-2,1.2a4,4,0,0,0-1.8,3.4v52.7h0a3.3,3.3,0,0,1-.4-1.3V253.8A4.3,4.3,0,0,1,304.6,250.4Z" transform="translate(-181.2 -165.1)"/><path class="cls-26" d="M308.3,306.7l-1.9,1.1c-1,.6-1.8,0-1.8-1.3V254.9a4.4,4.4,0,0,1,1.8-3.5l1.9-1.1c1-.5,1.8.1,1.8,1.4v51.6A4.3,4.3,0,0,1,308.3,306.7Z" transform="translate(-181.2 -165.1)"/><polygon class="cls-27" points="98.5 105.5 101.9 103.5 101.9 98.4 98.5 100.4 98.5 105.5"/><polygon class="cls-27" points="98.5 108 98.5 113.3 101.9 111.4 101.9 106 98.5 108"/><polygon class="cls-27" points="113 90.2 113 94.3 114.2 95 114.2 90.9 113 90.2"/><polygon class="cls-27" points="110.2 92.8 111.4 93.5 111.4 89.3 110.2 88.6 110.2 92.8"/><polygon class="cls-27" points="116.5 112.6 116.5 124.3 102.1 116 98.5 118.1 120 130.4 120 110.6 116.5 112.6"/><polygon class="cls-27" points="101.9 94.2 101.9 88 108.7 91.9 108.7 87.7 98.5 81.8 98.5 96.1 101.9 94.2"/><polygon class="cls-27" points="120 105.7 116.5 107.7 116.5 110.1 120 108.1 120 105.7"/><polygon class="cls-27" points="115.7 95.9 116.5 96.4 116.5 102.9 120 100.9 120 94.2 115.7 91.8 115.7 95.9"/><polygon class="cls-27" points="106 95.4 103.6 94 103.6 91.2 106 92.6 106 95.4"/><polygon class="cls-27" points="110.2 97.8 107.8 96.4 107.8 93.6 110.2 95 110.2 97.8"/><polygon class="cls-27" points="110.2 102.1 107.8 100.7 107.8 97.9 110.2 99.3 110.2 102.1"/><polygon class="cls-27" points="114.4 120.7 112 119.3 112 116.5 114.4 117.9 114.4 120.7"/><polygon class="cls-27" points="106 99.7 103.6 98.3 103.6 95.5 106 96.9 106 99.7"/><polygon class="cls-27" points="114.4 100.2 112 98.8 112 96 114.4 97.4 114.4 100.2"/><path class="cls-28" d="M286.4,240.1l-2.9,1.6v50.8l-1.8-1-2-17.2V239.5l3.7-.8h.6Z" transform="translate(-181.2 -165.1)"/></g><path class="cls-21" d="M270.3,303.1l-1.9,1.1c-1,.5-1.8-.1-1.8-1.4V251.2a4.3,4.3,0,0,1,1.8-3.4l1.9-1.1c1-.6,1.8,0,1.8,1.3v51.6A4.4,4.4,0,0,1,270.3,303.1Z" transform="translate(-181.2 -165.1)"/><g class="cls-29"><polygon class="cls-23" points="112.5 147.3 80.1 128.6 80.1 77.8 112.5 96.6 112.5 147.3"/><polygon class="cls-24" points="109.6 148.9 77.2 130.2 77.2 79.4 109.6 98.2 109.6 148.9"/><polygon class="cls-23" points="80.1 77.8 77.2 79.4 109.6 98.2 112.5 96.6 80.1 77.8"/><polygon class="cls-23" points="80.1 128.6 77.2 130.2 109.6 148.9 112.5 147.3 80.1 128.6"/><path class="cls-30" d="M294.3,259l-1.8-1.1h.1a1.3,1.3,0,0,0-1.2,0l-1.9,1.1a4.4,4.4,0,0,0-1.8,3.5v51.7c0,.7.2,1.2.6,1.4h0l1.7,1-.3-1.2,1.7-1a4.3,4.3,0,0,0,1.8-3.4V259.4h0Z" transform="translate(-181.2 -165.1)"/><path class="cls-7" d="M289.5,259.1l1.9-1.1a.9.9,0,0,1,1-.1l-.6.2-1.9,1.1a4.4,4.4,0,0,0-1.8,3.5v52.6h0a1.9,1.9,0,0,1-.4-1.2V262.6A4.4,4.4,0,0,1,289.5,259.1Z" transform="translate(-181.2 -165.1)"/><path class="cls-31" d="M293.2,315.5l-2,1.1c-.9.5-1.7-.1-1.7-1.4V263.6a4.7,4.7,0,0,1,1.7-3.4l2-1.1c1-.6,1.8,0,1.8,1.3V312A4.4,4.4,0,0,1,293.2,315.5Z" transform="translate(-181.2 -165.1)"/><polygon class="cls-27" points="83.4 114.2 86.8 112.2 86.8 107.2 83.4 109.2 83.4 114.2"/><polygon class="cls-27" points="83.4 116.7 83.4 122.1 86.8 120.1 86.8 114.8 83.4 116.7"/><polygon class="cls-27" points="97.9 98.9 97.9 103.1 99 103.8 99 99.6 97.9 98.9"/><polygon class="cls-27" points="95.1 101.5 96.3 102.2 96.3 98.1 95.1 97.4 95.1 101.5"/><polygon class="cls-27" points="101.4 121.3 101.4 133 87 124.7 83.4 126.8 104.8 139.2 104.8 119.4 101.4 121.3"/><polygon class="cls-27" points="86.8 102.9 86.8 96.7 93.6 100.6 93.6 96.5 83.4 90.6 83.4 104.9 86.8 102.9"/><polygon class="cls-27" points="104.8 114.5 101.4 116.4 101.4 118.8 104.8 116.8 104.8 114.5"/><polygon class="cls-27" points="100.6 104.7 101.4 105.1 101.4 111.7 104.8 109.7 104.8 103 100.6 100.5 100.6 104.7"/><polygon class="cls-27" points="90.9 104.1 88.5 102.7 88.5 99.9 90.9 101.3 90.9 104.1"/><polygon class="cls-27" points="95.1 106.5 92.7 105.1 92.7 102.4 95.1 103.7 95.1 106.5"/><polygon class="cls-27" points="95.1 110.8 92.7 109.4 92.7 106.7 95.1 108.1 95.1 110.8"/><polygon class="cls-27" points="99.3 129.4 96.9 128 96.9 125.2 99.3 126.6 99.3 129.4"/><polygon class="cls-27" points="90.9 108.4 88.5 107 88.5 104.3 90.9 105.6 90.9 108.4"/><polygon class="cls-27" points="99.3 108.9 96.9 107.5 96.9 104.8 99.3 106.2 99.3 108.9"/><path class="cls-28" d="M271.3,248.9l-2.9,1.6v50.8l-1.8-1.1-2-17.2V248.2l3.7-.8h.6Z" transform="translate(-181.2 -165.1)"/></g><path class="cls-21" d="M255.2,311.8l-1.9,1.1c-1,.6-1.8,0-1.8-1.3V260a4.4,4.4,0,0,1,1.8-3.5l1.9-1.1c1-.5,1.8.1,1.8,1.4v51.6A4.3,4.3,0,0,1,255.2,311.8Z" transform="translate(-181.2 -165.1)"/><g class="cls-32"><polygon class="cls-23" points="97.3 156.1 64.9 137.4 64.9 86.6 97.3 105.3 97.3 156.1"/><polygon class="cls-24" points="94.5 157.7 62.1 139 62.1 88.2 94.5 106.9 94.5 157.7"/><polygon class="cls-23" points="64.9 86.6 62.1 88.2 94.5 106.9 97.3 105.3 64.9 86.6"/><polygon class="cls-23" points="64.9 137.4 62.1 139 94.5 157.7 97.3 156.1 64.9 137.4"/><path class="cls-33" d="M279.2,267.7l-1.8-1h0a.8.8,0,0,0-1.1.1l-1.9,1.1a4.3,4.3,0,0,0-1.8,3.4v51.6c0,.7.2,1.2.6,1.4h0l1.7,1-.3-1.2,1.7-1a4.4,4.4,0,0,0,1.8-3.5V268.1h0Z" transform="translate(-181.2 -165.1)"/><path class="cls-7" d="M274.4,267.9l1.9-1.1a1,1,0,0,1,1-.2l-.6.2-1.9,1.1a4.7,4.7,0,0,0-1.8,3.5v52.7h0c-.3-.2-.4-.6-.4-1.2V271.3A4.3,4.3,0,0,1,274.4,267.9Z" transform="translate(-181.2 -165.1)"/><path class="cls-34" d="M278,324.2l-1.9,1.1c-1,.6-1.8,0-1.8-1.3V272.3a4.3,4.3,0,0,1,1.8-3.4l1.9-1.1c1-.5,1.8.1,1.8,1.4v51.6A4.3,4.3,0,0,1,278,324.2Z" transform="translate(-181.2 -165.1)"/><polygon class="cls-27" points="68.2 123 71.7 121 71.7 115.9 68.2 117.9 68.2 123"/><polygon class="cls-27" points="68.2 125.5 68.2 130.8 71.7 128.9 71.7 123.5 68.2 125.5"/><polygon class="cls-27" points="82.7 107.7 82.7 111.8 83.9 112.5 83.9 108.4 82.7 107.7"/><polygon class="cls-27" points="80 110.3 81.2 110.9 81.2 106.8 80 106.1 80 110.3"/><polygon class="cls-27" points="86.3 130.1 86.3 141.8 71.9 133.5 68.3 135.6 89.7 147.9 89.7 128.1 86.3 130.1"/><polygon class="cls-27" points="71.7 111.7 71.7 105.5 78.4 109.4 78.4 105.2 68.2 99.3 68.2 113.6 71.7 111.7"/><polygon class="cls-27" points="89.7 123.2 86.3 125.2 86.3 127.6 89.7 125.6 89.7 123.2"/><polygon class="cls-27" points="85.5 113.4 86.3 113.9 86.3 120.4 89.7 118.4 89.7 111.7 85.5 109.3 85.5 113.4"/><polygon class="cls-27" points="75.8 112.8 73.4 111.5 73.4 108.7 75.8 110.1 75.8 112.8"/><polygon class="cls-27" points="80 115.3 77.6 113.9 77.6 111.1 80 112.5 80 115.3"/><polygon class="cls-27" points="80 119.6 77.6 118.2 77.6 115.4 80 116.8 80 119.6"/><polygon class="cls-27" points="84.2 138.1 81.8 136.8 81.8 134 84.2 135.4 84.2 138.1"/><polygon class="cls-27" points="75.8 117.2 73.4 115.8 73.4 113 75.8 114.4 75.8 117.2"/><polygon class="cls-27" points="84.2 117.7 81.8 116.3 81.8 113.5 84.2 114.9 84.2 117.7"/><path class="cls-28" d="M256.1,257.6l-2.8,1.6V310l-1.8-1-2.1-17.3V257l3.8-.8c-.1.1.6.1.6.1Z" transform="translate(-181.2 -165.1)"/></g></svg>