<svg id="Layer_1" data-name="Layer 1" xmlns="http://www.w3.org/2000/svg" xmlns:xlink="http://www.w3.org/1999/xlink" viewBox="0 0 122.2 145.2"><defs><style>.cls-1{fill:none;}.cls-2{fill:url(#linear-gradient);}.cls-3{fill:#d4088c;}.cls-4{fill:url(#linear-gradient-2);}.cls-20,.cls-5{fill:#6ee8fc;}.cls-6{fill:#480689;}.cls-7{fill:url(#linear-gradient-3);}.cls-8{fill:url(#linear-gradient-4);}.cls-9{fill:url(#linear-gradient-5);}.cls-10{fill:url(#linear-gradient-6);}.cls-11{fill:url(#linear-gradient-7);}.cls-12{fill:url(#linear-gradient-8);}.cls-13{fill:url(#linear-gradient-9);}.cls-14,.cls-21{fill:#25bfec;}.cls-15{fill:#6de0f6;}.cls-16{fill:#267fe5;}.cls-17{fill:url(#linear-gradient-11);}.cls-18{fill:#38025b;}.cls-19{clip-path:url(#clip-path);}.cls-20,.cls-21{opacity:0.5;}.cls-20,.cls-21,.cls-25{isolation:isolate;}.cls-22{fill:url(#linear-gradient-12);}.cls-23{fill:url(#linear-gradient-13);}.cls-24{fill:#50deff;}.cls-25{fill:#0c0f38;opacity:0.4;}.cls-26{clip-path:url(#clip-path-2);}.cls-27{fill:url(#linear-gradient-14);}.cls-28{fill:url(#linear-gradient-15);}</style><linearGradient id="linear-gradient" x1="183.36" y1="-142.07" x2="319.04" y2="-142.07" gradientTransform="matrix(1, 0, 0, -1, -193.9, -29.1)" gradientUnits="userSpaceOnUse"><stop offset="0" stop-color="#a31fa9"/><stop offset="0.07" stop-color="#8b17a0"/><stop offset="0.15" stop-color="#740f98"/><stop offset="0.24" stop-color="#640a92"/><stop offset="0.34" stop-color="#5b078f"/><stop offset="0.48" stop-color="#58068e"/><stop offset="0.63" stop-color="#4d22a3"/><stop offset="0.94" stop-color="#3168da"/><stop offset="1" stop-color="#2c75e4"/></linearGradient><linearGradient id="linear-gradient-2" x1="646.82" y1="-561.23" x2="710.82" y2="-505.81" gradientTransform="matrix(0.87, 0.5, 1, -0.58, 0.31, -551.61)" gradientUnits="userSpaceOnUse"><stop offset="0" stop-color="#8d139b"/><stop offset="0.17" stop-color="#851ba1"/><stop offset="0.43" stop-color="#6e33b2"/><stop offset="0.76" stop-color="#4958cd"/><stop offset="1" stop-color="#2979e4"/></linearGradient><linearGradient id="linear-gradient-3" x1="183.36" y1="-120.37" x2="319.04" y2="-120.37" xlink:href="#linear-gradient"/><linearGradient id="linear-gradient-4" x1="625.14" y1="-542.47" x2="689.14" y2="-487.05" xlink:href="#linear-gradient-2"/><linearGradient id="linear-gradient-5" x1="183.36" y1="-98.67" x2="319.04" y2="-98.67" xlink:href="#linear-gradient"/><linearGradient id="linear-gradient-6" x1="603.49" y1="-523.73" x2="667.49" y2="-468.3" xlink:href="#linear-gradient-2"/><linearGradient id="linear-gradient-7" x1="183.36" y1="-76.97" x2="319.04" y2="-76.97" xlink:href="#linear-gradient"/><linearGradient id="linear-gradient-8" x1="581.83" y1="-504.98" x2="645.83" y2="-449.56" gradientTransform="matrix(0.87, 0.5, 1, -0.58, 0.31, -551.61)" gradientUnits="userSpaceOnUse"><stop offset="0" stop-color="#267fe5"/><stop offset="0.17" stop-color="#2c87e7"/><stop offset="0.44" stop-color="#3d9feb"/><stop offset="0.78" stop-color="#59c4f2"/><stop offset="1" stop-color="#6ee1f8"/></linearGradient><linearGradient id="linear-gradient-9" x1="207.9" y1="-61.25" x2="291.3" y2="-61.25" gradientTransform="matrix(1, 0, 0, -1, -193.9, -29.1)" gradientUnits="userSpaceOnUse"><stop offset="0" stop-color="#6de0f6"/><stop offset="0.16" stop-color="#68d8f5"/><stop offset="0.41" stop-color="#5ac0f1"/><stop offset="0.73" stop-color="#439bea"/><stop offset="1" stop-color="#2c75e4"/></linearGradient><linearGradient id="linear-gradient-11" x1="598.01" y1="-496.41" x2="630.41" y2="-456.61" gradientTransform="matrix(0.87, 0.5, 1, -0.58, 0.31, -551.61)" gradientUnits="userSpaceOnUse"><stop offset="0" stop-color="#a31fa9"/><stop offset="0.05" stop-color="#8b17a0"/><stop offset="0.11" stop-color="#740f98"/><stop offset="0.18" stop-color="#640a92"/><stop offset="0.26" stop-color="#5b078f"/><stop offset="0.36" stop-color="#58068e"/><stop offset="0.54" stop-color="#4d22a3"/><stop offset="0.93" stop-color="#3168da"/><stop offset="1" stop-color="#2c75e4"/></linearGradient><clipPath id="clip-path" transform="translate(5.4 0)"><path id="SVGID" class="cls-1" d="M-14.9,81.8,10,69.2c0-.8.6-1.1,1.4-.6l31,17.8a3,3,0,0,1,1.4,2.3v1.5c0,.8-.6,1.1-1.4.6L22.7,104.9C21.8,104.4-14.9,82.6-14.9,81.8Z"/></clipPath><linearGradient id="linear-gradient-12" x1="139.68" y1="-1256.61" x2="175.06" y2="-1272.36" gradientTransform="matrix(-0.5, 0.87, 0.87, 0.5, 1182.92, 585.5)" gradientUnits="userSpaceOnUse"><stop offset="0" stop-color="#2c75e4"/><stop offset="0.06" stop-color="#3168da"/><stop offset="0.37" stop-color="#4d22a3"/><stop offset="0.52" stop-color="#58068e"/><stop offset="0.66" stop-color="#5b078f"/><stop offset="0.76" stop-color="#640a92"/><stop offset="0.85" stop-color="#740f98"/><stop offset="0.93" stop-color="#8b17a0"/><stop offset="1" stop-color="#a31fa9"/></linearGradient><linearGradient id="linear-gradient-13" x1="154.74" y1="-1262.9" x2="107.82" y2="-1262.9" gradientTransform="matrix(-0.5, 0.87, 0.87, 0.5, 1182.92, 585.5)" xlink:href="#linear-gradient"/><clipPath id="clip-path-2" transform="translate(5.4 0)"><path id="SVGID-2" data-name="SVGID" class="cls-1" d="M126.3,81.8,101.5,69.2c0-.8-.7-1.1-1.4-.6l-31,17.8a2.8,2.8,0,0,0-1.5,2.3v1.5c0,.8.7,1.1,1.5.6l19.7,14.1C89.6,104.4,126.3,82.6,126.3,81.8Z"/></clipPath><linearGradient id="linear-gradient-14" x1="-214.69" y1="-634.85" x2="-179.31" y2="-650.6" gradientTransform="translate(-357 584.7) rotate(60.1)" gradientUnits="userSpaceOnUse"><stop offset="0" stop-color="#58068e"/><stop offset="0.28" stop-color="#4d22a3"/><stop offset="0.89" stop-color="#3168da"/><stop offset="1" stop-color="#2c75e4"/></linearGradient><linearGradient id="linear-gradient-15" x1="-201.33" y1="-640.91" x2="-248.25" y2="-640.91" gradientTransform="translate(-357 584.7) rotate(60.1)" xlink:href="#linear-gradient-12"/></defs><title>device-2</title><path class="cls-2" d="M111.4,97.2H87.9L61.8,82.1c-3.4-1.9-9.3-1.7-13.2.6L23.5,97.2H0V113H0a3.8,3.8,0,0,0,2.3,3.5l47.3,27.3c3.3,2,9.2,1.7,13.1-.5L108.1,117c2.1-1.1,3.1-2.6,3.2-4h.1Z" transform="translate(5.4 0)"/><path class="cls-3" d="M1.5,114.1h0V98.3H24.9L50.1,83.8c3.9-2.3,9.8-2.5,13.1-.6L89.4,98.3h22V97.2H87.9L61.8,82.1c-3.4-1.9-9.3-1.7-13.2.6L23.5,97.2H0V113H0a3.8,3.8,0,0,0,2.3,3.5l.2.2A3.2,3.2,0,0,1,1.5,114.1Z" transform="translate(5.4 0)"/><path class="cls-4" d="M49.6,128.1,2.3,100.7c-3.4-1.9-3-5.3.9-7.5L48.6,66.9c3.9-2.2,9.8-2.4,13.2-.5l47.3,27.3c3.4,2,2.9,5.3-1,7.6L62.7,127.5C58.8,129.8,52.9,130,49.6,128.1Z" transform="translate(5.4 0)"/><path class="cls-5" d="M109.1,93.7,61.8,66.4a13,13,0,0,0-6.7-1.3,10.2,10.2,0,0,1,4.8,1.3l47.3,27.3c3.4,2,3,5.3-.9,7.6L60.9,127.5a14.7,14.7,0,0,1-6.5,1.8,14.9,14.9,0,0,0,8.3-1.8l45.4-26.2C112,99,112.5,95.7,109.1,93.7Z" transform="translate(5.4 0)"/><path class="cls-6" d="M55.4,121.6a10,10,0,0,1-4.5-1.1L15.7,100.2a3.4,3.4,0,0,1-1.9-2.8c0-1.3,1-2.6,2.6-3.5L50.2,74.3c3-1.7,7.6-1.9,10.2-.4L95.6,94.3a3.2,3.2,0,0,1,1.9,2.8c0,1.3-.9,2.6-2.6,3.5L61.1,120.1A11.3,11.3,0,0,1,55.4,121.6Zm-4.1-1.8c2.4,1.4,6.6,1.2,9.4-.4L94.5,99.9c1.4-.8,2.2-1.8,2.2-2.8A2.3,2.3,0,0,0,95.2,95L60,74.6c-2.4-1.4-6.6-1.2-9.4.4L16.8,94.6c-1.4.8-2.2,1.8-2.2,2.8a2.7,2.7,0,0,0,1.5,2.1Z" transform="translate(5.4 0)"/><path class="cls-3" d="M51.7,128.1,4.4,100.7c-3.4-1.9-3-5.3.9-7.5L50.8,66.9a18,18,0,0,1,6.4-1.8,15.9,15.9,0,0,0-8.6,1.8L3.2,93.2c-3.9,2.2-4.3,5.6-.9,7.5l47.3,27.4a12.9,12.9,0,0,0,6.7,1.2A12.1,12.1,0,0,1,51.7,128.1Z" transform="translate(5.4 0)"/><path class="cls-7" d="M111.4,75.5H87.9L61.8,60.4c-3.4-1.9-9.3-1.7-13.2.6L23.5,75.5H0V91.3H0a3.8,3.8,0,0,0,2.3,3.5l47.3,27.3c3.3,2,9.2,1.7,13.1-.5l45.4-26.3c2.1-1.1,3.1-2.6,3.2-4h.1Z" transform="translate(5.4 0)"/><path class="cls-3" d="M1.5,92.4h0V76.6H24.9L50.1,62.1c3.9-2.3,9.8-2.5,13.1-.6L89.4,76.6h22V75.5H87.9L61.8,60.4c-3.4-1.9-9.3-1.7-13.2.6L23.5,75.5H0V91.3H0a3.8,3.8,0,0,0,2.3,3.5l.2.2A3.2,3.2,0,0,1,1.5,92.4Z" transform="translate(5.4 0)"/><path class="cls-8" d="M49.6,106.4,2.3,79c-3.4-1.9-3-5.3.9-7.5L48.6,45.2c3.9-2.2,9.8-2.5,13.2-.5L109.1,72c3.4,2,2.9,5.3-1,7.6L62.7,105.8C58.8,108.1,52.9,108.3,49.6,106.4Z" transform="translate(5.4 0)"/><path class="cls-5" d="M109.1,72,61.8,44.7a13,13,0,0,0-6.7-1.3,10.2,10.2,0,0,1,4.8,1.3L107.2,72c3.4,2,3,5.3-.9,7.6L60.9,105.8a14.7,14.7,0,0,1-6.5,1.8,14.9,14.9,0,0,0,8.3-1.8l45.4-26.2C112,77.3,112.5,74,109.1,72Z" transform="translate(5.4 0)"/><path class="cls-6" d="M55.4,99.9a10,10,0,0,1-4.5-1.1L15.7,78.5a3.4,3.4,0,0,1-1.9-2.8c0-1.3,1-2.6,2.6-3.5L50.2,52.6c3-1.7,7.6-1.9,10.2-.4L95.6,72.6a3.2,3.2,0,0,1,1.9,2.8c0,1.3-.9,2.6-2.6,3.5L61.1,98.4A11.3,11.3,0,0,1,55.4,99.9ZM56,52a11.3,11.3,0,0,0-5.4,1.3L16.8,72.9c-1.4.8-2.2,1.8-2.2,2.8a2.7,2.7,0,0,0,1.5,2.1L51.3,98.1c2.4,1.4,6.6,1.2,9.4-.4L94.5,78.2c1.4-.8,2.2-1.8,2.2-2.8a2.3,2.3,0,0,0-1.5-2.1L60,52.9a9,9,0,0,0-4-.9Z" transform="translate(5.4 0)"/><path class="cls-3" d="M51.7,106.4,4.4,79c-3.4-1.9-3-5.3.9-7.5L50.8,45.2a18,18,0,0,1,6.4-1.8,15.9,15.9,0,0,0-8.6,1.8L3.2,71.5c-3.9,2.2-4.3,5.6-.9,7.5l47.3,27.4a12.9,12.9,0,0,0,6.7,1.2A12.1,12.1,0,0,1,51.7,106.4Z" transform="translate(5.4 0)"/><path class="cls-9" d="M111.4,53.8H87.9L61.8,38.7c-3.4-1.9-9.3-1.7-13.2.6L23.5,53.8H0V69.6H0a3.8,3.8,0,0,0,2.3,3.5l47.3,27.3c3.3,2,9.2,1.7,13.1-.5l45.4-26.3c2.1-1.1,3.1-2.6,3.2-4h.1Z" transform="translate(5.4 0)"/><path class="cls-3" d="M1.5,70.7h0V54.9H24.9L50.1,40.4c3.9-2.3,9.8-2.5,13.1-.6L89.4,54.9h22V53.8H87.9L61.8,38.7c-3.4-1.9-9.3-1.7-13.2.6L23.5,53.8H0V69.6H0a3.8,3.8,0,0,0,2.3,3.5l.2.2A3.2,3.2,0,0,1,1.5,70.7Z" transform="translate(5.4 0)"/><path class="cls-10" d="M49.6,84.7,2.3,57.3c-3.4-1.9-3-5.3.9-7.5L48.6,23.5c3.9-2.2,9.8-2.5,13.2-.5l47.3,27.3c3.4,2,2.9,5.3-1,7.6L62.7,84.1C58.8,86.4,52.9,86.6,49.6,84.7Z" transform="translate(5.4 0)"/><path class="cls-5" d="M109.1,50.3,61.8,23a13,13,0,0,0-6.7-1.3A10.2,10.2,0,0,1,59.9,23l47.3,27.3c3.4,2,3,5.3-.9,7.6L60.9,84.1a14.7,14.7,0,0,1-6.5,1.8,14.9,14.9,0,0,0,8.3-1.8l45.4-26.2C112,55.6,112.5,52.3,109.1,50.3Z" transform="translate(5.4 0)"/><path class="cls-6" d="M55.4,78.2a10,10,0,0,1-4.5-1.1L15.7,56.8A3.4,3.4,0,0,1,13.8,54c0-1.3,1-2.6,2.6-3.5L50.2,30.9c3-1.7,7.6-1.9,10.2-.4L95.6,50.9a3.2,3.2,0,0,1,1.9,2.8c0,1.3-.9,2.5-2.6,3.5L61.1,76.7A11.3,11.3,0,0,1,55.4,78.2ZM56,30.3a11.3,11.3,0,0,0-5.4,1.3L16.8,51.2c-1.4.8-2.2,1.8-2.2,2.8a2.7,2.7,0,0,0,1.5,2.1L51.3,76.4c2.4,1.4,6.6,1.2,9.4-.4L94.5,56.5c1.4-.8,2.2-1.8,2.2-2.8a2.3,2.3,0,0,0-1.5-2.1L60,31.2a9,9,0,0,0-4-.9Z" transform="translate(5.4 0)"/><path class="cls-3" d="M51.7,84.7,4.4,57.3c-3.4-1.9-3-5.3.9-7.5L50.8,23.5a18,18,0,0,1,6.4-1.8,15.9,15.9,0,0,0-8.6,1.8L3.2,49.8c-3.9,2.2-4.3,5.6-.9,7.5L49.6,84.7a12.9,12.9,0,0,0,6.7,1.2A12.1,12.1,0,0,1,51.7,84.7Z" transform="translate(5.4 0)"/><path class="cls-11" d="M111.4,32.1H87.9L61.8,17c-3.4-1.9-9.3-1.7-13.2.6L23.5,32.1H0V47.9H0a3.8,3.8,0,0,0,2.3,3.5L49.6,78.7c3.3,2,9.2,1.7,13.1-.5l45.4-26.3c2.1-1.1,3.1-2.6,3.2-4h.1Z" transform="translate(5.4 0)"/><path class="cls-3" d="M1.5,49h0V33.2H24.9L50.1,18.7c3.9-2.3,9.8-2.5,13.1-.6L89.4,33.2h22V32.1H87.9L61.8,17c-3.4-1.9-9.3-1.7-13.2.6L23.5,32.1H0V47.9H0a3.8,3.8,0,0,0,2.3,3.5h.2A3.1,3.1,0,0,1,1.5,49Z" transform="translate(5.4 0)"/><path class="cls-12" d="M49.6,63,2.3,35.6c-3.4-1.9-3-5.3.9-7.5L48.6,1.8c3.9-2.2,9.8-2.5,13.2-.5l47.3,27.3c3.4,2,2.9,5.3-1,7.6L62.7,62.4C58.8,64.7,52.9,64.9,49.6,63Z" transform="translate(5.4 0)"/><path class="cls-5" d="M109.1,28.6,61.8,1.3A13,13,0,0,0,55.1,0a10.2,10.2,0,0,1,4.8,1.3l47.3,27.3c3.4,2,3,5.3-.9,7.6L60.9,62.4a14.7,14.7,0,0,1-6.5,1.8,14.9,14.9,0,0,0,8.3-1.8l45.4-26.2C112,33.9,112.5,30.6,109.1,28.6Z" transform="translate(5.4 0)"/><path class="cls-13" d="M55.4,56.3a8.6,8.6,0,0,1-4.4-1L15.8,35A3.3,3.3,0,0,1,14,32.3a4.2,4.2,0,0,1,2.5-3.4L50.3,9.4c3-1.7,7.5-1.9,10-.4L95.6,29.3A3.3,3.3,0,0,1,97.4,32c0,1.2-.9,2.4-2.5,3.4L61,54.9A11.9,11.9,0,0,1,55.4,56.3ZM56,8.4a11.1,11.1,0,0,0-5.4,1.4L16.7,29.3a3.6,3.6,0,0,0-2.2,3A2.4,2.4,0,0,0,16,34.5L51.3,54.9c2.4,1.4,6.7,1.2,9.5-.4L94.6,34.9c1.5-.8,2.3-1.9,2.3-2.9a2.8,2.8,0,0,0-1.6-2.3L60.1,9.4a8.3,8.3,0,0,0-4.1-1Z" transform="translate(5.4 0)"/><path class="cls-14" d="M51.7,63,4.4,35.6c-3.4-1.9-3-5.3.9-7.5L50.8,1.8A18,18,0,0,1,57.2,0a15.9,15.9,0,0,0-8.6,1.8L3.2,28.1c-3.9,2.2-4.3,5.6-.9,7.5L49.6,63a12.9,12.9,0,0,0,6.7,1.2A12.1,12.1,0,0,1,51.7,63Z" transform="translate(5.4 0)"/><path class="cls-15" d="M64.1,71.7l40-23.1a1.7,1.7,0,0,0,.7-1.3V45.4c0-.5-.3-.7-.7-.5l-40,23.2a1.5,1.5,0,0,0-.7,1.2v1.9C63.4,71.7,63.7,71.9,64.1,71.7Z" transform="translate(5.4 0)"/><path class="cls-16" d="M103.2,48.1a1.7,1.7,0,0,0,.7-1.3V45h.2c.4-.2.7,0,.7.5v1.9a1.7,1.7,0,0,1-.7,1.3l-40,23.1c-.4.2-.7,0-.7-.5h0Z" transform="translate(5.4 0)"/><path class="cls-15" d="M47.6,71.7,7.6,48.6a1.7,1.7,0,0,1-.7-1.3V45.4c0-.5.3-.7.7-.5l40,23.2a1.4,1.4,0,0,1,.6,1.2v1.9C48.2,71.7,47.9,71.9,47.6,71.7Z" transform="translate(5.4 0)"/><path class="cls-16" d="M8.4,48.1a1.6,1.6,0,0,1-.6-1.3V45H7.6c-.4-.2-.7,0-.7.5v1.9a1.7,1.7,0,0,0,.7,1.3l40,23.1c.3.2.6,0,.6-.5h0Z" transform="translate(5.4 0)"/><path class="cls-12" d="M49.6,63,2.3,35.6c-3.4-1.9-3-5.3.9-7.5L48.6,1.8c3.9-2.2,9.8-2.5,13.2-.5l47.3,27.3c3.4,2,2.9,5.3-1,7.6L62.7,62.4C58.8,64.7,52.9,64.9,49.6,63Z" transform="translate(5.4 0)"/><path class="cls-17" d="M52.1,50.5,23.9,34.2c-2-1.1-1.7-3.2.6-4.5l27-15.6c2.3-1.3,5.8-1.5,7.8-.3L87.4,30c2,1.2,1.8,3.2-.5,4.5l-27,15.6A8.6,8.6,0,0,1,52.1,50.5Z" transform="translate(5.4 0)"/><path class="cls-15" d="M23.7,34.1l.8-.6,27-15.6a8.9,8.9,0,0,1,7.8-.3L87.4,33.9h.2c1.6-1.3,1.6-3-.2-4L59.3,13.7c-2-1.2-5.5-1-7.8.3l-27,15.6C22.2,31,22,32.9,23.7,34.1Z" transform="translate(5.4 0)"/><path class="cls-18" d="M10,70.7V69.2c0-.8.6-1.1,1.4-.6l31,17.8a3,3,0,0,1,1.4,2.3v1.5c0,.8-.6,1.1-1.4.6l-31-17.9A3,3,0,0,1,10,70.7Z" transform="translate(5.4 0)"/><g class="cls-19"><polygon class="cls-20" points="1.6 81.4 24 68.4 54.5 86 32.1 99 1.6 81.4"/><polygon class="cls-21" points="1.6 79.2 24.1 66.2 54.6 83.8 32.1 96.7 1.6 79.2"/><polygon class="cls-20" points="54.5 86 54.6 83.8 32.1 96.7 32.1 99 54.5 86"/><polygon class="cls-20" points="24 68.4 24.1 66.2 1.6 79.2 1.6 81.4 24 68.4"/><path class="cls-22" d="M28.1,100.4l1.3-.7h0a1.1,1.1,0,0,0,.3-.7V97.4a3.1,3.1,0,0,0-1.4-2.3l-31-17.8a1.1,1.1,0,0,0-1.1-.1h0l-1.2.7h.9v1.4a3.1,3.1,0,0,0,1.4,2.3l31,17.8h0Z" transform="translate(5.4 0)"/><path class="cls-15" d="M29.7,97.4V99a.9.9,0,0,1-.3.6.6.6,0,0,0,.1-.4V97.6a3.3,3.3,0,0,0-1.4-2.3L-3.5,77.1h-.1a1,1,0,0,1,.9.2l31,17.8A3.1,3.1,0,0,1,29.7,97.4Z" transform="translate(5.4 0)"/><path class="cls-23" d="M-5.4,80.1V78.6c0-.8.7-1.1,1.5-.6L27,95.8a3.3,3.3,0,0,1,1.5,2.3v1.6c0,.7-.7,1-1.5.5L-3.9,82.4A2.8,2.8,0,0,1-5.4,80.1Z" transform="translate(5.4 0)"/><polygon class="cls-24" points="31.6 75.4 31.6 78.2 34.6 79.9 34.6 77.1 31.6 75.4"/><polygon class="cls-24" points="30 74.5 26.8 72.7 26.8 75.4 30 77.3 30 74.5"/><polygon class="cls-24" points="35.7 89.4 33.2 88 32.4 88.4 34.9 89.9 35.7 89.4"/><polygon class="cls-24" points="35.1 86.9 34.3 87.3 36.8 88.8 37.6 88.3 35.1 86.9"/><polygon class="cls-24" points="21 83.8 14 79.7 24 73.9 24 71.1 9.1 79.6 21 86.5 21 83.8"/><polygon class="cls-24" points="37.2 81.4 40.9 83.5 36.2 86.3 38.7 87.7 45.7 83.6 37.2 78.7 37.2 81.4"/><polygon class="cls-24" points="24 88.2 24 85.4 22.6 84.7 22.6 87.4 24 88.2"/><polygon class="cls-24" points="31.3 89.1 30.8 89.4 26.8 87.1 26.8 89.9 30.9 92.2 33.8 90.5 31.3 89.1"/><polygon class="cls-24" points="35 83.4 36.7 82.5 38.3 83.4 36.7 84.4 35 83.4"/><polygon class="cls-24" points="32.1 85.1 33.8 84.2 35.4 85.1 33.8 86.1 32.1 85.1"/><polygon class="cls-24" points="29.5 83.6 31.2 82.7 32.8 83.6 31.2 84.6 29.5 83.6"/><polygon class="cls-24" points="17 79.7 18.6 78.7 20.3 79.7 18.6 80.6 17 79.7"/><polygon class="cls-24" points="32.5 82 34.1 81 35.8 82 34.1 82.9 32.5 82"/><polygon class="cls-24" points="29.2 86.8 30.9 85.8 32.5 86.8 30.9 87.8 29.2 86.8"/><path class="cls-25" d="M42.2,90V87.7L11.7,70.1l1.3-.7,11,4.8,20.9,12a26.7,26.7,0,0,1-.9,2.6l-.2.3Z" transform="translate(5.4 0)"/></g><path class="cls-18" d="M101.5,70.7V69.2c0-.8-.7-1.1-1.4-.6l-31,17.8a2.8,2.8,0,0,0-1.5,2.3v1.5c0,.8.7,1.1,1.5.6l31-17.9A3.7,3.7,0,0,0,101.5,70.7Z" transform="translate(5.4 0)"/><g class="cls-26"><polygon class="cls-20" points="120.7 81.4 98.2 68.4 67.7 86 90.2 99 120.7 81.4"/><polygon class="cls-21" points="120.6 79.2 98.2 66.2 67.7 83.8 90.2 96.7 120.6 79.2"/><polygon class="cls-20" points="67.7 86 67.7 83.8 90.2 96.7 90.2 99 67.7 86"/><polygon class="cls-20" points="98.2 68.4 98.2 66.2 120.6 79.2 120.7 81.4 98.2 68.4"/><path class="cls-27" d="M83.4,100.4l-1.3-.7h0a1.1,1.1,0,0,1-.3-.7V97.4a2.9,2.9,0,0,1,1.4-2.3l31-17.8a.9.9,0,0,1,1-.1h0l1.3.7h-.9v1.4a3.1,3.1,0,0,1-1.4,2.3l-31,17.8h0Z" transform="translate(5.4 0)"/><path class="cls-15" d="M81.8,97.4V99a1.4,1.4,0,0,0,.2.6v-2a3.3,3.3,0,0,1,1.4-2.3L115,77.1h.1a.9.9,0,0,0-.9.2l-31,17.8A2.9,2.9,0,0,0,81.8,97.4Z" transform="translate(5.4 0)"/><path class="cls-28" d="M116.8,80.1V78.6c0-.8-.6-1.1-1.4-.6l-31,17.8A3.1,3.1,0,0,0,83,98.1v1.6c0,.7.6,1,1.4.5l31-17.8A2.7,2.7,0,0,0,116.8,80.1Z" transform="translate(5.4 0)"/><polygon class="cls-24" points="90.7 75.4 90.7 78.2 87.7 79.9 87.7 77.1 90.7 75.4"/><polygon class="cls-24" points="92.3 74.5 95.4 72.7 95.4 75.4 92.3 77.3 92.3 74.5"/><polygon class="cls-24" points="86.6 89.4 89.1 88 89.9 88.4 87.4 89.9 86.6 89.4"/><polygon class="cls-24" points="87.2 86.9 88 87.3 85.5 88.8 84.7 88.3 87.2 86.9"/><polygon class="cls-24" points="101.2 83.8 108.3 79.7 98.3 73.9 98.3 71.1 113.1 79.6 101.2 86.5 101.2 83.8"/><polygon class="cls-24" points="85.1 81.4 81.4 83.5 86.1 86.3 83.6 87.7 76.5 83.6 85.1 78.7 85.1 81.4"/><polygon class="cls-24" points="98.3 88.2 98.3 85.4 99.7 84.7 99.7 87.4 98.3 88.2"/><polygon class="cls-24" points="91 89.1 91.5 89.4 95.4 87.1 95.4 89.9 91.4 92.2 88.5 90.5 91 89.1"/><polygon class="cls-24" points="87.3 83.4 85.6 82.5 84 83.4 85.6 84.4 87.3 83.4"/><polygon class="cls-24" points="90.2 85.1 88.5 84.2 86.8 85.1 88.5 86.1 90.2 85.1"/><polygon class="cls-24" points="92.8 83.6 91.1 82.7 89.5 83.6 91.1 84.6 92.8 83.6"/><polygon class="cls-24" points="105.3 79.7 103.7 78.7 102 79.7 103.7 80.6 105.3 79.7"/><polygon class="cls-24" points="89.8 82 88.2 81 86.5 82 88.2 82.9 89.8 82"/><polygon class="cls-24" points="93.1 86.8 91.4 85.8 89.7 86.8 91.4 87.8 93.1 86.8"/><path class="cls-25" d="M69.3,90V87.7L99.8,70.1l-1.3-.7L87.4,74.2l-20.8,12,.8,2.6.2.3Z" transform="translate(5.4 0)"/></g></svg>