<svg xmlns="http://www.w3.org/2000/svg" xmlns:xlink="http://www.w3.org/1999/xlink" viewBox="0 0 185.4 222.8"><defs><style>.cls-1{fill:none;}.cls-2{isolation:isolate;}.cls-3{fill:#0c0f38;opacity:0.8;}.cls-4{fill:url(#Áåçûìÿííûé_ãðàäèåíò_388);}.cls-5{fill:url(#Áåçûìÿííûé_ãðàäèåíò_377);}.cls-6{fill:url(#Áåçûìÿííûé_ãðàäèåíò_388-2);}.cls-7{fill:#d4088c;}.cls-8{fill:#6ee8fc;}.cls-9{fill:url(#Áåçûìÿííûé_ãðàäèåíò_300);}.cls-10{fill:url(#Áåçûìÿííûé_ãðàäèåíò_302);}.cls-11{fill:#6de0f6;}.cls-12{clip-path:url(#clip-path);}.cls-13{fill:#267fe5;}.cls-14{fill:#25bfec;}.cls-15{fill:#18d0f7;}.cls-16{fill:#480689;}.cls-17,.cls-24,.cls-31,.cls-38{opacity:0.2;}.cls-17,.cls-18,.cls-24,.cls-25,.cls-31,.cls-32,.cls-38,.cls-39{mix-blend-mode:lighten;}.cls-17{fill:url(#linear-gradient);}.cls-18,.cls-25,.cls-32,.cls-39{opacity:0.25;}.cls-18{fill:url(#linear-gradient-2);}.cls-19{fill:url(#Áåçûìÿííûé_ãðàäèåíò_377-2);}.cls-20{fill:url(#Áåçûìÿííûé_ãðàäèåíò_388-3);}.cls-21{fill:url(#Áåçûìÿííûé_ãðàäèåíò_300-2);}.cls-22{fill:url(#Áåçûìÿííûé_ãðàäèåíò_302-2);}.cls-23{clip-path:url(#clip-path-2);}.cls-24{fill:url(#linear-gradient-3);}.cls-25{fill:url(#linear-gradient-4);}.cls-26{fill:url(#Áåçûìÿííûé_ãðàäèåíò_377-3);}.cls-27{fill:url(#Áåçûìÿííûé_ãðàäèåíò_388-4);}.cls-28{fill:url(#Áåçûìÿííûé_ãðàäèåíò_300-3);}.cls-29{fill:url(#Áåçûìÿííûé_ãðàäèåíò_302-3);}.cls-30{clip-path:url(#clip-path-3);}.cls-31{fill:url(#linear-gradient-5);}.cls-32{fill:url(#linear-gradient-6);}.cls-33{fill:url(#Áåçûìÿííûé_ãðàäèåíò_377-4);}.cls-34{fill:url(#Áåçûìÿííûé_ãðàäèåíò_388-5);}.cls-35{fill:url(#Áåçûìÿííûé_ãðàäèåíò_300-4);}.cls-36{fill:url(#Áåçûìÿííûé_ãðàäèåíò_302-4);}.cls-37{clip-path:url(#clip-path-4);}.cls-38{fill:url(#linear-gradient-7);}.cls-39{fill:url(#linear-gradient-8);}</style><linearGradient id="Áåçûìÿííûé_ãðàäèåíò_388" x1="4081.31" y1="231.92" x2="4170.85" y2="231.92" gradientTransform="matrix(-1, 0, 0, 1, 4343.98, 0)" gradientUnits="userSpaceOnUse"><stop offset="0" stop-color="#d4088c"/><stop offset="0.23" stop-color="#d4088c"/><stop offset="0.51" stop-color="#6ee1f8"/><stop offset="0.78" stop-color="#6ee8fc"/><stop offset="1" stop-color="#6ee8fc"/></linearGradient><linearGradient id="Áåçûìÿííûé_ãðàäèåíò_377" x1="4081.27" y1="177.89" x2="4173.09" y2="177.89" gradientTransform="matrix(-1, 0, 0, 1, 4343.98, 0)" gradientUnits="userSpaceOnUse"><stop offset="0" stop-color="#a31fa9"/><stop offset="0.07" stop-color="#8b17a0"/><stop offset="0.15" stop-color="#740f98"/><stop offset="0.24" stop-color="#640a92"/><stop offset="0.34" stop-color="#5b078f"/><stop offset="0.48" stop-color="#58068e"/><stop offset="0.63" stop-color="#4d22a3"/><stop offset="0.94" stop-color="#3168da"/><stop offset="1" stop-color="#2c75e4"/></linearGradient><linearGradient id="Áåçûìÿííûé_ãðàäèåíò_388-2" x1="4081.27" y1="206.05" x2="4173.09" y2="206.05" xlink:href="#Áåçûìÿííûé_ãðàäèåíò_388"/><linearGradient id="Áåçûìÿííûé_ãðàäèåíò_300" x1="2725.15" y1="-1202.8" x2="2768.46" y2="-1240.31" gradientTransform="matrix(-0.87, 0.5, 1, 0.58, 3818.98, -518.49)" gradientUnits="userSpaceOnUse"><stop offset="0" stop-color="#8d139b"/><stop offset="0.17" stop-color="#851ba1"/><stop offset="0.43" stop-color="#6e33b2"/><stop offset="0.76" stop-color="#4958cd"/><stop offset="1" stop-color="#2979e4"/></linearGradient><linearGradient id="Áåçûìÿííûé_ãðàäèåíò_302" x1="2730.8" y1="-1207.69" x2="2763.04" y2="-1235.62" gradientTransform="matrix(-0.87, 0.5, 1, 0.58, 3818.98, -518.49)" gradientUnits="userSpaceOnUse"><stop offset="0" stop-color="#630692"/><stop offset="0.23" stop-color="#5b0e94"/><stop offset="0.59" stop-color="#432399"/><stop offset="1" stop-color="#2142a1"/></linearGradient><clipPath id="clip-path" transform="translate(-125.7 -63.1)"><path class="cls-1" d="M220.1,160.8l17.3-9.9c1.2-.7,1.1-2-.3-2.8l-16.6-9.6a5.4,5.4,0,0,0-4.8-.2l-17.3,10c-1.2.7-1.1,1.9.3,2.8l16.6,9.5A5.1,5.1,0,0,0,220.1,160.8Z"/></clipPath><linearGradient id="linear-gradient" x1="4126.09" y1="161.32" x2="4126.09" y2="63.07" gradientTransform="matrix(-1, 0, 0, 1, 4343.98, 0)" gradientUnits="userSpaceOnUse"><stop offset="0.01" stop-color="#25bfec"/><stop offset="0.04" stop-color="#24b6e3" stop-opacity="0.95"/><stop offset="0.19" stop-color="#208bb7" stop-opacity="0.7"/><stop offset="0.34" stop-color="#1c6692" stop-opacity="0.49"/><stop offset="0.48" stop-color="#194773" stop-opacity="0.31"/><stop offset="0.62" stop-color="#16305c" stop-opacity="0.18"/><stop offset="0.76" stop-color="#141f4b" stop-opacity="0.08"/><stop offset="0.89" stop-color="#131440" stop-opacity="0.02"/><stop offset="1" stop-color="#13113d" stop-opacity="0"/></linearGradient><linearGradient id="linear-gradient-2" x1="4126.09" y1="160.24" x2="4126.09" y2="71.33" gradientTransform="matrix(-1, 0, 0, 1, 4343.98, 0)" gradientUnits="userSpaceOnUse"><stop offset="0.01" stop-color="#70e8fc"/><stop offset="0.07" stop-color="#66d0e7" stop-opacity="0.89"/><stop offset="0.22" stop-color="#509eba" stop-opacity="0.66"/><stop offset="0.36" stop-color="#3d7394" stop-opacity="0.46"/><stop offset="0.5" stop-color="#2e5075" stop-opacity="0.29"/><stop offset="0.64" stop-color="#22345c" stop-opacity="0.16"/><stop offset="0.77" stop-color="#1a214b" stop-opacity="0.07"/><stop offset="0.89" stop-color="#151541" stop-opacity="0.02"/><stop offset="1" stop-color="#13113d" stop-opacity="0"/></linearGradient><linearGradient id="Áåçûìÿííûé_ãðàäèåíò_377-2" x1="4025.74" y1="212.38" x2="4117.56" y2="212.38" xlink:href="#Áåçûìÿííûé_ãðàäèåíò_377"/><linearGradient id="Áåçûìÿííûé_ãðàäèåíò_388-3" x1="4025.74" y1="240.54" x2="4117.56" y2="240.54" xlink:href="#Áåçûìÿííûé_ãðàäèåíò_388"/><linearGradient id="Áåçûìÿííûé_ãðàäèåíò_300-2" x1="2727.58" y1="-1145.17" x2="2770.89" y2="-1182.68" xlink:href="#Áåçûìÿííûé_ãðàäèåíò_300"/><linearGradient id="Áåçûìÿííûé_ãðàäèåíò_302-2" x1="2733.23" y1="-1150.06" x2="2765.47" y2="-1177.99" xlink:href="#Áåçûìÿííûé_ãðàäèåíò_302"/><clipPath id="clip-path-2" transform="translate(-125.7 -63.1)"><path class="cls-1" d="M275.6,195.3l17.3-9.9c1.3-.8,1.1-2-.3-2.8L276,173a5.4,5.4,0,0,0-4.8-.2l-17.3,10c-1.2.7-1,1.9.4,2.8l16.6,9.5A5.2,5.2,0,0,0,275.6,195.3Z"/></clipPath><linearGradient id="linear-gradient-3" x1="4070.57" y1="195.81" x2="4070.57" y2="97.57" xlink:href="#linear-gradient"/><linearGradient id="linear-gradient-4" x1="4070.57" y1="194.73" x2="4070.57" y2="105.82" xlink:href="#linear-gradient-2"/><linearGradient id="Áåçûìÿííûé_ãðàäèåíò_377-3" x1="4135.81" y1="212.02" x2="4227.64" y2="212.02" xlink:href="#Áåçûìÿííûé_ãðàäèåíò_377"/><linearGradient id="Áåçûìÿííûé_ãðàäèåíò_388-4" x1="4135.81" y1="240.18" x2="4227.64" y2="240.18" xlink:href="#Áåçûìÿííûé_ãðàäèåíò_388"/><linearGradient id="Áåçûìÿííûé_ãðàäèåíò_300-3" x1="2790.77" y1="-1200.51" x2="2834.09" y2="-1238.02" xlink:href="#Áåçûìÿííûé_ãðàäèåíò_300"/><linearGradient id="Áåçûìÿííûé_ãðàäèåíò_302-3" x1="2796.42" y1="-1205.41" x2="2828.67" y2="-1233.33" xlink:href="#Áåçûìÿííûé_ãðàäèåíò_302"/><clipPath id="clip-path-3" transform="translate(-125.7 -63.1)"><path class="cls-1" d="M165.6,195l17.3-10c1.2-.7,1-1.9-.4-2.8l-16.6-9.5a5.1,5.1,0,0,0-4.8-.2l-17.2,9.9c-1.3.7-1.1,2,.3,2.8l16.6,9.6A5.4,5.4,0,0,0,165.6,195Z"/></clipPath><linearGradient id="linear-gradient-5" x1="4169.24" y1="180.98" x2="4169.24" y2="82.74" gradientTransform="matrix(-1, 0.01, 0.01, 1, 4331.59, -16.8)" xlink:href="#linear-gradient"/><linearGradient id="linear-gradient-6" x1="4169.24" y1="179.91" x2="4169.24" y2="91" gradientTransform="matrix(-1, 0.01, 0.01, 1, 4331.59, -16.8)" xlink:href="#linear-gradient-2"/><linearGradient id="Áåçûìÿííûé_ãðàäèåíò_377-4" x1="4080.29" y1="246.52" x2="4172.11" y2="246.52" xlink:href="#Áåçûìÿííûé_ãðàäèåíò_377"/><linearGradient id="Áåçûìÿííûé_ãðàäèåíò_388-5" x1="4080.29" y1="274.67" x2="4172.11" y2="274.67" xlink:href="#Áåçûìÿííûé_ãðàäèåíò_388"/><linearGradient id="Áåçûìÿííûé_ãðàäèåíò_300-4" x1="2793.2" y1="-1142.88" x2="2836.52" y2="-1180.39" xlink:href="#Áåçûìÿííûé_ãðàäèåíò_300"/><linearGradient id="Áåçûìÿííûé_ãðàäèåíò_302-4" x1="2798.85" y1="-1147.78" x2="2831.1" y2="-1175.7" xlink:href="#Áåçûìÿííûé_ãðàäèåíò_302"/><clipPath id="clip-path-4" transform="translate(-125.7 -63.1)"><path class="cls-1" d="M221.1,229.5l17.3-10c1.2-.7,1.1-2-.4-2.8l-16.6-9.6a4.9,4.9,0,0,0-4.7-.1l-17.3,9.9c-1.2.7-1.1,2,.3,2.8l16.6,9.6A5.4,5.4,0,0,0,221.1,229.5Z"/></clipPath><linearGradient id="linear-gradient-7" x1="4125.11" y1="229.94" x2="4125.11" y2="131.7" xlink:href="#linear-gradient"/><linearGradient id="linear-gradient-8" x1="4125.11" y1="228.87" x2="4125.11" y2="139.96" xlink:href="#linear-gradient-2"/></defs><title>server-4</title><g class="cls-2"><g id="Ñëîé_1" data-name="Ñëîé 1"><path class="cls-3" d="M222,252.8l32-18.5c2.3-1.3,2-3.6-.6-5.1l-30.7-17.8c-2.7-1.5-6.6-1.7-8.9-.4l-32,18.5c-2.3,1.3-2,3.6.6,5.2l30.7,17.7C215.8,253.9,219.7,254.1,222,252.8Z" transform="translate(-125.7 -63.1)"/><path class="cls-4" d="M218.2,257.9a12.5,12.5,0,0,1-6.1-1.5l-36.2-20.9c-1.8-1-2.8-2.4-2.8-3.8a3.4,3.4,0,0,1,2-2.9L212.9,207c2.7-1.6,7.6-1.4,10.8.4l36.2,20.9c1.8,1.1,2.8,2.4,2.8,3.8a3.3,3.3,0,0,1-2,2.9l-37.8,21.8A8.6,8.6,0,0,1,218.2,257.9Zm-.6-51.2a8.9,8.9,0,0,0-4.4,1l-37.7,21.7a2.9,2.9,0,0,0-1.6,2.3,3.9,3.9,0,0,0,2.4,3.1l36.2,20.9c3,1.8,7.5,2,10.1.5l37.7-21.8a2.8,2.8,0,0,0,1.6-2.3c0-1.1-.9-2.2-2.4-3.1l-36.2-20.9A11,11,0,0,0,217.6,206.7Z" transform="translate(-125.7 -63.1)"/><path class="cls-5" d="M180.2,149.6h15.9l17.7-10.2c2.3-1.3,6.2-1.2,8.9.3l17,9.9h15.9v45.9h0a2.7,2.7,0,0,1-1.6,2.4l-32,18.5a9.7,9.7,0,0,1-8.9-.4l-30.7-17.7a3.8,3.8,0,0,1-2.2-2.8h0Z" transform="translate(-125.7 -63.1)"/><path class="cls-6" d="M182.4,197.5l30.7,17.8c2.7,1.5,6.6,1.7,8.9.4l32-18.5a2.9,2.9,0,0,0,1.6-2.4h0v.7h0a2.7,2.7,0,0,1-1.6,2.4l-32,18.5a9.7,9.7,0,0,1-8.9-.4l-30.7-17.7a3.8,3.8,0,0,1-2.2-2.8h0v-.7h0A3.6,3.6,0,0,0,182.4,197.5Z" transform="translate(-125.7 -63.1)"/><path class="cls-7" d="M254.6,196.3h0v-46H238.7l-17-9.8c-2.7-1.5-6.6-1.7-8.9-.4l-17.7,10.2H180.2v-.7h15.9l17.7-10.2c2.3-1.3,6.2-1.2,8.9.3l17,9.9h15.9v45.9h0a2.7,2.7,0,0,1-1.6,2.4h-.1A2.3,2.3,0,0,0,254.6,196.3Z" transform="translate(-125.7 -63.1)"/><path class="cls-8" d="M181.1,150.4v45.9h0a3.3,3.3,0,0,0,.8,1.7,3.6,3.6,0,0,1-1.7-2.5h0V149.7Z" transform="translate(-125.7 -63.1)"/><path class="cls-9" d="M222,170.4,254,152c2.3-1.4,2-3.7-.6-5.2l-30.7-17.7c-2.7-1.5-6.6-1.7-8.9-.4l-32,18.5c-2.3,1.3-2,3.6.6,5.1l30.7,17.8C215.8,171.6,219.7,171.8,222,170.4Z" transform="translate(-125.7 -63.1)"/><path class="cls-8" d="M181.8,147.2l32-18.5a8.1,8.1,0,0,1,4.5-.9,8,8,0,0,0-3.3.9l-32,18.5c-2.3,1.3-2,3.6.6,5.1l30.8,17.8a10.7,10.7,0,0,0,4.4,1.2,11.3,11.3,0,0,1-5.7-1.2l-30.7-17.8C179.8,150.8,179.5,148.5,181.8,147.2Z" transform="translate(-125.7 -63.1)"/><path class="cls-10" d="M221,165.1l23.8-13.7c1.7-1,1.5-2.7-.5-3.9l-22.9-13.2a7.7,7.7,0,0,0-6.6-.3L191,147.8c-1.7,1-1.5,2.7.5,3.8l22.9,13.2A7.1,7.1,0,0,0,221,165.1Z" transform="translate(-125.7 -63.1)"/><path class="cls-11" d="M220.1,160.8l17.3-9.9c1.2-.7,1.1-2-.3-2.8l-16.6-9.6a5.4,5.4,0,0,0-4.8-.2l-17.3,10c-1.2.7-1.1,1.9.3,2.8l16.6,9.5A5.1,5.1,0,0,0,220.1,160.8Z" transform="translate(-125.7 -63.1)"/><path class="cls-7" d="M220.6,170.4l32-18.4c2.3-1.4,2-3.7-.6-5.2l-30.8-17.7a10.3,10.3,0,0,0-4.3-1.3,10.8,10.8,0,0,1,5.8,1.3l30.7,17.7c2.6,1.5,2.9,3.8.6,5.2l-32,18.4a8.1,8.1,0,0,1-4.5.9A8,8,0,0,0,220.6,170.4Z" transform="translate(-125.7 -63.1)"/><g class="cls-12"><path class="cls-13" d="M237.1,149.4l-16.6-9.5a5.1,5.1,0,0,0-4.8-.2l-17.3,9.9-.6.6a1.3,1.3,0,0,1,.6-1.9l17.3-10a5.4,5.4,0,0,1,4.8.2l16.6,9.6c1.1.6,1.4,1.5.9,2.2A3.8,3.8,0,0,0,237.1,149.4Z" transform="translate(-125.7 -63.1)"/><path class="cls-14" d="M237.1,151.1l-16.6-9.6a5.4,5.4,0,0,0-4.8-.2l-17.3,10a1,1,0,0,0-.5.4c-.6-.7-.4-1.5.5-2.1l17.3-9.9a5.1,5.1,0,0,1,4.8.2l16.6,9.5c1.1.7,1.4,1.7.8,2.4A2.7,2.7,0,0,0,237.1,151.1Z" transform="translate(-125.7 -63.1)"/><path class="cls-15" d="M237.7,153.6a1.5,1.5,0,0,0-.6-.5l-16.6-9.6a5.4,5.4,0,0,0-4.8-.2l-17.3,10-.3.2a1.2,1.2,0,0,1,.3-2.2l17.3-10a5.4,5.4,0,0,1,4.8.2l16.6,9.6C238.3,151.8,238.6,152.9,237.7,153.6Z" transform="translate(-125.7 -63.1)"/></g><path class="cls-11" d="M206.9,204.3l1.7,1c.5.3.9,0,.9-.6V179.9a2,2,0,0,0-.9-1.6l-1.7-1c-.5-.3-.9,0-.9.6v24.8A2,2,0,0,0,206.9,204.3Z" transform="translate(-125.7 -63.1)"/><path class="cls-13" d="M206.9,177.3l.4.2v24.4a2.3,2.3,0,0,0,.8,1.6l1.4.8v.4c0,.6-.4.9-.9.6l-1.7-1a2,2,0,0,1-.9-1.6V177.9C206,177.3,206.4,177,206.9,177.3Z" transform="translate(-125.7 -63.1)"/><path class="cls-11" d="M200.3,200.5l1.8,1.1c.4.2.8-.1.8-.7V176.1a2.3,2.3,0,0,0-.8-1.6l-1.8-1c-.4-.2-.8,0-.8.6v24.8A1.9,1.9,0,0,0,200.3,200.5Z" transform="translate(-125.7 -63.1)"/><path class="cls-11" d="M193.8,196.8l1.7,1c.5.2.9,0,.9-.7V172.3a1.7,1.7,0,0,0-.9-1.5l-1.7-1.1c-.5-.2-.9.1-.9.7v24.8A2,2,0,0,0,193.8,196.8Z" transform="translate(-125.7 -63.1)"/><path class="cls-11" d="M187.2,193l1.8,1c.5.3.8,0,.8-.6V168.6a1.9,1.9,0,0,0-.8-1.6l-1.8-1c-.4-.3-.8,0-.8.6v24.8A2.3,2.3,0,0,0,187.2,193Z" transform="translate(-125.7 -63.1)"/><path class="cls-13" d="M200.3,173.5l.4.3v24.3a2,2,0,0,0,.9,1.6l1.3.8v.4c0,.6-.4.9-.8.7l-1.8-1.1a1.9,1.9,0,0,1-.8-1.6V174.1C199.5,173.5,199.9,173.3,200.3,173.5Z" transform="translate(-125.7 -63.1)"/><path class="cls-13" d="M193.8,169.7l.4.3v24.3a1.9,1.9,0,0,0,.8,1.6l1.4.8v.4c0,.7-.4.9-.9.7l-1.7-1a2,2,0,0,1-.9-1.6V170.4C192.9,169.8,193.3,169.5,193.8,169.7Z" transform="translate(-125.7 -63.1)"/><path class="cls-13" d="M187.2,166l.5.2v24.4a1.6,1.6,0,0,0,.8,1.5l1.3.8v.5c0,.6-.3.9-.8.6l-1.8-1a2.3,2.3,0,0,1-.8-1.6V166.6C186.4,166,186.8,165.7,187.2,166Z" transform="translate(-125.7 -63.1)"/><path class="cls-16" d="M224.7,207.4l-.5-.2a1.4,1.4,0,0,1-.6-1.3V179.7A3.3,3.3,0,0,1,225,177l23.2-13.4a1.1,1.1,0,0,1,1.1,0,1.4,1.4,0,0,1,.6,1.3v26.2a3.4,3.4,0,0,1-1.5,2.7l-23.1,13.4ZM248.8,164h-.4l-23.1,13.4a2.8,2.8,0,0,0-1.1,2.2v26.2a1.2,1.2,0,0,0,.3.9.4.4,0,0,0,.5-.1l23.2-13.4a2.8,2.8,0,0,0,1.1-2.2V164.9a1.2,1.2,0,0,0-.3-.9Z" transform="translate(-125.7 -63.1)"/><ellipse class="cls-11" cx="246.5" cy="169.3" rx="1.6" ry="0.9" transform="translate(-149.1 235.1) rotate(-60)"/><path class="cls-11" d="M245.3,173.6c0,.8.6,1.1,1.2.7a2.6,2.6,0,0,0,1.1-2c0-.7-.5-1-1.1-.6A2.6,2.6,0,0,0,245.3,173.6Z" transform="translate(-125.7 -63.1)"/><path class="cls-11" d="M245.3,177.3a.7.7,0,0,0,1.2.6,2.4,2.4,0,0,0,1.1-1.9c0-.7-.5-1-1.1-.7A2.8,2.8,0,0,0,245.3,177.3Z" transform="translate(-125.7 -63.1)"/><path class="cls-13" d="M245.9,177.5a2.5,2.5,0,0,0,1.1-1.9v-.4c.3,0,.6.3.6.8a2.4,2.4,0,0,1-1.1,1.9c-.5.3-1,.2-1.1-.2Z" transform="translate(-125.7 -63.1)"/><path class="cls-13" d="M245.9,173.8a2.4,2.4,0,0,0,1.1-1.9v-.4a.8.8,0,0,1,.6.8,2.6,2.6,0,0,1-1.1,2,.7.7,0,0,1-1.1-.3A.6.6,0,0,0,245.9,173.8Z" transform="translate(-125.7 -63.1)"/><path class="cls-13" d="M245.9,170.2a2.6,2.6,0,0,0,1.1-2v-.3c.3,0,.6.3.6.8a2.4,2.4,0,0,1-1.1,1.9c-.5.3-1,.2-1.1-.3Z" transform="translate(-125.7 -63.1)"/><path class="cls-16" d="M226.7,194.2l.8-.4a1,1,0,0,0,.4-.8v-3.6c0-.3-.2-.4-.4-.3l-.8.5a.9.9,0,0,0-.4.8v3.5C226.3,194.2,226.5,194.4,226.7,194.2Z" transform="translate(-125.7 -63.1)"/><path class="cls-17" d="M197.6,63.1h40.6v86.6h0a1.5,1.5,0,0,1-.8,1.2l-17.3,9.9a5.1,5.1,0,0,1-4.8-.2l-16.6-9.5c-.7-.5-1.1-1-1.1-1.5h0Z" transform="translate(-125.7 -63.1)"/><path class="cls-18" d="M199.5,71.3h36.8v78.4h0a1.4,1.4,0,0,1-.8,1.1l-15.6,9a4.4,4.4,0,0,1-4.3-.2l-15-8.6c-.7-.4-1.1-.9-1.1-1.4h0Z" transform="translate(-125.7 -63.1)"/><path class="cls-11" d="M226,142.4a1.5,1.5,0,0,0,1.5,1.5,1.4,1.4,0,0,0,1.5-1.5,1.5,1.5,0,0,0-1.5-1.5A1.5,1.5,0,0,0,226,142.4Z" transform="translate(-125.7 -63.1)"/><path class="cls-11" d="M213.5,132.3a2.6,2.6,0,1,0,5.2,0,2.6,2.6,0,1,0-5.2,0Z" transform="translate(-125.7 -63.1)"/><path class="cls-11" d="M218.6,130.6a.7.7,0,0,0,1.4,0,.7.7,0,0,0-1.4,0Z" transform="translate(-125.7 -63.1)"/><path class="cls-11" d="M206.7,117.7a1.3,1.3,0,0,0,2.6,0,1.3,1.3,0,0,0-2.6,0Z" transform="translate(-125.7 -63.1)"/><circle class="cls-11" cx="89.2" cy="43.6" r="0.9"/><circle class="cls-11" cx="100.3" cy="36.6" r="1.7"/><path class="cls-11" d="M220.2,85.9a.9.9,0,0,0,1,.9.9.9,0,0,0,.9-.9.9.9,0,0,0-.9-1A.9.9,0,0,0,220.2,85.9Z" transform="translate(-125.7 -63.1)"/><path class="cls-11" d="M213.1,92a1.1,1.1,0,1,0,1.1-1.1A1.1,1.1,0,0,0,213.1,92Z" transform="translate(-125.7 -63.1)"/><path class="cls-11" d="M212.3,89.7a.5.5,0,1,0,1,0,.5.5,0,1,0-1,0Z" transform="translate(-125.7 -63.1)"/><circle class="cls-11" cx="81.3" cy="15.4" r="1.5"/><path class="cls-19" d="M235.7,184.1h15.9l17.7-10.2c2.3-1.4,6.3-1.2,8.9.3l17,9.9h15.9V230h0a2.5,2.5,0,0,1-1.5,2.4l-32.1,18.5c-2.2,1.3-6.2,1.1-8.8-.4l-30.8-17.7c-1.4-.8-2.1-1.8-2.1-2.8h-.1Z" transform="translate(-125.7 -63.1)"/><path class="cls-20" d="M237.9,232l30.8,17.8c2.6,1.5,6.6,1.7,8.8.4l32.1-18.5a2.6,2.6,0,0,0,1.5-2.4h0v.7h0a2.5,2.5,0,0,1-1.5,2.4l-32.1,18.5c-2.2,1.3-6.2,1.1-8.8-.4l-30.8-17.7c-1.4-.8-2.1-1.8-2.1-2.8h-.1v-.7h.1A3.2,3.2,0,0,0,237.9,232Z" transform="translate(-125.7 -63.1)"/><path class="cls-7" d="M310.1,230.8h0v-46H294.2l-17-9.8a9.7,9.7,0,0,0-8.9-.4l-17.7,10.2H235.7v-.7h15.9l17.7-10.2c2.3-1.4,6.3-1.2,8.9.3l17,9.9h15.9V230h0a2.5,2.5,0,0,1-1.5,2.4h-.2A2.3,2.3,0,0,0,310.1,230.8Z" transform="translate(-125.7 -63.1)"/><path class="cls-8" d="M236.6,184.9v45.9h.1a3.1,3.1,0,0,0,.7,1.7,3.4,3.4,0,0,1-1.6-2.5h-.1V184.2A2.2,2.2,0,0,1,236.6,184.9Z" transform="translate(-125.7 -63.1)"/><path class="cls-21" d="M277.5,204.9l32.1-18.4c2.2-1.4,2-3.7-.7-5.2l-30.7-17.7c-2.6-1.5-6.6-1.7-8.9-.4l-32,18.5c-2.3,1.3-2,3.6.6,5.1l30.8,17.8C271.3,206.1,275.3,206.3,277.5,204.9Z" transform="translate(-125.7 -63.1)"/><path class="cls-8" d="M237.3,181.7l32-18.5a8.1,8.1,0,0,1,4.5-.9,7.5,7.5,0,0,0-3.2.9l-32.1,18.5c-2.2,1.3-2,3.6.7,5.1l30.7,17.8a11.1,11.1,0,0,0,4.4,1.2,10.7,10.7,0,0,1-5.6-1.2l-30.8-17.8C235.3,185.3,235,183,237.3,181.7Z" transform="translate(-125.7 -63.1)"/><path class="cls-22" d="M276.5,199.6l23.8-13.8c1.7-.9,1.5-2.6-.4-3.8L277,168.8a7.7,7.7,0,0,0-6.6-.3l-23.9,13.8c-1.7,1-1.5,2.7.5,3.8l22.9,13.2A7.1,7.1,0,0,0,276.5,199.6Z" transform="translate(-125.7 -63.1)"/><path class="cls-11" d="M275.6,195.3l17.3-9.9c1.3-.8,1.1-2-.3-2.8L276,173a5.4,5.4,0,0,0-4.8-.2l-17.3,10c-1.2.7-1,1.9.4,2.8l16.6,9.5A5.2,5.2,0,0,0,275.6,195.3Z" transform="translate(-125.7 -63.1)"/><path class="cls-7" d="M276.1,204.9l32-18.4c2.3-1.4,2-3.7-.6-5.2l-30.8-17.7a9,9,0,0,0-4.3-1.3,10.6,10.6,0,0,1,5.8,1.3l30.7,17.7c2.7,1.5,2.9,3.8.7,5.2l-32.1,18.4a7.9,7.9,0,0,1-4.5.9A7.1,7.1,0,0,0,276.1,204.9Z" transform="translate(-125.7 -63.1)"/><g class="cls-23"><path class="cls-13" d="M292.6,183.9,276,174.4a5.1,5.1,0,0,0-4.8-.2l-17.3,9.9-.6.6a1.3,1.3,0,0,1,.6-1.9l17.3-10a5.4,5.4,0,0,1,4.8.2l16.6,9.6c1.1.6,1.4,1.5.9,2.2A3.8,3.8,0,0,0,292.6,183.9Z" transform="translate(-125.7 -63.1)"/><path class="cls-14" d="M292.6,185.6,276,176a5.4,5.4,0,0,0-4.8-.2l-17.3,10a1,1,0,0,0-.5.4,1.4,1.4,0,0,1,.5-2.1l17.3-9.9a5.1,5.1,0,0,1,4.8.2l16.6,9.5c1.2.7,1.4,1.7.8,2.4A1.9,1.9,0,0,0,292.6,185.6Z" transform="translate(-125.7 -63.1)"/><path class="cls-15" d="M293.3,188.1a1.8,1.8,0,0,0-.7-.5L276,178a5.4,5.4,0,0,0-4.8-.2l-17.3,10-.3.2c-.7-.8-.7-1.7.3-2.2l17.3-10a5.4,5.4,0,0,1,4.8.2l16.6,9.6C293.9,186.3,294.1,187.4,293.3,188.1Z" transform="translate(-125.7 -63.1)"/></g><path class="cls-11" d="M262.4,238.8l1.8,1c.4.3.8,0,.8-.6V214.4a2.3,2.3,0,0,0-.8-1.6l-1.8-1c-.5-.3-.8,0-.8.6v24.8A1.9,1.9,0,0,0,262.4,238.8Z" transform="translate(-125.7 -63.1)"/><path class="cls-13" d="M262.4,211.8l.4.2v24.4a2.3,2.3,0,0,0,.8,1.6l1.4.7v.5c0,.6-.4.9-.8.6l-1.8-1a1.9,1.9,0,0,1-.8-1.6V212.4C261.6,211.8,261.9,211.5,262.4,211.8Z" transform="translate(-125.7 -63.1)"/><path class="cls-11" d="M255.8,235l1.8,1c.5.3.8,0,.8-.6V210.6a1.9,1.9,0,0,0-.8-1.6l-1.8-1c-.4-.3-.8,0-.8.6v24.8A2.1,2.1,0,0,0,255.8,235Z" transform="translate(-125.7 -63.1)"/><path class="cls-11" d="M249.3,231.2l1.8,1.1c.4.2.8,0,.8-.7V206.8a1.9,1.9,0,0,0-.8-1.5l-1.8-1.1c-.5-.2-.8.1-.8.7v24.8A1.6,1.6,0,0,0,249.3,231.2Z" transform="translate(-125.7 -63.1)"/><path class="cls-11" d="M242.8,227.5l1.7,1c.5.3.9,0,.9-.6V203.1a1.9,1.9,0,0,0-.9-1.6l-1.7-1c-.5-.3-.9,0-.9.6v24.8A2,2,0,0,0,242.8,227.5Z" transform="translate(-125.7 -63.1)"/><path class="cls-13" d="M255.8,208l.5.3v24.3a1.9,1.9,0,0,0,.8,1.6l1.3.8v.4c0,.6-.3.9-.8.6l-1.8-1a2.1,2.1,0,0,1-.8-1.6V208.6C255,208,255.4,207.7,255.8,208Z" transform="translate(-125.7 -63.1)"/><path class="cls-13" d="M249.3,204.2l.4.3v24.3a2.3,2.3,0,0,0,.8,1.6l1.4.8v.4c0,.7-.4.9-.8.7l-1.8-1.1a1.6,1.6,0,0,1-.8-1.5V204.9C248.5,204.3,248.8,204,249.3,204.2Z" transform="translate(-125.7 -63.1)"/><path class="cls-13" d="M242.8,200.5l.4.2v24.4a1.6,1.6,0,0,0,.8,1.5l1.4.8v.5c0,.6-.4.9-.9.6l-1.7-1a2,2,0,0,1-.9-1.6V201.1C241.9,200.5,242.3,200.2,242.8,200.5Z" transform="translate(-125.7 -63.1)"/><path class="cls-16" d="M280.2,241.8h-.5a1.6,1.6,0,0,1-.6-1.3V214.2a3.2,3.2,0,0,1,1.5-2.7l23.1-13.4a1.1,1.1,0,0,1,1.1,0,1.2,1.2,0,0,1,.6,1.2v26.3a3.5,3.5,0,0,1-1.4,2.7l-23.2,13.3A.7.7,0,0,1,280.2,241.8Zm24.1-43.3H304L280.8,212a2.6,2.6,0,0,0-1.1,2.2v26.2c0,.4.1.7.3.8s.4.1.6,0l23.1-13.4a2.9,2.9,0,0,0,1.2-2.2V199.3a.9.9,0,0,0-.4-.8Z" transform="translate(-125.7 -63.1)"/><path class="cls-11" d="M300.9,204.5c0,.7.5,1,1.1.6a2.4,2.4,0,0,0,1.1-1.9c0-.7-.5-1-1.1-.7A2.7,2.7,0,0,0,300.9,204.5Z" transform="translate(-125.7 -63.1)"/><ellipse class="cls-11" cx="302" cy="207.5" rx="1.6" ry="0.9" transform="translate(-154.4 302.2) rotate(-60)"/><path class="cls-11" d="M300.9,211.8c0,.7.5,1,1.1.6a2.4,2.4,0,0,0,1.1-1.9c0-.7-.5-1-1.1-.7A2.7,2.7,0,0,0,300.9,211.8Z" transform="translate(-125.7 -63.1)"/><path class="cls-13" d="M301.4,212a2.4,2.4,0,0,0,1.2-2c0-.1-.1-.2-.1-.3s.6.3.6.8a2.4,2.4,0,0,1-1.1,1.9c-.5.3-.9.2-1.1-.3Z" transform="translate(-125.7 -63.1)"/><path class="cls-13" d="M301.4,208.3a2.2,2.2,0,0,0,1.2-1.9V206c.4,0,.6.3.6.8a2.6,2.6,0,0,1-1.1,2,.7.7,0,0,1-1.1-.3Z" transform="translate(-125.7 -63.1)"/><path class="cls-13" d="M301.4,204.7a2.4,2.4,0,0,0,1.2-2v-.3c.4,0,.6.3.6.8a2.4,2.4,0,0,1-1.1,1.9c-.5.3-.9.2-1.1-.3Z" transform="translate(-125.7 -63.1)"/><path class="cls-16" d="M282.3,228.7l.7-.4a1,1,0,0,0,.4-.8v-3.6c0-.3-.2-.4-.4-.3l-.7.4a.9.9,0,0,0-.4.8v3.6C281.9,228.7,282,228.9,282.3,228.7Z" transform="translate(-125.7 -63.1)"/><path class="cls-24" d="M253.1,97.6h40.6v86.6h0a1.7,1.7,0,0,1-.8,1.2l-17.3,9.9a5.4,5.4,0,0,1-4.8-.2l-16.5-9.5q-1.2-.7-1.2-1.5h0Z" transform="translate(-125.7 -63.1)"/><path class="cls-25" d="M255,105.8h36.8v78.4h0a1.4,1.4,0,0,1-.8,1.1l-15.6,9a4.7,4.7,0,0,1-4.3-.2l-15-8.6a2.1,2.1,0,0,1-1.1-1.4h0Z" transform="translate(-125.7 -63.1)"/><path class="cls-11" d="M281.5,176.9a1.5,1.5,0,0,0,1.5,1.5,1.5,1.5,0,1,0,0-3A1.5,1.5,0,0,0,281.5,176.9Z" transform="translate(-125.7 -63.1)"/><path class="cls-11" d="M269.1,166.8a2.6,2.6,0,0,0,5.1,0,2.6,2.6,0,1,0-5.1,0Z" transform="translate(-125.7 -63.1)"/><path class="cls-11" d="M274.2,165.1a.7.7,0,0,0,.6.7.7.7,0,0,0,.7-.7.7.7,0,0,0-.7-.6A.6.6,0,0,0,274.2,165.1Z" transform="translate(-125.7 -63.1)"/><circle class="cls-11" cx="137.9" cy="89.1" r="1.3"/><path class="cls-11" d="M269.4,141.2a.9.9,0,0,0,1,.9.9.9,0,1,0,0-1.8A.9.9,0,0,0,269.4,141.2Z" transform="translate(-125.7 -63.1)"/><path class="cls-11" d="M279.9,134.2a1.6,1.6,0,0,0,1.6,1.6,1.7,1.7,0,0,0,1.7-1.6,1.8,1.8,0,0,0-1.7-1.7A1.7,1.7,0,0,0,279.9,134.2Z" transform="translate(-125.7 -63.1)"/><path class="cls-11" d="M275.8,120.3a.9.9,0,1,0,1.8,0,.9.9,0,1,0-1.8,0Z" transform="translate(-125.7 -63.1)"/><path class="cls-11" d="M268.6,126.5a1.1,1.1,0,1,0,1.1-1.1A1.1,1.1,0,0,0,268.6,126.5Z" transform="translate(-125.7 -63.1)"/><path class="cls-11" d="M267.8,124.2a.5.5,0,0,0,.5.5.5.5,0,1,0,0-1A.5.5,0,0,0,267.8,124.2Z" transform="translate(-125.7 -63.1)"/><path class="cls-11" d="M261,112.9a1.5,1.5,0,0,0,3,0,1.5,1.5,0,1,0-3,0Z" transform="translate(-125.7 -63.1)"/><path class="cls-26" d="M125.7,183.7h15.9l17.6-10.2c2.3-1.3,6.3-1.1,8.9.4l17.1,9.8H201v46h0a2.6,2.6,0,0,1-1.5,2.4l-32,18.4c-2.3,1.4-6.3,1.2-8.9-.3l-30.8-17.8a4,4,0,0,1-2.1-2.7h0Z" transform="translate(-125.7 -63.1)"/><path class="cls-27" d="M127.8,231.7l30.8,17.7a9.7,9.7,0,0,0,8.9.4l32-18.5a2.5,2.5,0,0,0,1.5-2.4h0v.8h0a2.6,2.6,0,0,1-1.5,2.4l-32,18.4c-2.3,1.4-6.3,1.2-8.9-.3l-30.8-17.8a4,4,0,0,1-2.1-2.7h0v-.8h0A3.9,3.9,0,0,0,127.8,231.7Z" transform="translate(-125.7 -63.1)"/><path class="cls-7" d="M200,230.4h0V184.5H184.2l-17.1-9.9c-2.6-1.5-6.6-1.7-8.9-.4l-17.7,10.3H125.7v-.8h15.9l17.6-10.2c2.3-1.3,6.3-1.1,8.9.4l17.1,9.8H201v46h0a2.6,2.6,0,0,1-1.5,2.4h-.2A2.3,2.3,0,0,0,200,230.4Z" transform="translate(-125.7 -63.1)"/><path class="cls-8" d="M126.6,184.6v45.9h0a2.8,2.8,0,0,0,.7,1.6,3.2,3.2,0,0,1-1.6-2.4h0V183.8Z" transform="translate(-125.7 -63.1)"/><path class="cls-28" d="M167.5,204.6l32-18.5c2.3-1.3,2-3.6-.6-5.1l-30.8-17.8c-2.6-1.5-6.6-1.7-8.9-.4l-32,18.5c-2.3,1.4-2,3.6.6,5.2l30.8,17.7C161.2,205.7,165.2,205.9,167.5,204.6Z" transform="translate(-125.7 -63.1)"/><path class="cls-8" d="M127.2,181.3l32-18.5a9.1,9.1,0,0,1,4.5-.8,7.9,7.9,0,0,0-3.2.8l-32,18.5c-2.3,1.4-2,3.6.6,5.2l30.7,17.7a11.2,11.2,0,0,0,4.4,1.3,10.8,10.8,0,0,1-5.6-1.3l-30.8-17.7C125.2,184.9,124.9,182.7,127.2,181.3Z" transform="translate(-125.7 -63.1)"/><path class="cls-29" d="M166.4,199.3l23.9-13.8c1.7-1,1.4-2.7-.5-3.8l-22.9-13.2a7.1,7.1,0,0,0-6.6-.3l-23.9,13.7c-1.7,1-1.4,2.7.5,3.9L159.8,199A7.7,7.7,0,0,0,166.4,199.3Z" transform="translate(-125.7 -63.1)"/><path class="cls-11" d="M165.6,195l17.3-10c1.2-.7,1-1.9-.4-2.8l-16.6-9.5a5.1,5.1,0,0,0-4.8-.2l-17.2,9.9c-1.3.7-1.1,2,.3,2.8l16.6,9.6A5.4,5.4,0,0,0,165.6,195Z" transform="translate(-125.7 -63.1)"/><path class="cls-7" d="M166,204.6l32.1-18.5c2.2-1.3,2-3.6-.7-5.1l-30.7-17.8a10.7,10.7,0,0,0-4.4-1.2,10.3,10.3,0,0,1,5.8,1.2L198.9,181c2.6,1.5,2.9,3.8.6,5.1l-32,18.5a7.6,7.6,0,0,1-4.6.8A5.9,5.9,0,0,0,166,204.6Z" transform="translate(-125.7 -63.1)"/><g class="cls-30"><path class="cls-13" d="M182.5,183.6,165.9,174a5.4,5.4,0,0,0-4.8-.2l-17.3,10-.6.5a1.3,1.3,0,0,1,.6-1.9l17.3-9.9a4.9,4.9,0,0,1,4.8.2l16.6,9.5c1.1.7,1.4,1.6,1,2.3A1.8,1.8,0,0,0,182.5,183.6Z" transform="translate(-125.7 -63.1)"/><path class="cls-14" d="M182.5,185.2l-16.6-9.6a5.4,5.4,0,0,0-4.8-.2l-17.3,10-.5.4a1.3,1.3,0,0,1,.5-2l17.3-10a5.4,5.4,0,0,1,4.8.2l16.6,9.6c1.2.7,1.5,1.6.9,2.3A3.5,3.5,0,0,0,182.5,185.2Z" transform="translate(-125.7 -63.1)"/><path class="cls-15" d="M183.2,187.7l-.7-.5-16.6-9.6a5.4,5.4,0,0,0-4.8-.2l-17.3,10-.3.2a1.3,1.3,0,0,1,.3-2.2l17.3-10a5.4,5.4,0,0,1,4.8.2l16.6,9.6C183.8,185.9,184,187,183.2,187.7Z" transform="translate(-125.7 -63.1)"/></g><path class="cls-11" d="M152.3,238.4l1.8,1.1c.4.2.8,0,.8-.7V214a1.9,1.9,0,0,0-.8-1.5l-1.8-1.1c-.4-.2-.8.1-.8.7v24.8A1.9,1.9,0,0,0,152.3,238.4Z" transform="translate(-125.7 -63.1)"/><path class="cls-13" d="M152.3,211.4l.4.3V236a1.9,1.9,0,0,0,.9,1.6l1.3.8v.4c0,.7-.4.9-.8.7l-1.8-1.1a1.9,1.9,0,0,1-.8-1.5V212.1C151.5,211.5,151.9,211.2,152.3,211.4Z" transform="translate(-125.7 -63.1)"/><path class="cls-11" d="M145.8,234.7l1.7,1c.5.3.9,0,.9-.6V210.3a1.9,1.9,0,0,0-.9-1.6l-1.7-1c-.5-.3-.9,0-.9.6v24.8A2,2,0,0,0,145.8,234.7Z" transform="translate(-125.7 -63.1)"/><path class="cls-11" d="M139.2,230.9l1.8,1c.5.3.8,0,.8-.6V206.5a1.9,1.9,0,0,0-.8-1.6l-1.8-1c-.4-.3-.8,0-.8.6v24.8A2.3,2.3,0,0,0,139.2,230.9Z" transform="translate(-125.7 -63.1)"/><path class="cls-11" d="M132.7,227.1l1.8,1c.4.3.8,0,.8-.6V202.7a2.3,2.3,0,0,0-.8-1.6l-1.8-1c-.5-.3-.8,0-.8.6v24.8A1.9,1.9,0,0,0,132.7,227.1Z" transform="translate(-125.7 -63.1)"/><path class="cls-13" d="M145.8,207.7l.4.2v24.4a1.9,1.9,0,0,0,.8,1.5l1.4.8v.5c0,.6-.4.9-.9.6l-1.7-1a2,2,0,0,1-.9-1.6V208.3C144.9,207.7,145.3,207.4,145.8,207.7Z" transform="translate(-125.7 -63.1)"/><path class="cls-13" d="M139.2,203.9l.4.2v24.4a2,2,0,0,0,.9,1.6l1.3.7v.5c0,.6-.3.9-.8.6l-1.8-1a2.3,2.3,0,0,1-.8-1.6V204.5C138.4,203.9,138.8,203.6,139.2,203.9Z" transform="translate(-125.7 -63.1)"/><path class="cls-13" d="M132.7,200.1l.4.2v24.4a2.3,2.3,0,0,0,.8,1.6l1.4.8v.4c0,.6-.4.9-.8.6l-1.8-1a1.9,1.9,0,0,1-.8-1.6V200.7C131.9,200.1,132.2,199.8,132.7,200.1Z" transform="translate(-125.7 -63.1)"/><path class="cls-16" d="M170.1,241.5h-.5a1.7,1.7,0,0,1-.5-1.3V213.8a3.5,3.5,0,0,1,1.4-2.7l23.1-13.3a.9.9,0,0,1,1.1-.1,1.4,1.4,0,0,1,.6,1.3v26.2a3.2,3.2,0,0,1-1.4,2.7l-23.1,13.4Zm24.2-43.4h-.4l-23.1,13.4a2.7,2.7,0,0,0-1.2,2.2v26.3c0,.4.1.7.3.8a.7.7,0,0,0,.6-.1l23.1-13.3a2.8,2.8,0,0,0,1.2-2.3V199c0-.4-.1-.7-.3-.8Z" transform="translate(-125.7 -63.1)"/><path class="cls-11" d="M190.8,204.1c0,.7.5,1,1.1.7a2.5,2.5,0,0,0,1.2-2c0-.7-.5-1-1.2-.6A2.4,2.4,0,0,0,190.8,204.1Z" transform="translate(-125.7 -63.1)"/><ellipse class="cls-11" cx="191.9" cy="207.1" rx="1.6" ry="0.9" transform="translate(-209.1 206.7) rotate(-60)"/><path class="cls-11" d="M190.8,211.4c0,.8.5,1,1.1.7a2.4,2.4,0,0,0,1.2-2c0-.7-.5-1-1.2-.6A2.4,2.4,0,0,0,190.8,211.4Z" transform="translate(-125.7 -63.1)"/><path class="cls-13" d="M191.4,211.6a2.4,2.4,0,0,0,1.1-1.9.6.6,0,0,0-.1-.4.7.7,0,0,1,.7.8,2.4,2.4,0,0,1-1.2,2c-.5.3-.9.1-1-.3Z" transform="translate(-125.7 -63.1)"/><path class="cls-13" d="M191.4,208a2.6,2.6,0,0,0,1.1-2,.4.4,0,0,0-.1-.3.7.7,0,0,1,.7.8,2.2,2.2,0,0,1-1.2,1.9c-.5.3-.9.2-1-.3Z" transform="translate(-125.7 -63.1)"/><path class="cls-13" d="M191.4,204.3a2.4,2.4,0,0,0,1.1-1.9c0-.2,0-.3-.1-.4a.7.7,0,0,1,.7.8,2.5,2.5,0,0,1-1.2,2c-.5.3-.9.1-1-.3Z" transform="translate(-125.7 -63.1)"/><path class="cls-16" d="M172.2,228.4l.7-.4a1,1,0,0,0,.5-.8v-3.6c0-.3-.2-.5-.5-.3l-.7.4a1,1,0,0,0-.4.8v3.6C171.8,228.4,172,228.5,172.2,228.4Z" transform="translate(-125.7 -63.1)"/><path class="cls-31" d="M142.7,97.4l40.6-.3.6,86.6h0a1.4,1.4,0,0,1-.8,1.2L165.9,195a5.4,5.4,0,0,1-4.8-.2l-16.6-9.5a2.2,2.2,0,0,1-1.2-1.4h0Z" transform="translate(-125.7 -63.1)"/><path class="cls-32" d="M144.6,105.6l36.8-.3.6,78.4h0a1.3,1.3,0,0,1-.7,1.1l-15.6,9.1a4.7,4.7,0,0,1-4.3-.1l-15.1-8.6a1.7,1.7,0,0,1-1.1-1.3h0Z" transform="translate(-125.7 -63.1)"/><path class="cls-11" d="M171.5,176.6a1.5,1.5,0,0,0,1.5,1.5,1.5,1.5,0,0,0,1.5-1.5A1.6,1.6,0,0,0,173,175,1.5,1.5,0,0,0,171.5,176.6Z" transform="translate(-125.7 -63.1)"/><path class="cls-11" d="M159,166.4a2.6,2.6,0,0,0,2.6,2.6,2.6,2.6,0,0,0,0-5.2A2.6,2.6,0,0,0,159,166.4Z" transform="translate(-125.7 -63.1)"/><path class="cls-11" d="M164.1,164.8a.7.7,0,0,0,.7.6.6.6,0,0,0,.6-.6.7.7,0,0,0-.6-.7A.7.7,0,0,0,164.1,164.8Z" transform="translate(-125.7 -63.1)"/><circle class="cls-11" cx="27.8" cy="88.7" r="1.3"/><path class="cls-11" d="M159.4,140.8a.9.9,0,1,0,.9-.9A.9.9,0,0,0,159.4,140.8Z" transform="translate(-125.7 -63.1)"/><path class="cls-11" d="M169.8,133.8a1.6,1.6,0,0,0,1.7,1.7,1.6,1.6,0,0,0,1.6-1.7,1.6,1.6,0,0,0-1.6-1.6A1.6,1.6,0,0,0,169.8,133.8Z" transform="translate(-125.7 -63.1)"/><path class="cls-11" d="M165.7,120a.9.9,0,1,0,.9-.9A.9.9,0,0,0,165.7,120Z" transform="translate(-125.7 -63.1)"/><path class="cls-11" d="M158.6,126.1a1,1,0,0,0,1,1.1,1.1,1.1,0,1,0,0-2.2A1,1,0,0,0,158.6,126.1Z" transform="translate(-125.7 -63.1)"/><path class="cls-11" d="M157.7,123.9a.6.6,0,0,0,.6.5.5.5,0,0,0,.5-.5.6.6,0,0,0-.5-.6A.6.6,0,0,0,157.7,123.9Z" transform="translate(-125.7 -63.1)"/><path class="cls-11" d="M150.9,112.6a1.5,1.5,0,0,0,1.5,1.5,1.6,1.6,0,0,0,1.6-1.5,1.5,1.5,0,0,0-1.6-1.5A1.5,1.5,0,0,0,150.9,112.6Z" transform="translate(-125.7 -63.1)"/><path class="cls-33" d="M181.2,218.2h15.9L214.8,208c2.2-1.3,6.2-1.2,8.8.4l17.1,9.8h15.9v46h0a2.6,2.6,0,0,1-1.6,2.3L223,285a10,10,0,0,1-8.9-.3l-30.7-17.8a3.9,3.9,0,0,1-2.2-2.7h0Z" transform="translate(-125.7 -63.1)"/><path class="cls-34" d="M183.4,266.2l30.7,17.7c2.6,1.5,6.6,1.7,8.9.4l32-18.5a2.7,2.7,0,0,0,1.6-2.4h0v.8h0a2.6,2.6,0,0,1-1.6,2.3L223,285a10,10,0,0,1-8.9-.3l-30.7-17.8a3.9,3.9,0,0,1-2.2-2.7h0v-.8h0A3.8,3.8,0,0,0,183.4,266.2Z" transform="translate(-125.7 -63.1)"/><path class="cls-7" d="M255.5,264.9h.1v-46H239.7l-17.1-9.8c-2.6-1.5-6.6-1.7-8.8-.4l-17.7,10.2H181.2v-.7h15.9L214.8,208c2.2-1.3,6.2-1.2,8.8.4l17.1,9.8h15.9v46h0a2.6,2.6,0,0,1-1.6,2.3h-.2A1.8,1.8,0,0,0,255.5,264.9Z" transform="translate(-125.7 -63.1)"/><path class="cls-8" d="M182.1,219.1V265h0a2.4,2.4,0,0,0,.8,1.6,3.4,3.4,0,0,1-1.7-2.4h0V218.3Z" transform="translate(-125.7 -63.1)"/><path class="cls-35" d="M223,239.1l32-18.5c2.3-1.3,2-3.6-.6-5.1l-30.8-17.8c-2.6-1.5-6.6-1.7-8.8-.4l-32.1,18.5c-2.2,1.3-2,3.6.7,5.2l30.7,17.7C216.7,240.2,220.7,240.4,223,239.1Z" transform="translate(-125.7 -63.1)"/><path class="cls-8" d="M182.7,215.8l32.1-18.5a8.7,8.7,0,0,1,4.4-.8,6.6,6.6,0,0,0-3.2.8l-32,18.5c-2.3,1.3-2,3.6.6,5.2l30.8,17.7a9,9,0,0,0,4.4,1.2,10,10,0,0,1-5.7-1.2L183.4,221C180.7,219.4,180.5,217.1,182.7,215.8Z" transform="translate(-125.7 -63.1)"/><path class="cls-36" d="M221.9,233.7,245.8,220c1.7-1,1.5-2.7-.5-3.8l-22.9-13.3a7.3,7.3,0,0,0-6.6-.2L192,216.4c-1.7,1-1.5,2.7.4,3.9l22.9,13.2C217.3,234.6,220.3,234.7,221.9,233.7Z" transform="translate(-125.7 -63.1)"/><path class="cls-11" d="M221.1,229.5l17.3-10c1.2-.7,1.1-2-.4-2.8l-16.6-9.6a4.9,4.9,0,0,0-4.7-.1l-17.3,9.9c-1.2.7-1.1,2,.3,2.8l16.6,9.6A5.4,5.4,0,0,0,221.1,229.5Z" transform="translate(-125.7 -63.1)"/><path class="cls-7" d="M221.6,239.1l32-18.5c2.3-1.3,2-3.6-.6-5.1l-30.8-17.8a10.2,10.2,0,0,0-4.3-1.2,10.1,10.1,0,0,1,5.7,1.2l30.8,17.8c2.6,1.5,2.9,3.8.6,5.1l-32,18.5a8.5,8.5,0,0,1-4.6.8A6.6,6.6,0,0,0,221.6,239.1Z" transform="translate(-125.7 -63.1)"/><g class="cls-37"><path class="cls-13" d="M238,218.1l-16.6-9.6a5.2,5.2,0,0,0-4.7-.2l-17.3,10a1,1,0,0,0-.6.5,1.3,1.3,0,0,1,.6-1.9l17.3-10a5.2,5.2,0,0,1,4.7.2l16.6,9.6c1.1.7,1.5,1.5,1,2.2A2.1,2.1,0,0,0,238,218.1Z" transform="translate(-125.7 -63.1)"/><path class="cls-14" d="M238,219.7l-16.6-9.6a5.2,5.2,0,0,0-4.7-.2l-17.3,10-.5.4c-.6-.7-.4-1.5.5-2l17.3-10a5.2,5.2,0,0,1,4.7.2l16.6,9.6c1.2.6,1.5,1.6.9,2.3A3.5,3.5,0,0,0,238,219.7Z" transform="translate(-125.7 -63.1)"/><path class="cls-15" d="M238.7,222.2a1.8,1.8,0,0,0-.7-.5l-16.6-9.6a5.2,5.2,0,0,0-4.7-.2l-17.3,10-.4.2a1.3,1.3,0,0,1,.4-2.2l17.3-10a5.2,5.2,0,0,1,4.7.2l16.6,9.6C239.3,220.4,239.6,221.5,238.7,222.2Z" transform="translate(-125.7 -63.1)"/></g><path class="cls-11" d="M207.8,272.9l1.8,1.1c.5.2.8-.1.8-.7V248.5a1.6,1.6,0,0,0-.8-1.5l-1.8-1.1c-.4-.2-.8,0-.8.7v24.8A1.9,1.9,0,0,0,207.8,272.9Z" transform="translate(-125.7 -63.1)"/><path class="cls-13" d="M207.8,245.9l.5.3v24.3a1.9,1.9,0,0,0,.8,1.6l1.3.8v.4c0,.6-.3.9-.8.7l-1.8-1.1a1.9,1.9,0,0,1-.8-1.5V246.6C207,245.9,207.4,245.7,207.8,245.9Z" transform="translate(-125.7 -63.1)"/><path class="cls-11" d="M201.3,269.2l1.8,1c.4.2.8,0,.8-.6V244.8a1.9,1.9,0,0,0-.8-1.6l-1.8-1.1c-.5-.2-.8.1-.8.7v24.8A1.9,1.9,0,0,0,201.3,269.2Z" transform="translate(-125.7 -63.1)"/><path class="cls-11" d="M194.7,265.4l1.8,1c.5.3.9,0,.9-.6V241a2,2,0,0,0-.9-1.6l-1.8-1c-.4-.3-.8,0-.8.6v24.8A2.3,2.3,0,0,0,194.7,265.4Z" transform="translate(-125.7 -63.1)"/><path class="cls-11" d="M188.2,261.6l1.8,1c.4.3.8,0,.8-.6V237.2a2.3,2.3,0,0,0-.8-1.6l-1.8-1c-.5-.3-.8,0-.8.6V260A1.9,1.9,0,0,0,188.2,261.6Z" transform="translate(-125.7 -63.1)"/><path class="cls-13" d="M201.3,242.1l.4.3v24.3a1.9,1.9,0,0,0,.8,1.6l1.4.8v.5c0,.6-.4.8-.8.6l-1.8-1a1.9,1.9,0,0,1-.8-1.6V242.8C200.5,242.2,200.8,241.9,201.3,242.1Z" transform="translate(-125.7 -63.1)"/><path class="cls-13" d="M194.7,238.4l.5.2V263a1.6,1.6,0,0,0,.8,1.5l1.4.8v.5c0,.6-.4.9-.9.6l-1.8-1a2.3,2.3,0,0,1-.8-1.6V239C193.9,238.4,194.3,238.1,194.7,238.4Z" transform="translate(-125.7 -63.1)"/><path class="cls-13" d="M188.2,234.6l.4.2v24.4a2,2,0,0,0,.9,1.6l1.3.8v.4c0,.6-.4.9-.8.6l-1.8-1a1.9,1.9,0,0,1-.8-1.6V235.2C187.4,234.6,187.7,234.3,188.2,234.6Z" transform="translate(-125.7 -63.1)"/><path class="cls-16" d="M225.6,276h-.4a1.5,1.5,0,0,1-.6-1.3V248.3a3.5,3.5,0,0,1,1.4-2.7l23.2-13.3a.9.9,0,0,1,1.1-.1,1.6,1.6,0,0,1,.6,1.3v26.2a3.2,3.2,0,0,1-1.5,2.7l-23.1,13.4Zm24.2-43.4h-.4l-23.1,13.4a3,3,0,0,0-1.2,2.2v26.3a1.2,1.2,0,0,0,.3.8.6.6,0,0,0,.6-.1L249.2,262a3,3,0,0,0,1.1-2.3V233.5c0-.4-.1-.7-.3-.8Z" transform="translate(-125.7 -63.1)"/><path class="cls-11" d="M246.3,238.6c0,.7.5,1,1.2.7a2.7,2.7,0,0,0,1.1-2c0-.7-.5-1-1.1-.6A2.2,2.2,0,0,0,246.3,238.6Z" transform="translate(-125.7 -63.1)"/><path class="cls-11" d="M246.3,242.3c0,.7.5,1,1.2.6a2.4,2.4,0,0,0,1.1-1.9c0-.7-.5-1-1.1-.7A2.5,2.5,0,0,0,246.3,242.3Z" transform="translate(-125.7 -63.1)"/><ellipse class="cls-11" cx="247.5" cy="245.3" rx="1.6" ry="0.9" transform="translate(-214.4 273.9) rotate(-60)"/><path class="cls-13" d="M246.9,246.1a2.4,2.4,0,0,0,1.1-1.9v-.4c.3,0,.6.3.6.8a2.7,2.7,0,0,1-1.1,2c-.6.3-1,.1-1.1-.3Z" transform="translate(-125.7 -63.1)"/><path class="cls-13" d="M246.9,242.5a2.7,2.7,0,0,0,1.1-2v-.3c.3,0,.6.3.6.8a2.4,2.4,0,0,1-1.1,1.9c-.6.3-1,.2-1.1-.3Z" transform="translate(-125.7 -63.1)"/><path class="cls-13" d="M246.9,238.8a2.4,2.4,0,0,0,1.1-1.9v-.4c.3,0,.6.3.6.8a2.7,2.7,0,0,1-1.1,2c-.6.3-1,.1-1.1-.3Z" transform="translate(-125.7 -63.1)"/><path class="cls-16" d="M227.7,262.9l.8-.5a.9.9,0,0,0,.4-.8v-3.5c0-.3-.2-.5-.4-.4l-.8.5a1,1,0,0,0-.4.8v3.6C227.3,262.9,227.5,263,227.7,262.9Z" transform="translate(-125.7 -63.1)"/><path class="cls-38" d="M198.6,131.7h40.6v86.6h0a1.4,1.4,0,0,1-.9,1.2l-17.2,10a5.4,5.4,0,0,1-4.8-.2l-16.6-9.6a1.9,1.9,0,0,1-1.1-1.5h0Z" transform="translate(-125.7 -63.1)"/><path class="cls-39" d="M200.5,140h36.7v78.3h0a1.3,1.3,0,0,1-.7,1.1l-15.6,9a4.9,4.9,0,0,1-4.4-.1l-15-8.7a1.9,1.9,0,0,1-1-1.3h0Z" transform="translate(-125.7 -63.1)"/><path class="cls-11" d="M227,211a1.5,1.5,0,1,0,3,0,1.5,1.5,0,0,0-3,0Z" transform="translate(-125.7 -63.1)"/><path class="cls-11" d="M214.5,200.9a2.6,2.6,0,1,0,2.6-2.6A2.6,2.6,0,0,0,214.5,200.9Z" transform="translate(-125.7 -63.1)"/><path class="cls-11" d="M219.6,199.3a.7.7,0,0,0,.7.6.6.6,0,0,0,.6-.6.7.7,0,0,0-.6-.7A.7.7,0,0,0,219.6,199.3Z" transform="translate(-125.7 -63.1)"/><path class="cls-11" d="M207.7,186.3A1.3,1.3,0,1,0,209,185,1.3,1.3,0,0,0,207.7,186.3Z" transform="translate(-125.7 -63.1)"/><circle class="cls-11" cx="90.1" cy="112.2" r="0.9"/><circle class="cls-11" cx="101.3" cy="105.3" r="1.7"/><path class="cls-11" d="M214.5,156.6a3.4,3.4,0,1,0,6.7,0,3.4,3.4,0,0,0-6.7,0Z" transform="translate(-125.7 -63.1)"/><path class="cls-11" d="M221.2,154.5a.9.9,0,0,0,.9.9.9.9,0,1,0,0-1.8A.9.9,0,0,0,221.2,154.5Z" transform="translate(-125.7 -63.1)"/><path class="cls-11" d="M214.1,160.6a1.1,1.1,0,1,0,1.1-1.1A1.1,1.1,0,0,0,214.1,160.6Z" transform="translate(-125.7 -63.1)"/><path class="cls-11" d="M213.3,158.4a.5.5,0,1,0,1,0,.5.5,0,1,0-1,0Z" transform="translate(-125.7 -63.1)"/><circle class="cls-11" cx="82.3" cy="84" r="1.5"/></g></g></svg>