<svg xmlns="http://www.w3.org/2000/svg" xmlns:xlink="http://www.w3.org/1999/xlink" viewBox="0 0 268.6 292.8"><defs><style>.cls-1{isolation:isolate;}.cls-2{fill:#6ee8fc;}.cls-3{opacity:0.3;fill:url(#radial-gradient);}.cls-28,.cls-29,.cls-3,.cls-30,.cls-31,.cls-32,.cls-4,.cls-5,.cls-6,.cls-7,.cls-8{mix-blend-mode:lighten;}.cls-4{fill:url(#radial-gradient-2);}.cls-5{fill:url(#radial-gradient-3);}.cls-6{fill:url(#radial-gradient-4);}.cls-7{fill:url(#radial-gradient-5);}.cls-8{fill:url(#radial-gradient-6);}.cls-9{fill:#0a0e2d;}.cls-26,.cls-9{opacity:0.2;}.cls-10{fill:#312a91;}.cls-11,.cls-13,.cls-16,.cls-17,.cls-19,.cls-20,.cls-21,.cls-23,.cls-24,.cls-25{opacity:0.5;}.cls-11{fill:url(#Áåçûìÿííûé_ãðàäèåíò_107);}.cls-12{fill:url(#Áåçûìÿííûé_ãðàäèåíò_59);}.cls-13{fill:url(#Áåçûìÿííûé_ãðàäèåíò_107-2);}.cls-14,.cls-20,.cls-26,.cls-27{fill:#5cfff3;}.cls-15{fill:#42e8e0;}.cls-16{fill:url(#Áåçûìÿííûé_ãðàäèåíò_107-3);}.cls-17{fill:url(#Áåçûìÿííûé_ãðàäèåíò_107-4);}.cls-18{fill:#fccc6b;}.cls-19{fill:#0b0244;}.cls-21{fill:url(#Áåçûìÿííûé_ãðàäèåíò_107-5);}.cls-22{fill:url(#Áåçûìÿííûé_ãðàäèåíò_59-2);}.cls-23{fill:url(#Áåçûìÿííûé_ãðàäèåíò_107-6);}.cls-24{fill:url(#Áåçûìÿííûé_ãðàäèåíò_107-7);}.cls-25{fill:url(#Áåçûìÿííûé_ãðàäèåíò_107-8);}.cls-27{opacity:0.6;}.cls-28{fill:url(#radial-gradient-7);}.cls-29{fill:url(#radial-gradient-8);}.cls-30{fill:url(#radial-gradient-9);}.cls-31{fill:url(#radial-gradient-10);}.cls-32{fill:url(#radial-gradient-11);}</style><radialGradient id="radial-gradient" cx="-1089.99" cy="430.85" r="80.51" gradientTransform="matrix(0.87, 0.5, -0.87, 0.5, 1420.95, 478.39)" gradientUnits="userSpaceOnUse"><stop offset="0" stop-color="#42e8e0"/><stop offset="0.04" stop-color="#3ccecc" stop-opacity="0.88"/><stop offset="0.11" stop-color="#31a2aa" stop-opacity="0.67"/><stop offset="0.19" stop-color="#287c8c" stop-opacity="0.49"/><stop offset="0.27" stop-color="#205b73" stop-opacity="0.34"/><stop offset="0.36" stop-color="#1a415f" stop-opacity="0.22"/><stop offset="0.45" stop-color="#152d4f" stop-opacity="0.12"/><stop offset="0.55" stop-color="#121e44" stop-opacity="0.05"/><stop offset="0.66" stop-color="#10163d" stop-opacity="0.01"/><stop offset="0.82" stop-color="#0f133b" stop-opacity="0"/></radialGradient><radialGradient id="radial-gradient-2" cx="280.17" cy="246.04" r="9" gradientTransform="translate(455.3 -83.2) rotate(76.7)" gradientUnits="userSpaceOnUse"><stop offset="0" stop-color="#42e8e0"/><stop offset="0.04" stop-color="#3dcdd0" stop-opacity="0.88"/><stop offset="0.11" stop-color="#34a0b4" stop-opacity="0.67"/><stop offset="0.19" stop-color="#2d799c" stop-opacity="0.49"/><stop offset="0.27" stop-color="#265788" stop-opacity="0.34"/><stop offset="0.36" stop-color="#213c78" stop-opacity="0.22"/><stop offset="0.45" stop-color="#1d276b" stop-opacity="0.12"/><stop offset="0.55" stop-color="#1a1862" stop-opacity="0.05"/><stop offset="0.66" stop-color="#19105d" stop-opacity="0.01"/><stop offset="0.82" stop-color="#180d5b" stop-opacity="0"/></radialGradient><radialGradient id="radial-gradient-3" cx="14.02" cy="203.37" r="9" gradientTransform="matrix(1, 0, 0, 1, 0, 0)" xlink:href="#radial-gradient-2"/><radialGradient id="radial-gradient-4" cx="211.02" cy="252.2" r="9" gradientTransform="matrix(1, 0, 0, 1, 0, 0)" xlink:href="#radial-gradient"/><radialGradient id="radial-gradient-5" cx="227.71" cy="242.37" r="9" gradientTransform="matrix(1, 0, 0, 1, 0, 0)" xlink:href="#radial-gradient"/><radialGradient id="radial-gradient-6" cx="244.39" cy="232.68" r="9" gradientTransform="matrix(1, 0, 0, 1, 0, 0)" xlink:href="#radial-gradient"/><linearGradient id="Áåçûìÿííûé_ãðàäèåíò_107" x1="148.63" y1="266.94" x2="372.46" y2="266.94" gradientUnits="userSpaceOnUse"><stop offset="0" stop-color="#42e8e0"/><stop offset="0.1" stop-color="#3ccace"/><stop offset="0.34" stop-color="#2f87a5"/><stop offset="0.56" stop-color="#255385"/><stop offset="0.75" stop-color="#1e2d6e"/><stop offset="0.91" stop-color="#1a1660"/><stop offset="1" stop-color="#180d5b"/></linearGradient><linearGradient id="Áåçûìÿííûé_ãðàäèåíò_59" x1="310.02" y1="266.93" x2="421.93" y2="266.93" gradientUnits="userSpaceOnUse"><stop offset="0" stop-color="#2b237c"/><stop offset="1" stop-color="#180d5b"/></linearGradient><linearGradient id="Áåçûìÿííûé_ãðàäèåíò_107-2" x1="198.1" y1="242.21" x2="421.95" y2="242.21" xlink:href="#Áåçûìÿííûé_ãðàäèåíò_107"/><linearGradient id="Áåçûìÿííûé_ãðàäèåíò_107-3" x1="198.1" y1="242.21" x2="312.35" y2="242.21" xlink:href="#Áåçûìÿííûé_ãðàäèåíò_107"/><linearGradient id="Áåçûìÿííûé_ãðàäèåíò_107-4" x1="228.55" y1="307.34" x2="415.91" y2="184.88" xlink:href="#Áåçûìÿííûé_ãðàäèåíò_107"/><linearGradient id="Áåçûìÿííûé_ãðàäèåíò_107-5" x1="148.63" y1="199.28" x2="372.46" y2="199.28" xlink:href="#Áåçûìÿííûé_ãðàäèåíò_107"/><linearGradient id="Áåçûìÿííûé_ãðàäèåíò_59-2" x1="310.02" y1="199.27" x2="421.93" y2="199.27" xlink:href="#Áåçûìÿííûé_ãðàäèåíò_59"/><linearGradient id="Áåçûìÿííûé_ãðàäèåíò_107-6" x1="198.1" y1="174.55" x2="421.95" y2="174.55" xlink:href="#Áåçûìÿííûé_ãðàäèåíò_107"/><linearGradient id="Áåçûìÿííûé_ãðàäèåíò_107-7" x1="198.1" y1="174.56" x2="312.35" y2="174.56" xlink:href="#Áåçûìÿííûé_ãðàäèåíò_107"/><linearGradient id="Áåçûìÿííûé_ãðàäèåíò_107-8" x1="228.55" y1="239.69" x2="415.91" y2="117.23" xlink:href="#Áåçûìÿííûé_ãðàäèåíò_107"/><radialGradient id="radial-gradient-7" cx="104.78" cy="13.32" r="9" gradientTransform="matrix(1, 0, 0, 1, 0, 0)" xlink:href="#radial-gradient"/><radialGradient id="radial-gradient-8" cx="14.02" cy="65.82" r="9" gradientTransform="matrix(1, 0, 0, 1, 0, 0)" xlink:href="#radial-gradient"/><radialGradient id="radial-gradient-9" cx="386.41" cy="209.83" r="9" gradientTransform="translate(109.7 -131.9) rotate(22.5)" xlink:href="#radial-gradient"/><radialGradient id="radial-gradient-10" cx="227.71" cy="104.82" r="9" gradientTransform="matrix(1, 0, 0, 1, 0, 0)" xlink:href="#radial-gradient"/><radialGradient id="radial-gradient-11" cx="244.39" cy="95.14" r="9" gradientTransform="matrix(1, 0, 0, 1, 0, 0)" xlink:href="#radial-gradient"/></defs><title>server-1</title><g class="cls-1"><g id="Ñëîé_1" data-name="Ñëîé 1"><path class="cls-2" d="M309,388a20.5,20.5,0,0,1-10.2-2.4L179.5,316.8c-2.6-1.6-4.1-3.7-4.1-6.1s2.1-5.6,5.8-7.7l115.9-67c6.9-4,17.5-4.4,23.5-.9l119.3,68.8c2.6,1.6,4.1,3.7,4.1,6.1s-2.1,5.6-5.8,7.7l-115.9,67A27.3,27.3,0,0,1,309,388Zm1.4-154.8a27.9,27.9,0,0,0-13.1,3.2L181.4,303.3c-3.5,2.1-5.6,4.8-5.6,7.4s1.4,4.2,4,5.7L299,385.2c5.9,3.4,16.2,3,23-.9l116-66.9c3.5-2.1,5.5-4.8,5.5-7.4s-1.3-4.2-3.9-5.7L320.4,235.5A20,20,0,0,0,310.4,233.2Z" transform="translate(-175.4 -95.2)"/><ellipse class="cls-3" cx="103.9" cy="148.8" rx="98.6" ry="56.9"/><circle class="cls-4" cx="280.2" cy="246" r="9" transform="translate(-199 367) rotate(-76.7)"/><path class="cls-2" d="M282.7,246a2.5,2.5,0,0,1-2.5,2.6,2.6,2.6,0,1,1,0-5.1A2.5,2.5,0,0,1,282.7,246Z" transform="translate(-175.4 -95.2)"/><circle class="cls-5" cx="14" cy="203.4" r="9"/><path class="cls-2" d="M192,298.5a2.6,2.6,0,1,1-2.6-2.5A2.6,2.6,0,0,1,192,298.5Z" transform="translate(-175.4 -95.2)"/><circle class="cls-6" cx="211" cy="252.2" r="9"/><circle class="cls-2" cx="211" cy="252.2" r="2.6"/><circle class="cls-7" cx="227.7" cy="242.4" r="9"/><path class="cls-2" d="M405.7,337.5a2.6,2.6,0,1,1-2.6-2.5A2.6,2.6,0,0,1,405.7,337.5Z" transform="translate(-175.4 -95.2)"/><circle class="cls-8" cx="244.4" cy="232.7" r="9"/><path class="cls-2" d="M422.4,327.9a2.6,2.6,0,1,1-2.6-2.6A2.6,2.6,0,0,1,422.4,327.9Z" transform="translate(-175.4 -95.2)"/><path class="cls-9" d="M298.3,365.8l-85-49c-6.4-3.8-5.6-10.3,1.8-14.6l81.4-47c7.5-4.3,18.8-4.8,25.2-1l85,49c6.5,3.8,5.7,10.3-1.8,14.6l-81.4,47C316.1,369.1,304.8,369.6,298.3,365.8Z" transform="translate(-175.4 -95.2)"/><path class="cls-10" d="M421.9,259.8V242.2H376.6L323,211.3c-7.2-4.2-19.7-3.6-27.9,1.1l-51.6,29.8H198.1v18.6h0c-.2,2.8,1.4,5.5,4.8,7.5l94.2,54.3c7.1,4.1,19.6,3.6,27.9-1.1l90.1-52.1C419.9,266.7,422.2,263.1,421.9,259.8Z" transform="translate(-175.4 -95.2)"/><path class="cls-11" d="M421.9,259.8V242.2H376.6L323,211.3c-7.2-4.2-19.7-3.6-27.9,1.1l-51.6,29.8H198.1v18.6h0c-.2,2.8,1.4,5.5,4.8,7.5l94.2,54.3c7.1,4.1,19.6,3.6,27.9-1.1l90.1-52.1C419.9,266.7,422.2,263.1,421.9,259.8Z" transform="translate(-175.4 -95.2)"/><path class="cls-12" d="M323,211.3a25.5,25.5,0,0,0-13-2.8V325.4a32.8,32.8,0,0,0,15-3.9l90.1-52.1c4.8-2.7,7.1-6.3,6.8-9.6V242.2H376.6Z" transform="translate(-175.4 -95.2)"/><path class="cls-10" d="M297.1,304l-94.2-54.3c-7.1-4.1-6.2-11.4,2-16.1l90.2-52.1c8.2-4.7,20.7-5.3,27.9-1.1l94.1,54.3c7.2,4.2,6.3,11.4-2,16.1L325,302.9C316.7,307.7,304.2,308.2,297.1,304Z" transform="translate(-175.4 -95.2)"/><path class="cls-13" d="M297.1,304l-94.2-54.3c-7.1-4.1-6.2-11.4,2-16.1l90.2-52.1c8.2-4.7,20.7-5.3,27.9-1.1l94.1,54.3c7.2,4.2,6.3,11.4-2,16.1L325,302.9C316.7,307.7,304.2,308.2,297.1,304Z" transform="translate(-175.4 -95.2)"/><path class="cls-14" d="M299.6,292l-75.9-43.8c-5.7-3.3-5-9.1,1.7-12.9l72.6-42c6.6-3.8,16.7-4.2,22.5-.9l75.8,43.8c5.8,3.3,5.1,9.1-1.6,13l-72.6,41.9C315.4,294.9,305.4,295.4,299.6,292Z" transform="translate(-175.4 -95.2)"/><path class="cls-15" d="M225.4,240.9,298,199c6.6-3.8,16.7-4.3,22.5-.9l75.8,43.8a8.6,8.6,0,0,1,3.1,2.8c1.7-3.1.7-6.3-3.1-8.5l-75.8-43.8c-5.8-3.3-15.9-2.9-22.5.9l-72.6,42c-5.1,2.8-6.7,6.9-4.7,10.1A11.4,11.4,0,0,1,225.4,240.9Z" transform="translate(-175.4 -95.2)"/><path class="cls-16" d="M300.2,304l-94.1-54.3c-7.2-4.1-8.9-10.2,2-16.1l90.1-52.1a33.7,33.7,0,0,1,14.1-3.9,33.5,33.5,0,0,0-17.2,3.9l-90.2,52.1c-8.2,4.7-9.1,12-2,16.1L297.1,304c3.6,2.1,8.6,3,13.8,2.8A23.9,23.9,0,0,1,300.2,304Z" transform="translate(-175.4 -95.2)"/><path class="cls-17" d="M415.1,258.7l-90.1,52c-8.3,4.8-20.8,5.3-27.9,1.2l-94.2-54.4c-3.4-1.9-5-4.6-4.8-7.4h0v3.8h0c-.2,2.8,1.4,5.5,4.8,7.5l94.2,54.3c7.1,4.2,19.6,3.6,27.9-1.1l90.1-52.1c4.8-2.7,7.1-6.3,6.8-9.6v-3.8C422.2,252.4,419.9,255.9,415.1,258.7Z" transform="translate(-175.4 -95.2)"/><path class="cls-18" d="M398.8,253.6c1,.6,1,1.5,0,2.1a4,4,0,0,1-3.7,0c-1.1-.6-1.1-1.5,0-2.1A4,4,0,0,1,398.8,253.6Z" transform="translate(-175.4 -95.2)"/><path class="cls-18" d="M404.6,250.2a1.2,1.2,0,0,1,0,2.2,4.2,4.2,0,0,1-3.8,0,1.2,1.2,0,0,1,0-2.2A4.2,4.2,0,0,1,404.6,250.2Z" transform="translate(-175.4 -95.2)"/><path class="cls-18" d="M410.4,246.9c1,.6,1,1.5,0,2.1a4.2,4.2,0,0,1-3.8,0c-1-.6-1-1.5,0-2.1A4.2,4.2,0,0,1,410.4,246.9Z" transform="translate(-175.4 -95.2)"/><path class="cls-19" d="M301.8,281.4l-59.5-34.3c-4.5-2.6-3.9-7.2,1.3-10.2l57-32.9c5.2-3,13.1-3.3,17.6-.7l59.5,34.3c4.5,2.6,4,7.2-1.3,10.2l-56.9,32.9C314.3,283.7,306.4,284,301.8,281.4Z" transform="translate(-175.4 -95.2)"/><path class="cls-20" d="M421.9,242.2V192.1l-78,.4L323,180.4c-7.2-4.2-19.7-3.6-27.9,1.1l-19.5,11.3-77.5.3v49.1h0c-.2,2.8,1.4,5.5,4.8,7.5L297.1,304c7.1,4.2,19.6,3.7,27.9-1.1l90.1-52.1c4.3-2.4,6.6-5.6,6.8-8.6Z" transform="translate(-175.4 -95.2)"/><path class="cls-10" d="M421.9,192.1V174.6H376.6l-53.6-31c-7.2-4.1-19.7-3.6-27.9,1.2l-51.6,29.8H198.1v18.5h0c-.2,2.8,1.4,5.5,4.8,7.5L297.1,255c7.1,4.1,19.6,3.6,27.9-1.2l90.1-52C419.9,199,422.2,195.4,421.9,192.1Z" transform="translate(-175.4 -95.2)"/><path class="cls-21" d="M421.9,192.1V174.6H376.6l-53.6-31c-7.2-4.1-19.7-3.6-27.9,1.2l-51.6,29.8H198.1v18.5h0c-.2,2.8,1.4,5.5,4.8,7.5L297.1,255c7.1,4.1,19.6,3.6,27.9-1.2l90.1-52C419.9,199,422.2,195.4,421.9,192.1Z" transform="translate(-175.4 -95.2)"/><path class="cls-22" d="M323,143.6a25.5,25.5,0,0,0-13-2.8V257.7a31.6,31.6,0,0,0,15-3.9l90.1-52c4.8-2.8,7.1-6.4,6.8-9.7V174.6H376.6Z" transform="translate(-175.4 -95.2)"/><path class="cls-10" d="M297.1,236.4,202.9,182c-7.1-4.1-6.2-11.3,2-16.1l90.2-52c8.2-4.8,20.7-5.3,27.9-1.2l94.1,54.4c7.2,4.1,6.3,11.3-2,16.1l-90.1,52C316.7,240,304.2,240.5,297.1,236.4Z" transform="translate(-175.4 -95.2)"/><path class="cls-23" d="M297.1,236.4,202.9,182c-7.1-4.1-6.2-11.3,2-16.1l90.2-52c8.2-4.8,20.7-5.3,27.9-1.2l94.1,54.4c7.2,4.1,6.3,11.3-2,16.1l-90.1,52C316.7,240,304.2,240.5,297.1,236.4Z" transform="translate(-175.4 -95.2)"/><path class="cls-24" d="M300.2,236.4,206.1,182c-7.2-4.1-8.9-10.2,2-16.1l90.1-52a31,31,0,0,1,14.1-3.9,31.6,31.6,0,0,0-17.2,3.9l-90.2,52c-8.2,4.8-9.1,12-2,16.1l94.2,54.4c3.6,2.1,8.6,3,13.8,2.7A25.2,25.2,0,0,1,300.2,236.4Z" transform="translate(-175.4 -95.2)"/><path class="cls-25" d="M415.1,191,325,243.1c-8.3,4.7-20.8,5.3-27.9,1.1l-94.2-54.3c-3.4-2-5-4.7-4.8-7.5h0v3.8h0c-.2,2.8,1.4,5.5,4.8,7.5l94.2,54.4c7.1,4.1,19.6,3.6,27.9-1.2l90.1-52c4.8-2.8,7.1-6.3,6.8-9.6v-3.9C422.2,184.7,419.9,188.3,415.1,191Z" transform="translate(-175.4 -95.2)"/><path class="cls-26" d="M302.5,178.5c2,1.1,2,2.9,0,4.1a7.8,7.8,0,0,1-7,0c-2-1.2-2-3,0-4.1A7.8,7.8,0,0,1,302.5,178.5Z" transform="translate(-175.4 -95.2)"/><path class="cls-27" d="M313.6,172.1c1.9,1.1,1.9,3,0,4.1a8,8,0,0,1-7.1,0c-2-1.1-2-3,0-4.1A8,8,0,0,1,313.6,172.1Z" transform="translate(-175.4 -95.2)"/><path class="cls-14" d="M324.6,165.8c1.9,1.1,1.9,2.9,0,4a7.5,7.5,0,0,1-7.1,0c-1.9-1.1-1.9-2.9,0-4A7.5,7.5,0,0,1,324.6,165.8Z" transform="translate(-175.4 -95.2)"/><path class="cls-19" d="M309.4,223a19.4,19.4,0,0,1-9.3-2.1l-69.6-40.2c-2.5-1.5-3.9-3.5-3.9-5.8s1.9-5.4,5.4-7.3l66.6-38.5c6.3-3.7,15.9-4,21.4-.9l69.6,40.2c2.5,1.5,3.9,3.5,3.9,5.8s-2,5.4-5.4,7.4L321.4,220A24.3,24.3,0,0,1,309.4,223Zm-8.6-3.3c5.1,2.9,14,2.5,19.9-.9l66.7-38.5c3-1.7,4.7-3.9,4.7-6.1s-1.2-3.4-3.2-4.6l-69.7-40.2c-5-2.9-14-2.5-19.9.9l-66.6,38.5c-3,1.7-4.7,3.9-4.7,6.1s1.1,3.4,3.2,4.6Z" transform="translate(-175.4 -95.2)"/><path class="cls-2" d="M309,250.4a20.5,20.5,0,0,1-10.2-2.3L179.5,179.2c-2.6-1.5-4.1-3.7-4.1-6s2.1-5.7,5.8-7.8L297.1,98.5c6.9-4,17.5-4.4,23.5-1l119.3,68.9c2.6,1.5,4.1,3.7,4.1,6s-2.1,5.7-5.8,7.8L322.3,247.1A27.3,27.3,0,0,1,309,250.4Zm1.4-154.8a26.8,26.8,0,0,0-13.1,3.3L181.4,165.8c-3.5,2-5.6,4.7-5.6,7.4s1.4,4.2,4,5.6L299,247.7c5.9,3.4,16.2,3,23-1l116-66.9c3.5-2,5.5-4.7,5.5-7.4s-1.3-4.2-3.9-5.6L320.4,97.9A21.1,21.1,0,0,0,310.4,95.6Z" transform="translate(-175.4 -95.2)"/><circle class="cls-28" cx="104.8" cy="13.3" r="9"/><path class="cls-2" d="M282.7,108.5a2.6,2.6,0,0,1-2.5,2.6,2.6,2.6,0,1,1,0-5.2A2.6,2.6,0,0,1,282.7,108.5Z" transform="translate(-175.4 -95.2)"/><circle class="cls-29" cx="14" cy="65.8" r="9"/><circle class="cls-2" cx="14" cy="65.8" r="2.6"/><circle class="cls-30" cx="386.4" cy="209.8" r="9" transform="translate(-226.3 68.7) rotate(-22.5)"/><path class="cls-2" d="M389,209.8a2.6,2.6,0,0,1-5.2,0,2.6,2.6,0,0,1,5.2,0Z" transform="translate(-175.4 -95.2)"/><circle class="cls-31" cx="227.7" cy="104.8" r="9"/><circle class="cls-2" cx="227.7" cy="104.8" r="2.6"/><circle class="cls-32" cx="244.4" cy="95.1" r="9"/><path class="cls-2" d="M422.4,190.3a2.6,2.6,0,1,1-2.6-2.6A2.6,2.6,0,0,1,422.4,190.3Z" transform="translate(-175.4 -95.2)"/></g></g></svg>