<svg xmlns="http://www.w3.org/2000/svg" viewBox="0 0 48 32"><defs><style>.cls-1{fill:#fff;}.cls-2{fill:#2b6eb6;}</style></defs><title>americanexpress-color-large</title><g id="Layer_2" data-name="Layer 2"><g id="Payment-Methods"><g id="americanexpress-color-large"><rect class="cls-1" width="48" height="32" rx="4"/><path class="cls-2" d="M8.9,17.9v8.2h8.2l.9-1.3.8,1.3h5.1V24.2h.6A3.9,3.9,0,0,0,26,24v2.1h3.4V24.6l1.1,1.5H46.2a4.1,4.1,0,0,0,1.8-.5V29a4.1,4.1,0,0,1-3.9,3H4a4,4,0,0,1-4-4V15.4H2.3l.5-1.2H3.9l.4,1.2H22.7V13.9l1.1,1.5h4.8v-.7a4.3,4.3,0,0,0,2.5.7h2.8l.5-1.2h1.1l.5,1.2h4.9V13.8l1,1.6h3.4V7.2H41.7V8.9L40.6,7.2H37.5V9.3l-1-2.1H31.1a4,4,0,0,0-2.5.9V7.2H11L10.4,9,9.8,7.2h-4V9.3L4.9,7.2H1.6L0,11V4A4,4,0,0,1,4,0H44.1A4.1,4.1,0,0,1,48,3V17.9H18.9L18,19.1l-.8-1.2Z"/><path class="cls-2" d="M14.7,20.4V19.2H10.2v5.6h4.5V23.6H11.5v-1h3.1V21.4H11.5v-1ZM18.8,22l2.3-2.8H19.4L18,20.9l-1.4-1.7H14.9L17.2,22,15,24.8h1.6L18,23l1.4,1.8h1.7Zm5.6-2.8H21.3v5.6h1.4V22.9h1.7a1.6,1.6,0,0,0,1.4-.5,1.7,1.7,0,0,0,.6-1.4,1.6,1.6,0,0,0-.6-1.3,1.5,1.5,0,0,0-1.4-.5Zm-.1,2.6H22.7V20.4h1.6a.7.7,0,0,1,.7.7.7.7,0,0,1-.7.6Zm6.3,1a1.8,1.8,0,1,0-.4-3.6H27.1v5.6h1.4v-2h.6l1.7,2h1.7Zm-.5-1.1H28.5V20.4h1.6c.1-.1.3,0,.5.1a.8.8,0,0,1,.2.5c0,.2-.1.3-.2.5h-.5Zm7.3-1.3V19.2H32.8v5.6h4.6V23.6H34.2v-1h3.1V21.4H34.2v-1Zm3.7,1H39.8a.4.4,0,0,1-.5-.2.6.6,0,0,1,0-.6l.5-.2h2.5l.5-1.2H39.9a1.9,1.9,0,0,0-1.4.5,1.6,1.6,0,0,0-.6,1.3,1.8,1.8,0,0,0,.5,1.2,1.5,1.5,0,0,0,1.3.4H41a.5.5,0,0,1,.5.3.5.5,0,0,1,0,.5.4.4,0,0,1-.5.2H38.1v1.2H41a1.8,1.8,0,0,0,1.4-.4,2.4,2.4,0,0,0,.5-1.4,1.7,1.7,0,0,0-.5-1.2,1.5,1.5,0,0,0-1.3-.4Zm3.9-1h2.5l.5-1.2H45.1a1.8,1.8,0,0,0-1.4.4,2,2,0,0,0-.6,1.4,1.8,1.8,0,0,0,.5,1.2,1.6,1.6,0,0,0,1.3.4h1.3l.5.2a.6.6,0,0,1,0,.6.4.4,0,0,1-.5.2H43.3v1.2h2.9A1.7,1.7,0,0,0,48,23.7V22.3a1.5,1.5,0,0,0-1.6-.9H45l-.5-.2a.6.6,0,0,1,0-.6.4.4,0,0,1,.5-.2Z"/><path class="cls-2" d="M4.2,8.5H2.5L0,14.1H1.5L2,13H4.6l.5,1.2H6.7ZM2.4,11.9l.5-1.4.4-.8.4.8.5,1.4Zm9.3-3.4-1.1,3.3-.2.6h0l-.2-.6L9.1,8.5H6.9v5.6H8.2V9.6h0l.3.8,1.3,3.7H11l1.3-3.7.3-.8h0v4.5h1.3V8.5Zm7.8,1.2V8.5H15v5.6h4.5V12.9H16.3v-1h3.1V10.7H16.3v-1Zm4.4,2.4a1.8,1.8,0,0,0,1.6-1.8,2.5,2.5,0,0,0-.6-1.4,1.8,1.8,0,0,0-1.4-.4H20.4v5.6h1.4v-2h.6l1.7,2h1.7Zm-.5-1.2H21.8V9.7h1.6a.6.6,0,0,1,.5.2.5.5,0,0,1,.2.4.8.8,0,0,1-.2.5c-.2.1-.4.2-.5.1Zm2.7-2.4v5.6h1.4V8.5Zm5,1.2h1.5V8.5H31a2.6,2.6,0,0,0-2,.8,2.4,2.4,0,0,0-.7,2h0a2.6,2.6,0,0,0,.7,2,2.3,2.3,0,0,0,1.9.7H31l.5-1.2h-.4a1.2,1.2,0,0,1-1.1-.4,1.5,1.5,0,0,1-.4-1.1h0a1.5,1.5,0,0,1,.4-1.1,1.6,1.6,0,0,1,1.1-.5Zm4.8-1.2H34.1l-2.4,5.6h1.4l.5-1.1h2.7l.5,1.2h1.5ZM34,11.9l.6-1.4.3-.8h0l.4.8.5,1.4Zm8.6-3.4v3.7h0l-.4-.7-2-3H38.6v5.7h1.3V10.3h0l.4.7,2,3.1H44V8.5Z"/></g></g></g></svg>