<svg xmlns="http://www.w3.org/2000/svg" viewBox="0 0 48 32"><defs><style>.cls-1{fill:#e0e3e8;}.cls-2{fill:#f89521;}.cls-3{fill:#fff;}</style></defs><title>bitcoin-light-large</title><g id="Layer_2" data-name="Layer 2"><g id="Payment-Methods"><g id="bitcoin-light-large"><rect class="cls-1" width="48" height="32" rx="4"/><path class="cls-2" d="M34.3,18.6a10.6,10.6,0,1,1-20.6-5.2A10.7,10.7,0,0,1,26.6,5.7a10.9,10.9,0,0,1,6.5,4.8,10.9,10.9,0,0,1,1.2,8.1Z"/><path class="cls-3" d="M28.7,14.5c.2-1.4-.9-2.2-2.4-2.7l.5-1.9-1.1-.3-.5,1.9-.9-.2.4-1.9-1.1-.3L23.1,11l-.8-.2h0l-1.6-.4-.3,1.3.9.2c.3,0,.5.3.5.7l-.5,2.1h0l-.8,3c0,.1-.1.2-.2.3H20l-.9-.2-.5,1.3,1.5.4.8.2-.5,2,1.2.3.5-2,.9.3-.5,1.9,1.2.3.4-2c2,.4,3.5.3,4.2-1.5a2.5,2.5,0,0,0,.1-1.7,2.8,2.8,0,0,0-1.2-1.2,1.8,1.8,0,0,0,1.5-1.7ZM26,18.2c-.4,1.5-2.8.7-3.6.5l.7-2.6C23.8,16.3,26.4,16.7,26,18.2Zm.4-3.7c-.4,1.3-2.4.6-3,.4l.6-2.3c.6.2,2.7.5,2.4,1.9Z"/></g></g></g></svg>