<svg xmlns="http://www.w3.org/2000/svg" viewBox="0 0 24 16"><defs><style>.cls-1{fill:#e0e3e8;}.cls-2{fill:#211e1f;}.cls-3{fill:#0d7abe;}.cls-4{fill:#fff;}</style></defs><title>dinnerclub-light</title><g id="Layer_2" data-name="Layer 2"><g id="Payment-Methods"><g id="dinnerclub-light"><rect class="cls-1" width="24" height="16" rx="2"/><path class="cls-2" d="M5.2,11.5c1.2,0,1.4-.8,1.4-1.1a1.8,1.8,0,0,0-.4-.9,1,1,0,0,0-.9-.2h-1c.1,0,.3,0,.3.3v1.6c0,.2-.1.2-.3.2h.9ZM4.9,9.4h.3a.9.9,0,0,1,.7.3.9.9,0,0,1,.3.7,1.4,1.4,0,0,1-.2.7,1.1,1.1,0,0,1-.7.3c-.2,0-.4,0-.4-.3Z"/><path class="cls-2" d="M6.7,11.4h.5V10.1H6.8l.2.2v.9Z"/><path class="cls-2" d="M7,9.5h.2L7,9.2l-.2.2Z"/><path class="cls-2" d="M9.1,11.4H8.8v-.8c0-.3-.1-.5-.3-.5s-.4.1-.6.3v-.2H7.5l.2.2v.9h.2v-1l.4-.2a.3.3,0,0,1,.3.3v.8h.5Z"/><path class="cls-2" d="M9.7,11.6a.7.7,0,0,0,.6-.4h0l-.4.2a.5.5,0,0,1-.5-.5v-.2h.9a.6.6,0,0,0-.1-.4L9.8,10a.7.7,0,0,0-.7.8.7.7,0,0,0,.1.5c.2.2.3.3.5.3Zm0-1.5h.2v.2H9.4c0-.2.1-.4.3-.4Z"/><path class="cls-2" d="M11.2,11.5h-.4v-.7c.1-.2.1-.3.3-.3h.3s.1-.1,0-.1,0-.2-.1-.2-.3.2-.4.3h0V10h0l-.4.2h0a.2.2,0,0,1,.2.2v.9h.5Z"/><path class="cls-2" d="M12,11.5a.4.4,0,0,1-.4-.4h-.1v.3l.4.2a.6.6,0,0,0,.6-.5c0-.5-.8-.4-.8-.8s.2-.2.3-.2h.2v.2h.1v-.3h-.7l-.2.3c0,.6.8.4.8.8A.3.3,0,0,1,12,11.5Z"/><path class="cls-2" d="M15.4,11.4v-.5h-.1a.6.6,0,0,1-.6.6,1.2,1.2,0,0,1-.8-.4,1,1,0,0,1-.2-.7c0-.3,0-.6.2-.7l.7-.4.5.2a.5.5,0,0,1,.2.4h.1V9.4h-.8a1,1,0,0,0-1.2,1.1,1,1,0,0,0,.3.9,1.4,1.4,0,0,0,.9.3Z"/><path class="cls-2" d="M16.3,11.5h-.2V9.1h0l-.4.2h0c.2,0,.2,0,.2.2v1.8c0,.1,0,.1-.1.1h.5Z"/><path class="cls-2" d="M16.5,10.4v.8a.4.4,0,0,0,.1.3h.3a.5.5,0,0,0,.5-.3v.3h.3V10.1h-.5c.1,0,.3.1.3.2v.8l-.4.2c-.3,0-.3-.2-.3-.3v-.9h-.4A.4.4,0,0,1,16.5,10.4Z"/><path class="cls-2" d="M18.1,9.5v2h.6a.7.7,0,0,0,.7-.8.4.4,0,0,0-.1-.5l-.5-.2-.4.2h0V9.1h-.1l-.4.2h0C18.1,9.3,18.1,9.3,18.1,9.5Zm.3.9c0-.1.1-.2.3-.2a.7.7,0,0,1,.5.7c0,.2-.2.6-.5.6s-.3-.2-.3-.4Z"/><path class="cls-2" d="M4.6,12.2H4.4v.9h.3v-.9H4.6Z"/><path class="cls-2" d="M6.1,12.2H6v.7l-.8-.9H5.1v.8c0,.1,0,.2-.2.2h.5c-.1,0-.2,0-.2-.2v-.7l.9,1h.1v-1c0-.2.1-.2.2-.2H6.1Z"/><path class="cls-2" d="M7.6,12.2H6.5v.2H7v.9h.3v-.9h.3Z"/><path class="cls-2" d="M8.6,13.2h0c0,.2-.1.2-.3.2H8.1v-.4h.4v-.4H8.4c0,.1,0,.2-.1.2H8.1v-.5h.2c.2,0,.2.1.2.2H7.8v.9h.9v-.3H8.6Z"/><path class="cls-2" d="M9.8,13.3l-.3-.4c.2-.1.3-.2.3-.4s-.2-.3-.5-.3H8.9v.9h.3v-.4h.1a2.1,2.1,0,0,0,.4.6h.1Zm-.3-.7c0,.2-.1.2-.3.2h0v-.5h.2C9.5,12.4,9.5,12.5,9.5,12.6Z"/><path class="cls-2" d="M11.5,12.3h-.3v.7l-.8-.9h-.2v.8c0,.1,0,.2-.2.2h.5c-.1,0-.2,0-.2-.2v-.7l.9,1h.1v-1c0-.2.1-.2.2-.2Z"/><path class="cls-2" d="M12.6,13.3a.1.1,0,0,1-.1-.1l-.3-1H12c0,.1,0,.2-.1.2l-.2.8c0,.1-.1.2-.2.1h.3v-.2h.4v.2h.3Zm-.5-.4h-.3l.2-.5Z"/><path class="cls-2" d="M13.7,12.2H12.6v.2h.5v.9h.3v-.9h.3Z"/><path class="cls-2" d="M14.1,12.2H14v.9h.3v-.9h-.2Z"/><path class="cls-2" d="M15.1,12.2l-.5.2a.8.8,0,0,0-.2.5h0l.2.4.5.2.5-.2a.8.8,0,0,0,.2-.5.5.5,0,0,0-.2-.4A.6.6,0,0,0,15.1,12.2Zm0,.1c.3,0,.4.3.4.6s0,.5-.4.5-.4-.3-.4-.6S14.8,12.3,15.1,12.3Z"/><path class="cls-2" d="M17.3,12.3h-.4v.7l-.8-.9h-.2v.8c0,.1,0,.2-.1.2h.5c-.2,0-.2,0-.2-.2v-.7l.9,1h.1v-1c0-.2,0-.2.1-.2h.1Z"/><path class="cls-2" d="M18.4,13.3a.1.1,0,0,0-.1-.1l-.3-1h-.2v.2l-.3.8c0,.1-.1.2-.2.1h.3v-.2H18v.2h.3Zm-.5-.4h-.3l.2-.5Z"/><path class="cls-2" d="M19.5,13.2h-.6v-.9h-.3v.9h.9v-.3Z"/><path class="cls-2" d="M19.5,12.4h-.1v.2h.1Z"/><path class="cls-2" d="M19.5,12.2h-.1v.2a.2.2,0,0,0,.2.2h.2v-.2Zm0,.3h-.1c0-.1,0-.2.1-.2a.2.2,0,0,1,.2.2Z"/><path class="cls-3" d="M12.7,8.8A3.4,3.4,0,0,0,16,5.7a3.3,3.3,0,0,0-1-2.3,3.3,3.3,0,0,0-2.3-.9H11.2A3.1,3.1,0,0,0,8,5.7,3.2,3.2,0,0,0,9,7.9a3.1,3.1,0,0,0,2.2.9Z"/><path class="cls-4" d="M11.2,2.8A2.8,2.8,0,0,0,8.3,5.6a2.9,2.9,0,0,0,5.8,0,2.8,2.8,0,0,0-2.9-2.8ZM9.4,5.6h0a1.9,1.9,0,0,1,1.2-1.7V7.3A1.7,1.7,0,0,1,9.4,5.6Zm2.5,1.7h0V3.9A1.8,1.8,0,0,1,13,5.6a1.7,1.7,0,0,1-1.1,1.7Z"/><path class="cls-3" d="M12.7,8.8A3.4,3.4,0,0,0,16,5.7a3.3,3.3,0,0,0-1-2.3,3.3,3.3,0,0,0-2.3-.9H11.2A3.1,3.1,0,0,0,8,5.7,3.2,3.2,0,0,0,9,7.9a3.1,3.1,0,0,0,2.2.9Z"/><path class="cls-4" d="M11.2,2.8A2.8,2.8,0,0,0,8.3,5.6a2.9,2.9,0,0,0,5.8,0,2.8,2.8,0,0,0-2.9-2.8ZM9.4,5.6h0a1.9,1.9,0,0,1,1.2-1.7V7.3A1.7,1.7,0,0,1,9.4,5.6Zm2.5,1.7h0V3.9A1.8,1.8,0,0,1,13,5.6a1.7,1.7,0,0,1-1.1,1.7Z"/></g></g></g></svg>