<svg xmlns="http://www.w3.org/2000/svg" viewBox="0 0 48 32"><defs><style>.cls-1{fill:#e0e3e8;}.cls-2{fill:#ee7725;}.cls-3{fill:#231f20;}</style></defs><title>discover-light-large</title><g id="Layer_2" data-name="Layer 2"><g id="Payment-Methods"><g id="discover-light-large"><path class="cls-1" d="M48,4V28a4,4,0,0,1-4,4H4l-1.4-.2A4.1,4.1,0,0,1,0,28V4A4,4,0,0,1,4,0H44A4,4,0,0,1,48,4Z"/><path class="cls-2" d="M48,16V28a4,4,0,0,1-4.1,4H3.4L2,31.8q5.1-.7,9.9-1.8l2.5-.6c13.4-3,25-7.5,31.6-11.9Z"/><path class="cls-3" d="M5.8,10.6H4V17H5.8a3.7,3.7,0,0,0,2.3-.7A3.1,3.1,0,0,0,9,12.6a3.2,3.2,0,0,0-3.2-2Zm1.5,4.8a1.9,1.9,0,0,1-1.7.6H5.3V11.7h.3a2.6,2.6,0,0,1,1.7.5A2,2,0,0,1,8,13.8a2,2,0,0,1-.7,1.6Z"/><rect class="cls-3" x="9.8" y="10.6" width="1.3" height="6.42"/><path class="cls-3" d="M14.2,13.1c-.8-.3-1-.5-1-.8a.8.8,0,0,1,.9-.7,1.2,1.2,0,0,1,1,.5l.7-.9a3.4,3.4,0,0,0-1.9-.7,2.4,2.4,0,0,0-1.4.5,1.8,1.8,0,0,0-.6,1.4c0,.9.4,1.3,1.5,1.7l.9.4a.8.8,0,0,1,.4.7.7.7,0,0,1-.3.6,1.1,1.1,0,0,1-.7.3,1.7,1.7,0,0,1-1.4-.9l-.8.8a2.5,2.5,0,0,0,2.3,1.2,2.5,2.5,0,0,0,1.6-.6,2,2,0,0,0,.6-1.5C16,14.1,15.6,13.6,14.2,13.1Z"/><path class="cls-3" d="M16.4,13.8a3.5,3.5,0,0,0,1,2.4,3.1,3.1,0,0,0,2.4,1,3.2,3.2,0,0,0,1.6-.4V15.3a2.5,2.5,0,0,1-1.5.8,2.4,2.4,0,0,1-1.6-.7,2.3,2.3,0,0,1-.6-1.6,2.2,2.2,0,0,1,.6-1.5,2.1,2.1,0,0,1,1.5-.7,2.4,2.4,0,0,1,1.6.7V10.9a2.9,2.9,0,0,0-1.6-.4,3.6,3.6,0,0,0-2.4.9,3.7,3.7,0,0,0-1,2.4Z"/><polygon class="cls-3" points="31.3 14.9 29.6 10.6 28.2 10.6 30.9 17.2 31.6 17.2 34.4 10.6 33 10.6 31.3 14.9"/><polygon class="cls-3" points="35 17.1 38.5 17.1 38.5 16 36.2 16 36.2 14.2 38.4 14.2 38.4 13.1 36.2 13.1 36.2 11.7 38.5 11.7 38.5 10.6 35 10.6 35 17.1"/><path class="cls-3" d="M42,14.4a1.9,1.9,0,0,0,1.5-1.9c0-1.2-.9-1.9-2.3-1.9H39.3V17h1.3V14.5h.1L42.5,17H44Zm-1-.8h-.4v-2H41c.8,0,1.2.4,1.2,1S41.7,13.6,41,13.6Z"/><path class="cls-2" d="M28.6,13.8a3.4,3.4,0,1,1-3.4-3.4,3.5,3.5,0,0,1,3.4,3.4Z"/><path class="cls-3" d="M44,10.9h.1c0-.2-.1-.2-.2-.2h-.2v.6h.1v-.3l.2.3h.2Zm-.1-.1h0a.1.1,0,0,1,.1.1Z"/><path class="cls-3" d="M43.9,10.4a.5.5,0,0,0-.4.5.5.5,0,0,0,.5.5.6.6,0,0,0,.5-.5.5.5,0,0,0-.2-.4Zm.3.8h-.5a.4.4,0,0,1-.1-.3c0-.2.1-.4.3-.4a.4.4,0,0,1,.4.4.4.4,0,0,1-.1.3Z"/></g></g></g></svg>