<svg xmlns="http://www.w3.org/2000/svg" viewBox="0 0 48 32"><defs><style>.cls-1{fill:#e0e3e8;}.cls-2{fill:#fff;}.cls-3{fill:#41a648;}.cls-4{fill:#0f68b0;}.cls-5{fill:#be2335;}</style></defs><title>jcb-light-large</title><g id="Layer_2" data-name="Layer 2"><g id="Payment-Methods"><g id="jcb-light-large"><rect class="cls-1" width="48" height="32" rx="4"/><rect class="cls-2" x="8" y="10.4" width="9.9" height="13.54"/><rect class="cls-2" x="19.1" y="10.4" width="9.9" height="11.9"/><rect class="cls-2" x="30.1" y="10.1" width="9.9" height="13.02"/><path class="cls-3" d="M32.1,18.6h2.6a1,1,0,0,0,0-2H32.1Z"/><path class="cls-3" d="M34.1,4a4,4,0,0,0-4,4v4.1h6.1c1.3.1,2.2.8,2.2,1.9a1.8,1.8,0,0,1-1.8,1.8h0c1.3.1,2.3.8,2.3,2s-1.1,2-2.6,2H30.1V28H36a4,4,0,0,0,4-4V4Z"/><path class="cls-3" d="M35.2,14.3a.9.9,0,0,0-.8-1H32.1v1.9h2.1c.1.1.1.1.2,0a.8.8,0,0,0,.8-.9Z"/><path class="cls-4" d="M12,4A4,4,0,0,0,8,8v9.9a10,10,0,0,0,3.5.9,2.1,2.1,0,0,0,1.5-.5,2.2,2.2,0,0,0,.6-1.5V12.1H17v4.7c0,1.8-1.1,3.2-4.9,3.2A14,14,0,0,1,8,19.5V28h5.9a4,4,0,0,0,4-4V4Z"/><path class="cls-5" d="M23.1,4a4,4,0,0,0-4,4v5.2c1-.8,2.8-1.4,5.6-1.2a16.5,16.5,0,0,1,3.1.4v1.7a6.1,6.1,0,0,0-3-.8c-2.1-.2-3.4.8-3.4,2.7s1.3,2.9,3.4,2.8a7.5,7.5,0,0,0,3-.9v1.7a16.5,16.5,0,0,1-3.1.4c-2.8.2-4.6-.4-5.6-1.2V28H25a4,4,0,0,0,4-4V4Z"/></g></g></g></svg>