<svg xmlns="http://www.w3.org/2000/svg" viewBox="0 0 48 32"><defs><style>.cls-1{fill:#e0e3e8;}.cls-2{opacity:0;}.cls-3{fill:#fff;}.cls-4{fill:#7373b5;}.cls-5{fill:#ec2227;}.cls-6{fill:#15a1db;}</style></defs><title>maestro-light-large</title><g id="Layer_2" data-name="Layer 2"><g id="Payment-Methods"><g id="maestro-light-large"><rect class="cls-1" width="48" height="32" rx="4"/><g class="cls-2"><rect class="cls-3" x="4.6" y="3.2" width="38.7" height="25.6"/></g><rect class="cls-4" x="18.9" y="7.7" width="10.2" height="16.68"/><path class="cls-5" d="M20,16a10.7,10.7,0,0,1,4-8.3A10.6,10.6,0,0,0,9.6,8.8a10.7,10.7,0,0,0,0,14.4A10.6,10.6,0,0,0,24,24.3,10.7,10.7,0,0,1,20,16Z"/><path class="cls-6" d="M40.1,22.6v-.4h0v.4Zm.7,0v-.4h-.1v0h-.1v.4h0v-.3l.2.2h0l.2-.2v.3Z"/><path class="cls-6" d="M41.2,16A10.6,10.6,0,0,1,24,24.3,10.6,10.6,0,0,0,25.8,9.4,9.8,9.8,0,0,0,24,7.7,10.6,10.6,0,0,1,41.2,16Z"/></g></g></g></svg>