<svg xmlns="http://www.w3.org/2000/svg" viewBox="0 0 48 32"><defs><style>.cls-1{fill:#e0e3e8;}.cls-2{fill:#253e80;}.cls-3{fill:#1d9bd7;}.cls-4{fill:#242f65;}</style></defs><title>paypal-light-large</title><g id="Layer_2" data-name="Layer 2"><g id="Payment-Methods"><g id="paypal-light-large"><rect class="cls-1" width="48" height="32" rx="4"/><path class="cls-2" d="M20.3,25.3l.4-2.2H16.2L18.8,6.9c0-.1,0-.1.1-.2h6.3c2.1,0,3.5.4,4.2,1.3a2.1,2.1,0,0,1,.7,1.2,5.4,5.4,0,0,1,0,1.8v.5l.4.2.7.5a3.1,3.1,0,0,1,.6,1.3,12.8,12.8,0,0,1-.1,1.9,9,9,0,0,1-.8,2.1,4.9,4.9,0,0,1-1.2,1.3,5.6,5.6,0,0,1-1.6.7l-2,.3h-.5a1.7,1.7,0,0,0-1,.3,1.9,1.9,0,0,0-.5.9v.2l-.6,3.9H20.3Z"/><path class="cls-3" d="M30.8,11.1v.3c-.8,4.2-3.6,5.7-7.2,5.7H21.7a.9.9,0,0,0-.9.8l-.9,5.9-.3,1.7a.4.4,0,0,0,.1.3l.4.2h3.2a.8.8,0,0,0,.8-.7h0l.6-3.9v-.2a.8.8,0,0,1,.8-.7H26c3.1,0,5.6-1.2,6.3-5a4.5,4.5,0,0,0-.6-3.7,4.7,4.7,0,0,0-.9-.6Z"/><path class="cls-4" d="M29.9,10.7h-.8l-1.6-.2H22.3a.7.7,0,0,0-.4.6l-1,6.6v.2a.9.9,0,0,1,.9-.8h1.8c3.6,0,6.4-1.5,7.2-5.7v-.3l-.7-.3Z"/><path class="cls-2" d="M21.9,11.1a.7.7,0,0,1,.4-.6h5.2l1.6.2h1l.7.3A4.2,4.2,0,0,0,30,7.5C29,6.4,27.4,6,25.2,6H19a.9.9,0,0,0-.9.8L15.5,23.2a.8.8,0,0,0,.2.4l.4.2h3.8l1-6.1Z"/></g></g></g></svg>