<svg xmlns="http://www.w3.org/2000/svg" viewBox="0 0 48 32"><defs><style>.cls-1{fill:#2a2c6b;}.cls-2{fill:#fff;}</style></defs><title>visa-color large</title><g id="Layer_2" data-name="Layer 2"><g id="Payment-Methods"><g id="visa-color_large" data-name="visa-color large"><rect class="cls-1" width="48" height="32" rx="4"/><path class="cls-2" d="M23.9,11.4l-2,9.2H19.5l2-9.2Zm10,6,1.3-3.5.7,3.5Zm2.7,3.3h2.2l-1.9-9.3h-2a1,1,0,0,0-1,.7l-3.6,8.6h2.5l.5-1.4h3Zm-6.2-3C30.4,15.2,27,15,27,14s.3-.7,1-.8a5.1,5.1,0,0,1,2.4.4l.4-2a8.5,8.5,0,0,0-2.3-.4c-2.3,0-4,1.3-4,3.1s1.2,2.1,2.1,2.5,1.3.7,1.3,1.2-.8.9-1.5.9a5,5,0,0,1-2.4-.6l-.4,2a7.5,7.5,0,0,0,2.6.5c2.5,0,4.2-1.3,4.2-3.2m-9.9-6.2-3.9,9.2H14l-1.9-7.4c0-.3-.3-.6-.6-.8l-2.3-.8v-.2h4.1a1.2,1.2,0,0,1,1.1.9l1,5.3,2.5-6.2Z"/></g></g></g></svg>