<svg id="Layer_1" data-name="Layer 1" xmlns="http://www.w3.org/2000/svg" xmlns:xlink="http://www.w3.org/1999/xlink" viewBox="0 0 344.8 499.6"><defs><style>.cls-1{fill:#150c2a;}.cls-2{fill:url(#linear-gradient);}.cls-3{fill:url(#linear-gradient-2);}.cls-4{fill:url(#linear-gradient-3);}.cls-5{fill:#ffd0a4;}.cls-6{fill:url(#linear-gradient-4);}.cls-7{fill:#966039;}.cls-8{fill:#453131;}.cls-9{fill:url(#linear-gradient-5);}.cls-10{fill:url(#linear-gradient-6);}.cls-11{fill:url(#linear-gradient-7);}.cls-12{fill:url(#linear-gradient-8);}.cls-13{fill:url(#linear-gradient-9);}.cls-14{fill:url(#linear-gradient-10);}.cls-15{fill:url(#linear-gradient-11);}.cls-16{fill:#00cbfd;}.cls-17{fill:url(#linear-gradient-12);}.cls-18{fill:url(#linear-gradient-13);}.cls-19{fill:#ff4b5f;}.cls-20{fill:#ffbc00;}.cls-21{fill:url(#linear-gradient-14);}.cls-22{fill:url(#linear-gradient-15);}.cls-23{fill:url(#linear-gradient-16);}.cls-24{fill:url(#linear-gradient-17);}.cls-25{fill:url(#linear-gradient-18);}.cls-26{fill:url(#linear-gradient-19);}.cls-27{fill:url(#linear-gradient-20);}.cls-28{fill:url(#linear-gradient-21);}</style><linearGradient id="linear-gradient" x1="305.27" y1="175.67" x2="404.68" y2="175.67" gradientUnits="userSpaceOnUse"><stop offset="0" stop-color="#0041aa"/><stop offset="1" stop-color="#0076ff"/></linearGradient><linearGradient id="linear-gradient-2" x1="272.46" y1="343.59" x2="327.64" y2="343.59" gradientUnits="userSpaceOnUse"><stop offset="0" stop-color="#0076ff"/><stop offset="1" stop-color="#008bf1"/></linearGradient><linearGradient id="linear-gradient-3" x1="216.9" y1="360.4" x2="290.59" y2="360.4" xlink:href="#linear-gradient-2"/><linearGradient id="linear-gradient-4" x1="222.24" y1="197.31" x2="339.53" y2="197.31" xlink:href="#linear-gradient-2"/><linearGradient id="linear-gradient-5" x1="264.52" y1="124.08" x2="297.16" y2="124.08" xlink:href="#linear-gradient"/><linearGradient id="linear-gradient-6" x1="223.24" y1="232.55" x2="313.3" y2="232.55" xlink:href="#linear-gradient"/><linearGradient id="linear-gradient-7" x1="270.55" y1="260.1" x2="421.09" y2="260.1" xlink:href="#linear-gradient"/><linearGradient id="linear-gradient-8" x1="270.95" y1="256.55" x2="421.09" y2="256.55" gradientUnits="userSpaceOnUse"><stop offset="0" stop-color="#242424"/><stop offset="1" stop-color="#323232"/></linearGradient><linearGradient id="linear-gradient-9" x1="200.06" y1="250.89" x2="306.91" y2="250.89" gradientUnits="userSpaceOnUse"><stop offset="0" stop-color="#323232"/><stop offset="1" stop-color="#323232"/></linearGradient><linearGradient id="linear-gradient-10" x1="311.27" y1="251.52" x2="327.66" y2="251.52" gradientUnits="userSpaceOnUse"><stop offset="0" stop-color="#4b39a9"/><stop offset="1" stop-color="#662292"/></linearGradient><linearGradient id="linear-gradient-11" x1="322.27" y1="185.7" x2="427.66" y2="185.7" gradientUnits="userSpaceOnUse"><stop offset="0" stop-color="#005cff"/><stop offset="1" stop-color="#0076ff"/></linearGradient><linearGradient id="linear-gradient-12" x1="316.69" y1="230.94" x2="429.91" y2="230.94" xlink:href="#linear-gradient"/><linearGradient id="linear-gradient-13" x1="85.11" y1="77.72" x2="219.71" y2="77.72" gradientUnits="userSpaceOnUse"><stop offset="0" stop-color="#e9e9e9"/><stop offset="1" stop-color="#e9e9e9"/></linearGradient><linearGradient id="linear-gradient-14" x1="113.35" y1="75.88" x2="186.47" y2="75.88" xlink:href="#linear-gradient-9"/><linearGradient id="linear-gradient-15" x1="121.48" y1="78.96" x2="194.61" y2="78.96" gradientTransform="translate(126.1 -94.8) rotate(53.1)" xlink:href="#linear-gradient-8"/><linearGradient id="linear-gradient-16" x1="139.76" y1="89.68" x2="176.33" y2="89.68" gradientUnits="userSpaceOnUse"><stop offset="0" stop-color="#bbc7cc"/><stop offset="1" stop-color="#fff"/></linearGradient><linearGradient id="linear-gradient-17" x1="166.44" y1="63.36" x2="176.33" y2="63.36" xlink:href="#linear-gradient-16"/><linearGradient id="linear-gradient-18" x1="139.86" y1="78.61" x2="149.75" y2="78.61" xlink:href="#linear-gradient-16"/><linearGradient id="linear-gradient-19" x1="162.99" y1="54.07" x2="172.17" y2="54.07" xlink:href="#linear-gradient-16"/><linearGradient id="linear-gradient-20" x1="144.02" y1="64.76" x2="153.2" y2="64.76" xlink:href="#linear-gradient-16"/><linearGradient id="linear-gradient-21" x1="250.9" y1="86.75" x2="320.82" y2="86.75" xlink:href="#linear-gradient"/></defs><title>hacker-1</title><g id="hacker"><path class="cls-1" d="M249.4,446.4,243,457.3l-.9,11.8,11.1,19.4a3.4,3.4,0,0,1-.2,4.2h0c-7.3,7.1-13.7,7.8-22.2,1.7l-17.4-25.2,1.6-8.8,6.6-8.7L239.9,440Z" transform="translate(-85.1 0)"/><path class="cls-1" d="M300.7,438.7l-2.4,10.2,17.3,16.4a3.1,3.1,0,0,1-.8,5h0c-10.3,4.8-21.8,1.8-31.7-3.8l-13.5-7.4a6.1,6.1,0,0,1-2.3-8.4l7.5-12Z" transform="translate(-85.1 0)"/><path class="cls-1" d="M241.4,499.6c-3.6,0-7.2-1.5-11.2-4.3l-.3-.3-17.4-25.3a1.9,1.9,0,0,1-.2-.7l1.7-8.8a.9.9,0,0,1,.1-.5l6.6-8.6.3-.3,18.4-11.7a1.1,1.1,0,0,1,1.1,0l9.4,6.4a1.2,1.2,0,0,1,.4,1.4L244,457.6l-.8,11.3,10.9,19a4.6,4.6,0,0,1-.4,5.6C249.5,497.6,245.5,499.6,241.4,499.6Zm-9.9-5.9c7.9,5.6,13.7,5.1,20.7-1.7a2.4,2.4,0,0,0,.1-2.9h0l-11.1-19.4c-.1-.1-.1-.3-.1-.6l.9-11.8c0-.2.1-.3.1-.5l5.9-10-8.1-5.5-17.6,11.3-6.4,8.3-1.4,8.1Z" transform="translate(-85.1 0)"/><path class="cls-1" d="M303.7,473.8c-7.9,0-15.4-3.2-21.1-6.4L269.1,460a7.2,7.2,0,0,1-3.4-4.3,7.1,7.1,0,0,1,.7-5.5l7.6-12a.9.9,0,0,1,.8-.5h25.9a1.2,1.2,0,0,1,.8.4,1.3,1.3,0,0,1,.2.9l-2.2,9.6,16.8,15.9a3.9,3.9,0,0,1,1.2,3.7,4.3,4.3,0,0,1-2.3,3.1A28.1,28.1,0,0,1,303.7,473.8Zm-28.3-34-7.2,11.5a4.6,4.6,0,0,0-.5,3.8,4.9,4.9,0,0,0,2.4,3.1l13.5,7.4c8,4.5,19.8,8.9,30.7,3.8a2,2,0,0,0,1.2-1.6,2.1,2.1,0,0,0-.6-1.8l-17.3-16.3a1.7,1.7,0,0,1-.3-1l2.1-8.9Z" transform="translate(-85.1 0)"/><path class="cls-2" d="M306,129.6l20.5,64.6.5,1.4a10.4,10.4,0,0,0,4.2,5.6l61.1,40.2a7.9,7.9,0,0,0,10.9-1.8,7.8,7.8,0,0,0-1.1-10.4l-50.3-41.8-14.4-65.8A16.5,16.5,0,0,0,317.7,109a16.2,16.2,0,0,0-12.1,19.2A10.3,10.3,0,0,1,306,129.6Z" transform="translate(-85.1 0)"/><path class="cls-3" d="M272.5,439h8.8l22.7-.4,18.1-83.2,5.5-101-42.3-5.1-9-1.1,9.1,103.6a302.8,302.8,0,0,0-8.9,38.8,310.1,310.1,0,0,0-3.8,39.7Z" transform="translate(-85.1 0)"/><path class="cls-4" d="M216.9,453.8l31.4,2.7.3-1,26.2-79.9,15.8-100-38.7-8.7-11.7-2.6-1.5,103.9a298.8,298.8,0,0,0-12.8,37.7,290.9,290.9,0,0,0-7.8,39.1Z" transform="translate(-85.1 0)"/><polygon class="cls-5" points="231.3 307.9 239.6 306.2 245.7 294.8 230.8 292.7 225.9 294.5 218.9 302.7 231.3 307.9"/><path class="cls-6" d="M309.1,104.3l-2.6.5-15.4-6-35.6,30.1c-1.8.4-25.1,16.4-32.1,32.9a14.7,14.7,0,0,0-.9,8.3c1.8,10.9,7.5,44.5,11.6,68.8l-.8,44.3a15.2,15.2,0,0,0,18,12.3L319,281.2a14.9,14.9,0,0,0,11.9-15.8l-4.1-60.1a64.9,64.9,0,0,1,1.6-21.5c2.5-10.5,8.9-15.9,8.1-26.6l.6-5.1c-.3-4.8,2.3-13.8,2.4-18.6a40.2,40.2,0,0,0-.6-7.6A26,26,0,0,0,309.1,104.3Z" transform="translate(-85.1 0)"/><path class="cls-5" d="M311.2,71.1l-.7,20.1-4.6,21.3a6.1,6.1,0,0,1-5.7,4.9l-7.5.5a6.7,6.7,0,0,1-3.2,9l-.4.2a6.8,6.8,0,0,1-5.6.1l-1.6-.7-16.2-7,.6-7.7-3.6-9.1-7.4-29.9a15.2,15.2,0,0,1,.7-9.4,27,27,0,0,1,3-5.2,23.2,23.2,0,0,1,16.2-9l10-.9a5,5,0,0,1,2.1.2l9.5,2.7A20.1,20.1,0,0,1,311.2,71.1Z" transform="translate(-85.1 0)"/><path class="cls-7" d="M311.1,75.7s-1.2-4.3-3.3-4.5-8.1,2.7-15.9,1.5-10.6,1-12.2,4.9-3.8,17.6-7.9,20.3-9.6,2.8-11.6,0-11.7-25-6.4-34,7.9-18.2,19.8-19.2,33,5.8,36.1,8.6,5.9,17.7,4.4,20.9S311.1,75.7,311.1,75.7Z" transform="translate(-85.1 0)"/><path class="cls-8" d="M265.1,101a6.9,6.9,0,0,1-5.8-2.5c-2.3-3.2-11.9-25.8-6.4-35.2,1-1.5,1.8-3,2.6-4.5,3.9-7.3,7.6-14.2,18-15.1,12.3-1,33.6,5.9,36.9,8.8s6.4,18.4,4.6,22.1c-.7,1.5-1.6,2.4-2.7,2.5a2.2,2.2,0,0,1-2-.8.5.5,0,0,1-.2-.4c-.4-1.5-1.5-3.6-2.4-3.7a15.8,15.8,0,0,0-2.9.5,30.2,30.2,0,0,1-13.1,1c-7.2-1.1-9.6.8-11.1,4.3-.4,1.1-1,3.1-1.6,5.5-1.5,5.9-3.4,13.2-6.7,15.3A13.4,13.4,0,0,1,265.1,101Zm11.1-55.3h-2.5c-9.3.8-12.4,6.6-16.4,14-.8,1.5-1.6,3-2.6,4.6-5,8.4,4.1,29.9,6.3,32.9s6.4,2.1,10.2-.3,4.5-9.1,5.8-14a52.2,52.2,0,0,1,1.7-5.9c2.2-4.9,6-6.5,13.3-5.4a31.6,31.6,0,0,0,12.3-1,14.3,14.3,0,0,1,3.5-.5c2.5.2,3.8,3.7,4.2,4.8h.1s.5-.2,1.1-1.4c1.4-2.8-1.7-17.5-4.2-19.6S288,45.7,276.2,45.7Z" transform="translate(-85.1 0)"/><path class="cls-9" d="M271.2,121.8a34.5,34.5,0,0,0,5.4,2.8,14.9,14.9,0,0,0,12.1-.4,6.2,6.2,0,0,0,3.4-6.3h0l4.4-.3.4,2a11.5,11.5,0,0,1-3.4,10.8h0a8.4,8.4,0,0,1-6.6,2.1,120.8,120.8,0,0,1-13-2.3,15.2,15.2,0,0,1-7.6-3.8c-1.1-1.1-1.9-2.2-1.8-3.2l.9-7.6Z" transform="translate(-85.1 0)"/><path class="cls-10" d="M223.7,182.3l15.1,66,.3,1.4a10.2,10.2,0,0,0,3.7,5.9L300.6,301a7.9,7.9,0,0,0,11-1.3,7.8,7.8,0,0,0-.5-10.3l-50.7-53.2,4.1,7.4-9-67.1a16.2,16.2,0,0,0-32.1,4.3A8,8,0,0,0,223.7,182.3Z" transform="translate(-85.1 0)"/><path class="cls-11" d="M272,259.5a6,6,0,0,1,2.5-1.9l81.3-35.5a23.7,23.7,0,0,1,23.8,2.6l36.7,27,4.8-.5-.2,1.5a3.6,3.6,0,0,1-2.2,3L317.5,300a2.4,2.4,0,0,1-2.3-.3l-42-30.8a6.6,6.6,0,0,1-2.6-6h0l.4-3.7Z" transform="translate(-85.1 0)"/><path class="cls-12" d="M316.7,296.8l104.4-45.7L380,221a24,24,0,0,0-23.8-2.7l-81.3,35.6a6.6,6.6,0,0,0-1.3,11.3Z" transform="translate(-85.1 0)"/><polygon class="cls-13" points="225.9 278.2 306.9 242.6 281.1 223.6 200.1 259.2 225.9 278.2"/><path class="cls-14" d="M320.1,212.8l-8.8,80,5.4,4,8.8-80a14.4,14.4,0,0,1,2.2-6.5l-5.4-4A15.2,15.2,0,0,0,320.1,212.8Z" transform="translate(-85.1 0)"/><path class="cls-15" d="M322.3,206.3l5.4,4a16,16,0,0,1,7.5-6.8l86.9-37.9a5.6,5.6,0,0,1,5.6.6l-5.5-4a5.6,5.6,0,0,0-5.5-.6l-86.9,38A16.3,16.3,0,0,0,322.3,206.3Z" transform="translate(-85.1 0)"/><path class="cls-16" d="M325.5,216.8l-8.1,73.3,98.3-42.9,8.7-78.9h0l3.3-2.2h0a5.6,5.6,0,0,0-5.6-.6l-86.9,37.9a16,16,0,0,0-7.5,6.8A14.4,14.4,0,0,0,325.5,216.8Z" transform="translate(-85.1 0)"/><path class="cls-17" d="M325.5,216.8l-8.8,80,104.4-45.6,8.8-79.9a5.6,5.6,0,0,0-2.2-5.1h0a5.6,5.6,0,0,0-5.6-.6l-86.9,37.9a16,16,0,0,0-7.5,6.8A14.4,14.4,0,0,0,325.5,216.8Z" transform="translate(-85.1 0)"/><path class="cls-18" d="M152.4,10.4c37.2-21.4,67.3-8.7,67.3,28.5,0,13.5-4,28.3-10.8,42.8h0v33.1l-16-6.7c-11.2,15-25.3,28.1-40.5,36.9-37.2,21.5-67.3,8.7-67.3-28.4S115.2,31.9,152.4,10.4Z" transform="translate(-85.1 0)"/><path class="cls-19" d="M113.3,95.4c0-20.2,16.4-46,36.6-57.6,10.5-6.1,20-7.1,26.6-3.9h.2a6,6,0,0,1,1.5.9l7.3,4.1-2.2,1.2a25.2,25.2,0,0,1,3.2,13c0,20.2-16.4,46-36.6,57.7-7,4.1-13.6,5.9-19.2,5.6l1.3,3.2-9.1-5.1-.5-.3-.5-.3h0C116.6,110.7,113.3,104.4,113.3,95.4Z" transform="translate(-85.1 0)"/><ellipse class="cls-20" cx="158" cy="79" rx="48.6" ry="27.5" transform="translate(-85.2 157.8) rotate(-53.1)"/><path class="cls-21" d="M113.3,95.4c0-20.2,16.4-46,36.6-57.6,10.5-6.1,20-7.1,26.6-3.9h.2a6,6,0,0,1,1.5.9l7.3,4.1-2.2,1.2a25.2,25.2,0,0,1,3.2,13c0,20.2-16.4,46-36.6,57.7-7,4.1-13.6,5.9-19.2,5.6l1.3,3.2-9.1-5.1-.5-.3-.5-.3h0C116.6,110.7,113.3,104.4,113.3,95.4Z" transform="translate(-85.1 0)"/><ellipse class="cls-22" cx="158" cy="79" rx="48.6" ry="27.5" transform="translate(-85.2 157.8) rotate(-53.1)"/><path class="cls-23" d="M153.7,102.1l8.7-5c7.7-4.5,13.9-14.3,13.9-22h0L139.8,96.2h0C139.8,103.9,146,106.5,153.7,102.1Z" transform="translate(-85.1 0)"/><path class="cls-24" d="M166.4,66.2c0,2.7,2.3,3.7,5,2.1s4.9-5.1,4.9-7.8-2.2-3.7-4.9-2.1S166.4,63.5,166.4,66.2Z" transform="translate(-85.1 0)"/><path class="cls-25" d="M139.9,81.5c0,2.7,2.2,3.6,4.9,2.1s4.9-5.1,4.9-7.8-2.2-3.7-4.9-2.1S139.9,78.7,139.9,81.5Z" transform="translate(-85.1 0)"/><path class="cls-26" d="M163.8,58.8a.5.5,0,0,1-.4-.2.7.7,0,0,1-.3-1l.5-.7a21,21,0,0,1,7.4-7.4.8.8,0,0,1,1.1.3.8.8,0,0,1-.3,1,20.7,20.7,0,0,0-6.9,6.9l-.5.7A.8.8,0,0,1,163.8,58.8Z" transform="translate(-85.1 0)"/><path class="cls-27" d="M144.8,66.3a.8.8,0,0,1-.7-.4.7.7,0,0,1,.3-1c2.9-1.7,5.7-2.2,7.9-1.2h.4a.8.8,0,0,1,.4,1.1c-.1.4-.6.5-1,.4l-.4-.2c-1.7-.7-4.1-.3-6.5,1.1Z" transform="translate(-85.1 0)"/><path class="cls-28" d="M276.5,42.7c-25.4,3.1-27.9,25.2-24.3,38.1,3,10.4,8.6,19.5,8.3,30.2,0,3-.2,6-.4,8.8-.5,6.5,1.4,8.1,4.5,10.2a7.9,7.9,0,0,0,8,.5c2.9-1.5,6.2-3.5,6.4-5.2,1.6-13.2,5.9-37.2,15.9-42.8L305,78.4a5,5,0,0,1,6.9,5l-3.7,22.3a1.9,1.9,0,0,0,3.5,1.4v-.2a51.7,51.7,0,0,0,8.7-35C318.6,56.3,309,38.8,276.5,42.7Z" transform="translate(-85.1 0)"/></g></svg>