<svg id="Vector" xmlns="http://www.w3.org/2000/svg" viewBox="0 0 1022.85 824.5599"><defs><style>.cls-1,.cls-14,.cls-16,.cls-5{fill:none;}.cls-1{stroke:#dfdfdf;}.cls-1,.cls-4{stroke-miterlimit:10;}.cls-1,.cls-14,.cls-17,.cls-5{stroke-width:4px;}.cls-2{fill:#c9c9c9;}.cls-3{fill:#66a3ff;}.cls-17,.cls-18,.cls-4{fill:#e9e9e9;stroke:#e9e9e9;}.cls-5{stroke:#ed7562;}.cls-14,.cls-16,.cls-17,.cls-18,.cls-5{stroke-linecap:round;stroke-linejoin:round;}.cls-6{fill:#ed7562;}.cls-7{fill:#de8e68;}.cls-8{fill:#1a75ff;}.cls-9{fill:#d37c59;}.cls-10{fill:#292929;}.cls-11{fill:#353535;}.cls-12{fill:#5c5c5c;}.cls-13{fill:#fd8369;}.cls-14{stroke:#fd8369;}.cls-15{fill:#dfdfdf;}.cls-16{stroke:#66a3ff;stroke-width:3px;}.cls-18{stroke-width:2px;}</style></defs><title>home-1</title><path class="cls-1" d="M205.45,483.05H186a10,10,0,0,0-10,10V722.67" transform="translate(-102.65 -220.2849)"/><rect class="cls-2" x="98.31" y="233.2051" width="82.06" height="505.38" rx="10"/><path class="cls-3" d="M262.94,974c-59.23,0-160.29-90.39-160.29-165.46,0-5.71,2.71-16.49,8.69-16.49C143.67,792,262.94,888.37,262.94,974Z" transform="translate(-102.65 -220.2849)"/><rect class="cls-4" x="158.63" y="233.2051" width="262.42" height="505.38" rx="10"/><path class="cls-1" d="M655.57,316.71V636.56a10,10,0,0,0,10,10h8.93" transform="translate(-102.65 -220.2849)"/><line class="cls-5" x1="865.22" y1="788.2551" x2="800.24" y2="678.9151"/><line class="cls-5" x1="893.4" y1="788.2551" x2="828.42" y2="678.9151"/><line class="cls-5" x1="685.97" y1="788.2551" x2="750.94" y2="678.9151"/><path class="cls-6" d="M938,668.8h86.865a7.009,7.009,0,0,1,6.7565,8.8734L969.55,902.63H805.87V894.3H927.26Z" transform="translate(-102.65 -220.2849)"/><rect class="cls-7" x="778.1336" y="1001.418" width="18.43" height="16.47" transform="translate(-248.4565 -87.2952) rotate(-8.84)"/><rect class="cls-7" x="667.5189" y="982.4774" width="16.47" height="18.43" transform="translate(-626.6413 798.0279) rotate(-57)"/><path class="cls-8" d="M748.58,822.26c-13.45,0-80.58,156.29-80.58,162s14.57,12.19,16.72,12.19c3.35-3.11,67.61-96,74.3-102.48S748.58,822.26,748.58,822.26Z" transform="translate(-102.65 -220.2849)"/><path class="cls-9" d="M855.4,707.49c-4.42,1.39-26,19.88-29.77,42.09-3.84-.46-26.88-1.42-36.48-1.81-3.14-4.89-9.75-8.28-17.42-8.28-10.69,0-19.36,6.57-19.36,14.67v.53h38.65v-.53a11.6506,11.6506,0,0,0-1.6-5.82L823,753.69l39.89,4.15L867,723Z" transform="translate(-102.65 -220.2849)"/><path class="cls-10" d="M888.52,682.74c0-2.81-7-6-12.14-6-13.72,0-36.93,25-36.93,28.14S856.16,722,869,722.84,888.52,682.74,888.52,682.74Z" transform="translate(-102.65 -220.2849)"/><path class="cls-11" d="M922.6,662.7c77.55,0,59.83,175.19,50,182.59s-96,8.08-101.61.68S830.57,662.7,922.6,662.7Z" transform="translate(-102.65 -220.2849)"/><path class="cls-9" d="M936.23,629.19h-31v41.53c0,6.59,31,6.64,31,0Z" transform="translate(-102.65 -220.2849)"/><ellipse class="cls-7" cx="914.7977" cy="608.6334" rx="45.55" ry="30.64" transform="translate(67.0557 1195.8925) rotate(-80.94)"/><path d="M987.5,541.5c15,0,30,8,49,8,15,0,29-6,47-6,32,0,42,21,42,34,0,33-27,46-47,46-32,0-36-22-74-22-37,0-32-30-40-30-4,0-6.5.5-8,2s-9-4-9-6S957.5,541.5,987.5,541.5Z" transform="translate(-102.65 -220.2849)"/><path d="M920.5,552.5c-35.37,0-42.77,26.91-42.77,34.68s4.91,13.53,7.42,13.72c1.56-9.29,9-22.11,9.35-22.4,2,2,9.41,8.42,17,9a37.6912,37.6912,0,0,1,17.85,5.56,19.0889,19.0889,0,0,0,2.86,7.24,17.38,17.38,0,0,0,8.78,7.15,21.6368,21.6368,0,0,1,1.51,7c0,10.68-1,15-2,18,16.3,0,24-16.79,24-38C964.5,559.53,933.6,552.5,920.5,552.5Z" transform="translate(-102.65 -220.2849)"/><circle class="cls-7" cx="839.8" cy="394.375" r="8.64"/><path class="cls-7" d="M913.5,727.37c-3.49.84-17.48,9.51-25.87,24.47-8.25-1.54-41.81-9.93-71.6-9.93-2.8,0-10.07-2.3-13-2.3-17.47,0-21.12,9.44-21.12,12.23s.6,2.87,1.14,2.87c60,0,75.09,25.31,108.84,25.31,10.92,0,33.43-7.91,47-28.17C934.13,735.71,913.5,727.37,913.5,727.37Z" transform="translate(-102.65 -220.2849)"/><path class="cls-12" d="M972.48,693.27c18.74,18.19-28.65,68.54-36.25,67.8s-35-29.59-35.26-38.36S954.37,675.68,972.48,693.27Z" transform="translate(-102.65 -220.2849)"/><rect class="cls-13" x="485.12" y="536.6651" width="423.23" height="13.66" rx="6.83"/><path class="cls-3" d="M972.43,854c0-4.3.75-9.28-1.93-10.39-63.62-26.23-156.76-29.63-171.11-29.63s-56.31,1.46-56.31,13.47c0,43.38,24.17,176.93,29.08,181.92,2.33,2.35,22.65.78,25.18-1.76-.17-11,6.22-121.49.39-134.87,53.47,19.6,114.19,28.88,130.19,28.88C974.29,901.57,972.43,859.1,972.43,854Z" transform="translate(-102.65 -220.2849)"/><path d="M676.6,998.9464l-11.4657-7.6438a4.6919,4.6919,0,0,0-1.6407-.6884l-39.3-8.2326a4.6919,4.6919,0,0,0-4.9755,2.1619h0a4.692,4.692,0,0,0,1.546,6.4213l43.3956,26.8308a4.6919,4.6919,0,0,0,6.3605-1.3718l7.37-10.9544A4.692,4.692,0,0,0,676.6,998.9464Z" transform="translate(-102.65 -220.2849)"/><path d="M794.5691,1012.8126l-13.5926,2.1365a4.7,4.7,0,0,0-1.6761.6055l-34.49,20.5513a4.7,4.7,0,0,0-2.2015,4.9675h0a4.7,4.7,0,0,0,5.4961,3.6858l50.0826-9.6437a4.7,4.7,0,0,0,3.7573-5.3276l-2-13.0443A4.7,4.7,0,0,0,794.5691,1012.8126Z" transform="translate(-102.65 -220.2849)"/><line class="cls-14" x1="885.61" y1="754.0451" x2="885.61" y2="546.5051"/><line class="cls-14" x1="533.96" y1="754.0451" x2="533.96" y2="546.5051"/><line class="cls-14" x1="855.89" y1="795.6351" x2="855.89" y2="546.5051"/><line class="cls-14" x1="502.56" y1="795.6351" x2="502.56" y2="546.5051"/><line class="cls-5" x1="714.88" y1="788.2551" x2="779.85" y2="678.9151"/><rect x="640.43" y="534.1551" width="70.27" height="2.51"/><rect class="cls-11" x="562.48" y="370.5651" width="153.42" height="111.41" rx="10"/><path class="cls-10" d="M718.2462,688.616l-15.5651,55.64a10,10,0,0,0,9.63,12.694h16.2619a10,10,0,0,0,9.65-7.3794l15.1091-55.64a10,10,0,0,0-9.65-12.6206h-15.806A10,10,0,0,0,718.2462,688.616Z" transform="translate(-102.65 -220.2849)"/><path class="cls-15" d="M734.6184,322.0893A28.6,28.6,0,0,0,762.605,299.713a44.7386,44.7386,0,0,0-47.0613-54.2037,27.4971,27.4971,0,0,1-21.4035-7.5877,62.0142,62.0142,0,0,0-92.1438,6.1532,29.0763,29.0763,0,0,1-23.8428,10.7461,44.7474,44.7474,0,0,0-42.6509,27.9566q-.0779.1925-.1538.3854c-7.3628,18.7025,6.694,38.9173,26.7935,38.9182Z" transform="translate(-102.65 -220.2849)"/><path class="cls-1" d="M639.95,313.62v61.72a10,10,0,0,1-10,10H429.88a10,10,0,0,0-10,10v58.15" transform="translate(-102.65 -220.2849)"/><path class="cls-8" d="M296.48,1015.92c5.85,0,17.25-19.82,17.25-58.26,0-28.11-19.7-46.29-25.55-74.14-9-42.71-53.57-168.17-123.16-168.17-8,0-18.74,16.81-18.74,51.44,0,42,40.68,85.49,40.68,94.51C187,964.29,277.83,1015.92,296.48,1015.92Z" transform="translate(-102.65 -220.2849)"/><path class="cls-16" d="M296.93,1015.92c0-5.63-8.14-43.4-12.37-52.84s-20.84-56.65-23.44-69.68-50.79-140.32-96.05-172.56" transform="translate(-102.65 -220.2849)"/><line class="cls-16" x1="173.51" y1="720.5651" x2="97.59" y2="705.1051"/><line class="cls-16" x1="177.33" y1="731.1151" x2="107.8" y2="725.3251"/><line class="cls-16" x1="155.45" y1="663.2751" x2="84.88" y2="641.9151"/><line class="cls-16" x1="162.17" y1="686.6651" x2="183.71" y2="671.0051"/><line class="cls-16" x1="121.39" y1="583.7751" x2="142.67" y2="559.6451"/><line class="cls-16" x1="114.74" y1="570.9251" x2="132.85" y2="546.3551"/><rect class="cls-2" x="180.37" y="265.1751" width="218.93" height="42.2" rx="10"/><circle class="cls-4" cx="383.58" cy="280.9751" r="7.4"/><line class="cls-17" x1="255.97" y1="280.9751" x2="369.95" y2="280.9751"/><rect class="cls-2" x="180.37" y="336.5151" width="218.93" height="42.2" rx="10"/><circle class="cls-4" cx="383.58" cy="352.3151" r="7.4"/><line class="cls-17" x1="255.97" y1="352.3151" x2="369.95" y2="352.3151"/><rect class="cls-2" x="180.37" y="407.8451" width="218.93" height="42.2" rx="10"/><circle class="cls-4" cx="383.58" cy="423.6451" r="7.4"/><line class="cls-17" x1="255.97" y1="423.6451" x2="369.95" y2="423.6451"/><rect class="cls-2" x="180.37" y="479.185" width="218.93" height="42.2" rx="10"/><circle class="cls-4" cx="383.58" cy="494.9851" r="7.4"/><line class="cls-17" x1="255.97" y1="494.9851" x2="369.95" y2="494.9851"/><rect class="cls-2" x="180.37" y="550.5151" width="218.93" height="42.2" rx="10"/><circle class="cls-4" cx="383.58" cy="566.3251" r="7.4"/><line class="cls-17" x1="255.97" y1="566.3251" x2="369.95" y2="566.3251"/><line class="cls-18" x1="112.41" y1="295.5351" x2="145.25" y2="295.5351"/><line class="cls-18" x1="112.41" y1="304.0351" x2="145.25" y2="304.0351"/><line class="cls-18" x1="112.41" y1="353.3651" x2="145.25" y2="353.3651"/><line class="cls-18" x1="112.41" y1="361.8651" x2="145.25" y2="361.8651"/><line class="cls-18" x1="112.41" y1="423.6451" x2="145.25" y2="423.6451"/><line class="cls-18" x1="112.41" y1="432.1551" x2="145.25" y2="432.1551"/><line class="cls-18" x1="112.41" y1="491.6451" x2="145.25" y2="491.6451"/><line class="cls-18" x1="112.41" y1="500.1551" x2="145.25" y2="500.1551"/></svg>