<svg id="Layer_1" data-name="Layer 1" xmlns="http://www.w3.org/2000/svg" xmlns:xlink="http://www.w3.org/1999/xlink" viewBox="0 0 477.9 499.6"><defs><style>.cls-1{fill:url(#linear-gradient);}.cls-2{fill:url(#linear-gradient-2);}.cls-3{fill:url(#linear-gradient-3);}.cls-4{fill:url(#linear-gradient-4);}.cls-5{fill:url(#linear-gradient-5);}.cls-6{fill:url(#linear-gradient-6);}.cls-7{fill:url(#åçûìßííûé_ãðàäèåíò_12);}.cls-8{fill:url(#linear-gradient-7);}.cls-9{fill:#fff;}.cls-10{fill:url(#linear-gradient-8);}.cls-11{fill:url(#linear-gradient-9);}.cls-12{fill:url(#linear-gradient-10);}.cls-13{fill:url(#linear-gradient-11);}.cls-14{fill:url(#linear-gradient-12);}.cls-15{fill:url(#linear-gradient-13);}.cls-16{fill:url(#linear-gradient-14);}.cls-17{fill:url(#linear-gradient-15);}.cls-18{fill:url(#linear-gradient-16);}.cls-19{fill:url(#linear-gradient-17);}.cls-20{fill:url(#linear-gradient-18);}.cls-21{fill:url(#linear-gradient-19);}.cls-22{fill:url(#linear-gradient-20);}.cls-23{fill:url(#linear-gradient-21);}.cls-24{fill:url(#linear-gradient-22);}.cls-25{fill:url(#linear-gradient-23);}.cls-26{fill:url(#linear-gradient-24);}.cls-27{fill:url(#linear-gradient-25);}.cls-28{fill:url(#linear-gradient-26);}.cls-29{fill:url(#linear-gradient-27);}.cls-30{fill:url(#linear-gradient-28);}.cls-31{fill:url(#linear-gradient-29);}.cls-32{fill:url(#linear-gradient-30);}.cls-33{fill:url(#linear-gradient-31);}.cls-34{fill:url(#linear-gradient-32);}.cls-35{fill:url(#linear-gradient-33);}.cls-36{fill:url(#linear-gradient-34);}.cls-37{fill:url(#linear-gradient-35);}.cls-38{fill:url(#linear-gradient-36);}.cls-39{fill:url(#linear-gradient-37);}.cls-40{fill:url(#linear-gradient-38);}.cls-41{fill:url(#linear-gradient-39);}.cls-42{fill:url(#linear-gradient-40);}.cls-43{fill:url(#linear-gradient-41);}.cls-44{fill:url(#linear-gradient-42);}.cls-45{fill:url(#linear-gradient-43);}.cls-46{fill:url(#linear-gradient-44);}.cls-47{fill:url(#linear-gradient-45);}.cls-48{fill:url(#linear-gradient-46);}.cls-49{fill:url(#linear-gradient-47);}.cls-50{fill:url(#linear-gradient-48);}.cls-51{fill:url(#linear-gradient-49);}.cls-52{fill:url(#linear-gradient-50);}</style><linearGradient id="linear-gradient" x1="9.32" y1="333.34" x2="201.94" y2="333.34" gradientUnits="userSpaceOnUse"><stop offset="0" stop-color="#4b39a9"/><stop offset="1" stop-color="#662292"/></linearGradient><linearGradient id="linear-gradient-2" x1="21.86" y1="355.61" x2="486.19" y2="355.61" gradientUnits="userSpaceOnUse"><stop offset="0" stop-color="#005cff"/><stop offset="1" stop-color="#0076ff"/></linearGradient><linearGradient id="linear-gradient-3" x1="68.25" y1="351.9" x2="423.44" y2="351.9" gradientUnits="userSpaceOnUse"><stop offset="0" stop-color="#323232"/><stop offset="1" stop-color="#323232"/></linearGradient><linearGradient id="linear-gradient-4" x1="13.98" y1="192.37" x2="314.42" y2="192.37" xlink:href="#linear-gradient-2"/><linearGradient id="linear-gradient-5" x1="17.28" y1="198.12" x2="317.56" y2="198.12" gradientUnits="userSpaceOnUse"><stop offset="0" stop-color="#0041aa"/><stop offset="1" stop-color="#0076ff"/></linearGradient><linearGradient id="linear-gradient-6" x1="187.61" y1="406.98" x2="487.23" y2="406.98" xlink:href="#linear-gradient-5"/><linearGradient id="åçûìßííûé_ãðàäèåíò_12" x1="17.08" y1="197.7" x2="299" y2="197.7" gradientUnits="userSpaceOnUse"><stop offset="0" stop-color="#0066e3"/><stop offset="1" stop-color="#00b9e3"/></linearGradient><linearGradient id="linear-gradient-7" x1="85.71" y1="382.62" x2="113.17" y2="382.62" xlink:href="#linear-gradient-5"/><linearGradient id="linear-gradient-8" x1="111.09" y1="367.95" x2="138.55" y2="367.95" xlink:href="#linear-gradient-5"/><linearGradient id="linear-gradient-9" x1="136.47" y1="353.29" x2="163.93" y2="353.29" xlink:href="#linear-gradient-5"/><linearGradient id="linear-gradient-10" x1="161.85" y1="338.63" x2="189.31" y2="338.63" xlink:href="#linear-gradient-5"/><linearGradient id="linear-gradient-11" x1="187.23" y1="323.97" x2="214.69" y2="323.97" xlink:href="#linear-gradient-5"/><linearGradient id="linear-gradient-12" x1="212.61" y1="309.3" x2="240.07" y2="309.3" xlink:href="#linear-gradient-5"/><linearGradient id="linear-gradient-13" x1="238" y1="294.64" x2="265.45" y2="294.64" xlink:href="#linear-gradient-5"/><linearGradient id="linear-gradient-14" x1="263.38" y1="279.98" x2="290.83" y2="279.98" xlink:href="#linear-gradient-5"/><linearGradient id="linear-gradient-15" x1="288.76" y1="265.32" x2="316.21" y2="265.32" xlink:href="#linear-gradient-5"/><linearGradient id="linear-gradient-16" x1="109.44" y1="396.39" x2="136.9" y2="396.39" xlink:href="#linear-gradient-5"/><linearGradient id="linear-gradient-17" x1="134.82" y1="381.73" x2="162.28" y2="381.73" xlink:href="#linear-gradient-5"/><linearGradient id="linear-gradient-18" x1="160.2" y1="367.07" x2="187.66" y2="367.07" xlink:href="#linear-gradient-5"/><linearGradient id="linear-gradient-19" x1="185.58" y1="352.4" x2="213.04" y2="352.4" xlink:href="#linear-gradient-5"/><linearGradient id="linear-gradient-20" x1="210.97" y1="337.74" x2="238.42" y2="337.74" xlink:href="#linear-gradient-5"/><linearGradient id="linear-gradient-21" x1="236.35" y1="323.08" x2="263.8" y2="323.08" xlink:href="#linear-gradient-5"/><linearGradient id="linear-gradient-22" x1="261.73" y1="308.42" x2="289.18" y2="308.42" xlink:href="#linear-gradient-5"/><linearGradient id="linear-gradient-23" x1="287.11" y1="293.75" x2="314.56" y2="293.75" xlink:href="#linear-gradient-5"/><linearGradient id="linear-gradient-24" x1="312.49" y1="279.09" x2="339.94" y2="279.09" xlink:href="#linear-gradient-5"/><linearGradient id="linear-gradient-25" x1="133.17" y1="410.17" x2="160.63" y2="410.17" xlink:href="#linear-gradient-5"/><linearGradient id="linear-gradient-26" x1="158.56" y1="395.5" x2="186.01" y2="395.5" xlink:href="#linear-gradient-5"/><linearGradient id="linear-gradient-27" x1="183.94" y1="380.84" x2="211.39" y2="380.84" xlink:href="#linear-gradient-5"/><linearGradient id="linear-gradient-28" x1="209.32" y1="366.18" x2="236.77" y2="366.18" xlink:href="#linear-gradient-5"/><linearGradient id="linear-gradient-29" x1="234.7" y1="351.52" x2="262.15" y2="351.52" xlink:href="#linear-gradient-5"/><linearGradient id="linear-gradient-30" x1="260.08" y1="336.85" x2="287.53" y2="336.85" xlink:href="#linear-gradient-5"/><linearGradient id="linear-gradient-31" x1="285.46" y1="322.19" x2="312.91" y2="322.19" xlink:href="#linear-gradient-5"/><linearGradient id="linear-gradient-32" x1="310.84" y1="307.53" x2="338.3" y2="307.53" xlink:href="#linear-gradient-5"/><linearGradient id="linear-gradient-33" x1="336.22" y1="292.87" x2="363.68" y2="292.87" xlink:href="#linear-gradient-5"/><linearGradient id="linear-gradient-34" x1="156.91" y1="423.94" x2="184.36" y2="423.94" xlink:href="#linear-gradient-5"/><linearGradient id="linear-gradient-35" x1="182.29" y1="409.28" x2="209.74" y2="409.28" xlink:href="#linear-gradient-5"/><linearGradient id="linear-gradient-36" x1="207.67" y1="394.61" x2="235.12" y2="394.61" xlink:href="#linear-gradient-5"/><linearGradient id="linear-gradient-37" x1="233.05" y1="379.95" x2="260.5" y2="379.95" xlink:href="#linear-gradient-5"/><linearGradient id="linear-gradient-38" x1="258.43" y1="365.29" x2="285.89" y2="365.29" xlink:href="#linear-gradient-5"/><linearGradient id="linear-gradient-39" x1="283.81" y1="350.63" x2="311.27" y2="350.63" xlink:href="#linear-gradient-5"/><linearGradient id="linear-gradient-40" x1="309.19" y1="335.96" x2="336.65" y2="335.96" xlink:href="#linear-gradient-5"/><linearGradient id="linear-gradient-41" x1="334.57" y1="321.3" x2="362.03" y2="321.3" xlink:href="#linear-gradient-5"/><linearGradient id="linear-gradient-42" x1="359.95" y1="306.64" x2="387.41" y2="306.64" xlink:href="#linear-gradient-5"/><linearGradient id="linear-gradient-43" x1="180.64" y1="437.71" x2="208.09" y2="437.71" xlink:href="#linear-gradient-5"/><linearGradient id="linear-gradient-44" x1="206.02" y1="423.05" x2="233.47" y2="423.05" xlink:href="#linear-gradient-5"/><linearGradient id="linear-gradient-45" x1="332.29" y1="350.15" x2="359.74" y2="350.15" xlink:href="#linear-gradient-5"/><linearGradient id="linear-gradient-46" x1="232.9" y1="386.51" x2="333.59" y2="386.51" xlink:href="#linear-gradient-5"/><linearGradient id="linear-gradient-47" x1="358.3" y1="335.08" x2="385.76" y2="335.08" xlink:href="#linear-gradient-5"/><linearGradient id="linear-gradient-48" x1="383.69" y1="320.41" x2="411.14" y2="320.41" xlink:href="#linear-gradient-5"/><linearGradient id="linear-gradient-49" x1="125.98" y1="189.27" x2="225.89" y2="189.27" xlink:href="#linear-gradient-5"/><linearGradient id="linear-gradient-50" x1="144.34" y1="197.66" x2="228.77" y2="197.66" gradientUnits="userSpaceOnUse"><stop offset="0" stop-color="#242424"/><stop offset="1" stop-color="#323232"/></linearGradient></defs><title>laptop-1</title><g id="laptop_1"><path class="cls-1" d="M184.2,485.5l-2.9,2.1L27.4,398.9V385.8H17.3V182.4A15.1,15.1,0,0,1,22,171.3l-7.9-4.6a15.6,15.6,0,0,0-4.8,11.2V396.3a13.3,13.3,0,0,0,6.6,11.5l153.8,88.6a10.2,10.2,0,0,0,2.2.9,33.8,33.8,0,0,0,30-1.8h0Z" transform="translate(-9.3 -0.4)"/><path class="cls-2" d="M486.2,317.3l-5.5-3.5-.5-.3L326.8,225.1a18,18,0,0,0-18.2,0L24.1,389.3a4.4,4.4,0,0,0,0,7.7l157.1,90.6a7.7,7.7,0,0,0,7.5,0L479.3,320l.4,1.2Z" transform="translate(-9.3 -0.4)"/><path class="cls-3" d="M418.2,331.3,208.6,452.2a29.4,29.4,0,0,1-29.4.1L72.4,390.7a8.3,8.3,0,0,1,0-14.3L291.3,249.9a17.6,17.6,0,0,1,17.5,0L418.2,313A10.6,10.6,0,0,1,418.2,331.3Z" transform="translate(-9.3 -0.4)"/><path class="cls-4" d="M314.4,5.9l-8.1-4.6h0a6.1,6.1,0,0,0-6.4,0L17,164.5a13.3,13.3,0,0,0-3,2.3l7.9,4.5a15.5,15.5,0,0,0-4.7,11.2V384.3L309.5,215.7V7.6Z" transform="translate(-9.3 -0.4)"/><path class="cls-5" d="M317.6,11.3V216.8a5.7,5.7,0,0,1-2.9,5L21.5,391a2.8,2.8,0,0,1-4.2-2.4V182.4A15.1,15.1,0,0,1,22,171.3a17.6,17.6,0,0,1,3-2.4L307.9,5.7l1.5-.6A6.5,6.5,0,0,1,317.6,11.3Z" transform="translate(-9.3 -0.4)"/><path class="cls-6" d="M487.2,319.7l-1.2,4.4a21.4,21.4,0,0,1-10.1,13.4L202,495.6a9.9,9.9,0,0,1-14.2-5.1h0a2.2,2.2,0,0,1,.9-2.7L484,317.3A2.2,2.2,0,0,1,487.2,319.7Z" transform="translate(-9.3 -0.4)"/><polygon class="cls-7" points="299 214.9 17.1 377.4 17.1 180.5 299 18 299 214.9"/><path class="cls-8" d="M113.2,380.7h-.7a2.7,2.7,0,0,0-1-.8l-9.1-5.3a5.7,5.7,0,0,0-5.9,0l-9.2,5.3a4.3,4.3,0,0,0-1.2,1.1h-.4v1.7h0a3.4,3.4,0,0,0,1.6,2.6l8.7,5a6.4,6.4,0,0,0,6.8,0l8.7-5a3.4,3.4,0,0,0,1.7-2.9h0Z" transform="translate(-9.3 -0.4)"/><path class="cls-9" d="M111.5,383.7l-8.7,5.1a6.9,6.9,0,0,1-6.8,0l-8.7-5.1a3.3,3.3,0,0,1,0-5.6l9.2-5.3a5.7,5.7,0,0,1,5.9,0l9.1,5.3A3.2,3.2,0,0,1,111.5,383.7Z" transform="translate(-9.3 -0.4)"/><path class="cls-10" d="M138.5,366.1h-.6a2.2,2.2,0,0,0-1-.9l-9.1-5.3a6.2,6.2,0,0,0-5.9,0l-9.2,5.3a3.4,3.4,0,0,0-1.2,1.2h-.4v1.8h0a3.4,3.4,0,0,0,1.6,2.7l8.7,5a6.9,6.9,0,0,0,6.8,0l8.7-5a3.2,3.2,0,0,0,1.6-2.9h0Z" transform="translate(-9.3 -0.4)"/><path class="cls-9" d="M136.9,369.1l-8.7,5a6.9,6.9,0,0,1-6.8,0l-8.7-5a3.3,3.3,0,0,1,0-5.7l9.2-5.3a6.2,6.2,0,0,1,5.9,0l9.1,5.3A3.3,3.3,0,0,1,136.9,369.1Z" transform="translate(-9.3 -0.4)"/><path class="cls-11" d="M163.9,351.4h-.6l-1-.9-9.1-5.2a5.9,5.9,0,0,0-6,0l-9.1,5.2a4.6,4.6,0,0,0-1.2,1.2h-.4v1.8h0a3.1,3.1,0,0,0,1.6,2.6l8.7,5a6.9,6.9,0,0,0,6.8,0l8.7-5a3.4,3.4,0,0,0,1.6-2.9h0Z" transform="translate(-9.3 -0.4)"/><path class="cls-9" d="M162.3,354.4l-8.7,5a6.4,6.4,0,0,1-6.8,0l-8.7-5a3.2,3.2,0,0,1,0-5.6l9.1-5.3a5.9,5.9,0,0,1,6,0l9.1,5.3A3.2,3.2,0,0,1,162.3,354.4Z" transform="translate(-9.3 -0.4)"/><path class="cls-12" d="M189.3,336.7h-.6a2.8,2.8,0,0,0-1-.9l-9.2-5.3a5.7,5.7,0,0,0-5.9,0l-9.1,5.3a3.4,3.4,0,0,0-1.2,1.2h-.4v1.7h0a3.1,3.1,0,0,0,1.6,2.6l8.7,5.1a6.9,6.9,0,0,0,6.8,0l8.7-5.1a3.2,3.2,0,0,0,1.6-2.9h0Z" transform="translate(-9.3 -0.4)"/><path class="cls-9" d="M187.7,339.8l-8.7,5a6.9,6.9,0,0,1-6.8,0l-8.7-5a3.3,3.3,0,0,1,0-5.7l9.1-5.3a6.2,6.2,0,0,1,5.9,0l9.2,5.3A3.3,3.3,0,0,1,187.7,339.8Z" transform="translate(-9.3 -0.4)"/><path class="cls-13" d="M214.7,322.1h-.6a2.8,2.8,0,0,0-1-.9l-9.2-5.3a6.2,6.2,0,0,0-5.9,0l-9.1,5.3a2.3,2.3,0,0,0-1.2,1.2h-.5v1.8h0a3.2,3.2,0,0,0,1.7,2.6l8.7,5a6.9,6.9,0,0,0,6.8,0l8.7-5a3.4,3.4,0,0,0,1.6-2.9h0Z" transform="translate(-9.3 -0.4)"/><path class="cls-9" d="M213.1,325.1l-8.7,5a6.9,6.9,0,0,1-6.8,0l-8.7-5a3.3,3.3,0,0,1,0-5.7l9.1-5.2a5.7,5.7,0,0,1,5.9,0l9.2,5.2A3.4,3.4,0,0,1,213.1,325.1Z" transform="translate(-9.3 -0.4)"/><path class="cls-14" d="M240.1,307.4h-.7a4.5,4.5,0,0,0-1-.9l-9.1-5.2a5.7,5.7,0,0,0-5.9,0l-9.2,5.2a4.6,4.6,0,0,0-1.2,1.2h-.4v1.8h0a3.4,3.4,0,0,0,1.6,2.6l8.7,5a6.9,6.9,0,0,0,6.8,0l8.7-5a3.4,3.4,0,0,0,1.7-2.9h0Z" transform="translate(-9.3 -0.4)"/><path class="cls-9" d="M238.4,310.4l-8.7,5.1a6.9,6.9,0,0,1-6.8,0l-8.7-5.1a3.3,3.3,0,0,1,0-5.6l9.2-5.3a5.7,5.7,0,0,1,5.9,0l9.1,5.3A3.2,3.2,0,0,1,238.4,310.4Z" transform="translate(-9.3 -0.4)"/><path class="cls-15" d="M265.5,292.8h-.7a2.2,2.2,0,0,0-1-.9l-9.1-5.3a5.7,5.7,0,0,0-5.9,0l-9.2,5.3a3.4,3.4,0,0,0-1.2,1.2H238v1.7h0a3.1,3.1,0,0,0,1.6,2.6l8.7,5.1a6.9,6.9,0,0,0,6.8,0l8.7-5.1a3,3,0,0,0,1.6-2.9h.1Z" transform="translate(-9.3 -0.4)"/><path class="cls-9" d="M263.8,295.8l-8.7,5a6.9,6.9,0,0,1-6.8,0l-8.7-5a3.3,3.3,0,0,1,0-5.7l9.2-5.3a6.2,6.2,0,0,1,5.9,0l9.1,5.3A3.3,3.3,0,0,1,263.8,295.8Z" transform="translate(-9.3 -0.4)"/><path class="cls-16" d="M290.8,278.1h-.6l-1-.9-9.1-5.3a6.4,6.4,0,0,0-6,0l-9.1,5.3a3.4,3.4,0,0,0-1.2,1.2h-.4v1.8h0a3.4,3.4,0,0,0,1.6,2.6l8.7,5a6.9,6.9,0,0,0,6.8,0l8.7-5a3.4,3.4,0,0,0,1.6-2.9h0Z" transform="translate(-9.3 -0.4)"/><path class="cls-9" d="M289.2,281.1l-8.7,5a6.9,6.9,0,0,1-6.8,0l-8.7-5a3.3,3.3,0,0,1,0-5.7l9.1-5.2a5.9,5.9,0,0,1,6,0l9.1,5.2A3.3,3.3,0,0,1,289.2,281.1Z" transform="translate(-9.3 -0.4)"/><path class="cls-17" d="M316.2,263.4h-.6a3.9,3.9,0,0,0-1-.8l-9.2-5.3a5.7,5.7,0,0,0-5.9,0l-9.1,5.3a4.3,4.3,0,0,0-1.2,1.1h-.4v1.7h0a3.1,3.1,0,0,0,1.6,2.6l8.7,5a6.4,6.4,0,0,0,6.8,0l8.7-5a3.3,3.3,0,0,0,1.6-2.9h0Z" transform="translate(-9.3 -0.4)"/><path class="cls-9" d="M314.6,266.4l-8.7,5.1a6.9,6.9,0,0,1-6.8,0l-8.7-5.1a3.2,3.2,0,0,1,0-5.6l9.1-5.3a5.7,5.7,0,0,1,5.9,0l9.2,5.3A3.2,3.2,0,0,1,314.6,266.4Z" transform="translate(-9.3 -0.4)"/><path class="cls-18" d="M136.9,394.5h-.6l-1-.9-9.2-5.2a5.7,5.7,0,0,0-5.9,0l-9.1,5.2a2.8,2.8,0,0,0-1.2,1.2h-.5v1.8h.1a3.1,3.1,0,0,0,1.6,2.6l8.7,5a6.9,6.9,0,0,0,6.8,0l8.7-5a3.4,3.4,0,0,0,1.6-2.9h0Z" transform="translate(-9.3 -0.4)"/><path class="cls-9" d="M135.3,397.5l-8.7,5a6.9,6.9,0,0,1-6.8,0l-8.7-5a3.2,3.2,0,0,1,0-5.6l9.1-5.3a5.7,5.7,0,0,1,5.9,0l9.2,5.3A3.3,3.3,0,0,1,135.3,397.5Z" transform="translate(-9.3 -0.4)"/><path class="cls-19" d="M162.3,379.8h-.7a2.1,2.1,0,0,0-1-.8l-9.1-5.3a5.7,5.7,0,0,0-5.9,0l-9.1,5.3a2.3,2.3,0,0,0-1.2,1.2h-.5v1.7h0a3.2,3.2,0,0,0,1.7,2.6l8.7,5.1a6.7,6.7,0,0,0,6.7,0l8.7-5.1a3.1,3.1,0,0,0,1.7-2.9h0Z" transform="translate(-9.3 -0.4)"/><path class="cls-9" d="M160.6,382.8l-8.7,5.1a6.7,6.7,0,0,1-6.7,0l-8.7-5.1a3.2,3.2,0,0,1,0-5.6l9.1-5.3a6.2,6.2,0,0,1,5.9,0l9.1,5.3A3.2,3.2,0,0,1,160.6,382.8Z" transform="translate(-9.3 -0.4)"/><path class="cls-20" d="M187.7,365.2H187a2.2,2.2,0,0,0-1-.9l-9.1-5.3a6.2,6.2,0,0,0-5.9,0l-9.2,5.3a3.4,3.4,0,0,0-1.2,1.2h-.4v1.8h0a3.4,3.4,0,0,0,1.6,2.6l8.7,5a6.9,6.9,0,0,0,6.8,0l8.7-5a3.5,3.5,0,0,0,1.7-2.9h0Z" transform="translate(-9.3 -0.4)"/><path class="cls-9" d="M186,368.2l-8.7,5a6.9,6.9,0,0,1-6.8,0l-8.7-5a3.4,3.4,0,0,1,0-5.7l9.2-5.2a5.7,5.7,0,0,1,5.9,0l9.1,5.2A3.3,3.3,0,0,1,186,368.2Z" transform="translate(-9.3 -0.4)"/><path class="cls-21" d="M213,350.5h-.6l-1-.9-9.1-5.2a5.7,5.7,0,0,0-5.9,0l-9.2,5.2a4.6,4.6,0,0,0-1.2,1.2h-.4v1.8h0a3.4,3.4,0,0,0,1.6,2.6l8.7,5a6.9,6.9,0,0,0,6.8,0l8.7-5a3.1,3.1,0,0,0,1.6-2.9h0Z" transform="translate(-9.3 -0.4)"/><path class="cls-9" d="M211.4,353.5l-8.7,5.1a6.9,6.9,0,0,1-6.8,0l-8.7-5.1a3.2,3.2,0,0,1,0-5.6l9.2-5.3a5.7,5.7,0,0,1,5.9,0l9.1,5.3A3.2,3.2,0,0,1,211.4,353.5Z" transform="translate(-9.3 -0.4)"/><path class="cls-22" d="M238.4,335.9h-.6a2.8,2.8,0,0,0-1-.9l-9.2-5.3a5.7,5.7,0,0,0-5.9,0l-9.1,5.3a3.4,3.4,0,0,0-1.2,1.2H211v1.7h0a2.9,2.9,0,0,0,1.6,2.6l8.7,5.1a6.9,6.9,0,0,0,6.8,0l8.7-5.1a3.2,3.2,0,0,0,1.6-2.9h0Z" transform="translate(-9.3 -0.4)"/><path class="cls-9" d="M236.8,338.9l-8.7,5a6.9,6.9,0,0,1-6.8,0l-8.7-5a3.3,3.3,0,0,1,0-5.7l9.1-5.3a6.2,6.2,0,0,1,5.9,0l9.2,5.3A3.3,3.3,0,0,1,236.8,338.9Z" transform="translate(-9.3 -0.4)"/><path class="cls-23" d="M263.8,321.2h-.6l-1-.9L253,315a6.2,6.2,0,0,0-5.9,0l-9.1,5.3a2.3,2.3,0,0,0-1.2,1.2h-.5v1.8h.1A3.1,3.1,0,0,0,238,326l8.7,5a6.9,6.9,0,0,0,6.8,0l8.7-5a3.4,3.4,0,0,0,1.6-2.9h0Z" transform="translate(-9.3 -0.4)"/><path class="cls-9" d="M262.2,324.2l-8.7,5a6.9,6.9,0,0,1-6.8,0l-8.7-5a3.3,3.3,0,0,1,0-5.7l9.1-5.2a5.7,5.7,0,0,1,5.9,0l9.2,5.2A3.4,3.4,0,0,1,262.2,324.2Z" transform="translate(-9.3 -0.4)"/><path class="cls-24" d="M289.2,306.5h-.7a2.1,2.1,0,0,0-1-.8l-9.1-5.3a5.7,5.7,0,0,0-5.9,0l-9.1,5.3a2.6,2.6,0,0,0-1.2,1.1h-.5v1.7h0a3.2,3.2,0,0,0,1.7,2.6l8.7,5a6.2,6.2,0,0,0,6.7,0l8.7-5a3.2,3.2,0,0,0,1.7-2.9h0Z" transform="translate(-9.3 -0.4)"/><path class="cls-9" d="M287.5,309.5l-8.7,5.1a6.7,6.7,0,0,1-6.7,0l-8.7-5.1a3.2,3.2,0,0,1,0-5.6l9.1-5.3a5.7,5.7,0,0,1,5.9,0l9.1,5.3A3.2,3.2,0,0,1,287.5,309.5Z" transform="translate(-9.3 -0.4)"/><path class="cls-25" d="M314.6,291.9h-.7a2.2,2.2,0,0,0-1-.9l-9.1-5.3a6.2,6.2,0,0,0-5.9,0l-9.2,5.3a3.4,3.4,0,0,0-1.2,1.2h-.4V294h0a3.4,3.4,0,0,0,1.6,2.7l8.7,5a6.9,6.9,0,0,0,6.8,0l8.7-5a3.5,3.5,0,0,0,1.7-2.9h0Z" transform="translate(-9.3 -0.4)"/><path class="cls-9" d="M312.9,294.9l-8.7,5a6.9,6.9,0,0,1-6.8,0l-8.7-5a3.4,3.4,0,0,1,0-5.7l9.2-5.3a6.2,6.2,0,0,1,5.9,0l9.1,5.3A3.3,3.3,0,0,1,312.9,294.9Z" transform="translate(-9.3 -0.4)"/><path class="cls-26" d="M339.9,277.2h-.6a4.5,4.5,0,0,0-1-.9l-9.1-5.2a5.7,5.7,0,0,0-5.9,0l-9.2,5.2a4.6,4.6,0,0,0-1.2,1.2h-.4v1.8h0a3.4,3.4,0,0,0,1.6,2.6l8.7,5a6.9,6.9,0,0,0,6.8,0l8.7-5a3.2,3.2,0,0,0,1.6-2.9h0Z" transform="translate(-9.3 -0.4)"/><path class="cls-9" d="M338.3,280.2l-8.7,5a6.9,6.9,0,0,1-6.8,0l-8.7-5a3.2,3.2,0,0,1,0-5.6l9.2-5.3a5.7,5.7,0,0,1,5.9,0l9.1,5.3A3.2,3.2,0,0,1,338.3,280.2Z" transform="translate(-9.3 -0.4)"/><path class="cls-27" d="M160.6,408.3H160a2.8,2.8,0,0,0-1-.9l-9.1-5.3a6.4,6.4,0,0,0-6,0l-9.1,5.3a3.4,3.4,0,0,0-1.2,1.2h-.4v1.8h0a3.4,3.4,0,0,0,1.6,2.6l8.7,5a6.9,6.9,0,0,0,6.8,0l8.7-5a3.4,3.4,0,0,0,1.6-2.9h0Z" transform="translate(-9.3 -0.4)"/><path class="cls-9" d="M159,411.3l-8.7,5a6.9,6.9,0,0,1-6.8,0l-8.7-5a3.3,3.3,0,0,1,0-5.7l9.1-5.2a5.9,5.9,0,0,1,6,0l9.1,5.2A3.3,3.3,0,0,1,159,411.3Z" transform="translate(-9.3 -0.4)"/><path class="cls-28" d="M186,393.6h-.6l-1-.9-9.2-5.2a5.7,5.7,0,0,0-5.9,0l-9.1,5.2a4.6,4.6,0,0,0-1.2,1.2h-.4v1.8h0a3.1,3.1,0,0,0,1.6,2.6l8.7,5a6.9,6.9,0,0,0,6.8,0l8.7-5a3.3,3.3,0,0,0,1.6-2.9h0Z" transform="translate(-9.3 -0.4)"/><path class="cls-9" d="M184.4,396.6l-8.7,5a6.4,6.4,0,0,1-6.8,0l-8.7-5a3.2,3.2,0,0,1,0-5.6l9.1-5.3a5.7,5.7,0,0,1,5.9,0l9.2,5.3A3.2,3.2,0,0,1,184.4,396.6Z" transform="translate(-9.3 -0.4)"/><path class="cls-29" d="M211.4,379h-.6a2.8,2.8,0,0,0-1-.9l-9.2-5.3a5.7,5.7,0,0,0-5.9,0l-9.1,5.3a2.3,2.3,0,0,0-1.2,1.2h-.5V381h0a3,3,0,0,0,1.7,2.6l8.7,5.1a6.9,6.9,0,0,0,6.8,0l8.7-5.1a3.2,3.2,0,0,0,1.6-2.9h0Z" transform="translate(-9.3 -0.4)"/><path class="cls-9" d="M209.8,382l-8.7,5a6.9,6.9,0,0,1-6.8,0l-8.7-5a3.3,3.3,0,0,1,0-5.7l9.1-5.3a6.2,6.2,0,0,1,5.9,0l9.2,5.3A3.4,3.4,0,0,1,209.8,382Z" transform="translate(-9.3 -0.4)"/><path class="cls-30" d="M236.8,364.3h-.7a4.5,4.5,0,0,0-1-.9l-9.1-5.3a6.2,6.2,0,0,0-5.9,0l-9.2,5.3a3.4,3.4,0,0,0-1.2,1.2h-.4v1.8h0a3.4,3.4,0,0,0,1.6,2.6l8.7,5a6.9,6.9,0,0,0,6.8,0l8.7-5a3.5,3.5,0,0,0,1.7-2.9h0Z" transform="translate(-9.3 -0.4)"/><path class="cls-9" d="M235.1,367.3l-8.7,5a6.9,6.9,0,0,1-6.8,0l-8.7-5a3.4,3.4,0,0,1,0-5.7l9.2-5.2a5.7,5.7,0,0,1,5.9,0l9.1,5.2A3.3,3.3,0,0,1,235.1,367.3Z" transform="translate(-9.3 -0.4)"/><path class="cls-31" d="M262.2,349.6h-.7a2.7,2.7,0,0,0-1-.8l-9.1-5.3a5.7,5.7,0,0,0-5.9,0l-9.2,5.3a4.3,4.3,0,0,0-1.2,1.1h-.4v1.7h0a3.4,3.4,0,0,0,1.6,2.6l8.7,5a6.4,6.4,0,0,0,6.8,0l8.7-5a3.1,3.1,0,0,0,1.6-2.9h.1Z" transform="translate(-9.3 -0.4)"/><path class="cls-9" d="M260.5,352.6l-8.7,5.1a6.9,6.9,0,0,1-6.8,0l-8.7-5.1a3.2,3.2,0,0,1,0-5.6l9.2-5.3a5.7,5.7,0,0,1,5.9,0l9.1,5.3A3.2,3.2,0,0,1,260.5,352.6Z" transform="translate(-9.3 -0.4)"/><path class="cls-32" d="M287.5,335h-.6a2.8,2.8,0,0,0-1-.9l-9.1-5.3a6.4,6.4,0,0,0-6,0l-9.1,5.3a3.4,3.4,0,0,0-1.2,1.2h-.4v1.8h0a3.4,3.4,0,0,0,1.6,2.7l8.7,5a6.9,6.9,0,0,0,6.8,0l8.7-5a3.2,3.2,0,0,0,1.6-2.9h0Z" transform="translate(-9.3 -0.4)"/><path class="cls-9" d="M285.9,338l-8.7,5a6.9,6.9,0,0,1-6.8,0l-8.7-5a3.3,3.3,0,0,1,0-5.7l9.1-5.3a6.4,6.4,0,0,1,6,0l9.1,5.3A3.3,3.3,0,0,1,285.9,338Z" transform="translate(-9.3 -0.4)"/><path class="cls-33" d="M312.9,320.3h-.6l-1-.9-9.2-5.2a5.7,5.7,0,0,0-5.9,0l-9.1,5.2a4.6,4.6,0,0,0-1.2,1.2h-.4v1.8h0a3.1,3.1,0,0,0,1.6,2.6l8.7,5a6.9,6.9,0,0,0,6.8,0l8.7-5a3.4,3.4,0,0,0,1.6-2.9h0Z" transform="translate(-9.3 -0.4)"/><path class="cls-9" d="M311.3,323.3l-8.7,5a6.9,6.9,0,0,1-6.8,0l-8.7-5a3.2,3.2,0,0,1,0-5.6l9.1-5.3a5.7,5.7,0,0,1,5.9,0l9.2,5.3A3.2,3.2,0,0,1,311.3,323.3Z" transform="translate(-9.3 -0.4)"/><path class="cls-34" d="M338.3,305.6h-.6a3.9,3.9,0,0,0-1-.8l-9.2-5.3a5.7,5.7,0,0,0-5.9,0l-9.1,5.3a2.3,2.3,0,0,0-1.2,1.2h-.5v1.7h0a3.5,3.5,0,0,0,1.7,2.6l8.7,5.1a6.9,6.9,0,0,0,6.8,0l8.7-5.1a3.2,3.2,0,0,0,1.6-2.9h0Z" transform="translate(-9.3 -0.4)"/><path class="cls-9" d="M336.7,308.6l-8.7,5.1a6.9,6.9,0,0,1-6.8,0l-8.7-5.1a3.2,3.2,0,0,1,0-5.6l9.1-5.3a6.2,6.2,0,0,1,5.9,0l9.2,5.3A3.3,3.3,0,0,1,336.7,308.6Z" transform="translate(-9.3 -0.4)"/><path class="cls-35" d="M363.7,291H363a1.8,1.8,0,0,0-1-.9l-9.1-5.3a6.2,6.2,0,0,0-5.9,0l-9.2,5.3a2.5,2.5,0,0,0-1.1,1.2h-.5v1.8h0a3.4,3.4,0,0,0,1.6,2.6l8.8,5a6.7,6.7,0,0,0,6.7,0l8.7-5a3.3,3.3,0,0,0,1.7-2.9h0Z" transform="translate(-9.3 -0.4)"/><path class="cls-9" d="M362,294l-8.7,5a6.7,6.7,0,0,1-6.7,0l-8.8-5a3.4,3.4,0,0,1,0-5.7l9.2-5.2a5.7,5.7,0,0,1,5.9,0l9.1,5.2A3.3,3.3,0,0,1,362,294Z" transform="translate(-9.3 -0.4)"/><path class="cls-36" d="M184.4,422.1h-.7a2.2,2.2,0,0,0-1-.9l-9.1-5.3a5.7,5.7,0,0,0-5.9,0l-9.2,5.3a3.4,3.4,0,0,0-1.2,1.2h-.4v1.7h0a3.1,3.1,0,0,0,1.6,2.6l8.7,5.1a6.9,6.9,0,0,0,6.8,0l8.7-5.1a3.2,3.2,0,0,0,1.7-2.9h0Z" transform="translate(-9.3 -0.4)"/><path class="cls-9" d="M182.7,425.1l-8.7,5a6.9,6.9,0,0,1-6.8,0l-8.7-5a3.4,3.4,0,0,1,0-5.7l9.2-5.3a6.2,6.2,0,0,1,5.9,0l9.1,5.3A3.3,3.3,0,0,1,182.7,425.1Z" transform="translate(-9.3 -0.4)"/><path class="cls-37" d="M209.7,407.4h-.6a4.5,4.5,0,0,0-1-.9l-9.1-5.3a6.2,6.2,0,0,0-5.9,0l-9.2,5.3a3.4,3.4,0,0,0-1.2,1.2h-.4v1.8h0a3.4,3.4,0,0,0,1.6,2.6l8.7,5a6.9,6.9,0,0,0,6.8,0l8.7-5a3.2,3.2,0,0,0,1.6-2.9h0Z" transform="translate(-9.3 -0.4)"/><path class="cls-9" d="M208.1,410.4l-8.7,5a6.9,6.9,0,0,1-6.8,0l-8.7-5a3.3,3.3,0,0,1,0-5.7l9.2-5.2a5.7,5.7,0,0,1,5.9,0l9.1,5.2A3.3,3.3,0,0,1,208.1,410.4Z" transform="translate(-9.3 -0.4)"/><path class="cls-38" d="M235.1,392.7h-.6a3.9,3.9,0,0,0-1-.8l-9.1-5.3a5.9,5.9,0,0,0-6,0l-9.1,5.3a4.3,4.3,0,0,0-1.2,1.1h-.4v1.7h0a3.1,3.1,0,0,0,1.6,2.6l8.7,5a6.9,6.9,0,0,0,6.8,0l8.7-5a3.3,3.3,0,0,0,1.6-2.9h0Z" transform="translate(-9.3 -0.4)"/><path class="cls-9" d="M233.5,395.7l-8.7,5.1a6.9,6.9,0,0,1-6.8,0l-8.7-5.1a3.2,3.2,0,0,1,0-5.6l9.1-5.3a5.9,5.9,0,0,1,6,0l9.1,5.3A3.2,3.2,0,0,1,233.5,395.7Z" transform="translate(-9.3 -0.4)"/><path class="cls-39" d="M260.5,378.1h-.6a2.8,2.8,0,0,0-1-.9l-9.2-5.3a6.2,6.2,0,0,0-5.9,0l-9.1,5.3a2.8,2.8,0,0,0-1.2,1.2h-.4v1.5a.2.2,0,0,0,0,.3h0a2.9,2.9,0,0,0,1.6,2.6l8.7,5.1a6.9,6.9,0,0,0,6.8,0l8.7-5.1a3.1,3.1,0,0,0,1.6-2.8h0Z" transform="translate(-9.3 -0.4)"/><path class="cls-9" d="M258.9,381.1l-8.7,5a6.9,6.9,0,0,1-6.8,0l-8.7-5a3.3,3.3,0,0,1,0-5.7l9.1-5.3a6.2,6.2,0,0,1,5.9,0l9.2,5.3A3.4,3.4,0,0,1,258.9,381.1Z" transform="translate(-9.3 -0.4)"/><path class="cls-40" d="M285.9,363.4h-.7l-.9-.9-9.2-5.2a5.7,5.7,0,0,0-5.9,0l-9.1,5.2a2.3,2.3,0,0,0-1.2,1.2h-.5v1.8h0a3.2,3.2,0,0,0,1.7,2.6l8.7,5a6.7,6.7,0,0,0,6.7,0l8.8-5a3.4,3.4,0,0,0,1.6-2.9h0Z" transform="translate(-9.3 -0.4)"/><path class="cls-9" d="M284.3,366.4l-8.8,5a6.7,6.7,0,0,1-6.7,0l-8.7-5a3.2,3.2,0,0,1,0-5.6l9.1-5.3a5.7,5.7,0,0,1,5.9,0l9.2,5.3A3.3,3.3,0,0,1,284.3,366.4Z" transform="translate(-9.3 -0.4)"/><path class="cls-41" d="M311.3,348.7h-.7a2.7,2.7,0,0,0-1-.8l-9.1-5.3a5.7,5.7,0,0,0-5.9,0l-9.2,5.3a3.4,3.4,0,0,0-1.2,1.2h-.4v1.7h0a3.4,3.4,0,0,0,1.6,2.6l8.7,5.1a6.9,6.9,0,0,0,6.8,0l8.7-5.1a3.2,3.2,0,0,0,1.7-2.9h0Z" transform="translate(-9.3 -0.4)"/><path class="cls-9" d="M309.6,351.7l-8.7,5.1a6.9,6.9,0,0,1-6.8,0l-8.7-5.1a3.3,3.3,0,0,1,0-5.6l9.2-5.3a6.2,6.2,0,0,1,5.9,0l9.1,5.3A3.2,3.2,0,0,1,309.6,351.7Z" transform="translate(-9.3 -0.4)"/><path class="cls-42" d="M336.6,334.1H336a2.2,2.2,0,0,0-1-.9l-9.1-5.3a6.2,6.2,0,0,0-5.9,0l-9.2,5.3a3.4,3.4,0,0,0-1.2,1.2h-.4v1.8h0a3.4,3.4,0,0,0,1.6,2.6l8.7,5a6.9,6.9,0,0,0,6.8,0l8.7-5a3.2,3.2,0,0,0,1.6-2.9h0Z" transform="translate(-9.3 -0.4)"/><path class="cls-9" d="M335,337.1l-8.7,5a6.9,6.9,0,0,1-6.8,0l-8.7-5a3.3,3.3,0,0,1,0-5.7l9.2-5.3a6.2,6.2,0,0,1,5.9,0l9.1,5.3A3.3,3.3,0,0,1,335,337.1Z" transform="translate(-9.3 -0.4)"/><path class="cls-43" d="M362,319.4h-.6l-1-.9-9.1-5.2a5.9,5.9,0,0,0-6,0l-9.1,5.2a4.6,4.6,0,0,0-1.2,1.2h-.4v1.8h0a3.1,3.1,0,0,0,1.6,2.6l8.7,5a6.9,6.9,0,0,0,6.8,0l8.7-5a3.3,3.3,0,0,0,1.6-2.9h0Z" transform="translate(-9.3 -0.4)"/><path class="cls-9" d="M360.4,322.4l-8.7,5a6.4,6.4,0,0,1-6.8,0l-8.7-5a3.2,3.2,0,0,1,0-5.6l9.1-5.3a5.9,5.9,0,0,1,6,0l9.1,5.3A3.2,3.2,0,0,1,360.4,322.4Z" transform="translate(-9.3 -0.4)"/><path class="cls-44" d="M387.4,304.8h-.6a2.8,2.8,0,0,0-1-.9l-9.2-5.3a5.7,5.7,0,0,0-5.9,0l-9.1,5.3a3.4,3.4,0,0,0-1.2,1.2H360v1.7h0a2.9,2.9,0,0,0,1.6,2.6l8.7,5.1a6.9,6.9,0,0,0,6.8,0l8.7-5.1a3.2,3.2,0,0,0,1.6-2.9h0Z" transform="translate(-9.3 -0.4)"/><path class="cls-9" d="M385.8,307.8l-8.7,5a6.9,6.9,0,0,1-6.8,0l-8.7-5a3.3,3.3,0,0,1,0-5.7l9.1-5.3a6.2,6.2,0,0,1,5.9,0l9.2,5.3A3.3,3.3,0,0,1,385.8,307.8Z" transform="translate(-9.3 -0.4)"/><path class="cls-45" d="M208.1,435.8h-.6a3.9,3.9,0,0,0-1-.8l-9.2-5.3a5.7,5.7,0,0,0-5.9,0l-9.1,5.3a2.6,2.6,0,0,0-1.2,1.1h-.5v1.7h0a3.5,3.5,0,0,0,1.7,2.6l8.7,5a6.9,6.9,0,0,0,6.8,0l8.7-5a3.3,3.3,0,0,0,1.6-2.9h0Z" transform="translate(-9.3 -0.4)"/><path class="cls-9" d="M206.5,438.8l-8.7,5.1a6.9,6.9,0,0,1-6.8,0l-8.7-5.1a3.2,3.2,0,0,1,0-5.6l9.1-5.3a5.7,5.7,0,0,1,5.9,0l9.2,5.3A3.3,3.3,0,0,1,206.5,438.8Z" transform="translate(-9.3 -0.4)"/><path class="cls-46" d="M233.5,421.2h-.7a1.8,1.8,0,0,0-1-.9l-9.1-5.3a6.2,6.2,0,0,0-5.9,0l-9.2,5.3a3.4,3.4,0,0,0-1.2,1.2H206v1.8h0a3.1,3.1,0,0,0,1.6,2.6l8.8,5.1a6.7,6.7,0,0,0,6.7,0l8.7-5.1a3,3,0,0,0,1.7-2.8h0Z" transform="translate(-9.3 -0.4)"/><path class="cls-9" d="M231.8,424.2l-8.7,5a6.7,6.7,0,0,1-6.7,0l-8.8-5a3.4,3.4,0,0,1,0-5.7l9.2-5.3a6.2,6.2,0,0,1,5.9,0l9.1,5.3A3.3,3.3,0,0,1,231.8,424.2Z" transform="translate(-9.3 -0.4)"/><path class="cls-47" d="M359.7,348.3h-.6a2.8,2.8,0,0,0-1-.9l-9.1-5.3a6.2,6.2,0,0,0-5.9,0l-9.2,5.3a3.4,3.4,0,0,0-1.2,1.2h-.4v1.8h0a3.1,3.1,0,0,0,1.6,2.6l8.7,5.1a6.9,6.9,0,0,0,6.8,0l8.7-5.1a2.9,2.9,0,0,0,1.6-2.8h0Z" transform="translate(-9.3 -0.4)"/><path class="cls-9" d="M358.1,351.3l-8.7,5a6.9,6.9,0,0,1-6.8,0l-8.7-5a3.3,3.3,0,0,1,0-5.7l9.2-5.3a6.2,6.2,0,0,1,5.9,0l9.1,5.3A3.3,3.3,0,0,1,358.1,351.3Z" transform="translate(-9.3 -0.4)"/><path class="cls-48" d="M333.6,363.4H333a2.8,2.8,0,0,0-1-.9l-9.2-5.3a5.7,5.7,0,0,0-5.9,0l-82.4,47.6a3.4,3.4,0,0,0-1.2,1.2h-.4v1.8h0a3.4,3.4,0,0,0,1.6,2.6l8.7,5a6.9,6.9,0,0,0,6.8,0l82-47.4a3.2,3.2,0,0,0,1.6-2.9h0Z" transform="translate(-9.3 -0.4)"/><path class="cls-9" d="M332,366.5l-82,47.3a6.9,6.9,0,0,1-6.8,0l-8.7-5a3.3,3.3,0,0,1,0-5.7l82.4-47.6a6.2,6.2,0,0,1,5.9,0l9.2,5.3A3.4,3.4,0,0,1,332,366.5Z" transform="translate(-9.3 -0.4)"/><path class="cls-49" d="M385.8,333.2h-.7a4.5,4.5,0,0,0-1-.9L375,327a6.2,6.2,0,0,0-5.9,0l-9.2,5.3a3.4,3.4,0,0,0-1.2,1.2h-.4v1.8h0a3.4,3.4,0,0,0,1.6,2.6l8.7,5a6.9,6.9,0,0,0,6.8,0l8.7-5a3.5,3.5,0,0,0,1.7-2.9h0Z" transform="translate(-9.3 -0.4)"/><path class="cls-9" d="M384.1,336.2l-8.7,5a6.9,6.9,0,0,1-6.8,0l-8.7-5a3.4,3.4,0,0,1,0-5.7l9.2-5.2a5.7,5.7,0,0,1,5.9,0l9.1,5.2A3.3,3.3,0,0,1,384.1,336.2Z" transform="translate(-9.3 -0.4)"/><path class="cls-50" d="M411.1,318.5h-.6a3.9,3.9,0,0,0-1-.8l-9.1-5.3a5.7,5.7,0,0,0-5.9,0l-9.2,5.3a4.3,4.3,0,0,0-1.2,1.1h-.4v1.7h0a3.4,3.4,0,0,0,1.6,2.6l8.7,5a6.9,6.9,0,0,0,6.8,0l8.7-5a3.1,3.1,0,0,0,1.6-2.9h0Z" transform="translate(-9.3 -0.4)"/><path class="cls-9" d="M409.5,321.5l-8.7,5.1a6.9,6.9,0,0,1-6.8,0l-8.7-5.1a3.2,3.2,0,0,1,0-5.6l9.2-5.3a5.7,5.7,0,0,1,5.9,0l9.1,5.3A3.2,3.2,0,0,1,409.5,321.5Z" transform="translate(-9.3 -0.4)"/><path class="cls-51" d="M225.9,139.1,212,131.2l-4.3-2.6h-.2c-2.5-1.3-6.3-.7-10.3,2.2l-2,1.5c-3.1,2.2-6.3,3.2-8.8,2.7l-11.2-2.3c-4.1-.9-9.9,2.4-14.1,8l-12.4,16.5a21.5,21.5,0,0,1-9.1,7.4h0c-7.1,2.8-13.6,12.1-13.6,19.3v13.7c0,20.9,7.6,36.5,21,44.2h0l15.8,9-3.1-4.4c5.5.5,12.7-4,17.9-11.1h0c20.7-28.2,32.8-60.1,32.8-86.5v-.4Z" transform="translate(-9.3 -0.4)"/><path class="cls-52" d="M196,245.8h0c-5.5,7.6-13.4,12.1-18.9,10.9h0c-20.7-4.4-32.8-22.3-32.8-48.6V194.4c0-7.3,6.6-16.5,13.7-19.3h0a21.5,21.5,0,0,0,9.1-7.4l12.4-16.5c4.1-5.6,9.9-8.9,14.1-8l11.2,2.3c2.5.5,5.6-.5,8.8-2.8l1.9-1.4c7-5,13.3-3.2,13.3,3.8v14.2C228.8,185.7,216.7,217.5,196,245.8Z" transform="translate(-9.3 -0.4)"/></g></svg>