<svg xmlns="http://www.w3.org/2000/svg" xmlns:xlink="http://www.w3.org/1999/xlink" viewBox="0 0 499.8 441"><defs><style>.cls-1{isolation:isolate;}.cls-2,.cls-85,.cls-86{fill:#fccc6b;}.cls-3,.cls-37{fill:#0b0244;}.cls-22,.cls-3{opacity:0.3;}.cls-4{fill:#312a91;}.cls-12,.cls-13,.cls-23,.cls-35,.cls-5,.cls-53,.cls-69,.cls-71,.cls-73,.cls-74,.cls-75,.cls-77,.cls-78,.cls-79,.cls-80,.cls-82,.cls-83,.cls-84,.cls-9{opacity:0.5;}.cls-10,.cls-19,.cls-21,.cls-24,.cls-26,.cls-27,.cls-28,.cls-30,.cls-31,.cls-41,.cls-43,.cls-44,.cls-46,.cls-47,.cls-48,.cls-5,.cls-50,.cls-51,.cls-57,.cls-59,.cls-60,.cls-62,.cls-63,.cls-64,.cls-66,.cls-67,.cls-68,.cls-7{mix-blend-mode:lighten;}.cls-5{fill:url(#Áåçûìÿííûé_ãðàäèåíò_73);}.cls-6{fill:url(#Áåçûìÿííûé_ãðàäèåíò_28);}.cls-10,.cls-19,.cls-21,.cls-24,.cls-26,.cls-28,.cls-30,.cls-41,.cls-43,.cls-44,.cls-46,.cls-48,.cls-50,.cls-57,.cls-59,.cls-60,.cls-62,.cls-64,.cls-66,.cls-7{opacity:0.7;}.cls-7{fill:url(#Áåçûìÿííûé_ãðàäèåíò_3);}.cls-8{opacity:0.4;}.cls-9{fill:url(#Áåçûìÿííûé_ãðàäèåíò_28-2);}.cls-10{fill:url(#Áåçûìÿííûé_ãðàäèåíò_28-3);}.cls-11{fill:#180d5b;}.cls-12{fill:url(#Áåçûìÿííûé_ãðàäèåíò_28-4);}.cls-13{fill:url(#Áåçûìÿííûé_ãðàäèåíò_28-5);}.cls-14,.cls-15{opacity:0.9;}.cls-14{fill:url(#Áåçûìÿííûé_ãðàäèåíò_28-6);}.cls-16{fill:url(#Áåçûìÿííûé_ãðàäèåíò_3-2);}.cls-17{fill:url(#Áåçûìÿííûé_ãðàäèåíò_3-3);}.cls-18{fill:url(#Áåçûìÿííûé_ãðàäèåíò_3-4);}.cls-19{fill:url(#Áåçûìÿííûé_ãðàäèåíò_3-5);}.cls-20{fill:url(#Áåçûìÿííûé_ãðàäèåíò_59);}.cls-21{fill:url(#Áåçûìÿííûé_ãðàäèåíò_122);}.cls-22,.cls-32,.cls-35{fill:#42e8e0;}.cls-23,.cls-72{fill:#5cfff3;}.cls-24{fill:url(#Áåçûìÿííûé_ãðàäèåíò_3-6);}.cls-25{fill:url(#Áåçûìÿííûé_ãðàäèåíò_59-2);}.cls-26{fill:url(#Áåçûìÿííûé_ãðàäèåíò_122-2);}.cls-27{fill:url(#Áåçûìÿííûé_ãðàäèåíò_3-7);}.cls-28{fill:url(#Áåçûìÿííûé_ãðàäèåíò_3-8);}.cls-29{fill:url(#Áåçûìÿííûé_ãðàäèåíò_59-3);}.cls-30{fill:url(#Áåçûìÿííûé_ãðàäèåíò_122-3);}.cls-31{fill:url(#Áåçûìÿííûé_ãðàäèåíò_3-9);}.cls-33{fill:#73fff5;}.cls-34{fill:#7979d3;}.cls-36{opacity:0.1;}.cls-38{fill:url(#Áåçûìÿííûé_ãðàäèåíò_3-10);}.cls-39{fill:url(#Áåçûìÿííûé_ãðàäèåíò_3-11);}.cls-40{fill:url(#Áåçûìÿííûé_ãðàäèåíò_3-12);}.cls-41{fill:url(#Áåçûìÿííûé_ãðàäèåíò_3-13);}.cls-42{fill:url(#Áåçûìÿííûé_ãðàäèåíò_59-4);}.cls-43{fill:url(#Áåçûìÿííûé_ãðàäèåíò_122-4);}.cls-44{fill:url(#Áåçûìÿííûé_ãðàäèåíò_3-14);}.cls-45{fill:url(#Áåçûìÿííûé_ãðàäèåíò_59-5);}.cls-46{fill:url(#Áåçûìÿííûé_ãðàäèåíò_122-5);}.cls-47{fill:url(#Áåçûìÿííûé_ãðàäèåíò_3-15);}.cls-48{fill:url(#Áåçûìÿííûé_ãðàäèåíò_3-16);}.cls-49{fill:url(#Áåçûìÿííûé_ãðàäèåíò_59-6);}.cls-50{fill:url(#Áåçûìÿííûé_ãðàäèåíò_122-6);}.cls-51{fill:url(#Áåçûìÿííûé_ãðàäèåíò_3-17);}.cls-52,.cls-53{fill:#88fff3;}.cls-54{fill:url(#Áåçûìÿííûé_ãðàäèåíò_3-18);}.cls-55{fill:url(#Áåçûìÿííûé_ãðàäèåíò_3-19);}.cls-56{fill:url(#Áåçûìÿííûé_ãðàäèåíò_3-20);}.cls-57{fill:url(#Áåçûìÿííûé_ãðàäèåíò_3-21);}.cls-58{fill:url(#Áåçûìÿííûé_ãðàäèåíò_59-7);}.cls-59{fill:url(#Áåçûìÿííûé_ãðàäèåíò_122-7);}.cls-60{fill:url(#Áåçûìÿííûé_ãðàäèåíò_3-22);}.cls-61{fill:url(#Áåçûìÿííûé_ãðàäèåíò_59-8);}.cls-62{fill:url(#Áåçûìÿííûé_ãðàäèåíò_122-8);}.cls-63{fill:url(#Áåçûìÿííûé_ãðàäèåíò_3-23);}.cls-64{fill:url(#Áåçûìÿííûé_ãðàäèåíò_3-24);}.cls-65{fill:url(#Áåçûìÿííûé_ãðàäèåíò_59-9);}.cls-66{fill:url(#Áåçûìÿííûé_ãðàäèåíò_122-9);}.cls-67{fill:url(#Áåçûìÿííûé_ãðàäèåíò_3-25);}.cls-68{fill:url(#Áåçûìÿííûé_ãðàäèåíò_94);}.cls-69{fill:url(#Áåçûìÿííûé_ãðàäèåíò_107);}.cls-70{fill:url(#Áåçûìÿííûé_ãðàäèåíò_59-10);}.cls-71{fill:url(#Áåçûìÿííûé_ãðàäèåíò_107-2);}.cls-73{fill:url(#Áåçûìÿííûé_ãðàäèåíò_107-3);}.cls-74{fill:url(#Áåçûìÿííûé_ãðàäèåíò_107-4);}.cls-75{fill:url(#Áåçûìÿííûé_ãðàäèåíò_107-5);}.cls-76{fill:url(#Áåçûìÿííûé_ãðàäèåíò_59-11);}.cls-77{fill:url(#Áåçûìÿííûé_ãðàäèåíò_107-6);}.cls-78{fill:url(#Áåçûìÿííûé_ãðàäèåíò_107-7);}.cls-79{fill:url(#Áåçûìÿííûé_ãðàäèåíò_107-8);}.cls-80{fill:url(#Áåçûìÿííûé_ãðàäèåíò_107-9);}.cls-81{fill:url(#Áåçûìÿííûé_ãðàäèåíò_59-12);}.cls-82{fill:url(#Áåçûìÿííûé_ãðàäèåíò_107-10);}.cls-83{fill:url(#Áåçûìÿííûé_ãðàäèåíò_107-11);}.cls-84{fill:url(#Áåçûìÿííûé_ãðàäèåíò_107-12);}.cls-85{opacity:0.2;}.cls-86{opacity:0.6;}</style><radialGradient id="Áåçûìÿííûé_ãðàäèåíò_73" cx="-55.23" cy="324.39" r="336.81" gradientUnits="userSpaceOnUse"><stop offset="0" stop-color="#42e8e0"/><stop offset="0.02" stop-color="#40d8d7"/><stop offset="0.06" stop-color="#3aafc0"/><stop offset="0.11" stop-color="#3589ac"/><stop offset="0.17" stop-color="#30699a"/><stop offset="0.23" stop-color="#2c4d8b"/><stop offset="0.3" stop-color="#29377f"/><stop offset="0.38" stop-color="#272675"/><stop offset="0.47" stop-color="#251b6f"/><stop offset="0.61" stop-color="#24146b"/><stop offset="1" stop-color="#24126a"/></radialGradient><radialGradient id="Áåçûìÿííûé_ãðàäèåíò_28" cx="159.7" cy="422.41" r="596.87" gradientUnits="userSpaceOnUse"><stop offset="0" stop-color="#42e8e0"/><stop offset="0.1" stop-color="#3ccace"/><stop offset="0.34" stop-color="#2f87a5"/><stop offset="0.56" stop-color="#255385"/><stop offset="0.75" stop-color="#1e2d6e"/><stop offset="0.91" stop-color="#1a1660"/><stop offset="1" stop-color="#180d5b"/></radialGradient><linearGradient id="Áåçûìÿííûé_ãðàäèåíò_3" x1="9.15" y1="277.53" x2="437.2" y2="277.53" gradientUnits="userSpaceOnUse"><stop offset="0" stop-color="#180d5b"/><stop offset="0.09" stop-color="#1a1660"/><stop offset="0.25" stop-color="#1e2d6e"/><stop offset="0.44" stop-color="#255385"/><stop offset="0.66" stop-color="#2f87a5"/><stop offset="0.9" stop-color="#3ccace"/><stop offset="1" stop-color="#42e8e0"/></linearGradient><radialGradient id="Áåçûìÿííûé_ãðàäèåíò_28-2" cx="4.91" cy="320.19" r="172.31" xlink:href="#Áåçûìÿííûé_ãðàäèåíò_28"/><radialGradient id="Áåçûìÿííûé_ãðàäèåíò_28-3" cx="14.56" cy="277.67" r="355.61" xlink:href="#Áåçûìÿííûé_ãðàäèåíò_28"/><radialGradient id="Áåçûìÿííûé_ãðàäèåíò_28-4" cx="42.77" cy="294.74" r="291.02" xlink:href="#Áåçûìÿííûé_ãðàäèåíò_28"/><radialGradient id="Áåçûìÿííûé_ãðàäèåíò_28-5" cx="4.91" cy="296.23" r="411.37" xlink:href="#Áåçûìÿííûé_ãðàäèåíò_28"/><radialGradient id="Áåçûìÿííûé_ãðàäèåíò_28-6" cx="4.91" cy="294.74" r="549.6" xlink:href="#Áåçûìÿííûé_ãðàäèåíò_28"/><linearGradient id="Áåçûìÿííûé_ãðàäèåíò_3-2" x1="203.15" y1="102.82" x2="6.23" y2="62.32" xlink:href="#Áåçûìÿííûé_ãðàäèåíò_3"/><linearGradient id="Áåçûìÿííûé_ãðàäèåíò_3-3" x1="143.21" y1="152.37" x2="9.44" y2="65.48" xlink:href="#Áåçûìÿííûé_ãðàäèåíò_3"/><linearGradient id="Áåçûìÿííûé_ãðàäèåíò_3-4" x1="-230.13" y1="184.4" x2="-121.94" y2="126.7" gradientTransform="matrix(-1, 0, 0, 1, -124.4, -29.44)" xlink:href="#Áåçûìÿííûé_ãðàäèåíò_3"/><linearGradient id="Áåçûìÿííûé_ãðàäèåíò_3-5" x1="159.1" y1="186.04" x2="18.36" y2="108.86" xlink:href="#Áåçûìÿííûé_ãðàäèåíò_3"/><linearGradient id="Áåçûìÿííûé_ãðàäèåíò_59" x1="45.71" y1="161.78" x2="143.58" y2="161.78" gradientUnits="userSpaceOnUse"><stop offset="0" stop-color="#2b237c"/><stop offset="1" stop-color="#180d5b"/></linearGradient><linearGradient id="Áåçûìÿííûé_ãðàäèåíò_122" x1="75.63" y1="185.31" x2="-13.51" y2="134.64" gradientUnits="userSpaceOnUse"><stop offset="0" stop-color="#180d5b"/><stop offset="0.1" stop-color="#1a1560"/><stop offset="0.25" stop-color="#1e2d6e"/><stop offset="0.28" stop-color="#1f3372"/><stop offset="0.38" stop-color="#22447c"/><stop offset="0.57" stop-color="#2b7097"/><stop offset="0.83" stop-color="#39b7c2"/><stop offset="1" stop-color="#42e8e0"/></linearGradient><linearGradient id="Áåçûìÿííûé_ãðàäèåíò_3-6" x1="114.12" y1="70.92" x2="-0.72" y2="-3.66" xlink:href="#Áåçûìÿííûé_ãðàäèåíò_3"/><linearGradient id="Áåçûìÿííûé_ãðàäèåíò_59-2" x1="45.71" y1="66.72" x2="143.58" y2="66.72" xlink:href="#Áåçûìÿííûé_ãðàäèåíò_59"/><linearGradient id="Áåçûìÿííûé_ãðàäèåíò_122-2" x1="64.22" y1="83.63" x2="-16" y2="38.4" xlink:href="#Áåçûìÿííûé_ãðàäèåíò_122"/><linearGradient id="Áåçûìÿííûé_ãðàäèåíò_3-7" x1="91.28" y1="46.43" x2="-1.04" y2="25.58" xlink:href="#Áåçûìÿííûé_ãðàäèåíò_3"/><linearGradient id="Áåçûìÿííûé_ãðàäèåíò_3-8" x1="109.94" y1="65.36" x2="5.62" y2="-2.39" xlink:href="#Áåçûìÿííûé_ãðàäèåíò_3"/><linearGradient id="Áåçûìÿííûé_ãðàäèåíò_59-3" x1="47.79" y1="57.74" x2="136.7" y2="57.74" xlink:href="#Áåçûìÿííûé_ãðàäèåíò_59"/><linearGradient id="Áåçûìÿííûé_ãðàäèåíò_122-3" x1="63.29" y1="72.36" x2="-6.05" y2="33.26" xlink:href="#Áåçûìÿííûé_ãðàäèåíò_122"/><linearGradient id="Áåçûìÿííûé_ãðàäèåíò_3-9" x1="89.19" y1="43.11" x2="5.33" y2="24.17" xlink:href="#Áåçûìÿííûé_ãðàäèåíò_3"/><linearGradient id="Áåçûìÿííûé_ãðàäèåíò_3-10" x1="525.96" y1="101.08" x2="329.05" y2="60.58" xlink:href="#Áåçûìÿííûé_ãðàäèåíò_3"/><linearGradient id="Áåçûìÿííûé_ãðàäèåíò_3-11" x1="466.02" y1="150.62" x2="332.26" y2="63.74" xlink:href="#Áåçûìÿííûé_ãðàäèåíò_3"/><linearGradient id="Áåçûìÿííûé_ãðàäèåíò_3-12" x1="-552.95" y1="182.65" x2="-444.76" y2="124.96" gradientTransform="matrix(-1, 0, 0, 1, -124.4, -29.44)" xlink:href="#Áåçûìÿííûé_ãðàäèåíò_3"/><linearGradient id="Áåçûìÿííûé_ãðàäèåíò_3-13" x1="481.91" y1="184.29" x2="341.18" y2="107.11" xlink:href="#Áåçûìÿííûé_ãðàäèåíò_3"/><linearGradient id="Áåçûìÿííûé_ãðàäèåíò_59-4" x1="368.52" y1="160.04" x2="466.4" y2="160.04" xlink:href="#Áåçûìÿííûé_ãðàäèåíò_59"/><linearGradient id="Áåçûìÿííûé_ãðàäèåíò_122-4" x1="398.44" y1="183.57" x2="309.3" y2="132.9" xlink:href="#Áåçûìÿííûé_ãðàäèåíò_122"/><linearGradient id="Áåçûìÿííûé_ãðàäèåíò_3-14" x1="436.93" y1="69.18" x2="322.1" y2="-5.41" xlink:href="#Áåçûìÿííûé_ãðàäèåíò_3"/><linearGradient id="Áåçûìÿííûé_ãðàäèåíò_59-5" x1="368.52" y1="64.98" x2="466.4" y2="64.98" xlink:href="#Áåçûìÿííûé_ãðàäèåíò_59"/><linearGradient id="Áåçûìÿííûé_ãðàäèåíò_122-5" x1="387.04" y1="81.89" x2="306.82" y2="36.66" xlink:href="#Áåçûìÿííûé_ãðàäèåíò_122"/><linearGradient id="Áåçûìÿííûé_ãðàäèåíò_3-15" x1="414.1" y1="44.68" x2="321.78" y2="23.83" xlink:href="#Áåçûìÿííûé_ãðàäèåíò_3"/><linearGradient id="Áåçûìÿííûé_ãðàäèåíò_3-16" x1="432.75" y1="63.62" x2="328.43" y2="-4.14" xlink:href="#Áåçûìÿííûé_ãðàäèåíò_3"/><linearGradient id="Áåçûìÿííûé_ãðàäèåíò_59-6" x1="370.61" y1="56" x2="459.52" y2="56" xlink:href="#Áåçûìÿííûé_ãðàäèåíò_59"/><linearGradient id="Áåçûìÿííûé_ãðàäèåíò_122-6" x1="386.1" y1="70.61" x2="316.77" y2="31.52" xlink:href="#Áåçûìÿííûé_ãðàäèåíò_122"/><linearGradient id="Áåçûìÿííûé_ãðàäèåíò_3-17" x1="412.01" y1="41.36" x2="328.14" y2="22.42" xlink:href="#Áåçûìÿííûé_ãðàäèåíò_3"/><linearGradient id="Áåçûìÿííûé_ãðàäèåíò_3-18" x1="363.2" y1="195.3" x2="166.28" y2="154.8" xlink:href="#Áåçûìÿííûé_ãðàäèåíò_3"/><linearGradient id="Áåçûìÿííûé_ãðàäèåíò_3-19" x1="303.26" y1="244.84" x2="169.49" y2="157.96" xlink:href="#Áåçûìÿííûé_ãðàäèåíò_3"/><linearGradient id="Áåçûìÿííûé_ãðàäèåíò_3-20" x1="-390.18" y1="276.87" x2="-282" y2="219.18" gradientTransform="matrix(-1, 0, 0, 1, -124.4, -29.44)" xlink:href="#Áåçûìÿííûé_ãðàäèåíò_3"/><linearGradient id="Áåçûìÿííûé_ãðàäèåíò_3-21" x1="319.15" y1="278.51" x2="178.41" y2="201.33" xlink:href="#Áåçûìÿííûé_ãðàäèåíò_3"/><linearGradient id="Áåçûìÿííûé_ãðàäèåíò_59-7" x1="205.76" y1="254.26" x2="303.63" y2="254.26" xlink:href="#Áåçûìÿííûé_ãðàäèåíò_59"/><linearGradient id="Áåçûìÿííûé_ãðàäèåíò_122-7" x1="235.68" y1="277.79" x2="146.54" y2="227.11" xlink:href="#Áåçûìÿííûé_ãðàäèåíò_122"/><linearGradient id="Áåçûìÿííûé_ãðàäèåíò_3-22" x1="274.17" y1="163.4" x2="159.33" y2="88.81" xlink:href="#Áåçûìÿííûé_ãðàäèåíò_3"/><linearGradient id="Áåçûìÿííûé_ãðàäèåíò_59-8" x1="205.76" y1="159.2" x2="303.63" y2="159.2" xlink:href="#Áåçûìÿííûé_ãðàäèåíò_59"/><linearGradient id="Áåçûìÿííûé_ãðàäèåíò_122-8" x1="224.28" y1="176.1" x2="144.05" y2="130.87" xlink:href="#Áåçûìÿííûé_ãðàäèåíò_122"/><linearGradient id="Áåçûìÿííûé_ãðàäèåíò_3-23" x1="251.34" y1="138.9" x2="159.01" y2="118.05" xlink:href="#Áåçûìÿííûé_ãðàäèåíò_3"/><linearGradient id="Áåçûìÿííûé_ãðàäèåíò_3-24" x1="269.99" y1="157.83" x2="165.67" y2="90.08" xlink:href="#Áåçûìÿííûé_ãðàäèåíò_3"/><linearGradient id="Áåçûìÿííûé_ãðàäèåíò_59-9" x1="207.84" y1="150.22" x2="296.76" y2="150.22" xlink:href="#Áåçûìÿííûé_ãðàäèåíò_59"/><linearGradient id="Áåçûìÿííûé_ãðàäèåíò_122-9" x1="223.34" y1="164.83" x2="154" y2="125.74" xlink:href="#Áåçûìÿííûé_ãðàäèåíò_122"/><linearGradient id="Áåçûìÿííûé_ãðàäèåíò_3-25" x1="249.25" y1="135.58" x2="165.38" y2="116.64" xlink:href="#Áåçûìÿííûé_ãðàäèåíò_3"/><linearGradient id="Áåçûìÿííûé_ãðàäèåíò_94" x1="276.23" y1="164.63" x2="276.23" y2="40.36" gradientUnits="userSpaceOnUse"><stop offset="0" stop-color="#fccc6b"/><stop offset="0.05" stop-color="#e5b86b"/><stop offset="0.18" stop-color="#b28d6b"/><stop offset="0.32" stop-color="#87676a"/><stop offset="0.45" stop-color="#63486a"/><stop offset="0.59" stop-color="#47306a"/><stop offset="0.72" stop-color="#34206a"/><stop offset="0.86" stop-color="#28156a"/><stop offset="1" stop-color="#24126a"/></linearGradient><linearGradient id="Áåçûìÿííûé_ãðàäèåíò_107" x1="268.4" y1="363.52" x2="385.46" y2="363.52" xlink:href="#Áåçûìÿííûé_ãðàäèåíò_28"/><linearGradient id="Áåçûìÿííûé_ãðàäèåíò_59-10" x1="352.81" y1="363.52" x2="411.34" y2="363.52" xlink:href="#Áåçûìÿííûé_ãðàäèåíò_59"/><linearGradient id="Áåçûìÿííûé_ãðàäèåíò_107-2" x1="294.28" y1="350.59" x2="411.34" y2="350.59" xlink:href="#Áåçûìÿííûé_ãðàäèåíò_28"/><linearGradient id="Áåçûìÿííûé_ãðàäèåíò_107-3" x1="294.28" y1="350.59" x2="354.02" y2="350.59" xlink:href="#Áåçûìÿííûé_ãðàäèåíò_28"/><linearGradient id="Áåçûìÿííûé_ãðàäèåíò_107-4" x1="310.2" y1="384.66" x2="408.18" y2="320.61" xlink:href="#Áåçûìÿííûé_ãðàäèåíò_28"/><linearGradient id="Áåçûìÿííûé_ãðàäèåíò_107-5" x1="357.05" y1="312.35" x2="474.12" y2="312.35" xlink:href="#Áåçûìÿííûé_ãðàäèåíò_28"/><linearGradient id="Áåçûìÿííûé_ãðàäèåíò_59-11" x1="441.46" y1="312.34" x2="499.99" y2="312.34" xlink:href="#Áåçûìÿííûé_ãðàäèåíò_59"/><linearGradient id="Áåçûìÿííûé_ãðàäèåíò_107-6" x1="382.93" y1="299.41" x2="500" y2="299.41" xlink:href="#Áåçûìÿííûé_ãðàäèåíò_28"/><linearGradient id="Áåçûìÿííûé_ãðàäèåíò_107-7" x1="382.93" y1="299.41" x2="442.68" y2="299.41" xlink:href="#Áåçûìÿííûé_ãðàäèåíò_28"/><linearGradient id="Áåçûìÿííûé_ãðàäèåíò_107-8" x1="398.85" y1="333.48" x2="496.84" y2="269.43" xlink:href="#Áåçûìÿííûé_ãðàäèåíò_28"/><linearGradient id="Áåçûìÿííûé_ãðàäèåíò_107-9" x1="179.74" y1="414.7" x2="296.81" y2="414.7" xlink:href="#Áåçûìÿííûé_ãðàäèåíò_28"/><linearGradient id="Áåçûìÿííûé_ãðàäèåíò_59-12" x1="264.15" y1="414.7" x2="322.68" y2="414.7" xlink:href="#Áåçûìÿííûé_ãðàäèåíò_59"/><linearGradient id="Áåçûìÿííûé_ãðàäèåíò_107-10" x1="205.62" y1="401.77" x2="322.69" y2="401.77" xlink:href="#Áåçûìÿííûé_ãðàäèåíò_28"/><linearGradient id="Áåçûìÿííûé_ãðàäèåíò_107-11" x1="205.62" y1="401.77" x2="265.37" y2="401.77" xlink:href="#Áåçûìÿííûé_ãðàäèåíò_28"/><linearGradient id="Áåçûìÿííûé_ãðàäèåíò_107-12" x1="221.54" y1="435.83" x2="319.53" y2="371.79" xlink:href="#Áåçûìÿííûé_ãðàäèåíò_28"/></defs><title>server-1</title><g class="cls-1"><g id="Layer_1" data-name="Layer 1"><path class="cls-2" d="M104.4,109.3a.9.9,0,0,1-.7-.4.8.8,0,0,1,.3-1.1L228.3,36a.8.8,0,0,1,1.1.3.8.8,0,0,1-.3,1.2L104.9,109.2Z" transform="translate(-0.2 -29.4)"/><path class="cls-2" d="M348.1,106.5h-.4L228.3,37.5a.8.8,0,0,1-.3-1.2.8.8,0,0,1,1.1-.3l119.4,69a.8.8,0,0,1,.3,1.1A.8.8,0,0,1,348.1,106.5Z" transform="translate(-0.2 -29.4)"/><path class="cls-2" d="M166,433.5a17.3,17.3,0,0,1-8.1-1.9L37.1,361.8c-2.2-1.3-3.5-3.1-3.5-5.1s1.8-4.7,4.8-6.5L270,216.5c5.4-3.1,13.7-3.4,18.4-.7l120.8,69.7c2.3,1.3,3.5,3.2,3.5,5.2s-1.7,4.7-4.7,6.5L176.4,430.9A21.7,21.7,0,0,1,166,433.5ZM280.3,215.6a19.2,19.2,0,0,0-9.5,2.4L39.2,351.7c-2.5,1.4-3.9,3.2-3.9,5s1,2.7,2.6,3.7l120.9,69.7h0c4.3,2.5,11.8,2.2,16.8-.7L407.1,295.7c2.5-1.4,3.9-3.2,3.9-5s-.9-2.7-2.6-3.7L287.6,217.2A15.1,15.1,0,0,0,280.3,215.6Z" transform="translate(-0.2 -29.4)"/><polygon class="cls-3" points="391.3 227.2 358.4 208.2 391.3 189.3 424.1 208.2 391.3 227.2"/><path class="cls-4" d="M437.2,240.1l-17.5,3-123-71c-5.1-3-14.1-2.6-20,.8L39.9,309.7,9.2,315.1V325h0c-.1,2,1,3.8,3.4,5.2l137.1,79.1c5.1,3,14,2.6,19.9-.8L432.3,256.8c3.2-1.8,4.9-4.2,4.9-6.5h0Z" transform="translate(-0.2 -29.4)"/><path class="cls-5" d="M437.2,240.1l-17.5,3-123-71c-5.1-3-14.1-2.6-20,.8L39.9,309.7,9.2,315.1V325h0c-.1,2,1,3.8,3.4,5.2l137.1,79.1c5.1,3,14,2.6,19.9-.8L432.3,256.8c3.2-1.8,4.9-4.2,4.9-6.5h0Z" transform="translate(-0.2 -29.4)"/><path class="cls-6" d="M432.3,250.6,169.6,402.3c-5.9,3.4-14.8,3.8-19.9.8L12.6,324c-2.4-1.4-3.5-3.2-3.4-5.1h0v2.6h0c-.1,1.9,1,3.8,3.4,5.1l137.1,79.1c5.1,3,14,2.6,19.9-.8L432.3,253.3c3.2-1.9,4.9-4.3,4.9-6.5h0v-2.7h0C437.2,246.4,435.5,248.8,432.3,250.6Z" transform="translate(-0.2 -29.4)"/><path class="cls-4" d="M149.7,399.1,12.6,320c-5.1-3-4.5-8.2,1.4-11.6L276.7,156.8c5.9-3.4,14.9-3.8,20-.8l137,79.1c5.2,2.9,4.5,8.1-1.4,11.5L169.6,398.3C163.7,401.7,154.8,402.1,149.7,399.1Z" transform="translate(-0.2 -29.4)"/><path class="cls-7" d="M149.7,399.1,12.6,320c-5.1-3-4.5-8.2,1.4-11.6L276.7,156.8c5.9-3.4,14.9-3.8,20-.8l137,79.1c5.2,2.9,4.5,8.1-1.4,11.5L169.6,398.3C163.7,401.7,154.8,402.1,149.7,399.1Z" transform="translate(-0.2 -29.4)"/><g class="cls-8"><path class="cls-9" d="M437.2,238l-17.5,3-123-71c-5.1-2.9-14.1-2.6-20,.8L39.9,307.6,9.2,313v1.8h0c-.1,2,1,3.8,3.4,5.2l137.1,79.1c5.1,3,14,2.6,19.9-.8L432.3,246.6c3.2-1.8,4.9-4.2,4.9-6.5h0Z" transform="translate(-0.2 -29.4)"/><path class="cls-10" d="M149.7,397,12.6,317.9c-5.1-3-4.5-8.1,1.4-11.6L276.7,154.7c5.9-3.4,14.9-3.8,20-.8l137,79.1c5.2,3,4.5,8.1-1.4,11.5L169.6,396.2C163.7,399.6,154.8,400,149.7,397Z" transform="translate(-0.2 -29.4)"/><path class="cls-4" d="M149.7,397,12.6,317.9c-5.1-3-4.5-8.1,1.4-11.6L276.7,154.7c5.9-3.4,14.9-3.8,20-.8l137,79.1c5.2,3,4.5,8.1-1.4,11.5L169.6,396.2C163.7,399.6,154.8,400,149.7,397Z" transform="translate(-0.2 -29.4)"/></g><path class="cls-11" d="M86,367.6h0c0,1.2-.7,1.8-1.6,1.3l-10.8-6.2a4.2,4.2,0,0,1-1.6-3.2h0c0-1.2.7-1.8,1.6-1.2l10.8,6.2A3.8,3.8,0,0,1,86,367.6Z" transform="translate(-0.2 -29.4)"/><path class="cls-11" d="M116.2,385c0,1-.7,1.4-1.6.9a3.5,3.5,0,0,1-1.5-2.6c0-1,.7-1.4,1.5-.9A3.4,3.4,0,0,1,116.2,385Z" transform="translate(-0.2 -29.4)"/><path class="cls-11" d="M122.2,388.5c0,1-.6,1.4-1.5.9a3.5,3.5,0,0,1-1.5-2.6c0-1,.7-1.4,1.5-.9A3.2,3.2,0,0,1,122.2,388.5Z" transform="translate(-0.2 -29.4)"/><path class="cls-11" d="M128.3,392c0,1-.7,1.4-1.5.9a3.4,3.4,0,0,1-1.6-2.6c0-1,.7-1.4,1.6-.9A3.5,3.5,0,0,1,128.3,392Z" transform="translate(-0.2 -29.4)"/><path class="cls-11" d="M32.7,336.9c0,.9-.6,1.3-1.5.9a3.6,3.6,0,0,1-1.5-2.7c0-1,.7-1.4,1.5-.9A3.3,3.3,0,0,1,32.7,336.9Z" transform="translate(-0.2 -29.4)"/><ellipse class="cls-11" cx="37.3" cy="339.5" rx="1.3" ry="2.2" transform="translate(-164.9 34.7) rotate(-30)"/><path class="cls-11" d="M44.9,343.9c0,.9-.7,1.3-1.6.9a3.6,3.6,0,0,1-1.5-2.7c0-1,.7-1.4,1.5-.9A3.4,3.4,0,0,1,44.9,343.9Z" transform="translate(-0.2 -29.4)"/><path class="cls-12" d="M149.7,397,12.6,317.9c-5.1-3-4.5-8.1,1.4-11.6L276.7,154.7c5.9-3.4,14.9-3.8,20-.8l137,79.1c5.2,3,4.5,8.1-1.4,11.5L169.6,396.2C163.7,399.6,154.8,400,149.7,397Z" transform="translate(-0.2 -29.4)"/><path class="cls-13" d="M149.7,397,12.6,317.9c-5.1-3-4.5-8.1,1.4-11.6L276.7,154.7c5.9-3.4,14.9-3.8,20-.8l137,79.1c5.2,3,4.5,8.1-1.4,11.5L169.6,396.2C163.7,399.6,154.8,400,149.7,397Z" transform="translate(-0.2 -29.4)"/><path class="cls-14" d="M152,396.9,15,317.8c-5.6-3.4-6.6-6.9,1.4-11.5L279.1,154.6a23,23,0,0,1,9.2-2.7,22.9,22.9,0,0,0-11.6,2.8L14,306.3c-5.9,3.5-6.5,8.6-1.4,11.6L149.7,397c2.8,1.6,6.7,2.2,10.7,1.9A17.4,17.4,0,0,1,152,396.9Z" transform="translate(-0.2 -29.4)"/><path class="cls-2" d="M68.6,259.3h-.4L10.1,225.6a.8.8,0,0,1,0-1.4l58.1-33.6h.9l58.1,33.6a.8.8,0,0,1,0,1.4L69.1,259.2ZM12.2,224.9l56.4,32.6,56.5-32.6L68.6,192.3Z" transform="translate(-0.2 -29.4)"/><polygon class="cls-3" points="358.1 160 334 173.9 392.1 207.5 416.2 193.5 358.1 160"/><polygon class="cls-4" points="68.5 187.2 0 147.7 68.5 108.2 136.9 147.7 68.5 187.2"/><polygon class="cls-4" points="68.5 175.9 0 136.3 68.5 96.8 136.9 136.3 68.5 175.9"/><g class="cls-15"><polygon class="cls-16" points="68.5 105.6 15.6 75.1 68.5 44.6 121.3 75.1 68.5 105.6"/><polygon class="cls-17" points="121.3 75.1 121.3 136.3 68.5 166.9 68.5 105.6 121.3 75.1"/><polygon class="cls-18" points="15.6 75.1 15.6 136.3 68.5 166.9 68.5 105.6 15.6 75.1"/></g><polygon class="cls-19" points="68.5 166.9 15.6 136.3 68.5 105.8 121.3 136.3 68.5 166.9"/><polygon class="cls-20" points="136.9 136.3 136.9 147.7 68.5 187.2 68.5 175.9 136.9 136.3"/><polygon class="cls-4" points="0 136.3 0 147.7 68.5 187.2 68.5 175.9 0 136.3"/><polygon class="cls-21" points="0 136.3 0 147.7 68.5 187.2 68.5 175.9 0 136.3"/><polygon class="cls-4" points="68.5 92.2 0 52.6 68.5 13.1 136.9 52.6 68.5 92.2"/><polygon class="cls-4" points="0 41.3 0 52.6 68.5 92.2 68.5 80.8 0 41.3"/><polygon class="cls-22" points="68.5 92.2 68.5 175.9 0 136.3 0 52.6 68.5 92.2"/><polygon class="cls-22" points="15.6 61.7 15.6 136.3 68.5 166.9 121.3 136.3 121.3 61.7 68.5 92.2 15.6 61.7"/><polygon class="cls-22" points="68.5 92.2 68.5 166.9 15.6 136.3 15.6 61.7 68.5 92.2"/><polygon class="cls-23" points="0 52.6 0 136.3 68.5 175.9 136.9 136.3 136.9 52.6 68.5 92.2 0 52.6"/><polygon class="cls-4" points="68.5 80.8 0 41.3 68.5 1.7 136.9 41.3 68.5 80.8"/><polygon class="cls-24" points="68.5 80.8 0 41.3 68.5 1.7 136.9 41.3 68.5 80.8"/><polygon class="cls-25" points="136.9 41.3 136.9 52.6 68.5 92.2 68.5 80.8 136.9 41.3"/><polygon class="cls-26" points="0 41.3 0 52.6 68.5 92.2 68.5 80.8 0 41.3"/><polygon class="cls-27" points="1.6 41.3 69.3 2.2 68.5 1.7 0 41.3 68.5 80.8 69.3 80.3 1.6 41.3"/><polygon class="cls-4" points="68.5 77.1 6.3 41.1 68.5 12.8 130.7 41.2 68.5 77.1"/><polygon class="cls-4" points="6.3 38.4 6.3 41.1 68.5 77.1 68.5 74.3 6.3 38.4"/><polygon class="cls-4" points="68.5 74.3 6.3 38.4 68.5 2.5 130.7 38.4 68.5 74.3"/><polygon class="cls-28" points="68.5 74.3 6.3 38.4 68.5 2.5 130.7 38.4 68.5 74.3"/><polygon class="cls-29" points="130.7 38.4 130.7 41.2 68.5 77.1 68.5 74.3 130.7 38.4"/><polygon class="cls-30" points="6.3 38.4 6.3 41.1 68.5 77.1 68.5 74.3 6.3 38.4"/><polygon class="cls-31" points="7.7 38.4 69.2 2.9 68.5 2.5 6.3 38.4 68.5 74.3 69.2 73.9 7.7 38.4"/><polygon class="cls-32" points="26.2 39.8 23.8 38.4 68.5 12.7 70.8 14 26.2 39.8"/><polygon class="cls-32" points="30.9 42.5 28.5 41.1 73.2 15.4 75.5 16.7 30.9 42.5"/><polygon class="cls-32" points="35.6 45.2 33.2 43.9 77.9 18.1 80.2 19.4 35.6 45.2"/><polygon class="cls-32" points="40.3 47.9 37.9 46.6 82.6 20.8 84.9 22.2 40.3 47.9"/><polygon class="cls-32" points="45 50.6 42.6 49.3 87.3 23.5 89.6 24.9 45 50.6"/><polygon class="cls-32" points="49.7 53.3 47.3 52 92 26.2 94.3 27.6 49.7 53.3"/><polygon class="cls-32" points="54.4 56.1 52 54.7 96.7 28.9 99 30.3 54.4 56.1"/><polygon class="cls-32" points="59.1 58.8 56.7 57.4 101.3 31.6 103.7 33 59.1 58.8"/><polygon class="cls-32" points="63.8 61.5 61.4 60.1 106 34.4 108.4 35.7 63.8 61.5"/><polygon class="cls-32" points="68.5 64.2 66.1 62.8 110.7 37.1 113.1 38.4 68.5 64.2"/><polygon class="cls-33" points="68.5 12.7 70.8 14 68.5 15.4 68.5 12.7"/><polygon class="cls-33" points="73.2 15.4 75.5 16.7 73.2 18.1 73.2 15.4"/><polygon class="cls-33" points="77.9 18.1 80.2 19.4 77.9 20.8 77.9 18.1"/><polygon class="cls-33" points="82.6 20.8 84.9 22.2 82.6 23.5 82.6 20.8"/><polygon class="cls-33" points="87.3 23.5 89.6 24.9 87.3 26.2 87.3 23.5"/><polygon class="cls-33" points="92 26.2 94.3 27.6 92 28.9 92 26.2"/><polygon class="cls-33" points="96.7 28.9 99 30.3 96.7 31.6 96.7 28.9"/><polygon class="cls-33" points="101.3 31.6 103.7 33 101.3 34.4 101.3 31.6"/><polygon class="cls-33" points="106 34.4 108.4 35.7 106 37.1 106 34.4"/><polygon class="cls-33" points="110.7 37.1 113.1 38.4 110.7 39.8 110.7 37.1"/><g class="cls-8"><polygon class="cls-34" points="26.2 39.8 23.8 38.4 68.5 12.7 70.8 14 26.2 39.8"/><polygon class="cls-34" points="30.9 42.5 28.5 41.1 73.2 15.4 75.5 16.7 30.9 42.5"/><polygon class="cls-34" points="35.6 45.2 33.2 43.9 77.9 18.1 80.2 19.4 35.6 45.2"/><polygon class="cls-34" points="40.3 47.9 37.9 46.6 82.6 20.8 84.9 22.2 40.3 47.9"/><polygon class="cls-34" points="45 50.6 42.6 49.3 87.3 23.5 89.6 24.9 45 50.6"/><polygon class="cls-34" points="49.7 53.3 47.3 52 92 26.2 94.3 27.6 49.7 53.3"/><polygon class="cls-34" points="54.4 56.1 52 54.7 96.7 28.9 99 30.3 54.4 56.1"/><polygon class="cls-34" points="59.1 58.8 56.7 57.4 101.3 31.6 103.7 33 59.1 58.8"/><polygon class="cls-34" points="63.8 61.5 61.4 60.1 106 34.4 108.4 35.7 63.8 61.5"/><polygon class="cls-34" points="68.5 64.2 66.1 62.8 110.7 37.1 113.1 38.4 68.5 64.2"/></g><polygon class="cls-35" points="0 52.6 0 136.3 0.9 136.9 0.9 53.2 0 52.6"/><polygon class="cls-35" points="136.9 52.6 136.9 136.3 136 136.9 136 53.2 136.9 52.6"/><polygon class="cls-35" points="68.5 92.2 68.5 92.2 66.8 91.2 66.8 174.9 68.5 175.9 68.5 175.9 68.5 175.9 68.5 175.9 68.5 175.9 70.1 174.9 70.1 91.2 68.5 92.2"/><polygon class="cls-23" points="0.9 128.1 63.2 89.1 18.8 63.5 0.9 73.3 0.9 128.1"/><polygon class="cls-23" points="14.9 144.9 66.8 115.4 66.8 136.9 32.5 155.1 14.9 144.9"/><g class="cls-36"><polygon class="cls-37" points="4.3 62.9 63.3 97 63.3 94.3 4.3 60.3 4.3 62.9"/><polygon class="cls-37" points="4.3 69.2 63.3 103.3 63.3 100.6 4.3 66.5 4.3 69.2"/><polygon class="cls-37" points="4.3 75.4 63.3 109.5 63.3 106.8 4.3 72.8 4.3 75.4"/><polygon class="cls-37" points="4.3 81.7 63.3 115.8 63.3 113.1 4.3 79 4.3 81.7"/><polygon class="cls-37" points="4.3 87.9 63.3 122 63.3 119.3 4.3 85.3 4.3 87.9"/><polygon class="cls-37" points="4.3 94.2 63.3 128.3 63.3 125.6 4.3 91.5 4.3 94.2"/><polygon class="cls-37" points="4.3 100.4 63.3 134.5 63.3 131.8 4.3 97.8 4.3 100.4"/><polygon class="cls-37" points="4.3 106.7 63.3 140.8 63.3 138.1 4.3 104 4.3 106.7"/><polygon class="cls-37" points="4.3 112.9 63.3 147 63.3 144.3 4.3 110.3 4.3 112.9"/><polygon class="cls-37" points="4.3 119.2 63.3 153.3 63.3 150.6 4.3 116.5 4.3 119.2"/><polygon class="cls-37" points="4.3 125.4 63.3 159.5 63.3 156.8 4.3 122.8 4.3 125.4"/><polygon class="cls-37" points="4.3 131.7 63.3 165.8 63.3 163.1 4.3 129 4.3 131.7"/></g><polygon class="cls-4" points="391.3 185.5 322.8 146 391.3 106.4 459.7 146 391.3 185.5"/><polygon class="cls-4" points="391.3 174.1 322.8 134.6 391.3 95.1 459.7 134.6 391.3 174.1"/><g class="cls-15"><polygon class="cls-38" points="391.3 103.9 338.4 73.4 391.3 42.9 444.1 73.4 391.3 103.9"/><polygon class="cls-39" points="444.1 73.4 444.1 134.6 391.3 165.1 391.3 103.9 444.1 73.4"/><polygon class="cls-40" points="338.4 73.4 338.4 134.6 391.3 165.1 391.3 103.9 338.4 73.4"/></g><polygon class="cls-41" points="391.3 165.1 338.4 134.6 391.3 104.1 444.1 134.6 391.3 165.1"/><polygon class="cls-42" points="459.7 134.6 459.7 146 391.3 185.5 391.3 174.1 459.7 134.6"/><polygon class="cls-4" points="322.8 134.6 322.8 146 391.3 185.5 391.3 174.1 322.8 134.6"/><polygon class="cls-43" points="322.8 134.6 322.8 146 391.3 185.5 391.3 174.1 322.8 134.6"/><polygon class="cls-4" points="391.3 90.4 322.8 50.9 391.3 11.4 459.7 50.9 391.3 90.4"/><polygon class="cls-4" points="322.8 39.5 322.8 50.9 391.3 90.4 391.3 79.1 322.8 39.5"/><polygon class="cls-22" points="391.3 90.4 391.3 174.1 322.8 134.6 322.8 50.9 391.3 90.4"/><polygon class="cls-22" points="338.4 59.9 338.4 134.6 391.3 165.1 444.1 134.6 444.1 59.9 391.3 90.4 338.4 59.9"/><polygon class="cls-22" points="391.3 90.4 391.3 165.1 338.4 134.6 338.4 59.9 391.3 90.4"/><polygon class="cls-23" points="322.8 50.9 322.8 134.6 391.3 174.1 459.7 134.6 459.7 50.9 391.3 90.4 322.8 50.9"/><polygon class="cls-4" points="391.3 79.1 322.8 39.5 391.3 0 459.7 39.5 391.3 79.1"/><polygon class="cls-44" points="391.3 79.1 322.8 39.5 391.3 0 459.7 39.5 391.3 79.1"/><polygon class="cls-45" points="459.7 39.5 459.7 50.9 391.3 90.4 391.3 79.1 459.7 39.5"/><polygon class="cls-46" points="322.8 39.5 322.8 50.9 391.3 90.4 391.3 79.1 322.8 39.5"/><polygon class="cls-47" points="324.4 39.5 392.1 0.5 391.3 0 322.8 39.5 391.3 79.1 392.1 78.6 324.4 39.5"/><polygon class="cls-4" points="391.3 75.3 329.1 39.4 391.3 11.1 453.5 39.4 391.3 75.3"/><polygon class="cls-4" points="329.1 36.7 329.1 39.4 391.3 75.3 391.3 72.6 329.1 36.7"/><polygon class="cls-4" points="391.3 72.6 329.1 36.7 391.3 0.8 453.5 36.7 391.3 72.6"/><polygon class="cls-48" points="391.3 72.6 329.1 36.7 391.3 0.8 453.5 36.7 391.3 72.6"/><polygon class="cls-49" points="453.5 36.7 453.5 39.4 391.3 75.3 391.3 72.6 453.5 36.7"/><polygon class="cls-50" points="329.1 36.7 329.1 39.4 391.3 75.3 391.3 72.6 329.1 36.7"/><polygon class="cls-51" points="330.6 36.7 392 1.2 391.3 0.8 329.1 36.7 391.3 72.6 392 72.2 330.6 36.7"/><polygon class="cls-32" points="349 38 346.7 36.7 391.3 10.9 393.6 12.3 349 38"/><polygon class="cls-32" points="353.7 40.8 351.4 39.4 396 13.6 398.3 15 353.7 40.8"/><polygon class="cls-32" points="358.4 43.5 356 42.1 400.7 16.3 403 17.7 358.4 43.5"/><polygon class="cls-32" points="363.1 46.2 360.7 44.8 405.4 19.1 407.7 20.4 363.1 46.2"/><polygon class="cls-32" points="367.8 48.9 365.4 47.5 410.1 21.8 412.4 23.1 367.8 48.9"/><polygon class="cls-32" points="372.5 51.6 370.1 50.2 414.8 24.5 417.1 25.8 372.5 51.6"/><polygon class="cls-32" points="377.2 54.3 374.8 53 419.5 27.2 421.8 28.5 377.2 54.3"/><polygon class="cls-32" points="381.9 57 379.5 55.7 424.2 29.9 426.5 31.3 381.9 57"/><polygon class="cls-32" points="386.6 59.7 384.2 58.4 428.9 32.6 431.2 34 386.6 59.7"/><polygon class="cls-32" points="391.3 62.4 388.9 61.1 433.6 35.3 435.9 36.7 391.3 62.4"/><polygon class="cls-33" points="391.3 10.9 393.6 12.3 391.3 13.6 391.3 10.9"/><polygon class="cls-33" points="396 13.6 398.3 15 396 16.3 396 13.6"/><polygon class="cls-33" points="400.7 16.3 403 17.7 400.7 19.1 400.7 16.3"/><polygon class="cls-33" points="405.4 19.1 407.7 20.4 405.4 21.8 405.4 19.1"/><polygon class="cls-33" points="410.1 21.8 412.4 23.1 410.1 24.5 410.1 21.8"/><polygon class="cls-33" points="414.8 24.5 417.1 25.8 414.8 27.2 414.8 24.5"/><polygon class="cls-33" points="419.5 27.2 421.8 28.5 419.5 29.9 419.5 27.2"/><polygon class="cls-33" points="424.2 29.9 426.5 31.3 424.2 32.6 424.2 29.9"/><polygon class="cls-33" points="428.9 32.6 431.2 34 428.9 35.3 428.9 32.6"/><polygon class="cls-33" points="433.6 35.3 435.9 36.7 433.6 38 433.6 35.3"/><g class="cls-8"><polygon class="cls-34" points="349 38 346.7 36.7 391.3 10.9 393.6 12.3 349 38"/><polygon class="cls-34" points="353.7 40.8 351.4 39.4 396 13.6 398.3 15 353.7 40.8"/><polygon class="cls-34" points="358.4 43.5 356 42.1 400.7 16.3 403 17.7 358.4 43.5"/><polygon class="cls-34" points="363.1 46.2 360.7 44.8 405.4 19.1 407.7 20.4 363.1 46.2"/><polygon class="cls-34" points="367.8 48.9 365.4 47.5 410.1 21.8 412.4 23.1 367.8 48.9"/><polygon class="cls-34" points="372.5 51.6 370.1 50.2 414.8 24.5 417.1 25.8 372.5 51.6"/><polygon class="cls-34" points="377.2 54.3 374.8 53 419.5 27.2 421.8 28.5 377.2 54.3"/><polygon class="cls-34" points="381.9 57 379.5 55.7 424.2 29.9 426.5 31.3 381.9 57"/><polygon class="cls-34" points="386.6 59.7 384.2 58.4 428.9 32.6 431.2 34 386.6 59.7"/><polygon class="cls-34" points="391.3 62.4 388.9 61.1 433.6 35.3 435.9 36.7 391.3 62.4"/></g><polygon class="cls-35" points="322.8 50.9 322.8 134.6 323.8 135.1 323.8 51.4 322.8 50.9"/><polygon class="cls-35" points="459.7 50.9 459.7 134.6 458.8 135.1 458.8 51.4 459.7 50.9"/><polygon class="cls-35" points="391.3 90.4 391.3 90.4 389.7 89.5 389.7 173.2 391.3 174.1 391.3 174.1 391.3 174.1 391.3 174.1 391.3 174.1 392.9 173.2 392.9 89.5 391.3 90.4"/><polygon class="cls-23" points="323.8 126.3 386 87.4 341.6 61.8 323.8 71.5 323.8 126.3"/><polygon class="cls-23" points="337.7 143.2 389.7 113.7 389.7 135.1 355.3 153.3 337.7 143.2"/><g class="cls-36"><polygon class="cls-37" points="327.1 61.2 386.1 95.3 386.1 92.6 327.1 58.5 327.1 61.2"/><polygon class="cls-37" points="327.1 67.4 386.1 101.5 386.1 98.8 327.1 64.8 327.1 67.4"/><polygon class="cls-37" points="327.1 73.7 386.1 107.8 386.1 105.1 327.1 71 327.1 73.7"/><polygon class="cls-37" points="327.1 80 386.1 114 386.1 111.3 327.1 77.3 327.1 80"/><polygon class="cls-37" points="327.1 86.2 386.1 120.3 386.1 117.6 327.1 83.5 327.1 86.2"/><polygon class="cls-37" points="327.1 92.5 386.1 126.5 386.1 123.8 327.1 89.8 327.1 92.5"/><polygon class="cls-37" points="327.1 98.7 386.1 132.8 386.1 130.1 327.1 96 327.1 98.7"/><polygon class="cls-37" points="327.1 105 386.1 139 386.1 136.3 327.1 102.3 327.1 105"/><polygon class="cls-37" points="327.1 111.2 386.1 145.3 386.1 142.6 327.1 108.5 327.1 111.2"/><polygon class="cls-37" points="327.1 117.5 386.1 151.5 386.1 148.9 327.1 114.8 327.1 117.5"/><polygon class="cls-37" points="327.1 123.7 386.1 157.8 386.1 155.1 327.1 121 327.1 123.7"/><polygon class="cls-37" points="327.1 130 386.1 164 386.1 161.4 327.1 127.3 327.1 130"/></g><path class="cls-52" d="M75.1,124.7a2.5,2.5,0,0,1-1.2,2c-.6.3-1.1,0-1.1-.7a2.7,2.7,0,0,1,1.1-2C74.6,123.6,75.1,123.9,75.1,124.7Z" transform="translate(-0.2 -29.4)"/><path class="cls-52" d="M78.9,122.5a2.8,2.8,0,0,1-1.2,2c-.6.3-1.1.1-1.1-.7a2.7,2.7,0,0,1,1.1-2C78.3,121.5,78.9,121.7,78.9,122.5Z" transform="translate(-0.2 -29.4)"/><path class="cls-52" d="M82.7,120.3a2.8,2.8,0,0,1-1.2,2c-.6.4-1.1.1-1.1-.7a2.7,2.7,0,0,1,1.1-2A.8.8,0,0,1,82.7,120.3Z" transform="translate(-0.2 -29.4)"/><polygon class="cls-52" points="113.3 74.4 84.2 91.2 84.2 88.5 113.3 71.7 113.3 74.4"/><path class="cls-52" d="M75.1,130.9a2.3,2.3,0,0,1-1.2,2c-.6.4-1.1.1-1.1-.6a2.4,2.4,0,0,1,1.1-2C74.6,129.9,75.1,130.2,75.1,130.9Z" transform="translate(-0.2 -29.4)"/><path class="cls-52" d="M78.9,128.7a2.5,2.5,0,0,1-1.2,2c-.6.4-1.1.1-1.1-.6a2.4,2.4,0,0,1,1.1-2A.7.7,0,0,1,78.9,128.7Z" transform="translate(-0.2 -29.4)"/><path class="cls-52" d="M82.7,126.5a2.5,2.5,0,0,1-1.2,2c-.6.4-1.1.1-1.1-.6a2.4,2.4,0,0,1,1.1-2A.7.7,0,0,1,82.7,126.5Z" transform="translate(-0.2 -29.4)"/><polygon class="cls-52" points="113.3 80.7 84.2 97.4 84.2 94.8 113.3 78 113.3 80.7"/><path class="cls-52" d="M75.1,137.2a2.5,2.5,0,0,1-1.2,2c-.6.3-1.1,0-1.1-.7a2.7,2.7,0,0,1,1.1-2C74.6,136.1,75.1,136.4,75.1,137.2Z" transform="translate(-0.2 -29.4)"/><path class="cls-52" d="M78.9,135a2.8,2.8,0,0,1-1.2,2c-.6.4-1.1.1-1.1-.7a2.7,2.7,0,0,1,1.1-2A.8.8,0,0,1,78.9,135Z" transform="translate(-0.2 -29.4)"/><path class="cls-52" d="M82.7,132.8a2.8,2.8,0,0,1-1.2,2c-.6.4-1.1.1-1.1-.7a2.7,2.7,0,0,1,1.1-2A.8.8,0,0,1,82.7,132.8Z" transform="translate(-0.2 -29.4)"/><polygon class="cls-52" points="113.3 86.9 84.2 103.7 84.2 101 113.3 84.2 113.3 86.9"/><path class="cls-52" d="M75.1,143.4a2.3,2.3,0,0,1-1.2,2c-.6.4-1.1.1-1.1-.6a2.4,2.4,0,0,1,1.1-2C74.6,142.4,75.1,142.7,75.1,143.4Z" transform="translate(-0.2 -29.4)"/><path class="cls-52" d="M78.9,141.2a2.5,2.5,0,0,1-1.2,2c-.6.4-1.1.1-1.1-.6a2.4,2.4,0,0,1,1.1-2A.7.7,0,0,1,78.9,141.2Z" transform="translate(-0.2 -29.4)"/><path class="cls-52" d="M82.7,139a2.5,2.5,0,0,1-1.2,2c-.6.4-1.1.1-1.1-.6a2.4,2.4,0,0,1,1.1-2A.7.7,0,0,1,82.7,139Z" transform="translate(-0.2 -29.4)"/><polygon class="cls-52" points="113.3 93.2 84.2 109.9 84.2 107.3 113.3 90.5 113.3 93.2"/><path class="cls-52" d="M75.1,149.7a2.5,2.5,0,0,1-1.2,2c-.6.3-1.1,0-1.1-.7a2.7,2.7,0,0,1,1.1-2C74.6,148.6,75.1,148.9,75.1,149.7Z" transform="translate(-0.2 -29.4)"/><path class="cls-52" d="M78.9,147.5a2.8,2.8,0,0,1-1.2,2c-.6.4-1.1.1-1.1-.7a2.7,2.7,0,0,1,1.1-2A.8.8,0,0,1,78.9,147.5Z" transform="translate(-0.2 -29.4)"/><path class="cls-52" d="M82.7,145.3a2.8,2.8,0,0,1-1.2,2c-.6.4-1.1.1-1.1-.7a2.7,2.7,0,0,1,1.1-2A.8.8,0,0,1,82.7,145.3Z" transform="translate(-0.2 -29.4)"/><polygon class="cls-52" points="113.3 99.4 84.2 116.2 84.2 113.5 113.3 96.7 113.3 99.4"/><path class="cls-52" d="M75.1,155.9a2.3,2.3,0,0,1-1.2,2c-.6.4-1.1.1-1.1-.6a2.4,2.4,0,0,1,1.1-2C74.6,154.9,75.1,155.2,75.1,155.9Z" transform="translate(-0.2 -29.4)"/><path class="cls-52" d="M78.9,153.7a2.5,2.5,0,0,1-1.2,2c-.6.4-1.1.1-1.1-.6a2.4,2.4,0,0,1,1.1-2A.7.7,0,0,1,78.9,153.7Z" transform="translate(-0.2 -29.4)"/><path class="cls-52" d="M82.7,151.5a2.5,2.5,0,0,1-1.2,2c-.6.4-1.1.1-1.1-.6a2.4,2.4,0,0,1,1.1-2A.7.7,0,0,1,82.7,151.5Z" transform="translate(-0.2 -29.4)"/><polygon class="cls-52" points="113.3 105.7 84.2 122.4 84.2 119.8 113.3 103 113.3 105.7"/><path class="cls-52" d="M75.1,162.2a2.5,2.5,0,0,1-1.2,2c-.6.3-1.1,0-1.1-.7a2.7,2.7,0,0,1,1.1-2C74.6,161.1,75.1,161.4,75.1,162.2Z" transform="translate(-0.2 -29.4)"/><path class="cls-52" d="M78.9,160a2.8,2.8,0,0,1-1.2,2c-.6.4-1.1.1-1.1-.7a2.7,2.7,0,0,1,1.1-2A.8.8,0,0,1,78.9,160Z" transform="translate(-0.2 -29.4)"/><path class="cls-52" d="M82.7,157.8a2.8,2.8,0,0,1-1.2,2c-.6.4-1.1.1-1.1-.7a2.7,2.7,0,0,1,1.1-2A.8.8,0,0,1,82.7,157.8Z" transform="translate(-0.2 -29.4)"/><polygon class="cls-52" points="113.3 111.9 84.2 128.7 84.2 126 113.3 109.2 113.3 111.9"/><path class="cls-52" d="M75.1,168.4a2.3,2.3,0,0,1-1.2,2c-.6.4-1.1.1-1.1-.6a2.4,2.4,0,0,1,1.1-2C74.6,167.4,75.1,167.7,75.1,168.4Z" transform="translate(-0.2 -29.4)"/><path class="cls-52" d="M78.9,166.2a2.5,2.5,0,0,1-1.2,2c-.6.4-1.1.1-1.1-.6a2.4,2.4,0,0,1,1.1-2A.7.7,0,0,1,78.9,166.2Z" transform="translate(-0.2 -29.4)"/><path class="cls-52" d="M82.7,164a2.5,2.5,0,0,1-1.2,2c-.6.4-1.1.1-1.1-.6a2.4,2.4,0,0,1,1.1-2A.7.7,0,0,1,82.7,164Z" transform="translate(-0.2 -29.4)"/><polygon class="cls-52" points="113.3 118.2 84.2 134.9 84.2 132.3 113.3 115.5 113.3 118.2"/><path class="cls-52" d="M75.1,174.7a2.5,2.5,0,0,1-1.2,2c-.6.3-1.1,0-1.1-.7a2.7,2.7,0,0,1,1.1-2C74.6,173.6,75.1,173.9,75.1,174.7Z" transform="translate(-0.2 -29.4)"/><path class="cls-52" d="M78.9,172.5a2.8,2.8,0,0,1-1.2,2c-.6.4-1.1.1-1.1-.7a2.7,2.7,0,0,1,1.1-2A.8.8,0,0,1,78.9,172.5Z" transform="translate(-0.2 -29.4)"/><path class="cls-52" d="M82.7,170.3a2.8,2.8,0,0,1-1.2,2c-.6.4-1.1.1-1.1-.7a2.7,2.7,0,0,1,1.1-2A.8.8,0,0,1,82.7,170.3Z" transform="translate(-0.2 -29.4)"/><polygon class="cls-52" points="113.3 124.4 84.2 141.2 84.2 138.5 113.3 121.7 113.3 124.4"/><path class="cls-52" d="M75.1,180.9a2.3,2.3,0,0,1-1.2,2c-.6.4-1.1.1-1.1-.6a2.4,2.4,0,0,1,1.1-2C74.6,179.9,75.1,180.2,75.1,180.9Z" transform="translate(-0.2 -29.4)"/><path class="cls-52" d="M78.9,178.7a2.5,2.5,0,0,1-1.2,2c-.6.4-1.1.1-1.1-.6a2.4,2.4,0,0,1,1.1-2A.7.7,0,0,1,78.9,178.7Z" transform="translate(-0.2 -29.4)"/><path class="cls-52" d="M82.7,176.5a2.5,2.5,0,0,1-1.2,2c-.6.4-1.1.1-1.1-.6a2.4,2.4,0,0,1,1.1-2A.7.7,0,0,1,82.7,176.5Z" transform="translate(-0.2 -29.4)"/><polygon class="cls-52" points="113.3 130.7 84.2 147.4 84.2 144.8 113.3 128 113.3 130.7"/><path class="cls-52" d="M75.1,187.2a2.5,2.5,0,0,1-1.2,2c-.6.3-1.1,0-1.1-.7a2.7,2.7,0,0,1,1.1-2C74.6,186.1,75.1,186.4,75.1,187.2Z" transform="translate(-0.2 -29.4)"/><path class="cls-52" d="M78.9,185a2.8,2.8,0,0,1-1.2,2c-.6.4-1.1.1-1.1-.7a2.7,2.7,0,0,1,1.1-2A.8.8,0,0,1,78.9,185Z" transform="translate(-0.2 -29.4)"/><path class="cls-52" d="M82.7,182.8a2.8,2.8,0,0,1-1.2,2c-.6.4-1.1.1-1.1-.7a2.7,2.7,0,0,1,1.1-2A.8.8,0,0,1,82.7,182.8Z" transform="translate(-0.2 -29.4)"/><polygon class="cls-52" points="113.3 136.9 84.2 153.7 84.2 151 113.3 134.2 113.3 136.9"/><path class="cls-52" d="M75.1,193.4a2.3,2.3,0,0,1-1.2,2c-.6.4-1.1.1-1.1-.6a2.4,2.4,0,0,1,1.1-2C74.6,192.4,75.1,192.7,75.1,193.4Z" transform="translate(-0.2 -29.4)"/><path class="cls-52" d="M78.9,191.2a2.5,2.5,0,0,1-1.2,2c-.6.4-1.1.1-1.1-.6a2.4,2.4,0,0,1,1.1-2A.7.7,0,0,1,78.9,191.2Z" transform="translate(-0.2 -29.4)"/><path class="cls-52" d="M82.7,189a2.5,2.5,0,0,1-1.2,2c-.6.4-1.1.1-1.1-.6a2.6,2.6,0,0,1,1.1-2A.7.7,0,0,1,82.7,189Z" transform="translate(-0.2 -29.4)"/><polygon class="cls-52" points="113.3 143.2 84.2 159.9 84.2 157.3 113.3 140.5 113.3 143.2"/><polygon class="cls-53" points="133.1 131.8 116 141.7 116 70.4 133.1 60.6 133.1 131.8"/><path class="cls-2" d="M229.3,214.9h-.5L103.5,142.4a.7.7,0,0,1-.3-1.1.8.8,0,0,1,1.1-.3l125.4,72.4a.8.8,0,0,1,.3,1.1A.9.9,0,0,1,229.3,214.9Z" transform="translate(-0.2 -29.4)"/><path class="cls-52" d="M228.7,321.9l-90-51.9,90-51.9,90,51.9ZM141,270l87.7,50.6L316.4,270l-87.7-50.6Z" transform="translate(-0.2 -29.4)"/><polygon class="cls-4" points="228.5 279.7 160.1 240.2 228.5 200.6 297 240.2 228.5 279.7"/><polygon class="cls-4" points="228.5 268.3 160.1 228.8 228.5 189.3 297 228.8 228.5 268.3"/><g class="cls-15"><polygon class="cls-54" points="228.5 198.1 175.7 167.6 228.5 137.1 281.4 167.6 228.5 198.1"/><polygon class="cls-55" points="281.4 167.6 281.4 228.8 228.5 259.3 228.5 198.1 281.4 167.6"/><polygon class="cls-56" points="175.7 167.6 175.7 228.8 228.5 259.3 228.5 198.1 175.7 167.6"/></g><polygon class="cls-57" points="228.5 259.3 175.7 228.8 228.5 198.3 281.4 228.8 228.5 259.3"/><polygon class="cls-58" points="297 228.8 297 240.2 228.5 279.7 228.5 268.3 297 228.8"/><polygon class="cls-4" points="160.1 228.8 160.1 240.2 228.5 279.7 228.5 268.3 160.1 228.8"/><polygon class="cls-59" points="160.1 228.8 160.1 240.2 228.5 279.7 228.5 268.3 160.1 228.8"/><polygon class="cls-4" points="228.5 184.6 160.1 145.1 228.5 105.6 297 145.1 228.5 184.6"/><polygon class="cls-4" points="160.1 133.7 160.1 145.1 228.5 184.6 228.5 173.3 160.1 133.7"/><polygon class="cls-22" points="228.5 184.6 228.5 268.3 160.1 228.8 160.1 145.1 228.5 184.6"/><polygon class="cls-22" points="175.7 154.1 175.7 228.8 228.5 259.3 281.4 228.8 281.4 154.1 228.5 184.6 175.7 154.1"/><polygon class="cls-22" points="228.5 184.6 228.5 259.3 175.7 228.8 175.7 154.1 228.5 184.6"/><polygon class="cls-23" points="160.1 145.1 160.1 228.8 228.5 268.3 297 228.8 297 145.1 228.5 184.6 160.1 145.1"/><polygon class="cls-4" points="228.5 173.3 160.1 133.7 228.5 94.2 297 133.7 228.5 173.3"/><polygon class="cls-60" points="228.5 173.3 160.1 133.7 228.5 94.2 297 133.7 228.5 173.3"/><polygon class="cls-61" points="297 133.7 297 145.1 228.5 184.6 228.5 173.3 297 133.7"/><polygon class="cls-62" points="160.1 133.7 160.1 145.1 228.5 184.6 228.5 173.3 160.1 133.7"/><polygon class="cls-63" points="161.7 133.7 229.3 94.7 228.5 94.2 160.1 133.7 228.5 173.3 229.3 172.8 161.7 133.7"/><polygon class="cls-4" points="228.5 169.5 166.3 133.6 228.5 105.3 290.7 133.6 228.5 169.5"/><polygon class="cls-4" points="166.3 130.9 166.3 133.6 228.5 169.5 228.5 166.8 166.3 130.9"/><polygon class="cls-4" points="228.5 166.8 166.3 130.9 228.5 95 290.7 130.9 228.5 166.8"/><polygon class="cls-64" points="228.5 166.8 166.3 130.9 228.5 95 290.7 130.9 228.5 166.8"/><polygon class="cls-65" points="290.7 130.9 290.7 133.6 228.5 169.5 228.5 166.8 290.7 130.9"/><polygon class="cls-66" points="166.3 130.9 166.3 133.6 228.5 169.5 228.5 166.8 166.3 130.9"/><polygon class="cls-67" points="167.8 130.9 229.3 95.4 228.5 95 166.3 130.9 228.5 166.8 229.3 166.4 167.8 130.9"/><polygon class="cls-32" points="186.2 132.3 183.9 130.9 228.5 105.1 230.9 106.5 186.2 132.3"/><polygon class="cls-32" points="190.9 135 188.6 133.6 233.2 107.8 235.6 109.2 190.9 135"/><polygon class="cls-32" points="195.6 137.7 193.3 136.3 237.9 110.6 240.3 111.9 195.6 137.7"/><polygon class="cls-32" points="200.3 140.4 198 139 242.6 113.3 245 114.6 200.3 140.4"/><polygon class="cls-32" points="205 143.1 202.7 141.7 247.3 116 249.7 117.3 205 143.1"/><polygon class="cls-32" points="209.7 145.8 207.4 144.5 252 118.7 254.4 120.1 209.7 145.8"/><polygon class="cls-32" points="214.4 148.5 212.1 147.2 256.7 121.4 259.1 122.8 214.4 148.5"/><polygon class="cls-32" points="219.1 151.2 216.8 149.9 261.4 124.1 263.7 125.5 219.1 151.2"/><polygon class="cls-32" points="223.8 154 221.5 152.6 266.1 126.8 268.4 128.2 223.8 154"/><polygon class="cls-32" points="228.5 156.7 226.2 155.3 270.8 129.5 273.1 130.9 228.5 156.7"/><polygon class="cls-33" points="228.5 105.1 230.9 106.5 228.5 107.8 228.5 105.1"/><polygon class="cls-33" points="233.2 107.8 235.6 109.2 233.2 110.6 233.2 107.8"/><polygon class="cls-33" points="237.9 110.6 240.3 111.9 237.9 113.3 237.9 110.6"/><polygon class="cls-33" points="242.6 113.3 245 114.6 242.6 116 242.6 113.3"/><polygon class="cls-33" points="247.3 116 249.7 117.3 247.3 118.7 247.3 116"/><polygon class="cls-33" points="252 118.7 254.4 120.1 252 121.4 252 118.7"/><polygon class="cls-33" points="256.7 121.4 259.1 122.8 256.7 124.1 256.7 121.4"/><polygon class="cls-33" points="261.4 124.1 263.7 125.5 261.4 126.8 261.4 124.1"/><polygon class="cls-33" points="266.1 126.8 268.4 128.2 266.1 129.5 266.1 126.8"/><polygon class="cls-33" points="270.8 129.5 273.1 130.9 270.8 132.3 270.8 129.5"/><g class="cls-8"><polygon class="cls-34" points="186.2 132.3 183.9 130.9 228.5 105.1 230.9 106.5 186.2 132.3"/><polygon class="cls-34" points="190.9 135 188.6 133.6 233.2 107.8 235.6 109.2 190.9 135"/><polygon class="cls-34" points="195.6 137.7 193.3 136.3 237.9 110.6 240.3 111.9 195.6 137.7"/><polygon class="cls-34" points="200.3 140.4 198 139 242.6 113.3 245 114.6 200.3 140.4"/><polygon class="cls-34" points="205 143.1 202.7 141.7 247.3 116 249.7 117.3 205 143.1"/><polygon class="cls-34" points="209.7 145.8 207.4 144.5 252 118.7 254.4 120.1 209.7 145.8"/><polygon class="cls-34" points="214.4 148.5 212.1 147.2 256.7 121.4 259.1 122.8 214.4 148.5"/><polygon class="cls-34" points="219.1 151.2 216.8 149.9 261.4 124.1 263.7 125.5 219.1 151.2"/><polygon class="cls-34" points="223.8 154 221.5 152.6 266.1 126.8 268.4 128.2 223.8 154"/><polygon class="cls-34" points="228.5 156.7 226.2 155.3 270.8 129.5 273.1 130.9 228.5 156.7"/></g><polygon class="cls-35" points="160.1 145.1 160.1 228.8 161 229.3 161 145.7 160.1 145.1"/><polygon class="cls-35" points="297 145.1 297 228.8 296 229.3 296 145.7 297 145.1"/><polygon class="cls-35" points="228.5 184.6 228.5 184.6 226.9 183.7 226.9 267.4 228.5 268.3 228.5 268.3 228.5 268.3 228.5 268.3 228.5 268.3 230.1 267.4 230.1 183.7 228.5 184.6"/><polygon class="cls-23" points="161 220.6 223.2 181.6 178.9 156 161 165.7 161 220.6"/><polygon class="cls-23" points="175 237.4 226.9 207.9 226.9 229.3 192.5 247.6 175 237.4"/><g class="cls-36"><polygon class="cls-37" points="164.3 155.4 223.3 189.5 223.3 186.8 164.3 152.8 164.3 155.4"/><polygon class="cls-37" points="164.3 161.7 223.3 195.7 223.3 193.1 164.3 159 164.3 161.7"/><polygon class="cls-37" points="164.3 167.9 223.3 202 223.3 199.3 164.3 165.3 164.3 167.9"/><polygon class="cls-37" points="164.3 174.2 223.3 208.2 223.3 205.6 164.3 171.5 164.3 174.2"/><polygon class="cls-37" points="164.3 180.4 223.3 214.5 223.3 211.8 164.3 177.8 164.3 180.4"/><polygon class="cls-37" points="164.3 186.7 223.3 220.7 223.3 218.1 164.3 184 164.3 186.7"/><polygon class="cls-37" points="164.3 192.9 223.3 227 223.3 224.3 164.3 190.3 164.3 192.9"/><polygon class="cls-37" points="164.3 199.2 223.3 233.2 223.3 230.6 164.3 196.5 164.3 199.2"/><polygon class="cls-37" points="164.3 205.4 223.3 239.5 223.3 236.8 164.3 202.8 164.3 205.4"/><polygon class="cls-37" points="164.3 211.7 223.3 245.7 223.3 243.1 164.3 209 164.3 211.7"/><polygon class="cls-37" points="164.3 217.9 223.3 252 223.3 249.3 164.3 215.3 164.3 217.9"/><polygon class="cls-37" points="164.3 224.2 223.3 258.2 223.3 255.6 164.3 221.5 164.3 224.2"/></g><path class="cls-2" d="M269.8,167.3c.7.4.7,1.1,0,1.4a2.5,2.5,0,0,1-2.4,0c-.7-.3-.7-1,0-1.4A2.5,2.5,0,0,1,269.8,167.3Z" transform="translate(-0.2 -29.4)"/><path class="cls-2" d="M273.6,165.1c.7.4.7,1,0,1.4a2.5,2.5,0,0,1-2.4,0c-.7-.4-.7-1,0-1.4A2.5,2.5,0,0,1,273.6,165.1Z" transform="translate(-0.2 -29.4)"/><path class="cls-2" d="M277.5,162.9a.8.8,0,0,1,0,1.4,2.8,2.8,0,0,1-2.5,0c-.7-.4-.7-1,0-1.4A2.8,2.8,0,0,1,277.5,162.9Z" transform="translate(-0.2 -29.4)"/><path class="cls-52" d="M235.1,217.1a2.4,2.4,0,0,1-1.1,2c-.7.4-1.2.1-1.2-.6a2.4,2.4,0,0,1,1.2-2C234.6,216.1,235.1,216.4,235.1,217.1Z" transform="translate(-0.2 -29.4)"/><path class="cls-52" d="M238.9,215a2.7,2.7,0,0,1-1.1,2c-.7.3-1.2,0-1.2-.7a2.5,2.5,0,0,1,1.2-2C238.4,213.9,238.9,214.2,238.9,215Z" transform="translate(-0.2 -29.4)"/><path class="cls-52" d="M242.7,212.8a2.7,2.7,0,0,1-1.1,2c-.7.3-1.2,0-1.2-.7a2.5,2.5,0,0,1,1.2-2C242.2,211.7,242.7,212,242.7,212.8Z" transform="translate(-0.2 -29.4)"/><polygon class="cls-52" points="273.3 166.9 244.3 183.6 244.3 181 273.3 164.2 273.3 166.9"/><path class="cls-52" d="M235.1,223.4a2.7,2.7,0,0,1-1.1,2c-.7.4-1.2.1-1.2-.7a2.5,2.5,0,0,1,1.2-2C234.6,222.4,235.1,222.7,235.1,223.4Z" transform="translate(-0.2 -29.4)"/><path class="cls-52" d="M238.9,221.2a2.7,2.7,0,0,1-1.1,2c-.7.4-1.2.1-1.2-.7a2.5,2.5,0,0,1,1.2-2C238.4,220.2,238.9,220.5,238.9,221.2Z" transform="translate(-0.2 -29.4)"/><path class="cls-52" d="M242.7,219a2.6,2.6,0,0,1-1.1,2c-.7.4-1.2.1-1.2-.7a2.2,2.2,0,0,1,1.2-1.9C242.2,218,242.7,218.3,242.7,219Z" transform="translate(-0.2 -29.4)"/><polygon class="cls-52" points="273.3 173.1 244.3 189.9 244.3 187.2 273.3 170.5 273.3 173.1"/><path class="cls-52" d="M235.1,229.6a2.4,2.4,0,0,1-1.1,2c-.7.4-1.2.1-1.2-.6a2.4,2.4,0,0,1,1.2-2C234.6,228.6,235.1,228.9,235.1,229.6Z" transform="translate(-0.2 -29.4)"/><path class="cls-52" d="M238.9,227.5a2.7,2.7,0,0,1-1.1,2c-.7.3-1.2,0-1.2-.7a2.5,2.5,0,0,1,1.2-2C238.4,226.4,238.9,226.7,238.9,227.5Z" transform="translate(-0.2 -29.4)"/><path class="cls-52" d="M242.7,225.3a2.7,2.7,0,0,1-1.1,2c-.7.3-1.2,0-1.2-.7a2.5,2.5,0,0,1,1.2-2C242.2,224.2,242.7,224.5,242.7,225.3Z" transform="translate(-0.2 -29.4)"/><polygon class="cls-52" points="273.3 179.4 244.3 196.1 244.3 193.5 273.3 176.7 273.3 179.4"/><path class="cls-52" d="M235.1,235.9a2.7,2.7,0,0,1-1.1,2c-.7.4-1.2.1-1.2-.7a2.5,2.5,0,0,1,1.2-2C234.6,234.9,235.1,235.2,235.1,235.9Z" transform="translate(-0.2 -29.4)"/><path class="cls-52" d="M238.9,233.7a2.7,2.7,0,0,1-1.1,2c-.7.4-1.2.1-1.2-.7a2.5,2.5,0,0,1,1.2-2C238.4,232.7,238.9,233,238.9,233.7Z" transform="translate(-0.2 -29.4)"/><path class="cls-52" d="M242.7,231.5a2.6,2.6,0,0,1-1.1,2c-.7.4-1.2.1-1.2-.6a2.3,2.3,0,0,1,1.2-2C242.2,230.5,242.7,230.8,242.7,231.5Z" transform="translate(-0.2 -29.4)"/><polygon class="cls-52" points="273.3 185.6 244.3 202.4 244.3 199.7 273.3 183 273.3 185.6"/><path class="cls-52" d="M235.1,242.2a2.4,2.4,0,0,1-1.1,1.9c-.7.4-1.2.1-1.2-.6a2.4,2.4,0,0,1,1.2-2C234.6,241.1,235.1,241.4,235.1,242.2Z" transform="translate(-0.2 -29.4)"/><path class="cls-52" d="M238.9,240a2.7,2.7,0,0,1-1.1,2c-.7.3-1.2,0-1.2-.7a2.5,2.5,0,0,1,1.2-2C238.4,238.9,238.9,239.2,238.9,240Z" transform="translate(-0.2 -29.4)"/><path class="cls-52" d="M242.7,237.8a2.7,2.7,0,0,1-1.1,2c-.7.3-1.2,0-1.2-.7a2.5,2.5,0,0,1,1.2-2C242.2,236.7,242.7,237,242.7,237.8Z" transform="translate(-0.2 -29.4)"/><polygon class="cls-52" points="273.3 191.9 244.3 208.6 244.3 206 273.3 189.2 273.3 191.9"/><path class="cls-52" d="M235.1,248.4a2.7,2.7,0,0,1-1.1,2c-.7.4-1.2.1-1.2-.7a2.5,2.5,0,0,1,1.2-2C234.6,247.4,235.1,247.7,235.1,248.4Z" transform="translate(-0.2 -29.4)"/><path class="cls-52" d="M238.9,246.2a2.7,2.7,0,0,1-1.1,2c-.7.4-1.2.1-1.2-.7a2.5,2.5,0,0,1,1.2-2C238.4,245.2,238.9,245.5,238.9,246.2Z" transform="translate(-0.2 -29.4)"/><path class="cls-52" d="M242.7,244a2.6,2.6,0,0,1-1.1,2c-.7.4-1.2.1-1.2-.6a2.3,2.3,0,0,1,1.2-2C242.2,243,242.7,243.3,242.7,244Z" transform="translate(-0.2 -29.4)"/><polygon class="cls-52" points="273.3 198.1 244.3 214.9 244.3 212.2 273.3 195.5 273.3 198.1"/><path class="cls-52" d="M235.1,254.7a2.4,2.4,0,0,1-1.1,1.9c-.7.4-1.2.1-1.2-.6a2.4,2.4,0,0,1,1.2-2C234.6,253.6,235.1,253.9,235.1,254.7Z" transform="translate(-0.2 -29.4)"/><path class="cls-52" d="M238.9,252.5a2.7,2.7,0,0,1-1.1,2c-.7.3-1.2,0-1.2-.7a2.5,2.5,0,0,1,1.2-2C238.4,251.4,238.9,251.7,238.9,252.5Z" transform="translate(-0.2 -29.4)"/><path class="cls-52" d="M242.7,250.3a2.7,2.7,0,0,1-1.1,2c-.7.3-1.2,0-1.2-.7a2.5,2.5,0,0,1,1.2-2C242.2,249.2,242.7,249.5,242.7,250.3Z" transform="translate(-0.2 -29.4)"/><polygon class="cls-52" points="273.3 204.4 244.3 221.2 244.3 218.5 273.3 201.7 273.3 204.4"/><path class="cls-52" d="M235.1,260.9a2.7,2.7,0,0,1-1.1,2c-.7.4-1.2.1-1.2-.7a2.5,2.5,0,0,1,1.2-2C234.6,259.9,235.1,260.2,235.1,260.9Z" transform="translate(-0.2 -29.4)"/><path class="cls-52" d="M238.9,258.7a2.7,2.7,0,0,1-1.1,2c-.7.4-1.2.1-1.2-.7a2.5,2.5,0,0,1,1.2-2C238.4,257.7,238.9,258,238.9,258.7Z" transform="translate(-0.2 -29.4)"/><path class="cls-52" d="M242.7,256.5a2.6,2.6,0,0,1-1.1,2c-.7.4-1.2.1-1.2-.6a2.3,2.3,0,0,1,1.2-2C242.2,255.5,242.7,255.8,242.7,256.5Z" transform="translate(-0.2 -29.4)"/><polygon class="cls-52" points="273.3 210.6 244.3 227.4 244.3 224.7 273.3 208 273.3 210.6"/><path class="cls-52" d="M235.1,267.2a2.4,2.4,0,0,1-1.1,1.9c-.7.4-1.2.1-1.2-.6a2.4,2.4,0,0,1,1.2-2C234.6,266.1,235.1,266.4,235.1,267.2Z" transform="translate(-0.2 -29.4)"/><path class="cls-52" d="M238.9,265a2.7,2.7,0,0,1-1.1,2c-.7.3-1.2,0-1.2-.7a2.5,2.5,0,0,1,1.2-2C238.4,263.9,238.9,264.2,238.9,265Z" transform="translate(-0.2 -29.4)"/><path class="cls-52" d="M242.7,262.8a2.7,2.7,0,0,1-1.1,2c-.7.3-1.2,0-1.2-.7a2.5,2.5,0,0,1,1.2-2C242.2,261.7,242.7,262,242.7,262.8Z" transform="translate(-0.2 -29.4)"/><polygon class="cls-52" points="273.3 216.9 244.3 233.7 244.3 231 273.3 214.2 273.3 216.9"/><path class="cls-52" d="M235.1,273.4a2.7,2.7,0,0,1-1.1,2c-.7.4-1.2.1-1.2-.7a2.5,2.5,0,0,1,1.2-2C234.6,272.4,235.1,272.7,235.1,273.4Z" transform="translate(-0.2 -29.4)"/><path class="cls-52" d="M238.9,271.2a2.7,2.7,0,0,1-1.1,2c-.7.4-1.2.1-1.2-.7a2.5,2.5,0,0,1,1.2-2C238.4,270.2,238.9,270.5,238.9,271.2Z" transform="translate(-0.2 -29.4)"/><path class="cls-52" d="M242.7,269a2.4,2.4,0,0,1-1.1,2c-.7.4-1.2.1-1.2-.6a2.3,2.3,0,0,1,1.2-2C242.2,268,242.7,268.3,242.7,269Z" transform="translate(-0.2 -29.4)"/><polygon class="cls-52" points="273.3 223.1 244.3 239.9 244.3 237.2 273.3 220.5 273.3 223.1"/><path class="cls-52" d="M235.1,279.7a2.4,2.4,0,0,1-1.1,1.9c-.7.4-1.2.1-1.2-.6a2.4,2.4,0,0,1,1.2-2C234.6,278.6,235.1,278.9,235.1,279.7Z" transform="translate(-0.2 -29.4)"/><path class="cls-52" d="M238.9,277.5a2.7,2.7,0,0,1-1.1,2c-.7.3-1.2,0-1.2-.7a2.5,2.5,0,0,1,1.2-2C238.4,276.4,238.9,276.7,238.9,277.5Z" transform="translate(-0.2 -29.4)"/><path class="cls-52" d="M242.7,275.3a2.7,2.7,0,0,1-1.1,2c-.7.3-1.2,0-1.2-.7a2.5,2.5,0,0,1,1.2-2C242.2,274.2,242.7,274.5,242.7,275.3Z" transform="translate(-0.2 -29.4)"/><polygon class="cls-52" points="273.3 229.4 244.3 246.2 244.3 243.5 273.3 226.7 273.3 229.4"/><path class="cls-52" d="M235.1,285.9a2.7,2.7,0,0,1-1.1,2c-.7.4-1.2.1-1.2-.7a2.5,2.5,0,0,1,1.2-2C234.6,284.9,235.1,285.2,235.1,285.9Z" transform="translate(-0.2 -29.4)"/><path class="cls-52" d="M238.9,283.7a2.7,2.7,0,0,1-1.1,2c-.7.4-1.2.1-1.2-.7a2.5,2.5,0,0,1,1.2-2C238.4,282.7,238.9,283,238.9,283.7Z" transform="translate(-0.2 -29.4)"/><path class="cls-52" d="M242.7,281.5a2.4,2.4,0,0,1-1.1,2c-.7.4-1.2.1-1.2-.6a2.3,2.3,0,0,1,1.2-2C242.2,280.5,242.7,280.8,242.7,281.5Z" transform="translate(-0.2 -29.4)"/><polygon class="cls-52" points="273.3 235.6 244.3 252.4 244.3 249.7 273.3 233 273.3 235.6"/><polygon class="cls-53" points="293.1 224.3 276.1 234.2 276.1 162.9 293.1 153 293.1 224.3"/><path class="cls-68" d="M274.5,40.4V163.6h0c0,.3.2.5.5.7a2.8,2.8,0,0,0,2.5,0c.3-.2.5-.4.5-.7V40.4Z" transform="translate(-0.2 -29.4)"/><path class="cls-52" d="M397.9,122.9a2.3,2.3,0,0,1-1.2,2c-.6.4-1.1.1-1.1-.6a2.4,2.4,0,0,1,1.1-2C397.4,121.9,397.9,122.2,397.9,122.9Z" transform="translate(-0.2 -29.4)"/><path class="cls-52" d="M401.7,120.7a2.3,2.3,0,0,1-1.2,2c-.6.4-1.1.1-1.1-.6a2.4,2.4,0,0,1,1.1-2C401.2,119.7,401.7,120,401.7,120.7Z" transform="translate(-0.2 -29.4)"/><path class="cls-52" d="M405.5,118.5a2.3,2.3,0,0,1-1.2,2c-.6.4-1.1.1-1.1-.6a2.6,2.6,0,0,1,1.1-2C405,117.5,405.5,117.8,405.5,118.5Z" transform="translate(-0.2 -29.4)"/><polygon class="cls-52" points="436.1 72.7 407 89.4 407 86.8 436.1 70 436.1 72.7"/><path class="cls-52" d="M397.9,129.2a2.5,2.5,0,0,1-1.2,2c-.6.3-1.1,0-1.1-.7a2.7,2.7,0,0,1,1.1-2C397.4,128.1,397.9,128.4,397.9,129.2Z" transform="translate(-0.2 -29.4)"/><path class="cls-52" d="M401.7,127a2.5,2.5,0,0,1-1.2,2c-.6.4-1.1.1-1.1-.7a2.7,2.7,0,0,1,1.1-2C401.2,126,401.7,126.3,401.7,127Z" transform="translate(-0.2 -29.4)"/><path class="cls-52" d="M405.5,124.8a2.5,2.5,0,0,1-1.2,2c-.6.4-1.1.1-1.1-.7a2.7,2.7,0,0,1,1.1-2C405,123.8,405.5,124.1,405.5,124.8Z" transform="translate(-0.2 -29.4)"/><polygon class="cls-52" points="436.1 78.9 407 95.7 407 93 436.1 76.2 436.1 78.9"/><path class="cls-52" d="M397.9,135.4a2.3,2.3,0,0,1-1.2,2c-.6.4-1.1.1-1.1-.6a2.4,2.4,0,0,1,1.1-2C397.4,134.4,397.9,134.7,397.9,135.4Z" transform="translate(-0.2 -29.4)"/><path class="cls-52" d="M401.7,133.2a2.3,2.3,0,0,1-1.2,2c-.6.4-1.1.1-1.1-.6a2.4,2.4,0,0,1,1.1-2C401.2,132.2,401.7,132.5,401.7,133.2Z" transform="translate(-0.2 -29.4)"/><path class="cls-52" d="M405.5,131.1a2.2,2.2,0,0,1-1.2,1.9c-.6.4-1.1.1-1.1-.6a2.6,2.6,0,0,1,1.1-2C405,130,405.5,130.3,405.5,131.1Z" transform="translate(-0.2 -29.4)"/><polygon class="cls-52" points="436.1 85.2 407 101.9 407 99.3 436.1 82.5 436.1 85.2"/><path class="cls-52" d="M397.9,141.7a2.5,2.5,0,0,1-1.2,2c-.6.3-1.1,0-1.1-.7a2.7,2.7,0,0,1,1.1-2C397.4,140.6,397.9,140.9,397.9,141.7Z" transform="translate(-0.2 -29.4)"/><path class="cls-52" d="M401.7,139.5a2.5,2.5,0,0,1-1.2,2c-.6.4-1.1.1-1.1-.7a2.7,2.7,0,0,1,1.1-2C401.2,138.5,401.7,138.8,401.7,139.5Z" transform="translate(-0.2 -29.4)"/><path class="cls-52" d="M405.5,137.3a2.5,2.5,0,0,1-1.2,2c-.6.4-1.1.1-1.1-.7a2.7,2.7,0,0,1,1.1-2C405,136.3,405.5,136.6,405.5,137.3Z" transform="translate(-0.2 -29.4)"/><polygon class="cls-52" points="436.1 91.4 407 108.2 407 105.5 436.1 88.7 436.1 91.4"/><path class="cls-52" d="M397.9,147.9a2.3,2.3,0,0,1-1.2,2c-.6.4-1.1.1-1.1-.6a2.4,2.4,0,0,1,1.1-2C397.4,146.9,397.9,147.2,397.9,147.9Z" transform="translate(-0.2 -29.4)"/><path class="cls-52" d="M401.7,145.7a2.3,2.3,0,0,1-1.2,2c-.6.4-1.1.1-1.1-.6a2.4,2.4,0,0,1,1.1-2C401.2,144.7,401.7,145,401.7,145.7Z" transform="translate(-0.2 -29.4)"/><path class="cls-52" d="M405.5,143.6a2.2,2.2,0,0,1-1.2,1.9c-.6.4-1.1.1-1.1-.6a2.6,2.6,0,0,1,1.1-2C405,142.5,405.5,142.8,405.5,143.6Z" transform="translate(-0.2 -29.4)"/><polygon class="cls-52" points="436.1 97.7 407 114.4 407 111.8 436.1 95 436.1 97.7"/><path class="cls-52" d="M397.9,154.2a2.5,2.5,0,0,1-1.2,2c-.6.3-1.1,0-1.1-.7a2.7,2.7,0,0,1,1.1-2C397.4,153.1,397.9,153.4,397.9,154.2Z" transform="translate(-0.2 -29.4)"/><path class="cls-52" d="M401.7,152a2.5,2.5,0,0,1-1.2,2c-.6.4-1.1.1-1.1-.7a2.7,2.7,0,0,1,1.1-2C401.2,151,401.7,151.3,401.7,152Z" transform="translate(-0.2 -29.4)"/><path class="cls-52" d="M405.5,149.8a2.5,2.5,0,0,1-1.2,2c-.6.4-1.1.1-1.1-.7a2.7,2.7,0,0,1,1.1-2C405,148.8,405.5,149.1,405.5,149.8Z" transform="translate(-0.2 -29.4)"/><polygon class="cls-52" points="436.1 103.9 407 120.7 407 118 436.1 101.2 436.1 103.9"/><path class="cls-52" d="M397.9,160.4a2.3,2.3,0,0,1-1.2,2c-.6.4-1.1.1-1.1-.6a2.4,2.4,0,0,1,1.1-2C397.4,159.4,397.9,159.7,397.9,160.4Z" transform="translate(-0.2 -29.4)"/><path class="cls-52" d="M401.7,158.2a2.3,2.3,0,0,1-1.2,2c-.6.4-1.1.1-1.1-.6a2.4,2.4,0,0,1,1.1-2C401.2,157.2,401.7,157.5,401.7,158.2Z" transform="translate(-0.2 -29.4)"/><path class="cls-52" d="M405.5,156.1a2.2,2.2,0,0,1-1.2,1.9c-.6.4-1.1.1-1.1-.6a2.6,2.6,0,0,1,1.1-2C405,155,405.5,155.3,405.5,156.1Z" transform="translate(-0.2 -29.4)"/><polygon class="cls-52" points="436.1 110.2 407 126.9 407 124.3 436.1 107.5 436.1 110.2"/><path class="cls-52" d="M397.9,166.7a2.5,2.5,0,0,1-1.2,2c-.6.3-1.1.1-1.1-.7a2.7,2.7,0,0,1,1.1-2C397.4,165.7,397.9,165.9,397.9,166.7Z" transform="translate(-0.2 -29.4)"/><path class="cls-52" d="M401.7,164.5a2.5,2.5,0,0,1-1.2,2c-.6.4-1.1.1-1.1-.7a2.7,2.7,0,0,1,1.1-2C401.2,163.5,401.7,163.8,401.7,164.5Z" transform="translate(-0.2 -29.4)"/><path class="cls-52" d="M405.5,162.3a2.5,2.5,0,0,1-1.2,2c-.6.4-1.1.1-1.1-.7a2.7,2.7,0,0,1,1.1-2C405,161.3,405.5,161.6,405.5,162.3Z" transform="translate(-0.2 -29.4)"/><polygon class="cls-52" points="436.1 116.4 407 133.2 407 130.5 436.1 113.7 436.1 116.4"/><path class="cls-52" d="M397.9,172.9a2.3,2.3,0,0,1-1.2,2c-.6.4-1.1.1-1.1-.6a2.4,2.4,0,0,1,1.1-2C397.4,171.9,397.9,172.2,397.9,172.9Z" transform="translate(-0.2 -29.4)"/><path class="cls-52" d="M401.7,170.7a2.3,2.3,0,0,1-1.2,2c-.6.4-1.1.1-1.1-.6a2.4,2.4,0,0,1,1.1-2C401.2,169.7,401.7,170,401.7,170.7Z" transform="translate(-0.2 -29.4)"/><path class="cls-52" d="M405.5,168.6a2.5,2.5,0,0,1-1.2,2c-.6.3-1.1,0-1.1-.7a2.6,2.6,0,0,1,1.1-2C405,167.5,405.5,167.8,405.5,168.6Z" transform="translate(-0.2 -29.4)"/><polygon class="cls-52" points="436.1 122.7 407 139.4 407 136.8 436.1 120 436.1 122.7"/><path class="cls-52" d="M397.9,179.2a2.5,2.5,0,0,1-1.2,2c-.6.3-1.1.1-1.1-.7a2.7,2.7,0,0,1,1.1-2C397.4,178.2,397.9,178.4,397.9,179.2Z" transform="translate(-0.2 -29.4)"/><path class="cls-52" d="M401.7,177a2.5,2.5,0,0,1-1.2,2c-.6.4-1.1.1-1.1-.7a2.7,2.7,0,0,1,1.1-2C401.2,176,401.7,176.3,401.7,177Z" transform="translate(-0.2 -29.4)"/><path class="cls-52" d="M405.5,174.8a2.5,2.5,0,0,1-1.2,2c-.6.4-1.1.1-1.1-.7a2.7,2.7,0,0,1,1.1-2C405,173.8,405.5,174.1,405.5,174.8Z" transform="translate(-0.2 -29.4)"/><polygon class="cls-52" points="436.1 128.9 407 145.7 407 143 436.1 126.2 436.1 128.9"/><path class="cls-52" d="M397.9,185.4a2.3,2.3,0,0,1-1.2,2c-.6.4-1.1.1-1.1-.6a2.4,2.4,0,0,1,1.1-2C397.4,184.4,397.9,184.7,397.9,185.4Z" transform="translate(-0.2 -29.4)"/><path class="cls-52" d="M401.7,183.2a2.3,2.3,0,0,1-1.2,2c-.6.4-1.1.1-1.1-.6a2.4,2.4,0,0,1,1.1-2C401.2,182.2,401.7,182.5,401.7,183.2Z" transform="translate(-0.2 -29.4)"/><path class="cls-52" d="M405.5,181.1a2.5,2.5,0,0,1-1.2,2c-.6.3-1.1,0-1.1-.7a2.6,2.6,0,0,1,1.1-2C405,180,405.5,180.3,405.5,181.1Z" transform="translate(-0.2 -29.4)"/><polygon class="cls-52" points="436.1 135.2 407 151.9 407 149.3 436.1 132.5 436.1 135.2"/><path class="cls-52" d="M397.9,191.7a2.5,2.5,0,0,1-1.2,2c-.6.4-1.1.1-1.1-.7a2.7,2.7,0,0,1,1.1-2C397.4,190.7,397.9,191,397.9,191.7Z" transform="translate(-0.2 -29.4)"/><path class="cls-52" d="M401.7,189.5a2.5,2.5,0,0,1-1.2,2c-.6.4-1.1.1-1.1-.7a2.7,2.7,0,0,1,1.1-2C401.2,188.5,401.7,188.8,401.7,189.5Z" transform="translate(-0.2 -29.4)"/><path class="cls-52" d="M405.5,187.3a2.5,2.5,0,0,1-1.2,2c-.6.4-1.1.1-1.1-.7a2.7,2.7,0,0,1,1.1-2C405,186.3,405.5,186.6,405.5,187.3Z" transform="translate(-0.2 -29.4)"/><polygon class="cls-52" points="436.1 141.4 407 158.2 407 155.5 436.1 138.7 436.1 141.4"/><polygon class="cls-53" points="455.9 130.1 438.8 139.9 438.8 68.7 455.9 58.8 455.9 130.1"/><polygon class="cls-23" points="68.9 299.7 33.9 279.5 81.4 252.1 116.4 272.3 68.9 299.7"/><polygon class="cls-52" points="88.1 262.5 80.1 257.9 81.7 257 89.7 261.6 88.1 262.5"/><polygon class="cls-52" points="94.3 266 90.6 263.9 92.1 263 95.8 265.1 94.3 266"/><polygon class="cls-52" points="106.4 273 96.7 267.4 98.2 266.6 107.9 272.1 106.4 273"/><polygon class="cls-52" points="84.7 264.5 76.7 259.9 78.2 259 86.2 263.6 84.7 264.5"/><polygon class="cls-52" points="90.8 268 87.1 265.9 88.7 265 92.4 267.1 90.8 268"/><polygon class="cls-52" points="102.9 275 93.3 269.4 94.8 268.5 104.5 274.1 102.9 275"/><polygon class="cls-52" points="81.2 266.5 73.3 261.8 74.8 261 82.8 265.6 81.2 266.5"/><polygon class="cls-52" points="87.4 270 83.7 267.9 85.2 267 88.9 269.1 87.4 270"/><polygon class="cls-52" points="99.5 277 89.8 271.4 91.4 270.5 101 276.1 99.5 277"/><polygon class="cls-52" points="77.8 268.4 69.8 263.8 71.4 262.9 79.4 267.5 77.8 268.4"/><polygon class="cls-52" points="83.9 272 80.3 269.9 81.8 269 85.5 271.1 83.9 272"/><polygon class="cls-52" points="96.1 279 86.4 273.4 87.9 272.5 97.6 278.1 96.1 279"/><polygon class="cls-52" points="74.4 270.4 66.4 265.8 67.9 264.9 75.9 269.5 74.4 270.4"/><polygon class="cls-52" points="80.5 274 76.8 271.8 78.4 270.9 82.1 273.1 80.5 274"/><polygon class="cls-52" points="92.6 281 83 275.4 84.5 274.5 94.2 280.1 92.6 281"/><polygon class="cls-52" points="70.9 272.4 63 267.8 64.5 266.9 72.5 271.5 70.9 272.4"/><polygon class="cls-52" points="77.1 275.9 73.4 273.8 74.9 272.9 78.6 275.1 77.1 275.9"/><polygon class="cls-52" points="89.2 282.9 79.5 277.4 81.1 276.5 90.7 282 89.2 282.9"/><polygon class="cls-52" points="67.5 274.4 59.5 269.8 61.1 268.9 69.1 273.5 67.5 274.4"/><polygon class="cls-52" points="73.6 277.9 70 275.8 71.5 274.9 75.2 277 73.6 277.9"/><polygon class="cls-52" points="85.8 284.9 76.1 279.3 77.6 278.5 87.3 284 85.8 284.9"/><polygon class="cls-52" points="64.1 276.4 56.1 271.8 57.6 270.9 65.6 275.5 64.1 276.4"/><polygon class="cls-52" points="70.2 279.9 66.5 277.8 68.1 276.9 71.8 279 70.2 279.9"/><polygon class="cls-52" points="82.3 286.9 72.7 281.3 74.2 280.4 83.9 286 82.3 286.9"/><polygon class="cls-52" points="60.6 278.4 52.7 273.7 54.2 272.9 62.2 277.5 60.6 278.4"/><polygon class="cls-52" points="66.8 281.9 63.1 279.8 64.6 278.9 68.3 281 66.8 281.9"/><polygon class="cls-52" points="78.9 288.9 69.2 283.3 70.8 282.4 80.4 288 78.9 288.9"/><polygon class="cls-52" points="57.2 280.3 49.2 275.7 50.8 274.8 58.8 279.4 57.2 280.3"/><polygon class="cls-52" points="63.3 283.9 59.7 281.7 61.2 280.9 64.9 283 63.3 283.9"/><polygon class="cls-52" points="75.4 290.9 65.8 285.3 67.3 284.4 77 290 75.4 290.9"/><polygon class="cls-52" points="53.8 282.3 45.8 277.7 47.3 276.8 55.3 281.4 53.8 282.3"/><polygon class="cls-52" points="59.9 285.9 56.2 283.7 57.8 282.8 61.5 285 59.9 285.9"/><polygon class="cls-52" points="72 292.9 62.4 287.3 63.9 286.4 73.6 292 72 292.9"/><polygon class="cls-52" points="50.3 284.3 42.4 279.7 43.9 278.8 51.9 283.4 50.3 284.3"/><polygon class="cls-52" points="56.5 287.8 52.8 285.7 54.3 284.8 58 287 56.5 287.8"/><polygon class="cls-52" points="68.6 294.8 58.9 289.3 60.5 288.4 70.1 293.9 68.6 294.8"/><polygon class="cls-23" points="117.3 327.7 82.2 307.4 129.7 280 164.8 300.3 117.3 327.7"/><polygon class="cls-52" points="136.5 290.4 128.5 285.8 130.1 284.9 138 289.5 136.5 290.4"/><polygon class="cls-52" points="142.6 294 138.9 291.8 140.5 291 144.2 293.1 142.6 294"/><polygon class="cls-52" points="154.7 301 145.1 295.4 146.6 294.5 156.3 300.1 154.7 301"/><polygon class="cls-52" points="133.1 292.4 125.1 287.8 126.6 286.9 134.6 291.5 133.1 292.4"/><polygon class="cls-52" points="139.2 296 135.5 293.8 137.1 292.9 140.8 295.1 139.2 296"/><polygon class="cls-52" points="151.3 302.9 141.7 297.4 143.2 296.5 152.9 302.1 151.3 302.9"/><polygon class="cls-52" points="129.6 294.4 121.7 289.8 123.2 288.9 131.2 293.5 129.6 294.4"/><polygon class="cls-52" points="135.8 297.9 132.1 295.8 133.6 294.9 137.3 297 135.8 297.9"/><polygon class="cls-52" points="147.9 304.9 138.2 299.4 139.8 298.5 149.4 304 147.9 304.9"/><polygon class="cls-52" points="126.2 296.4 118.2 291.8 119.8 290.9 127.7 295.5 126.2 296.4"/><polygon class="cls-52" points="132.3 299.9 128.6 297.8 130.2 296.9 133.9 299 132.3 299.9"/><polygon class="cls-52" points="144.4 306.9 134.8 301.3 136.3 300.4 146 306 144.4 306.9"/><polygon class="cls-52" points="122.8 298.4 114.8 293.8 116.3 292.9 124.3 297.5 122.8 298.4"/><polygon class="cls-52" points="128.9 301.9 125.2 299.8 126.8 298.9 130.5 301 128.9 301.9"/><polygon class="cls-52" points="141 308.9 131.4 303.3 132.9 302.4 142.6 308 141 308.9"/><polygon class="cls-52" points="119.3 300.3 111.3 295.7 112.9 294.8 120.9 299.5 119.3 300.3"/><polygon class="cls-52" points="125.5 303.9 121.8 301.8 123.3 300.9 127 303 125.5 303.9"/><polygon class="cls-52" points="137.6 310.9 127.9 305.3 129.5 304.4 139.1 310 137.6 310.9"/><polygon class="cls-52" points="115.9 302.3 107.9 297.7 109.5 296.8 117.4 301.4 115.9 302.3"/><polygon class="cls-52" points="122 305.9 118.3 303.7 119.9 302.8 123.6 305 122 305.9"/><polygon class="cls-52" points="134.1 312.9 124.5 307.3 126 306.4 135.7 312 134.1 312.9"/><polygon class="cls-52" points="112.5 304.3 104.5 299.7 106 298.8 114 303.4 112.5 304.3"/><polygon class="cls-52" points="118.6 307.9 114.9 305.7 116.5 304.8 120.1 307 118.6 307.9"/><polygon class="cls-52" points="130.7 314.8 121 309.3 122.6 308.4 132.3 314 130.7 314.8"/><polygon class="cls-52" points="109 306.3 101 301.7 102.6 300.8 110.6 305.4 109 306.3"/><polygon class="cls-52" points="115.2 309.8 111.5 307.7 113 306.8 116.7 308.9 115.2 309.8"/><polygon class="cls-52" points="127.3 316.8 117.6 311.3 119.2 310.4 128.8 315.9 127.3 316.8"/><polygon class="cls-52" points="105.6 308.3 97.6 303.7 99.2 302.8 107.1 307.4 105.6 308.3"/><polygon class="cls-52" points="111.7 311.8 108 309.7 109.6 308.8 113.3 310.9 111.7 311.8"/><polygon class="cls-52" points="123.8 318.8 114.2 313.2 115.7 312.3 125.4 317.9 123.8 318.8"/><polygon class="cls-52" points="102.2 310.3 94.2 305.6 95.7 304.8 103.7 309.4 102.2 310.3"/><polygon class="cls-52" points="108.3 313.8 104.6 311.7 106.2 310.8 109.8 312.9 108.3 313.8"/><polygon class="cls-52" points="120.4 320.8 110.7 315.2 112.3 314.3 122 319.9 120.4 320.8"/><polygon class="cls-52" points="98.7 312.2 90.7 307.6 92.3 306.7 100.3 311.3 98.7 312.2"/><polygon class="cls-52" points="104.9 315.8 101.2 313.7 102.7 312.8 106.4 314.9 104.9 315.8"/><polygon class="cls-52" points="117 322.8 107.3 317.2 108.9 316.3 118.5 321.9 117 322.8"/><polygon class="cls-23" points="165.7 355.6 130.6 335.4 178.1 308 213.2 328.2 165.7 355.6"/><polygon class="cls-52" points="184.9 318.4 176.9 313.8 178.5 312.9 186.4 317.5 184.9 318.4"/><polygon class="cls-52" points="191 321.9 187.3 319.8 188.9 318.9 192.6 321 191 321.9"/><polygon class="cls-52" points="203.1 328.9 193.5 323.3 195 322.4 204.7 328 203.1 328.9"/><polygon class="cls-52" points="181.5 320.4 173.5 315.7 175 314.9 183 319.5 181.5 320.4"/><polygon class="cls-52" points="187.6 323.9 183.9 321.8 185.5 320.9 189.1 323 187.6 323.9"/><polygon class="cls-52" points="199.7 330.9 190 325.3 191.6 324.4 201.3 330 199.7 330.9"/><polygon class="cls-52" points="178 322.3 170 317.7 171.6 316.8 179.6 321.4 178 322.3"/><polygon class="cls-52" points="184.2 325.9 180.5 323.7 182 322.9 185.7 325 184.2 325.9"/><polygon class="cls-52" points="196.3 332.9 186.6 327.3 188.2 326.4 197.8 332 196.3 332.9"/><polygon class="cls-52" points="174.6 324.3 166.6 319.7 168.2 318.8 176.1 323.4 174.6 324.3"/><polygon class="cls-52" points="180.7 327.9 177 325.7 178.6 324.8 182.3 327 180.7 327.9"/><polygon class="cls-52" points="192.8 334.9 183.2 329.3 184.7 328.4 194.4 334 192.8 334.9"/><polygon class="cls-52" points="171.2 326.3 163.2 321.7 164.7 320.8 172.7 325.4 171.2 326.3"/><polygon class="cls-52" points="177.3 329.8 173.6 327.7 175.2 326.8 178.8 329 177.3 329.8"/><polygon class="cls-52" points="189.4 336.8 179.7 331.3 181.3 330.4 190.9 335.9 189.4 336.8"/><polygon class="cls-52" points="167.7 328.3 159.7 323.7 161.3 322.8 169.3 327.4 167.7 328.3"/><polygon class="cls-52" points="173.9 331.8 170.2 329.7 171.7 328.8 175.4 330.9 173.9 331.8"/><polygon class="cls-52" points="186 338.8 176.3 333.2 177.9 332.3 187.5 337.9 186 338.8"/><polygon class="cls-52" points="164.3 330.3 156.3 325.7 157.9 324.8 165.8 329.4 164.3 330.3"/><polygon class="cls-52" points="170.4 333.8 166.7 331.7 168.3 330.8 172 332.9 170.4 333.8"/><polygon class="cls-52" points="182.5 340.8 172.9 335.2 174.4 334.3 184.1 339.9 182.5 340.8"/><polygon class="cls-52" points="160.9 332.2 152.9 327.6 154.4 326.7 162.4 331.4 160.9 332.2"/><polygon class="cls-52" points="167 335.8 163.3 333.7 164.8 332.8 168.5 334.9 167 335.8"/><polygon class="cls-52" points="179.1 342.8 169.4 337.2 171 336.3 180.6 341.9 179.1 342.8"/><polygon class="cls-52" points="157.4 334.2 149.4 329.6 151 328.7 159 333.3 157.4 334.2"/><polygon class="cls-52" points="163.6 337.8 159.9 335.6 161.4 334.8 165.1 336.9 163.6 337.8"/><polygon class="cls-52" points="175.7 344.8 166 339.2 167.6 338.3 177.2 343.9 175.7 344.8"/><polygon class="cls-52" points="154 336.2 146 331.6 147.5 330.7 155.5 335.3 154 336.2"/><polygon class="cls-52" points="160.1 339.8 156.4 337.6 158 336.7 161.7 338.9 160.1 339.8"/><polygon class="cls-52" points="172.2 346.7 162.6 341.2 164.1 340.3 173.8 345.9 172.2 346.7"/><polygon class="cls-52" points="150.6 338.2 142.6 333.6 144.1 332.7 152.1 337.3 150.6 338.2"/><polygon class="cls-52" points="156.7 341.7 153 339.6 154.5 338.7 158.2 340.8 156.7 341.7"/><polygon class="cls-52" points="168.8 348.7 159.1 343.2 160.7 342.3 170.3 347.8 168.8 348.7"/><polygon class="cls-52" points="147.1 340.2 139.1 335.6 140.7 334.7 148.7 339.3 147.1 340.2"/><polygon class="cls-52" points="153.3 343.7 149.6 341.6 151.1 340.7 154.8 342.8 153.3 343.7"/><polygon class="cls-52" points="165.4 350.7 155.7 345.1 157.3 344.2 166.9 349.8 165.4 350.7"/><polygon class="cls-23" points="147.5 290.6 147 289.7 186.2 267.1 186.7 268 147.5 290.6"/><polygon class="cls-23" points="195.9 318.5 195.4 317.6 216.7 305.4 120.1 249.6 98.3 262.1 97.8 261.3 120.1 248.4 120.3 248.6 218.7 305.4 195.9 318.5"/><path class="cls-52" d="M242.3,386.7h-.2l-20.7-11.9a.5.5,0,0,1-.2-.8.4.4,0,0,1,.7-.2l20.7,11.9a.5.5,0,0,1,.2.8A.5.5,0,0,1,242.3,386.7Z" transform="translate(-0.2 -29.4)"/><path class="cls-52" d="M330.7,335.4h-.3l-20.7-11.9a.6.6,0,0,1-.2-.8.5.5,0,0,1,.8-.2L331,334.3a.8.8,0,0,1,.2.8A.5.5,0,0,1,330.7,335.4Z" transform="translate(-0.2 -29.4)"/><path class="cls-52" d="M417.7,285.1h-.3l-20.7-11.9a.6.6,0,1,1,.6-1l20.7,12a.4.4,0,0,1,.2.7A.5.5,0,0,1,417.7,285.1Z" transform="translate(-0.2 -29.4)"/><path class="cls-2" d="M352.5,419.2a11,11,0,0,1-5.6-1.3h0L307.3,395a4.3,4.3,0,0,1-2.5-3.6c0-1.7,1.2-3.4,3.3-4.6l38-21.9c3.8-2.2,9.3-2.4,12.6-.5l39.7,22.9a4.4,4.4,0,0,1,2.4,3.6c0,1.7-1.2,3.4-3.3,4.6l-38,21.9A14,14,0,0,1,352.5,419.2Zm-4.7-2.7c2.7,1.6,7.7,1.4,10.9-.5l38-21.9c1.5-.9,2.4-2.1,2.4-3.2a2.7,2.7,0,0,0-1.6-2.2l-39.7-22.9c-2.7-1.6-7.6-1.4-10.9.5l-38,21.9c-1.5.9-2.4,2.1-2.4,3.2s.9,1.7,1.6,2.2Z" transform="translate(-0.2 -29.4)"/><path class="cls-4" d="M411.3,359.8v-9.2H387.6l-28-16.2c-3.8-2.2-10.3-1.9-14.6.6l-27,15.6H294.3v9.7h0c-.1,1.5.7,2.9,2.5,3.9L346,392.6c3.8,2.2,10.3,1.9,14.6-.6l47.2-27.2C410.3,363.4,411.5,361.5,411.3,359.8Z" transform="translate(-0.2 -29.4)"/><path class="cls-69" d="M411.3,359.8v-9.2H387.6l-28-16.2c-3.8-2.2-10.3-1.9-14.6.6l-27,15.6H294.3v9.7h0c-.1,1.5.7,2.9,2.5,3.9L346,392.6c3.8,2.2,10.3,1.9,14.6-.6l47.2-27.2C410.3,363.4,411.5,361.5,411.3,359.8Z" transform="translate(-0.2 -29.4)"/><path class="cls-70" d="M359.6,334.4a13.4,13.4,0,0,0-6.8-1.4v61.1a17.1,17.1,0,0,0,7.8-2.1l47.2-27.2c2.5-1.4,3.7-3.3,3.5-5v-9.2H387.6Z" transform="translate(-0.2 -29.4)"/><path class="cls-4" d="M346,382.9l-49.2-28.4c-3.7-2.2-3.3-5.9,1-8.4L345,318.9c4.3-2.5,10.8-2.8,14.6-.6l49.2,28.4c3.8,2.1,3.3,5.9-1,8.4l-47.2,27.2C356.3,384.8,349.8,385.1,346,382.9Z" transform="translate(-0.2 -29.4)"/><path class="cls-71" d="M346,382.9l-49.2-28.4c-3.7-2.2-3.3-5.9,1-8.4L345,318.9c4.3-2.5,10.8-2.8,14.6-.6l49.2,28.4c3.8,2.1,3.3,5.9-1,8.4l-47.2,27.2C356.3,384.8,349.8,385.1,346,382.9Z" transform="translate(-0.2 -29.4)"/><path class="cls-72" d="M347.4,376.6l-39.7-22.9c-3-1.7-2.7-4.7.8-6.7l38-22c3.5-2,8.8-2.2,11.8-.5l39.6,22.9c3.1,1.8,2.7,4.8-.8,6.8l-38,22C355.6,378.2,350.4,378.4,347.4,376.6Z" transform="translate(-0.2 -29.4)"/><path class="cls-32" d="M308.5,349.9l38-21.9c3.5-2,8.8-2.2,11.8-.5l39.6,22.9a5.1,5.1,0,0,1,1.7,1.5c.8-1.6.3-3.3-1.7-4.5l-39.6-22.9c-3-1.7-8.3-1.5-11.8.5l-38,22c-2.6,1.5-3.5,3.6-2.4,5.2A5.9,5.9,0,0,1,308.5,349.9Z" transform="translate(-0.2 -29.4)"/><path class="cls-73" d="M347.7,382.9l-49.2-28.4c-3.8-2.2-4.7-5.3,1-8.4l47.1-27.2a15.8,15.8,0,0,1,7.4-2.1,17.3,17.3,0,0,0-9,2.1l-47.2,27.2c-4.3,2.5-4.7,6.2-1,8.4L346,382.9a13.9,13.9,0,0,0,7.2,1.5A12.1,12.1,0,0,1,347.7,382.9Z" transform="translate(-0.2 -29.4)"/><path class="cls-74" d="M407.8,359.2l-47.2,27.2c-4.3,2.5-10.8,2.8-14.6.6l-49.2-28.4c-1.8-1-2.6-2.4-2.5-3.9h0v2h0c-.1,1.5.7,2.9,2.5,3.9L346,389c3.8,2.2,10.3,1.9,14.6-.6l47.2-27.2c2.5-1.4,3.7-3.3,3.5-5v-2C411.5,355.9,410.3,357.8,407.8,359.2Z" transform="translate(-0.2 -29.4)"/><path class="cls-2" d="M441.1,368a10.9,10.9,0,0,1-5.5-1.3h0l-39.7-22.9a4.2,4.2,0,0,1-2.4-3.6c0-1.7,1.2-3.4,3.3-4.6l37.9-21.9c3.8-2.2,9.3-2.4,12.6-.5L487,336.1a4.3,4.3,0,0,1,2.5,3.7c0,1.7-1.2,3.3-3.3,4.5l-38,22A15.5,15.5,0,0,1,441.1,368Zm-4.7-2.7c2.8,1.6,7.7,1.4,11-.5l37.9-21.9c1.6-.9,2.5-2.1,2.5-3.1a3,3,0,0,0-1.6-2.3l-39.7-22.9c-2.8-1.6-7.7-1.3-10.9.5l-38,22c-1.6.9-2.5,2-2.5,3.1a2.8,2.8,0,0,0,1.7,2.2Z" transform="translate(-0.2 -29.4)"/><path class="cls-4" d="M500,308.6v-9.2H476.3l-28.1-16.2c-3.7-2.1-10.2-1.9-14.6.6l-26.9,15.6H382.9v9.7h0c-.1,1.5.8,2.9,2.6,3.9l49.2,28.5c3.7,2.1,10.3,1.9,14.6-.6l47.1-27.3C498.9,312.2,500.1,310.3,500,308.6Z" transform="translate(-0.2 -29.4)"/><path class="cls-75" d="M500,308.6v-9.2H476.3l-28.1-16.2c-3.7-2.1-10.2-1.9-14.6.6l-26.9,15.6H382.9v9.7h0c-.1,1.5.8,2.9,2.6,3.9l49.2,28.5c3.7,2.1,10.3,1.9,14.6-.6l47.1-27.3C498.9,312.2,500.1,310.3,500,308.6Z" transform="translate(-0.2 -29.4)"/><path class="cls-76" d="M448.2,283.2a13,13,0,0,0-6.7-1.4v61.1a17.4,17.4,0,0,0,7.8-2l47.1-27.3c2.5-1.4,3.7-3.3,3.6-5v-9.2H476.3Z" transform="translate(-0.2 -29.4)"/><path class="cls-4" d="M434.7,331.8l-49.2-28.5c-3.8-2.1-3.3-5.9,1-8.4l47.1-27.2c4.4-2.5,10.9-2.8,14.6-.6l49.3,28.4c3.7,2.2,3.2,5.9-1.1,8.4l-47.1,27.2C445,333.6,438.4,333.9,434.7,331.8Z" transform="translate(-0.2 -29.4)"/><path class="cls-77" d="M434.7,331.8l-49.2-28.5c-3.8-2.1-3.3-5.9,1-8.4l47.1-27.2c4.4-2.5,10.9-2.8,14.6-.6l49.3,28.4c3.7,2.2,3.2,5.9-1.1,8.4l-47.1,27.2C445,333.6,438.4,333.9,434.7,331.8Z" transform="translate(-0.2 -29.4)"/><path class="cls-72" d="M436,325.5l-39.7-22.9c-3-1.8-2.6-4.8.9-6.8l38-22c3.4-2,8.7-2.2,11.7-.4l39.7,22.9c3,1.7,2.6,4.7-.9,6.8L447.8,325C444.3,327,439,327.2,436,325.5Z" transform="translate(-0.2 -29.4)"/><path class="cls-32" d="M397.2,298.7l38-21.9c3.4-2,8.7-2.2,11.7-.5l39.7,22.9a5.9,5.9,0,0,1,1.6,1.5c.9-1.6.4-3.3-1.6-4.4l-39.7-22.9c-3-1.8-8.3-1.6-11.7.4l-38,22c-2.6,1.5-3.5,3.6-2.5,5.3A6.4,6.4,0,0,1,397.2,298.7Z" transform="translate(-0.2 -29.4)"/><path class="cls-78" d="M436.3,331.8l-49.2-28.5c-3.7-2.1-4.6-5.3,1.1-8.4l47.1-27.2a18.2,18.2,0,0,1,7.4-2.1,17.7,17.7,0,0,0-9.1,2.1l-47.1,27.2c-4.3,2.5-4.8,6.3-1,8.4l49.2,28.5a14.7,14.7,0,0,0,7.2,1.4A14,14,0,0,1,436.3,331.8Z" transform="translate(-0.2 -29.4)"/><path class="cls-79" d="M496.4,308l-47.1,27.3c-4.3,2.4-10.9,2.7-14.6.6l-49.2-28.5c-1.8-1-2.7-2.4-2.6-3.9h0v2h0c-.1,1.5.8,2.9,2.6,3.9l49.2,28.5c3.7,2.1,10.3,1.9,14.6-.6L496.4,310c2.5-1.4,3.7-3.3,3.6-5v-2C500.1,304.7,498.9,306.6,496.4,308Z" transform="translate(-0.2 -29.4)"/><path class="cls-2" d="M263.8,470.4a10.9,10.9,0,0,1-5.5-1.3l-39.7-22.9a4.2,4.2,0,0,1-2.4-3.7c0-1.7,1.2-3.3,3.3-4.5l37.9-22c3.8-2.1,9.3-2.4,12.6-.5l39.7,23a4.3,4.3,0,0,1,2.5,3.6c0,1.7-1.3,3.4-3.3,4.6l-38,21.9A14.4,14.4,0,0,1,263.8,470.4Zm.7-54.5a13,13,0,0,0-6.2,1.6l-38,21.9c-1.6.9-2.5,2-2.5,3.1a3,3,0,0,0,1.6,2.3l39.7,22.9h0c2.8,1.6,7.7,1.3,10.9-.5l38-22c1.6-.9,2.5-2,2.5-3.1a2.9,2.9,0,0,0-1.6-2.2L269.2,417A9.9,9.9,0,0,0,264.5,415.9Z" transform="translate(-0.2 -29.4)"/><path class="cls-4" d="M322.7,411v-9.2H299l-28.1-16.2c-3.7-2.2-10.2-1.9-14.6.6l-27,15.6H205.6v9.7h0a4.2,4.2,0,0,0,2.5,3.9l49.3,28.4c3.7,2.2,10.3,1.9,14.6-.6L319.1,416C321.6,414.6,322.8,412.7,322.7,411Z" transform="translate(-0.2 -29.4)"/><path class="cls-80" d="M322.7,411v-9.2H299l-28.1-16.2c-3.7-2.2-10.2-1.9-14.6.6l-27,15.6H205.6v9.7h0a4.2,4.2,0,0,0,2.5,3.9l49.3,28.4c3.7,2.2,10.3,1.9,14.6-.6L319.1,416C321.6,414.6,322.8,412.7,322.7,411Z" transform="translate(-0.2 -29.4)"/><path class="cls-81" d="M270.9,385.6a13,13,0,0,0-6.7-1.5v61.2a17.5,17.5,0,0,0,7.8-2.1L319.1,416c2.5-1.4,3.7-3.3,3.6-5v-9.2H299Z" transform="translate(-0.2 -29.4)"/><path class="cls-4" d="M257.4,434.1l-49.3-28.4c-3.7-2.2-3.2-6,1.1-8.4L256.3,370c4.4-2.5,10.9-2.7,14.6-.6l49.3,28.5c3.7,2.1,3.2,5.9-1.1,8.4L272,433.5C267.7,436,261.1,436.3,257.4,434.1Z" transform="translate(-0.2 -29.4)"/><path class="cls-82" d="M257.4,434.1l-49.3-28.4c-3.7-2.2-3.2-6,1.1-8.4L256.3,370c4.4-2.5,10.9-2.7,14.6-.6l49.3,28.5c3.7,2.1,3.2,5.9-1.1,8.4L272,433.5C267.7,436,261.1,436.3,257.4,434.1Z" transform="translate(-0.2 -29.4)"/><path class="cls-72" d="M258.7,427.8,219,404.9c-3-1.7-2.6-4.8.9-6.8l38-21.9c3.4-2,8.7-2.2,11.7-.5l39.7,22.9c3,1.8,2.6,4.8-.9,6.8l-37.9,21.9C267,429.3,261.7,429.6,258.7,427.8Z" transform="translate(-0.2 -29.4)"/><path class="cls-32" d="M219.9,401.1l38-21.9c3.4-2,8.7-2.3,11.7-.5l39.7,22.9a3.9,3.9,0,0,1,1.6,1.5c.9-1.6.4-3.3-1.6-4.5l-39.7-22.9c-3-1.7-8.3-1.5-11.7.5l-38,21.9c-2.6,1.5-3.5,3.6-2.5,5.3A7.1,7.1,0,0,1,219.9,401.1Z" transform="translate(-0.2 -29.4)"/><path class="cls-83" d="M259,434.1l-49.2-28.4c-3.7-2.2-4.6-5.4,1-8.4L258,370a16.6,16.6,0,0,1,7.4-2,17.6,17.6,0,0,0-9.1,2l-47.1,27.3c-4.3,2.4-4.8,6.2-1.1,8.4l49.3,28.4a12.8,12.8,0,0,0,7.2,1.4A12.2,12.2,0,0,1,259,434.1Z" transform="translate(-0.2 -29.4)"/><path class="cls-84" d="M319.1,410.4,272,437.6c-4.3,2.5-10.9,2.8-14.6.6l-49.3-28.4c-1.8-1.1-2.6-2.5-2.5-3.9h0v2h0a4.2,4.2,0,0,0,2.5,3.9l49.3,28.4c3.7,2.2,10.3,1.9,14.6-.6l47.1-27.2c2.5-1.4,3.7-3.3,3.6-5v-2C322.8,407.1,321.6,409,319.1,410.4Z" transform="translate(-0.2 -29.4)"/><path class="cls-2" d="M310.6,407.7a.6.6,0,0,1,0,1.1,2.3,2.3,0,0,1-2,0,.6.6,0,0,1,0-1.1A2.3,2.3,0,0,1,310.6,407.7Z" transform="translate(-0.2 -29.4)"/><path class="cls-2" d="M313.6,406a.6.6,0,0,1,0,1.1,2.1,2.1,0,0,1-1.9,0c-.6-.3-.6-.8,0-1.1A2.1,2.1,0,0,1,313.6,406Z" transform="translate(-0.2 -29.4)"/><path class="cls-2" d="M316.6,404.2c.6.3.6.8,0,1.1a2.1,2.1,0,0,1-1.9,0c-.6-.3-.6-.8,0-1.1A2.1,2.1,0,0,1,316.6,404.2Z" transform="translate(-0.2 -29.4)"/><path class="cls-2" d="M399.7,356.3a.6.6,0,0,1,0,1.1,2.3,2.3,0,0,1-2,0,.6.6,0,0,1,0-1.1A2.3,2.3,0,0,1,399.7,356.3Z" transform="translate(-0.2 -29.4)"/><path class="cls-2" d="M402.7,354.5c.6.3.6.8,0,1.2a2.1,2.1,0,0,1-1.9,0c-.6-.4-.6-.9,0-1.2A2.1,2.1,0,0,1,402.7,354.5Z" transform="translate(-0.2 -29.4)"/><path class="cls-2" d="M405.8,352.8a.6.6,0,0,1,0,1.1,2.3,2.3,0,0,1-2,0,.6.6,0,0,1,0-1.1A2.3,2.3,0,0,1,405.8,352.8Z" transform="translate(-0.2 -29.4)"/><path class="cls-85" d="M397.2,251c1.6.9,1.6,2.4,0,3.3a6.1,6.1,0,0,1-5.6,0c-1.6-.9-1.6-2.4,0-3.3A6.1,6.1,0,0,1,397.2,251Z" transform="translate(-0.2 -29.4)"/><path class="cls-86" d="M406,246c1.5.9,1.5,2.3,0,3.2a6.1,6.1,0,0,1-5.6,0c-1.6-.9-1.6-2.3,0-3.2A6.1,6.1,0,0,1,406,246Z" transform="translate(-0.2 -29.4)"/><path class="cls-2" d="M414.7,240.9c1.6.9,1.6,2.3,0,3.2a6.1,6.1,0,0,1-5.6,0c-1.5-.9-1.5-2.3,0-3.2A6.1,6.1,0,0,1,414.7,240.9Z" transform="translate(-0.2 -29.4)"/><path class="cls-2" d="M488.3,305c.5.4.5.9,0,1.2a2.3,2.3,0,0,1-2,0c-.5-.3-.5-.8,0-1.2A2.3,2.3,0,0,1,488.3,305Z" transform="translate(-0.2 -29.4)"/><ellipse class="cls-2" cx="490.2" cy="274.4" rx="1.4" ry="0.8"/><path class="cls-2" d="M494.3,301.5c.6.4.6.9,0,1.2a2.1,2.1,0,0,1-1.9,0c-.5-.3-.5-.8,0-1.2A2.1,2.1,0,0,1,494.3,301.5Z" transform="translate(-0.2 -29.4)"/></g></g></svg>