<svg id="Layer_1" data-name="Layer 1" xmlns="http://www.w3.org/2000/svg" viewBox="0 0 494.2 492.1"><defs><style>.cls-1{fill:#292929;}.cls-2{fill:#191919;}.cls-3{fill:#303030;}.cls-4{fill:#3d3d3d;}.cls-5{fill:#3a3a3a;}.cls-6{fill:#333;}.cls-7{fill:#444;}.cls-8{fill:#4f4f4f;}.cls-9{fill:#565656;}.cls-10{fill:#424242;}.cls-11{fill:#5c5c5c;}</style></defs><title>logo</title><path class="cls-1" d="M5.6,71.4l11.6,129h0c19.1-34.8,38.9-68.4,47.7-122.3C53.6,55.3,36.5,75.3,5.6,71.4Z" transform="translate(-5.6 -4)"/><path class="cls-1" d="M17.3,200.6h0l53,150.9c8.1-7.7,8.7-25.2-1.1-56.3C63.7,250.3,45.1,220.3,17.3,200.6Z" transform="translate(-5.6 -4)"/><path class="cls-2" d="M70.3,351.6l92.9,115c3.6-18.9-10.1-43.1-39.5-72C106.6,371.1,88.7,357.3,70.3,351.6Z" transform="translate(-5.6 -4)"/><path class="cls-1" d="M123.7,394.6l39.5,72,86.4,29.3C223.9,456.1,179.4,423.2,123.7,394.6Z" transform="translate(-5.6 -4)"/><path class="cls-3" d="M69.2,295.2l1.1,56.3h0l53.4,43Q131.7,333.1,69.2,295.2Z" transform="translate(-5.6 -4)"/><path class="cls-3" d="M17.3,200.6h0l51.9,94.6c17.1-60.6,11.3-135.7-4.3-217L17.2,200.5h.1Z" transform="translate(-5.6 -4)"/><path class="cls-4" d="M64.8,78H65c42.8,31.3,75,76,98.3,136.7-19.5,41.8-58.5,64.2-94.1,80.5H69Z" transform="translate(-5.6 -4)"/><path class="cls-4" d="M64.9,78.2c47.1,34.4,77.3,81.9,98.3,136.7-18.6,39.7-54.3,62-94,80.3l-4.3-217m-.3-.5v.5l4.3,217v.4l.4-.2c23.4-10.7,40.8-20.9,55-32.1,17.7-14,30.5-29.8,39.2-48.3h0C140.1,154,107.9,109.3,65,78l-.4-.3Z" transform="translate(-5.6 -4)"/><path class="cls-5" d="M69.2,295.2l54.5,99.4c24.4-58.3,40.7-117.7,39.5-179.7Z" transform="translate(-5.6 -4)"/><path class="cls-1" d="M78.3,4,5.6,71.4c37,1.2,65.1-34.4,90.8-50.3C97.6,11.9,90.8,6.5,78.3,4Z" transform="translate(-5.6 -4)"/><path class="cls-3" d="M96.4,21.1,5.6,71.4l59.3,6.8C88.3,62,101,43.4,96.4,21.1Z" transform="translate(-5.6 -4)"/><path class="cls-4" d="M96.4,21.1,64.9,78.2c23.6,11.2,47.2,13.9,70.6,6.3C129.1,58.3,118,35.7,96.4,21.1Z" transform="translate(-5.6 -4)"/><path class="cls-1" d="M249.7,4H78.3c14.6,6.8,32.2,12.6,81.7,7.6C192.4,14,221.5,9.9,249.7,4Z" transform="translate(-5.6 -4)"/><path class="cls-3" d="M160,11.6,78.3,4,96.4,21.1Q135.4,21.1,160,11.6Z" transform="translate(-5.6 -4)"/><path class="cls-1" d="M499.8,71.5,482.6,200.4h0c-34.3-38-56.9-77.7-47.7-122.3C428.2,52.2,451,71.7,499.8,71.5Z" transform="translate(-5.6 -4)"/><path class="cls-1" d="M482.5,200.6h0l-53,151c-7.2-8.8-12.9-19.6,1.1-56.4C433.6,253.2,449.9,221,482.5,200.6Z" transform="translate(-5.6 -4)"/><path class="cls-2" d="M429.5,351.6l-93,115c-9.7-7.4-5.1-25.3,39.6-72C396.7,364.4,414.2,351.7,429.5,351.6Z" transform="translate(-5.6 -4)"/><path class="cls-1" d="M376.1,394.6l-39.6,72-86.3,29.3C271.1,445.9,304.8,405.7,376.1,394.6Z" transform="translate(-5.6 -4)"/><path class="cls-3" d="M482.5,200.6h0l-51.9,94.6c-15.9-76.1-15.4-148.6,4.3-217l47.7,122.3Z" transform="translate(-5.6 -4)"/><path class="cls-6" d="M250,367.1c-29.3,26.6-41.4,59.9-36.8,99.5L249.9,496l36.7-29.4C296.7,425,285.6,391.4,250,367.1Z" transform="translate(-5.6 -4)"/><path class="cls-3" d="M430.6,295.2l-1.1,56.4h0l-53.4,43C377.5,352,397.7,320,430.6,295.2Z" transform="translate(-5.6 -4)"/><path class="cls-4" d="M249.7,367.5v-.4c-50.4-9.1-93.7-2.8-126,27.5l89.5,71.9Z" transform="translate(-5.6 -4)"/><path class="cls-4" d="M430.5,295.3c-37.3-21.1-74.5-45.4-94.1-80.3h0c14.5-39.4,44.8-81.5,98.4-136.8l.2-.2-4.3,217.5Z" transform="translate(-5.6 -4)"/><path class="cls-4" d="M434.9,78.2l-4.3,217c-39.5-22.3-75.2-46.6-94.1-80.3,16.7-45.3,54-91,98.4-136.7m.2-.6-.4.5c-53.6,55.2-84,97.4-98.4,136.7h0c8.8,15.7,21.6,30.2,39.4,44.5,14.2,11.5,31.1,22.5,54.8,35.9l.3.2v-.4l4.2-217v-.6Z" transform="translate(-5.6 -4)"/><path class="cls-5" d="M430.6,295.2l-54.5,99.4c-37.4-48.6-47-110.2-39.6-179.7Z" transform="translate(-5.6 -4)"/><path class="cls-4" d="M250,367.5v-.4c45.8-9.2,88-.9,126.1,27.5l-89.6,72Z" transform="translate(-5.6 -4)"/><path class="cls-7" d="M250,366.7c-2.6-58.5,32.2-107.6,86.5-151.8l39.6,179.7L250,367.1Z" transform="translate(-5.6 -4)"/><path class="cls-7" d="M249.7,366.7c-2.4-61.3-36.2-109.9-86.5-151.8L123.7,394.6l126-27.5Z" transform="translate(-5.6 -4)"/><path class="cls-1" d="M421.4,4l78.4,67.5c-38.2,5.8-72.8-27.3-96.5-50.4C400.7,14.6,403.3,8.7,421.4,4Z" transform="translate(-5.6 -4)"/><path class="cls-3" d="M403.3,21.1l96.5,50.4-64.9,6.7C415.1,63.7,405.2,43.7,403.3,21.1Z" transform="translate(-5.6 -4)"/><path class="cls-4" d="M403.3,21.1l31.6,57.1c-24,10.6-47.7,14.6-70.7,6.3C370.8,60.9,381.8,38.9,403.3,21.1Z" transform="translate(-5.6 -4)"/><path class="cls-1" d="M250,4H421.4c-24.5,8.3-51.5,11.4-81.6,7.6C295.9,15.4,271.3,10.5,250,4Z" transform="translate(-5.6 -4)"/><path class="cls-8" d="M364.2,84.5l70.7-6.3L336.5,214.9C339.2,162.3,345.1,114.3,364.2,84.5Z" transform="translate(-5.6 -4)"/><path class="cls-3" d="M339.8,11.6,421.4,4,403.3,21.1A208,208,0,0,1,339.8,11.6Z" transform="translate(-5.6 -4)"/><path class="cls-9" d="M364.2,84.5,336.5,214.9c-40.4-10-77.8-21.3-86.5-43.2C266,135.3,309.5,108,364.2,84.5Z" transform="translate(-5.6 -4)"/><path class="cls-3" d="M160,11.6,250,4l89.8,7.6c-16.4,9.2-49.4,9.3-90.1,5.4C194.6,22.9,178,17,160,11.6Z" transform="translate(-5.6 -4)"/><path class="cls-4" d="M96.4,21.1,160,11.6,249.7,17C230.1,32.4,203.1,43.7,160,46.2,135.3,49.7,115.7,35.9,96.4,21.1Z" transform="translate(-5.6 -4)"/><path class="cls-4" d="M249.7,17l90.1-5.4,63.5,9.5c-10.2,19.3-33.6,25.5-63.5,25.1C296.7,42.4,264.4,33.7,249.7,17Z" transform="translate(-5.6 -4)"/><path class="cls-10" d="M160,46.2c33.3,7.9,69.8,19.4,90,13.3,21,5.7,56.5-5,89.8-13.3L249.7,17Z" transform="translate(-5.6 -4)"/><path class="cls-10" d="M364.2,84.5c-16.1-7.4-26.9-18.3-24.4-38.3l63.5-25.1L364.2,84.5Z" transform="translate(-5.6 -4)"/><path class="cls-10" d="M135.5,84.5c21-7.3,27.5-20.7,24.5-38.3L96.4,21.1l39.1,63.4Z" transform="translate(-5.6 -4)"/><path class="cls-8" d="M135.5,84.5,64.9,78.2l98.3,136.7C160.7,163.8,158.9,111.9,135.5,84.5Z" transform="translate(-5.6 -4)"/><path class="cls-8" d="M160,46.2l90,13.3,89.8-13.3Q335,71.9,250,88.4C210.8,79.5,182.6,64.4,160,46.2Z" transform="translate(-5.6 -4)"/><path class="cls-9" d="M250,88.5h0l89.8-42.2,24.4,38.3h0C317.7,95.9,274.8,103,250,88.5Z" transform="translate(-5.6 -4)"/><path class="cls-9" d="M249.7,88.5h0L160,46.2,135.5,84.5h0A249.4,249.4,0,0,0,249.7,88.5Z" transform="translate(-5.6 -4)"/><path class="cls-9" d="M135.5,84.5l27.7,130.4c38.8-12.3,75.6-25,86.5-43.2C220.7,136.8,182.2,108.1,135.5,84.5Z" transform="translate(-5.6 -4)"/><polygon class="cls-11" points="130 80.5 244.5 84.4 358.6 80.5 244.5 167.7 130 80.5"/><polygon class="cls-8" points="244.5 167.7 157.6 210.9 244.5 363.1 331 210.9 244.5 167.7"/></svg>