<?xml version="1.0" standalone="no"?>
<!DOCTYPE svg PUBLIC "-//W3C//DTD SVG 20010904//EN"
 "http://www.w3.org/TR/2001/REC-SVG-20010904/DTD/svg10.dtd">
<svg version="1.0" xmlns="http://www.w3.org/2000/svg"
 width="501.000000pt" height="501.000000pt" viewBox="0 0 501.000000 501.000000"
 preserveAspectRatio="xMidYMid meet">
<metadata>
Created by potrace 1.14, written by Peter Selinger 2001-2017
</metadata>
<g transform="translate(0.000000,501.000000) scale(0.100000,-0.100000)"
fill="#000000" stroke="none">
<path d="M825 5003 c-70 -15 -122 -60 -441 -378 -250 -249 -336 -342 -355
-380 -23 -49 -24 -56 -23 -270 1 -267 20 -705 38 -890 2 -22 7 -76 11 -120 3
-44 8 -98 11 -120 3 -22 7 -58 9 -80 6 -60 15 -136 20 -172 5 -32 11 -74 20
-138 2 -16 9 -54 15 -84 5 -30 8 -56 5 -59 -2 -3 0 -12 4 -21 8 -14 14 -45 26
-129 5 -35 58 -251 94 -384 26 -96 87 -283 106 -323 7 -16 26 -61 41 -100 33
-82 135 -286 184 -365 144 -234 315 -426 515 -578 92 -70 291 -184 395 -226
25 -10 56 -23 70 -29 14 -6 27 -11 30 -12 16 -4 159 -48 180 -56 14 -5 36 -11
50 -13 25 -5 95 -20 139 -30 14 -3 47 -8 75 -12 28 -3 62 -7 76 -9 173 -26
655 -26 780 0 13 2 42 8 65 11 82 13 87 14 153 29 12 3 32 7 43 10 138 30 357
112 494 185 75 40 214 127 225 140 3 3 16 14 30 23 74 51 233 206 320 312 71
88 186 258 235 350 21 39 42 74 46 80 5 5 9 17 9 27 0 10 5 18 10 18 6 0 10 8
10 18 0 10 4 22 9 28 10 10 87 189 81 189 -1 0 8 25 20 55 22 55 73 213 71
217 0 2 6 20 14 40 12 32 38 127 50 183 35 160 58 270 61 290 3 14 7 39 11 55
3 17 7 39 9 50 1 11 12 81 23 155 11 74 23 160 27 190 3 30 7 66 9 80 2 14 6
57 9 95 4 39 8 84 11 100 7 54 19 228 30 430 3 61 8 148 10 195 3 47 7 200 10
340 5 252 4 256 -19 314 -22 52 -58 92 -358 390 -249 249 -346 338 -383 357
l-50 24 -1670 1 c-919 1 -1679 0 -1690 -3z"/>
</g>
</svg>
